<svg id="Layer_1" data-name="Layer 1" xmlns="http://www.w3.org/2000/svg" xmlns:xlink="http://www.w3.org/1999/xlink" viewBox="0 0 2400 934"><defs><radialGradient id="radial-gradient" cx="912.07" cy="665.15" r="4.19" gradientTransform="matrix(522.75, 0, 0, -337.24, -476219.99, 224513.33)" gradientUnits="userSpaceOnUse"><stop offset="0" stop-color="#f9e405"/><stop offset="0.13" stop-color="#f5c514"/><stop offset="0.33" stop-color="#f09c28"/><stop offset="0.49" stop-color="#ed8234"/><stop offset="0.58" stop-color="#ec7839"/><stop offset="0.84" stop-color="#eb7138"/><stop offset="1" stop-color="#ea6937"/></radialGradient><clipPath id="clip-path"><path d="M1295.46,31.69c-20.19,4.39-38.17,16.67-58.07,20.14-4,.7-7.76.19-11.54-.32s-7.77-1-11.85-.26c-13.75,2.65-25.09,13.47-38.64,16.58-7.94,1.84-15.8.67-23.61-.49-6-.88-11.88-1.77-17.79-1.33-11.25.84-8.42,1-17.64,7.58-41.24,29.37-78,54.82-112.83,92.25-14.38,15.44-39.44,40.73-63.86,36.18-15.47-2.88-25.16-10-38.52-17-9-4.75-19.57-4.67-28.41-9.69-15,15.55-28.79,32.27-46.22,46-7.85,6.16-13.48,16.68-20.18,22-14,11-33.52,9.68-51.42,8.36-6.09-.45-12-.9-17.38-.87-8.17,0-34.65,2.45-39.94-3.5-.21-.47-1.58-.47-2.68-.47s-3.93-.6-6.34-.6c0,.6-3.93,1.21-3.93,1.81h-2.41l-.91.61c0,1.2-1.51,0-1.51,1.2-1.21,0-2.41.6-3.62.6l-1.51,1.52h-2.41c0,.6-2.41.6-3.92.6,0,.61-5.14.61-6.34.61,0,.61-1.21.61-2.41.61,0,.6-3.93.6-5.14.6l-1.51-.6-1.21-1.22H649.3c0-.6-1.2-.6-2.71-.6,0-.61-2.41-.61-3.62-.61,0-.91-2.72-.91-3.92-.91-12.85,0-26.59,10.11-39.08,7.9-9.42-1.68-19.4-12.89-28.37-17-11.13-5.08-23.43-8-35.43-10.14-18.56-3.37-32.3-2.22-48.51-13.62-12.33-8.68-19.59-15.25-35.13-18.29-12.67-2.49-19-2.45-29.67-9.93-4.89-3.42-11.59-13-17.11-14.38-24.12-6.2-38.8,39.34-55.83,50.5C335,235.19,320,249.69,303.43,255.88c-18.7,7-48.45,17.12-68.21,17.12-1.21-.91-2.41-1.5-2.41-2.11-1.21,0-2.72-.61-3.92-.61,0-1.2-1.22,0-1.22-1.2-1.2,0-2.71-.61-3.92-.61,0-.6-3.92-2.72-3.92-2.72v-1.2l-1.22-.61-1.2-.6c-1.21,0-3.92-.6-3.92-1.21h-2.41l-1.22,1.21h-3.92c0,.6-1.21,1.82-2.72,1.82v1.2l-1.2.91-2.41.6c0,.6-1.51,1.21-2.72,1.21,0,1.2-1.2,0-1.2,1.2-1.21,0-2.41.61-2.41,1.21-1.51,0-2.72.6-3.93.6,0-.6-1.21-.6-2.71-.6-1.22-.6-3.63-1.21-3.63-1.82h-2.72c0-.6-2.41-1.81-3.92-2.41,0-.91-1.21-1.51-2.41-2.11a2.7,2.7,0,0,0-2.41-1.82v-1.21c-1.51-.91-2.71-1.5-2.71-2.11h-5.14a42.72,42.72,0,0,0-8.75-.6c-2.72-.61-7.85-.61-11.77-.61-1.2.61-2.41,1.21-2.41,1.82-1.21,0-3.92,1.5-3.92,2.11-2.42,0,0,.6-2.42.6,0,1.21-3.92,1.82-3.92,3-1.21,0-5.14,2.11-5.14,2.11-1.2,0-2.41-.6-3.92-.6h-3.62l-3.93,1.21c-1.21,0-5.13.6-6.34.6s-2.72.61-5.13.61c0,.61-1.21.61-2.72.61,0-1.22-1.21,0-1.21-1.22H93.37c0-.6-2.42-.6-3.63-.6-1.51,0-7.85-.61-7.85-1.21-1.21,0-2.41.6-5.14.6-1.2,0-3.62.61-6.33.61-2.41-.61-10.26-3.32-12.68-3.32,0-.6-1.21-1.2-2.72-1.81a8.59,8.59,0,0,1-3.62-1.2H44.78L43.57,264l-2.42.61-1.2.6c-16.11,8-27.68,17.64-46.46,1.68Q-8,265.58-9.3,264.26V934H2405.22V301.3l-11.11.08-3.63,1.21h-2.71l-3.63,1.2h-2.72s-10.26,2.72-10.26,3.32h-2.41c0,.6-2.72,1.2-3.92,1.2a8.56,8.56,0,0,1-3.92,1.21c0,1.51-1.21,0-1.21,1.51-1.2,0-3.92,1.2-3.92,1.81l-2.41.61v1.2c-1.2,0-3.92,1.51-3.92,2.11a163.11,163.11,0,0,1-7.55,2.41h-2.72c0,.61-2.41.61-3.62.61l-2.72,1.2h-2.41l-2.71.91c-1.21.61-3.63,2.42-5.13,3l-1.21,2.71c-1.21.6-3.93,1.82-3.93,3l-2.41.61-1.2,2.11s-2.72.6-2.72,1.2h-10.26c0-.6-2.41-1.81-3.63-2.72l-1.2-1.2c0-.6-1.51-1.81-2.72-2.41,0-1.2-2.41-3.92-2.41-5.13l-1.5-1.21L2287,321l-1.2-1.2c-1.51,0-3.93-1.22-5.13-1.81h-2.72l-2.41-.61-2.72-1.2h-3.62l-3.92-1.51h-7.55c-34.31-7.63-70.43-17.41-105.57-21.61-25.86-3.09-32.61-30.81-59.63-34-7.59-.89-14.86-.16-22.08.58-9.5,1-18.93,1.94-28.93-.79-8.82-2.4-17.36-8.7-26.39-9.89-15.55-2.06-24.43,9.43-37.92,11.44-11.92,1.78-21.94-6.15-34.47-6.91-2.28-.13-4,.87-5.72,1.87-2.31,1.37-4.56,2.73-8,1.22-5.08-2.23-7.44-13.15-10.63-17.51-19.16-26.17-42.37-49.43-66.17-71.35-8.8,3.75-26.07-11-37.91-12.34-6.62-.74-13.26.43-19.92,1.59-9.21,1.61-18.48,3.22-27.82-.2-11.44-4.18-13.07-14.77-23.86-18.93-3.61-1.39-7.76-1.17-12-.95s-8.35.44-12.16-.88c-6.27-2.17-14.07-9.65-19.81-13.08-12.94-7.75-24.18-6.71-38.25-9.76-13.32-2.89-27.76-3.74-39.54-11.06-10.69-6.64-16-14.92-28.72-19.8-17.22-6.59-32.75-5.06-48.9-3.52a204,204,0,0,1-24.4,1.29c-18.59-.43-47.73-4.75-65.27-11.16-21-7.67-39.41-17.13-61.35-22.6-17.8-4.43-35.61-4.7-53.39-8.27-12.29-2.47-22.36-7.33-34.26-7.33a43,43,0,0,0-9.21,1" fill="none"/></clipPath><linearGradient id="linear-gradient" x1="911.98" y1="664.52" x2="916.17" y2="664.52" gradientTransform="matrix(0, 550.86, 550.86, 0, -364858.65, -502409.67)" gradientUnits="userSpaceOnUse"><stop offset="0" stop-color="#e8772e"/><stop offset="0.6" stop-color="#ca6a47"/><stop offset="1" stop-color="#ba6354"/></linearGradient><clipPath id="clip-path-2"><path d="M985.34,231.71c8.68-.53-9.82,36.83-12.71,39.45-10.18,9.22-28,6.12-40.18,11.88-9.33,4.42-13.75,10.78-24.34,13.4a98.6,98.6,0,0,1-29.65,2.25c-14-.9-27.06,1.4-41.17,1.49-.48,16.06-8.44,34.1-16.16,48s-21.44,30.95-20.63,47.92c-10.31,4.75-23.45,7.56-33.87,4-13.81-4.77-27.69-9.42-40.92-15.27-29.13-12.86-60.12-20-89.45-31.84-11.66-4.72-18.66-6.73-31.64-7.1-12-.36-22.66-1.3-30.88-11.19-7.3-8.8-9.41-21.94-18.51-30.28-27.91-25.57-62.12-21.16-96.48-16.75-23.5,3-47.07,6-68.76-.54-8.5-2.57-20.59-1.86-28.36-5.68-8.69-4.28-6.55-10.39-9.55-12.58-17.48-12.8-38.64-6.75-59.44-.7-14.88,4.33-29.59,8.66-42.64,6.09-17.9-3.53-14.8-16.48-24.91-25.87s-28.54-7.05-41.55-7.81c-17.66-1-45.17-7.16-62.25-1.4-12.29,4.15-8.38,3.27-14.5,13.95C87.48,286.81,71.21,362.81,22.14,362.81a29.79,29.79,0,0,1-5.44-2.11H12.78c-1.5,0-3.62-.9-5.43-.9-2.11,0-3.62-.91-5.73-.91,0-2.11-9.36-1.2-9.36-3H-9.3V934H2405.22V316c-18.83.23-34.58.69-38.26.71-16.16.06-28-6.54-42-12.93-11.77-5.35-25.38-16.65-38.2-19-10.66-1.93-19.79.48-29.57-3.78-10.84-4.72-25.56-7.54-35.66-13.1-11.79-6.49-21.79-20.78-35.05-24.8-10.73-3.26-23.62.14-36.5,3.55-10.6,2.8-21.2,5.6-30.58,4.68-13.89-1.35-27.67-9.34-40.7-13.47-11.9-3.78-10,.73-20.87,5.92-9.42,4.49-22.51,6.35-32.62,9.26-8.84,2.55-13.76-.82-19.29-4.18-4.58-2.79-9.57-5.57-17.56-5-14,1-25.18,14.68-35.72,23.83-12.23,10.62-29.93,31.4-45.29,36-15,4.55-30.84,4.23-46.09,7.35-14.17,2.9-25.26,7.46-40,8.24,0-.91-5.73-.6-7.85-.3,0-1.21-1.51-1.21-3.32-.91-.61-.3-1.51-.6-2.11-.91,0-1.2-1.82-2.11-1.82-3.32a7.72,7.72,0,0,1-2.11-.6c-.6-.6-1.21-.9-1.51-1.2l-6,.6c0,1.2-1.51,2.11-1.51,3.32-2.11.91-3.92,1.81-5.73,2.41-2.11.31-7.55.61-9.66.91,0,1.2-9.35,1.81-10.87,1.81,0,1.2-20.82,2.72-20.82,2.72-7.55-1.51-30.49,1.51-39.54,2.41a4.6,4.6,0,0,1-3.93,3.33v2.11a31.16,31.16,0,0,1-3.92,1.51l-5.43.6c-5.44,1.22-16.91,2.42-24.45,2.72,0-.91-5.44-.3-7.55-.3-3.92-.61-9.36-.31-14.78,0a10,10,0,0,1-3-.15,10,10,0,0,0-3-.16c-1.21-.9-2.72-1.2-3.63-1.81l-5.73.3c-1.21-.3-2.72-.3-3.62-.91-1.82-.6-3.93-1.81-5.73-1.5,0-.91-3.62-2.72-5.74-2.72a9.47,9.47,0,0,1-1.81-.91c0-.9-7.54-4.52-9.35-4.52,0-2.12-5.74-4.83-5.74-8.15-1.81.3-3.92-1.81-5.43-2.41a12.76,12.76,0,0,1-5.74-1.81,15.7,15.7,0,0,1-3.62.31,48.16,48.16,0,0,0-11.47,0l-2.11,2.11c-3.32.31-10.87,3.32-14.79,3.62a80.94,80.94,0,0,1-15.09,3.32c-2.11.9-3.92,1.81-5.73,2.72a68.08,68.08,0,0,0-7.55.61c-3.62,1.2-9.35,1.81-15.09,2.1,0,0-3.62-.6-3.62-1.81-.61.6-1.21.91-1.81,1.51a15.18,15.18,0,0,0-3.93.29v1.82c-.6.9-1.51,1.81-1.81,2.41-2.11,1.2-3.62,2.42-5.73,2.71,0,2.11-1.81,0-1.81,2.11-1.21,0-2.72.3-3.63.3,0,2.11-1.81.3-1.81,2.41a15.91,15.91,0,0,0-3.92.3c0,2.11-2.11,0-2.11,2.11a15.79,15.79,0,0,1-3.63.31c0,2.11-1.81.3-1.81,2.41-3,.3-6,.3-9.36.6a46.08,46.08,0,0,0-11.17,0c-2.11-.91-7.84-1.21-11.46-1.21a2.63,2.63,0,0,1-1.82-.9c-.6-.31-1.5-.31-2.11-.91v-2.11c-1.2,0-2.71.3-3.62.3a21.54,21.54,0,0,0-3.92,2.72,10.57,10.57,0,0,0-1.81,2.11v2.11a2.78,2.78,0,0,1-1.51.9c-.9.61-1.51,1.21-2.11,1.5a2.8,2.8,0,0,0-1.81,1.22c-8.14,16.19-41,2.47-52.32.1-16.39-3.42-19.51-3.13-30.51-13.19-7.27-6.64-11.27-12.92-16.6-20.44-8.48-12-8.08-11.55-13.21-11.14-2.74.21-7.05.44-15.11-1.22-10.13-2.08-14.27-6.1-23.49-7.82-6.41-1.19-13.1-1.07-19.59-1-16.22.31-31.13.62-36.85-19.73-19.55-2.34-40.93,1.39-60.33,4.13-6.07.86-13.91,1-19.71,2.53-3.18.88-4.55,5.25-6.66,5.82-11,2.95-16.59-3.39-23.82-9.05-7.79-6.1-16-10-25.76-10.36-2.49-.09-4.41-.06-5.94,0-6.33.12-6,.23-11.84-8-8.43-11.81-14.49-25.27-29-28.69a81,81,0,0,0-18.38-1.79c-11.39,0-23.42,1.42-33.59,2" fill="none"/></clipPath><linearGradient id="linear-gradient-2" x1="911.56" y1="664.47" x2="915.75" y2="664.47" gradientTransform="matrix(0, 515.53, 515.53, 0, -341351.5, -470216.89)" gradientUnits="userSpaceOnUse"><stop offset="0" stop-color="#e26129"/><stop offset="0.42" stop-color="#c75e33"/><stop offset="1" stop-color="#a75a40"/></linearGradient><clipPath id="clip-path-3"><path d="M2381.92,245.91c-8.14,2-16.08,2-24.19,1.94-4.05,0-8.15,0-12.32.2-7.8.44-16.67.4-25.91.35-22.66-.11-47.54-.22-64.36,6.83-22.2,9.29-35.76,14.11-60,18.84-26,5.06-64.5,4.75-87.11,17.08-8.43,4.6-11.61,12.07-21.66,15.63-8.85,3.15-21.12,5.89-29.65,8.52-15.64,4.82-15.56-.52-29.37-4.42-11.3-3.19-24-1.63-36.59-.08-9.1,1.13-18.1,2.26-26.4,1.58-18.7-1.54-29.58.42-47.06,11.63a373.44,373.44,0,0,1-88.07,41.05c-52.94,16.57-93.48,20.94-148,10.7l-1.81-.91c0-2.11-3.62-2.11-3.62-3-3.93,0,0,.9-3.93.9v2.11c-1.81,0-3.62,1.81-7.25,1.81,0,2.11-3.62,2.11-3.62,3l-99.9-3c0,9.86-41.94,8.2-71.32,6.53-13.79-.78-24.82-1.56-27.44-1.16-17,2.65-33.62,7-50.68,9.21-23,2.91-34.41,4.77-54.18,15.87-32.33,18.15-72.57,18.47-105.77,35.91-21.84,11.49-40.87,21.79-66.32,22.93-10.25.45-104.11-9.21-104.87-15a200.46,200.46,0,0,0-10.41-41.81c-3.33-9.11-11.52-19.93-12.35-29.52-.45-5.1,4.27-9.68,4-14.87-.46-7.44-4.68-9.83-9.27-14.9-3.92-4.32-10.86-21.72-15.64-23-9.32-2.42-16.65,14.63-25.68,16.13a18.72,18.72,0,0,1-9.52-.82c-3.89-1.23-6.74-2.45-12.65,2.32-9.36,7.55-9.73,10.7-21.71,13.48-8.88,2.06-15.36,4.43-23.68,4.23a131.86,131.86,0,0,0-21.82,1.26c-4.64,92-124.69,35.13-167.34,87.37l-.3.36c-21.48,26.4-23.71,28.27-60.17,36.4-21.57,4.81-55.62,6.6-54.49,36.45-15.38-2.1-11.55-16.57-23.49-21.62-5.73-2.42-12.15-2.1-18.57-1.79-6.13.3-12.26.61-17.79-1.47-19.71-7.39-27-31.25-47.92-33.87,10.42-51.76-24-21.26-47-44.34-30.06-30.06,12.55-46.53-43.68-51.37-46.26-4-34.57,4.07-48,40.4-10.27,27.88-30.69,54.13-60.91,60.77-19.89,4.37-77.35,8.38-95.31-2.63-15.24-9.34-21.61-27.77-34-39.07a247.19,247.19,0,0,0-34.88-26.19c-15.67-9.35-35.52-11.46-53.63-12.45a121.43,121.43,0,0,0-12.37.16c-6.56.31-13,.62-19.75-.83-8.65-1.87-12.32-6.17-22.59-6.19-1.81,0-3.61-.91-5.42-.91l-9.05-4.83-3.62-1.22H23c0-.9-7.24-.9-9.05-.9-1.82.9-3.62,2.11-5.43,2.11l-1.81,1.81s-3.62.91-3.62,2.11H-.5c0,1.82-1.81,0-1.81,1.82l-3.62.9-3.37,1.13V936H2405.22V243.71c-11.88.84-21,1.64-23.29,2.2" fill="none"/></clipPath><linearGradient id="linear-gradient-3" x1="911.86" y1="664.32" x2="916.05" y2="664.32" gradientTransform="matrix(0, 432.09, 432.09, 0, -285824.52, -393971.11)" gradientUnits="userSpaceOnUse"><stop offset="0" stop-color="#be5f29"/><stop offset="0.2" stop-color="#ae5e37"/><stop offset="1" stop-color="#755a6d"/></linearGradient><clipPath id="clip-path-4"><path d="M1650.67,116.69c-3.48,10.16-5.19,21.18-9.29,31.05-4.86,11.73-11.44,17.24-10.24,31.14-9.49-1.16-21.5-10.84-29.06-11.61-17.67-1.79-10,12.68-16.75,21.57-8.27,10.92-22,5.76-35.73.59-8.72-3.29-17.44-6.57-24.72-5.71.68,11.19-3.39,21.6-2.74,32.89-12.9.84-32.69,4.21-43.57-3.07-9.76-6.53-10.42-23.31-25.07-24.3-22.23-1.51-14.49,39.87-14.87,53.36-.19,6.83-4.3,12.25-4.8,16.09-.67,5.21,1.09,11.15,1,17.35-.34,14.95-6.18,29.12-8.74,43.7-7,39.58,1.46,78.87-2.17,118.42-1.54,16.74-18.94,53-37.81,41.56-9-5.42-15.87-13.62-24.3-19.74-6.37-4.62-18-7.71-23-13.07-12.16-13.1-15-44.77-15.5-61.62-.41-15.46,3.21-53.22-24-47.38-19.58,4.22-11.35,33.69-29.26,38.94-6.93,2-14.63-3.91-21.71-4-5.68-.09-11.08,1.74-16.5,3.56-5.66,1.91-11.34,3.81-17.34,3.53-1.1,23.42-7.81,45.22-9.33,68.27-2.58,39-17.5,30-49.38,35.53a288.23,288.23,0,0,1-31.4,3.59C1101.88,489,1025,520.61,1009.07,542c-19.74,26.47-9.1,60.78-24.77,90.57-11.54,21.94-33.09,39.27-46,65.43C925.8,723.25,909.68,754.21,882.5,765c.31-15-6.35-25.39-18-36.21C850.68,716,848,706.92,845.59,688.52c-2-14.94-7.42-28.76-9.61-43.54-2.28-15.43,2.36-30.22,1.59-45.58-1.4-28-15.17-57.14-20.67-84.91-8.42-42.59-30.53-34.94-61.5-13.37-28.06,19.55-26.4,52.33-44.07,79.64-9.67-12-20.19-39.85-35.33-42.89.45,8.21-1.81,16-4.57,23.65-3.75,10.4-7.8,10.3-13,19.87-7.39,13.68,2,37.05,2.56,51.59.63,16.37-.89,37.57-4.71,53.54C652.13,704,650.59,702,635,700c-35.34-4.61-57.32,8.06-90.56,19-14.35,4.71-31.15,9.83-38.22,19.87-7.6,10.76-2.4,42.92-18.65,43.06-2.24,0-15.93-12.27-19.81-14-8-3.5-20-3.09-24.77-9.57-3.27-4.44.22-13.9-3.89-19.47-8.62-11.67-31.49-11.54-44.17-14.57-22-5.26-38.31-5.78-59-15.8-17.5-8.48-38.85-16.85-58.28-17.89-5.39-.3-86.3,1.08-83.85-9.23-7,29.42-23.62,59-23.26,89.83.21,18.65-.44,15.38-14.71,28.32-11.09,10.06-25.41,25.68-42.66,11.44-8.1-6.69,1-19.5-8.42-26.62-7.53-5.72-19.58-.65-26.4,3.61-5.61,3.5-16,13.36-18.06,19.62-3.41,10.3,4.3,16.85-3.11,25.71-2.84,3.4-10.77,1.49-14.3,5.43-4,4.43-1,10.88-3.76,15.42-3.92,6.48-24.62,11.66-48.44,15.72V930H2405.22V220.89c-6.9.12-13.75.27-20.3.43-19.11.45-35.79.9-44.35.42-21.35-1.19-42.46-5.91-63.21-10.82.79,21.87-4.67,40.27-10.65,60.07-3.5,11.61,3,17.55,2,28-1.08,11.12-10.82,17.25-16.83,26.14-10.37,15.37,1.23,30.78-10.4,40.08-7.51,6-21.62,5.59-33.85,5.17a127.23,127.23,0,0,0-14.21,0,80.87,80.87,0,0,1-15.2.26c-3.18-.19-7.51-3.19-12.49-2.89-8.91.55-18.39,10.06-26.46,13.45-9,3.81-18.73,7.45-28,3.64-4.82-2-5.7-6.72-9.54-8.66-6-3-9.38-2-16-4.15-11.1-3.58-19.18-7-31-7a117.37,117.37,0,0,0-15.3,1.32c-6.49.84-13,1.69-19.83,1.16-4.36-11.86-34.16-23.85-45.2-24.24-27.2-1-29.75,31.21-34.63,50.78-3.84,15.35-6.71,18.54-18.53,28.32-15.55,12.88-8.49,9.32-24.6-4.3-14.25-12-26.91-10.22-28.35-31.29-.69-10.48,3.45-20.67,3.14-31.08-.36-12.93-4.44-26.54-6.33-39.36-1.53-10.38,1-22.07-.91-32.44-2.54-13.43-11.84-16.46-16.71-26.9-4-8.61-3-23-4.15-32.55-1.44-12.31-6-19.76-9.71-30.53s0-54.93-23.1-36.56c-11,8.74-1.78,33-19.52,33.52-14.19.45-11.39-12-14.86-21.22-8.06-21.24-17.58-19.81-32.5-18.37a99.22,99.22,0,0,1-19.6.39c3.48-14.11-11.88-25.06-23.91-31-11.2-5.53-9.16-3.19-23.7-2.07a53.24,53.24,0,0,1-12.7-1,64.15,64.15,0,0,0-10.08-1.05c-1,0-1.94,0-2.94.13" fill="none"/></clipPath><linearGradient id="linear-gradient-4" x1="911.39" y1="665" x2="915.59" y2="665" gradientTransform="matrix(613.71, 0, 0, -613.71, -559427.56, 408641.1)" gradientUnits="userSpaceOnUse"><stop offset="0" stop-color="#db6527"/><stop offset="0.28" stop-color="#bf6546"/><stop offset="0.76" stop-color="#946676"/><stop offset="1" stop-color="#836688"/></linearGradient><clipPath id="clip-path-5"><path d="M1530.24,492.91c-6,8.94-21.31,13.53-28.22,24.06-11.95,18.22-3.78,31.51-7,49.82-1.27,7.24-31.48,42.09-31.84,41.55-9.41-13.62-21.4-1.87-34.65.33-11.08,1.82-23,.54-34.1,2.09-7.62,1.06-14.84,5.42-21.94,6.25-19.35,2.28-41.6,5.15-56.69-10.24-7.65-7.79-9.6-21.22-20.52-25.62s-27.73,2.86-39.09,3a94.67,94.67,0,0,1-14.39-1.44c-10.09-1.48-12.14,8.55-19.84,13.27-14.34,8.8-25.11,50.9-28,68-2.33,13.83-9.56,24.93-13.78,38.41-4.29,13.72-16.5,16.8-26.08,26-13.86,13.32-14.73,32.24-22.75,48.64-10.63,21.69-26.95,24.38-49.44,27.1-7.52.91-15.39.67-23.29.42-11.53-.36-23.13-.72-33.81,2.51-16.08,4.88-26,9-43.42,11.73-11.29,1.76-17.38,7.55-27.54,10.89-8.83,2.91-17.82-.12-26.58-3.14-10.13-3.5-19.94-7-28.8-1.31-14.56,9.36-10.53,32.49-29,36.29-19.06,3.92-36.76-17.82-44.77-31.77-10.72-18.66-20.63-41.14-28-61.62-10.8-29.84-24.32-65.82-24.91-98.39-19.59,0-42.32,0-61.54.76-17.92.7-46.71,11.55-63.37,3.22-4.64,12.12-2.3,16.6-13.44,20.83-4.48,1.7-10.89,1.64-17.07,1.58a73.75,73.75,0,0,0-12,.48c-9.76,1.65-21.2,3.42-30.81,6.39-14.29,4.41-14.26,8.66-25.13,17.78-5.56,4.66-1.34,5.21-8.92,7.44-2.17.64-6.67-.17-11.11-1-3.64-.66-7.25-1.31-9.52-1.18-10,.56-16.43,3.28-25.57,6.76a192.12,192.12,0,0,1-50.14,11.58c-4.5.39-51.87-3.73-50.11-7.59-5.74,12.51-31.22,33.68-44.3,35.32-11.87,1.49-20.74,11-32.58,12.82-3-5.88-12-7.39-19.24-9.11-21.88-5.2-48.49,1.94-64.18-19.64-8.82-12.14-7.91-22-24.5-24C174.64,728,158.79,773,128.9,783c-10.06,3.38-17.94-.05-27.41-.55-3.5-.18-11.71-3.31-14.36-1.49-1.8,1.24-7.28,16.62-9.1,19.94a122.21,122.21,0,0,1-16.11,23.16,86.52,86.52,0,0,1-10,9.36C39.66,843.31,25,849.61,9.44,853.18c-3.84.88-10.53,1.55-18.74,2.24V930H2405.22V529.21c-12.71,3.24-22.9,6.29-26.38,8.7-18.13,12.58-31,21.89-47.29,37.94-33.57,33.15-78.77,35.28-122.9,42.3-29.47,4.68-51.29,7.42-79.26-6.56-8.32-4.16-13.87-8.77-23.21-9.57-3.42-.3-6.85.62-10.3,1.54-3.86,1-7.77,2.06-11.74,1.36-19.32-3.36-16.57-19.06-24.71-33.68-12-21.57-31.8-24.24-52.24-33.79-25.3-11.83-38.33-39.08-65.38-47.9-20.09-6.55-35.61,5.12-54.6,7.76-15.45,2.15-34.6,5.75-50.47,6.43-14.83.63-32.34-.05-43.71-11.29-12.26-12.12-5.3-23.8-8.86-38.26-3-12.31-11.41-17.62-8.43-31.75-33.2-.49-58.46-9.24-91.65-2.41-23,4.74-46.48,1.35-69.69.54a166.33,166.33,0,0,0-16.87.54c-13.65.9-27.05,1.8-39.45-5.52-22.87,18.57-13.18,55.53-27.85,77.33" fill="none"/></clipPath><linearGradient id="linear-gradient-5" x1="911.42" y1="665.17" x2="915.61" y2="665.17" gradientTransform="matrix(-615.17, 0, 0, 615.17, 563158.88, -408523.09)" gradientUnits="userSpaceOnUse"><stop offset="0" stop-color="#585578"/><stop offset="1" stop-color="#836688"/></linearGradient><clipPath id="clip-path-6"><path d="M257.83,616.47c12.61-5.94,32.65-9.26,46.62-6.78,12.11,2.15,22.59,10.16,33.3,15.81,12.18,6.43,27.89,10.33,38,19.53-18.23,11.58-55.82,10.23-77.08,8.95-24.59-1.49-48-7.79-71.19-10.83-1.56-6.39,18.46-21.08,30.34-26.67M-9.3,458.1V934H2405.22V886.06c-13,.08-26.34.21-39,.33-35.16.34-65.07.67-66.13.2-12.14-5.45-11.65-14.78-13-26.69-2-16.61-.79-26.22-6.91-41.38-4.84-12-10.31-26.48-11.71-38.81-.89-7.87,2.88-11-1.83-19.19-2.72-4.77-9.49-6.48-12.19-10.66-15.62-24.14,7.88-46.08-19.58-65.62-13.91-9.91-18-7.85-6.92-24.33,6.11-9.1,14.46-15.55,19.71-25.52,10.68-20.26,12.35-50.57-11.6-62.65-22.6-11.4-51.77,12-71.41,21.81-29.8,14.85-36.45,29.61-34.33,62.36,22.6,5.27,51.41,16.1,39.92,43.14-5.76,13.55-16.16,18.79-13.57,34.85,1.76,10.84,13.33,19.66,11,31.47-2.38,12.09-14.53,18.12-20.07,28-6.9,12.31-9.1,29.76-9.89,43.55-.35,6.24.22,19.92-4.05,24.46-4.8,5.13-17.31-.77-22.65,9.55-4.16,8,.64,16.5.16,25.34-.57,10.68-3.76,17.38-10.66,23.09-39.43,32.65-50-41.42-47.65-41.87-17.38,3.32-30-2.14-25.23-21.95-1.2,5-43.64,15.11-57.55,18.41-12.14,2.89-24.54,3.8-36.7,6.83-11.06,2.75-33.63,10.36-45.83,7.59-11.23-39.73-11.27-85-6.87-125.12-33.42,4.68-39.51-.73-42-33.54-9.29-1.83-20.69,2.89-30.13,4-32.39,3.84-65.49,3.22-98,6.21-10.25.94-18.19-1.55-26.33,5.78-5.43,4.9-4.13,14.19-12,19.26-6.45,4.12-11.6,5.07-16.33,11.53-4.12,5.63-2.67,15.21-6.72,20.09-11.39,13.73-31.54,4.3-47,4-9-.2-18.29,1-27.52,2.11-10,1.25-19.86,2.49-29.22,2-20.77-1-13.51-20.14-30.93-25.34-2.28-12.77,4.8-20.24-3.46-28.94-3.54-3.73-15.72,6-28.13,15.75s-25.23,19.63-29.55,15.66c-17.48-16.08-23.62-40.9-24.29-63.51-18.93-.29-22.72-4.91-27.1-22.25-3.75-14.85-.68-34-22.57-30.78-5.38-54.49-16.21-78-69.23-84.95-19.52-2.55-36.57.31-55.44-3.74-15.71-3.37-27.45-4.28-35.37,12.49-4.36,9.25-7.54,16.73-13.12,24.93-6.61,9.7-14.11,15.63-15.24,29.11-16.8,7.69-31.1,40.88-36.91,57.11s-13.81,43-28.08,53.88-51.17-.35-58.82-17.66-17.83-28.41-27.94-43.83c-13.06-19.94-12.49-28.19-37.51-23.51-18.28,3.43-38.76,3.39-55,13.45-15.87,9.86-20.15,26.89-32.58,38.56-11.72,11-29.06,7.76-44.09,11.91-1.65,44.61-20,10.8-44.71,38.55-21.39,24-40.89,49.68-71.48,63.74-9.05,4.16-20.23,3.47-31.24,2.78-6.8-.43-13.54-.86-19.67-.14-19.34,2.24-38.76,7.44-58.33,8.51-8.85.48-25.57-37.11-27.81-44.83-8.13-28.06-16.69-57.32-14.79-86.55-.28,4.25-75.24,3.39-81.88-1-9.77-6.48-3.78-18.67-13.08-26.39-6.72-5.58-14.32-5.48-21.85-5.38-4.68.06-9.34.12-13.72-1.18-14.06-4.18-15.35-13.06-23.81-24-15.66-20.31-48-41.29-70.49-54-24.63-14-55.36-22.67-83.75-24.14-33-1.7-57,6.87-84.29,24.54-22.06,14.27-47.66,37.4-75.53,36.3-14.15-.57-25.31-8.51-30.28-21.29-2.52-6.48-3.07-52.66-6.49-54.29-6.11-2.92-13.33-3-20.23-2.82-2.38-10-9.52-13.13-14.52-21C55,529.06,57.35,519.45,53.82,508c-7.68,1-15.5,3-23.35,3.09C30,492,27,473.9,29.82,455.08c-5.16.84-20.54,1.69-39.12,3" fill="none"/></clipPath><linearGradient id="linear-gradient-6" x1="911.39" y1="664.41" x2="915.58" y2="664.41" gradientTransform="matrix(616.42, 0, 0, -616.42, -561900.45, 410481.71)" gradientUnits="userSpaceOnUse"><stop offset="0" stop-color="#28325c"/><stop offset="1" stop-color="#2e385a"/></linearGradient></defs><title>eu-cover</title><rect x="-3" y="-1.23" width="2400" height="933.23" fill="url(#radial-gradient)"/><g clip-path="url(#clip-path)"><rect x="165.03" y="-561.87" width="2065.86" height="2712.24" transform="translate(137.49 1764.47) rotate(-76)" fill="url(#linear-gradient)"/></g><g clip-path="url(#clip-path-2)"><rect x="199.8" y="-508.75" width="1996.31" height="2688.31" transform="translate(-11.27 1654.41) rotate(-69)" fill="url(#linear-gradient-2)"/></g><g clip-path="url(#clip-path-3)"><rect x="254.57" y="-473.22" width="1930.77" height="2663.15" transform="translate(-18.58 1689.67) rotate(-69)" fill="url(#linear-gradient-3)"/></g><g clip-path="url(#clip-path-4)"><rect x="-9.3" y="115.11" width="2414.52" height="816.89" fill="url(#linear-gradient-4)"/></g><g clip-path="url(#clip-path-5)"><rect x="-9.3" y="413.2" width="2414.52" height="520.8" fill="url(#linear-gradient-5)"/></g><g clip-path="url(#clip-path-6)"><rect x="-9.3" y="456.38" width="2414.52" height="935.53" fill="url(#linear-gradient-6)"/></g></svg>