<svg id="Layer_1" data-name="Layer 1" xmlns="http://www.w3.org/2000/svg" viewBox="0 0 106.44 83.71"><title>iron-branding</title><path d="M80.67,87.08a8.64,8.64,0,0,1-2.84.26h-.68l-.71,0-2,0h-2.6a18.86,18.86,0,0,0,.39-4.36V79.74a3.68,3.68,0,0,0-1-3h3.74l1,0,1.11,0h.68a8.9,8.9,0,0,1,2.57.22,2.49,2.49,0,0,1,1.92,2.44,2.67,2.67,0,0,1-2.09,2.52,2.67,2.67,0,0,1,.49,5.23Zm-2.81-8a1.48,1.48,0,0,0-1-.22H76v2h.82c.92,0,1.41-.35,1.41-1A.9.9,0,0,0,77.87,79.12Zm0,4a1.7,1.7,0,0,0-1-.18H76V85.1h1a2.47,2.47,0,0,0,.66,0,1,1,0,0,0,.3-1.94Z" transform="translate(-20.3 -15.97)" fill="#6d1418"/><path d="M83.95,87.29l0-.11c0-.25.06-.47.1-.68a19.16,19.16,0,0,0,.14-2.08V80.3a7.1,7.1,0,0,0-.27-2.2,2.56,2.56,0,0,0-.84-1.36h5.31a15.85,15.85,0,0,0-.28,3.52l0,1.52,0,1.85c0,.35,0,.62,0,.81a5,5,0,0,0,.38,1.87,2.82,2.82,0,0,0,.3.56,1.34,1.34,0,0,0,.41.43Z" transform="translate(-20.3 -15.97)" fill="#6d1418"/><path d="M98.5,86.72a6.84,6.84,0,0,1-3.79.82,21.27,21.27,0,0,1-3-.22A6.32,6.32,0,0,1,90.25,87V83.77a4,4,0,0,0,1.17.81,5.75,5.75,0,0,0,2.4.49c1.17,0,1.76-.3,1.76-.92a.82.82,0,0,0-.43-.73,3,3,0,0,0-.73-.27l-1-.22a4.58,4.58,0,0,1-2.41-1A2.68,2.68,0,0,1,90.25,80a3.09,3.09,0,0,1,1.39-2.65,6.84,6.84,0,0,1,3.87-.86,10.77,10.77,0,0,1,3.9.56v3a3.49,3.49,0,0,0-.94-.57A5.51,5.51,0,0,0,96.23,79c-1.09,0-1.7.28-1.7.85s.4.78,1.3,1l.67.13a5.82,5.82,0,0,1,2.16.73A2.65,2.65,0,0,1,99.86,84,3.17,3.17,0,0,1,98.5,86.72Z" transform="translate(-20.3 -15.97)" fill="#6d1418"/><path d="M111.76,86.34a6.42,6.42,0,0,1-4.31,1.2c-2.24,0-3.68-.45-4.82-1.47a5.5,5.5,0,0,1-1.73-4.19,5.26,5.26,0,0,1,1.68-4c1.15-1,2.46-1.45,4.66-1.45a6.8,6.8,0,0,1,4.43,1.24,5.52,5.52,0,0,1,2,4.43A5.23,5.23,0,0,1,111.76,86.34Zm-2.92-6.44a2,2,0,0,0-1.52-.64c-1.33,0-2.13,1-2.13,2.73s.68,2.76,2.08,2.76,2.13-1,2.13-2.74A3.42,3.42,0,0,0,108.84,79.9Z" transform="translate(-20.3 -15.97)" fill="#6d1418"/><path d="M126.55,77.79c-.06.45-.09.84-.13,1.22,0,.68-.06,1.11-.06,2.28v9.43l-7.88-9v1.7a8.25,8.25,0,0,0,.3,2.63,3.06,3.06,0,0,0,.75,1.28h-4.63a6,6,0,0,0,.24-1.27,21.53,21.53,0,0,0,.14-2.27V80.34a10.06,10.06,0,0,0-.16-1.77,3.62,3.62,0,0,0-.87-1.84h5.44l0,.13a12.2,12.2,0,0,0,.73,1.19c.27.4.51.74,1,1.41l1.67,2.08v-1.1a8.37,8.37,0,0,0-.22-2.09,3.2,3.2,0,0,0-.82-1.62h4.62A6.54,6.54,0,0,0,126.55,77.79Z" transform="translate(-20.3 -15.97)" fill="#6d1418"/><path d="M21.15,87.31l0-.11c0-.25.06-.48.1-.69a18.71,18.71,0,0,0,.14-2.08V80.29a7.1,7.1,0,0,0-.27-2.21,2.58,2.58,0,0,0-.84-1.37h5.33a15.92,15.92,0,0,0-.29,3.54l0,1.53,0,1.86c0,.35,0,.62,0,.81a5.09,5.09,0,0,0,.38,1.88,2.78,2.78,0,0,0,.3.55,1.3,1.3,0,0,0,.41.43Z" transform="translate(-20.3 -15.97)" fill="#6d1418"/><path d="M34.27,87.31a6.63,6.63,0,0,0-.4-1,12.73,12.73,0,0,0-.7-1.29L32,82.9v1.21a8.39,8.39,0,0,0,.46,3.2H27.75a5.65,5.65,0,0,0,.2-1.06,19.87,19.87,0,0,0,.17-2.31V79.81a7.31,7.31,0,0,0-.1-1.1,3.43,3.43,0,0,0-.92-2h4.7l1.66,0h.68a9.9,9.9,0,0,1,2.1.14,2.67,2.67,0,0,1,2.07,2.77,3,3,0,0,1-2.24,3l3.16,4.73ZM32.71,79l-.33,0L32,79h-.13v2.39c.21,0,.38,0,.68,0a2.28,2.28,0,0,0,.7-.06,1.11,1.11,0,0,0,.8-1.15C34.1,79.38,33.6,79,32.71,79Z" transform="translate(-20.3 -15.97)" fill="#6d1418"/><path d="M50.15,86.36a6.46,6.46,0,0,1-4.33,1.21c-2.24,0-3.69-.45-4.84-1.48a5.53,5.53,0,0,1-1.73-4.2,5.28,5.28,0,0,1,1.69-4c1.16-1.05,2.47-1.45,4.68-1.45a6.8,6.8,0,0,1,4.44,1.24,5.54,5.54,0,0,1,2,4.44A5.25,5.25,0,0,1,50.15,86.36Zm-2.93-6.46a2,2,0,0,0-1.53-.64c-1.34,0-2.13,1-2.13,2.74s.69,2.77,2.09,2.77,2.13-1,2.13-2.75A3.43,3.43,0,0,0,47.22,79.89Z" transform="translate(-20.3 -15.97)" fill="#6d1418"/><path d="M65,77.78c-.07.45-.1.85-.13,1.23,0,.68-.06,1.11-.06,2.29v6H61.34l-4.46-5.63v1.7a8.38,8.38,0,0,0,.3,2.65,3.11,3.11,0,0,0,.75,1.29H53.29A6,6,0,0,0,53.53,86a22.47,22.47,0,0,0,.14-2.28V80.34a10,10,0,0,0-.16-1.78,3.64,3.64,0,0,0-.87-1.85h5.46l0,.13A12.5,12.5,0,0,0,58.87,78c.27.4.51.75,1,1.42l1.68,2.09v-1.1a8.4,8.4,0,0,0-.23-2.1,3.22,3.22,0,0,0-.83-1.62h4.63A6.16,6.16,0,0,0,65,77.78Z" transform="translate(-20.3 -15.97)" fill="#6d1418"/><path d="M22.65,95.23h2.72l.29-1.59c.09-.51-.12-.53-.34-.53h-.25l0-.19,1,0,.9,0,0,.19h-.13c-.46,0-.48.15-.59.74l-.61,3.24c-.12.65-.07.74.28.74h.27l0,.19H24.27l0-.19h.14c.43,0,.47-.15.55-.61l.31-1.68H22.6l-.3,1.56c-.12.65-.07.74.28.74h.27l0,.19H20.9l0-.19h.14c.43,0,.47-.15.55-.61l.66-3.57c.09-.51-.12-.53-.34-.53h-.25l0-.19,1,0,.9,0,0,.19h-.13c-.46,0-.48.15-.59.74Z" transform="translate(-20.3 -15.97)" fill="#6d1418"/><path d="M30.35,94.68a1.39,1.39,0,0,1,1.4,1.48,2,2,0,0,1-1.92,2,1.36,1.36,0,0,1-1.44-1.47A2,2,0,0,1,30.35,94.68Zm-.52,3.25c.94,0,1.34-1.28,1.34-2,0-.52-.2-1-.82-1-1,0-1.36,1.23-1.36,2C29,97.45,29.18,97.93,29.82,97.93Z" transform="translate(-20.3 -15.97)" fill="#6d1418"/><path d="M33.52,95.6c.28-.34.79-.92,1.27-.92a.23.23,0,0,1,.25.25,1.17,1.17,0,0,1-.08.35l-.38,1.1h0c.35-.5,1.43-1.71,2.14-1.7A.26.26,0,0,1,37,95a1.17,1.17,0,0,1-.07.36l-.58,1.6a1.29,1.29,0,0,0-.11.38c0,.09,0,.15.13.15s.52-.34.63-.51l.12.1-.26.32a1.45,1.45,0,0,1-1,.63c-.19,0-.28-.11-.28-.24a1.23,1.23,0,0,1,.1-.45l.57-1.55a1.59,1.59,0,0,0,.09-.37.15.15,0,0,0-.17-.14c-.41,0-.82.49-1.06.76a4.3,4.3,0,0,0-.91,1.49l-.15.42c0,.06-.18.08-.27.08a.35.35,0,0,1-.23-.1l.71-2.15a1.53,1.53,0,0,0,.09-.36c0-.07,0-.13-.12-.13a.67.67,0,0,0-.42.25l-.2.22Z" transform="translate(-20.3 -15.97)" fill="#6d1418"/><path d="M40.87,94.68a1.39,1.39,0,0,1,1.4,1.48,2,2,0,0,1-1.92,2,1.36,1.36,0,0,1-1.44-1.47A2,2,0,0,1,40.87,94.68Zm-.52,3.25c.94,0,1.34-1.28,1.34-2,0-.52-.2-1-.82-1-1,0-1.36,1.23-1.36,2C39.5,97.45,39.7,97.93,40.34,97.93Z" transform="translate(-20.3 -15.97)" fill="#6d1418"/><path d="M44,95.66c.18-.27.74-1,1.1-1,.18,0,.3.08.3.28a1.72,1.72,0,0,1-.07.38l-.28,1h0c.2-.37.88-1.66,1.34-1.66.15,0,.23.09.23.25s-.08.54-.31.54l-.27,0c-.5,0-1,1.41-1.26,2.16l-.13.47c0,.05-.13.06-.26.06s-.23-.07-.23-.13a.22.22,0,0,1,0-.07l.58-2a1.9,1.9,0,0,0,.09-.43c0-.08,0-.19-.14-.19s-.5.34-.61.49Z" transform="translate(-20.3 -15.97)" fill="#6d1418"/><path d="M48.22,95.63c.21-.32.74-.95,1.15-.95.18,0,.23.07.23.18a1.67,1.67,0,0,1-.1.41l-.6,1.85a1.23,1.23,0,0,0-.07.31c0,.07,0,.11.09.11s.48-.39.55-.47l.12.09c-.23.31-.74,1-1.16,1-.21,0-.28-.12-.28-.29a1.48,1.48,0,0,1,.08-.36l.63-1.85a.94.94,0,0,0,.07-.27.08.08,0,0,0-.09-.09c-.15,0-.43.35-.52.47Zm1.65-2.3a.34.34,0,1,1-.34-.34A.35.35,0,0,1,49.87,93.32Z" transform="translate(-20.3 -15.97)" fill="#6d1418"/><path d="M51.32,95.6c.28-.34.79-.92,1.27-.92a.23.23,0,0,1,.25.25,1.17,1.17,0,0,1-.08.35l-.38,1.1h0c.35-.5,1.43-1.71,2.14-1.7a.26.26,0,0,1,.29.3,1.17,1.17,0,0,1-.07.36l-.58,1.6a1.29,1.29,0,0,0-.11.38c0,.09,0,.15.13.15s.52-.34.63-.51l.12.1-.26.32a1.45,1.45,0,0,1-1,.63c-.19,0-.28-.11-.28-.24a1.23,1.23,0,0,1,.1-.45l.57-1.55a1.59,1.59,0,0,0,.09-.37.15.15,0,0,0-.17-.14c-.41,0-.82.49-1.06.76A4.3,4.3,0,0,0,52,97.51l-.15.42c0,.06-.18.08-.27.08a.35.35,0,0,1-.23-.1l.71-2.15a1.53,1.53,0,0,0,.09-.36c0-.07,0-.13-.12-.13a.67.67,0,0,0-.42.25l-.2.22Z" transform="translate(-20.3 -15.97)" fill="#6d1418"/><path d="M58.79,97.91c.34.18.57.31.57.73,0,.74-1,1-1.63,1s-1.5-.13-1.5-.84c0-.53.74-.83,1.15-1-.14-.09-.41-.2-.41-.4s.39-.5.59-.63a1,1,0,0,1-.62-.91,1.4,1.4,0,0,1,1.42-1.23,3.11,3.11,0,0,1,1,.23.66.66,0,0,0,.15,0,.48.48,0,0,0,.24-.09.46.46,0,0,1,.23-.09c.1,0,.12.11.12.21s-.06.27-.17.27-.3-.16-.58-.19a.89.89,0,0,1,.23.61,1.39,1.39,0,0,1-1.47,1.25l-.34,0c-.07,0-.23.18-.23.25s.07.12.14.16Zm-1.2,0c-.15.05-.88.37-.88.78s.66.72,1.11.72,1.06-.12,1.06-.59a.54.54,0,0,0-.36-.44Zm.85-3.07c-.59,0-.92.74-.92,1.22s.13.65.53.65c.58,0,.9-.75.9-1.25C59,95.18,58.82,94.87,58.44,94.87Z" transform="translate(-20.3 -15.97)" fill="#6d1418"/><path d="M68,92.81a2.38,2.38,0,0,1,2.5,2.3,2.92,2.92,0,0,1-2.92,3,2.29,2.29,0,0,1-2.46-2.41A2.88,2.88,0,0,1,68,92.81Zm-.38,5.08c1.44,0,2.17-1.55,2.17-2.76S69.21,93,68,93c-1.51,0-2.17,1.52-2.17,2.82C65.8,97,66.31,97.89,67.59,97.89Z" transform="translate(-20.3 -15.97)" fill="#6d1418"/><path d="M75.92,97.12c-.3.33-.76.89-1.25.89a.24.24,0,0,1-.27-.25,2.07,2.07,0,0,1,.14-.54L75,95.93h0c-.36.46-1.55,2.09-2.26,2.09a.3.3,0,0,1-.31-.28,1.33,1.33,0,0,1,.07-.31l.63-1.88a.5.5,0,0,0,0-.16c0-.06,0-.11-.09-.11s-.47.34-.61.47l-.12-.12.25-.26c.3-.3.69-.68,1-.68a.22.22,0,0,1,.24.23,1.06,1.06,0,0,1-.09.38l-.66,2a.49.49,0,0,0,0,.1c0,.05.06.07.12.07.5,0,1.87-1.87,2.12-2.52.05-.13.1-.23.25-.23s.25.14.33.21l-.79,2.38a.29.29,0,0,0,0,.1c0,.06,0,.1.11.1s.49-.33.63-.45Z" transform="translate(-20.3 -15.97)" fill="#6d1418"/><path d="M77.6,95.66c.18-.27.74-1,1.1-1,.18,0,.3.08.3.28a1.72,1.72,0,0,1-.07.38l-.28,1h0c.2-.37.88-1.66,1.34-1.66.15,0,.23.09.23.25s-.08.54-.31.54l-.27,0c-.5,0-1,1.41-1.26,2.16l-.13.47c0,.05-.13.06-.26.06s-.23-.07-.23-.13a.23.23,0,0,1,0-.07l.58-2a1.9,1.9,0,0,0,.09-.43c0-.08,0-.19-.14-.19s-.5.34-.61.49Z" transform="translate(-20.3 -15.97)" fill="#6d1418"/><path d="M85.66,92.92h1.73c.71,0,1.65.23,1.65,1.12s-.75,1.26-1.5,1.37a7.86,7.86,0,0,1,1.16,1.74c.2.33.4.74.87.67l0,.19h-.9c-.22,0-.58-.6-.92-1.21s-.69-1.27-.88-1.33a.82.82,0,0,0-.23,0l-.31,1.79,0,.29c0,.28.32.28.55.28h.12l0,.19h-2l0-.19H85c.34,0,.5,0,.61-.53l.66-3.62a1,1,0,0,0,0-.24c0-.28-.19-.33-.56-.33h-.12Zm1,2.35h.5a1.17,1.17,0,0,0,1.23-1.17c0-.71-.44-.93-1.26-.93H87Z" transform="translate(-20.3 -15.97)" fill="#6d1418"/><path d="M94,97.17a2.34,2.34,0,0,1-1.66.95.87.87,0,0,1-.9-1,2.52,2.52,0,0,1,2.1-2.46c.33,0,.71.12.71.52,0,1-1.39,1.33-2.17,1.41a2.49,2.49,0,0,0-.06.56.54.54,0,0,0,.6.56A2,2,0,0,0,93.85,97Zm-.32-1.95a.28.28,0,0,0-.3-.31c-.56,0-1.14,1-1.25,1.5C92.75,96.37,93.63,96,93.63,95.23Z" transform="translate(-20.3 -15.97)" fill="#6d1418"/><path d="M95.95,97.1c.07.42.55.58.93.58.2,0,.65-.05.65-.33,0-.5-1.06-.82-1.28-1.29a.77.77,0,0,1-.07-.34c0-.38.51-.71.79-.89a.84.84,0,0,1,.54-.16c.3,0,.63.08.63.44,0,.09-.07.33-.15.33h-.09c-.06,0-.07-.05-.1-.11a.75.75,0,0,0-.6-.26c-.25,0-.55.13-.55.42,0,.6,1.29.76,1.29,1.52a1.33,1.33,0,0,1-.47.78,1.16,1.16,0,0,1-.87.34c-.35,0-.93-.1-.93-.57a1,1,0,0,1,.17-.45Z" transform="translate(-20.3 -15.97)" fill="#6d1418"/><path d="M101.93,94.68a1.39,1.39,0,0,1,1.4,1.48,2,2,0,0,1-1.92,2A1.36,1.36,0,0,1,100,96.65,2,2,0,0,1,101.93,94.68Zm-.53,3.25c.94,0,1.34-1.28,1.34-2,0-.52-.2-1-.82-1-1,0-1.36,1.23-1.36,2C100.56,97.45,100.76,97.93,101.41,97.93Z" transform="translate(-20.3 -15.97)" fill="#6d1418"/><path d="M108.67,97.12c-.3.33-.76.89-1.25.89a.24.24,0,0,1-.27-.25,2.07,2.07,0,0,1,.14-.54l.44-1.29h0c-.36.46-1.55,2.09-2.26,2.09a.3.3,0,0,1-.31-.28,1.34,1.34,0,0,1,.07-.31l.63-1.88a.51.51,0,0,0,0-.16c0-.06,0-.11-.09-.11s-.47.34-.61.47l-.12-.12.25-.26c.3-.3.69-.68,1-.68a.22.22,0,0,1,.24.23,1.06,1.06,0,0,1-.09.38l-.66,2a.53.53,0,0,0,0,.1c0,.05.06.07.12.07.5,0,1.88-1.87,2.12-2.52.05-.13.1-.23.25-.23s.25.14.33.21l-.79,2.38a.29.29,0,0,0,0,.1c0,.06,0,.1.11.1s.49-.33.63-.45Z" transform="translate(-20.3 -15.97)" fill="#6d1418"/><path d="M110.35,95.66c.18-.27.74-1,1.1-1,.18,0,.3.08.3.28a1.72,1.72,0,0,1-.07.38l-.28,1h0c.2-.37.88-1.66,1.34-1.66.15,0,.23.09.23.25s-.08.54-.31.54l-.27,0c-.5,0-1,1.41-1.26,2.16l-.13.47c0,.05-.13.06-.26.06s-.23-.07-.23-.13a.23.23,0,0,1,0-.07l.58-2a1.9,1.9,0,0,0,.09-.43c0-.08,0-.19-.14-.19s-.5.34-.61.49Z" transform="translate(-20.3 -15.97)" fill="#6d1418"/><path d="M117.22,97.08a2.48,2.48,0,0,1-1.79,1,.88.88,0,0,1-.89-1,2.51,2.51,0,0,1,1.61-2.2,2.83,2.83,0,0,1,.82-.25c.16,0,.36.1.36.29a.36.36,0,0,1-.33.38c-.26,0-.37-.23-.6-.23-.74,0-1.27,1.33-1.27,1.94a.63.63,0,0,0,.69.67,2.08,2.08,0,0,0,1.31-.78Z" transform="translate(-20.3 -15.97)" fill="#6d1418"/><path d="M121.45,97.17a2.34,2.34,0,0,1-1.66.95.87.87,0,0,1-.9-1,2.52,2.52,0,0,1,2.1-2.46c.33,0,.71.12.71.52,0,1-1.39,1.33-2.17,1.41a2.43,2.43,0,0,0-.06.56.54.54,0,0,0,.6.56,2,2,0,0,0,1.27-.68Zm-.32-1.95a.28.28,0,0,0-.3-.31c-.56,0-1.14,1-1.25,1.5C120.24,96.37,121.13,96,121.13,95.23Z" transform="translate(-20.3 -15.97)" fill="#6d1418"/><path d="M123.44,97.1c.07.42.55.58.93.58.2,0,.65-.05.65-.33,0-.5-1.06-.82-1.28-1.29a.77.77,0,0,1-.07-.34c0-.38.51-.71.79-.89a.84.84,0,0,1,.54-.16c.3,0,.63.08.63.44,0,.09-.07.33-.15.33h-.09c-.06,0-.07-.05-.1-.11a.75.75,0,0,0-.6-.26c-.25,0-.55.13-.55.42,0,.6,1.29.76,1.29,1.52a1.33,1.33,0,0,1-.47.78,1.16,1.16,0,0,1-.87.34c-.35,0-.93-.1-.93-.57a1,1,0,0,1,.17-.45Z" transform="translate(-20.3 -15.97)" fill="#6d1418"/><path d="M110.59,47l.39-.62.19,0a6.72,6.72,0,0,0,1.32-2.18l-.33.08s.65-1-.73-.53-.93-1.45-.7-1.86.12-.42.1-.43h0l1.5.45-.09-.32s-1-.16-.42-.18-1-.79-1-.79.41-.48.31-.72a2.6,2.6,0,0,1-.14-.64l.07-.57.34-.14.16,0,0-.16.16,0,0,.16.16,0,0,.16-.49-.06-.1.81.65.08,0,.16.16,0,0,.33-.49-.06-.22.46c.53.2.58.44,1.07.63l.14-1.1c-.44-2.46-1.39-4.46-2-4s-3.41.93-5.14-.13l-.05,0,0-.08h0l-.09,0,0-.09,0,0a3.11,3.11,0,0,1-.47-.41h0l0-.08-.07-.08a2.26,2.26,0,0,1-.27-.42.92.92,0,0,0-.24,0l.41.77c-.06.12,0,0,0,.13l-.47.36,0-.09c-.48.28-.64.3-.92-.06l-.09,0-.19-.56.43-.23,0,.09.26-.14,0-.09.61-.1-.09-.17-.3.05a.88.88,0,0,1-.06-.52,2.91,2.91,0,0,1,.54-.09,3.44,3.44,0,0,1-.09-.76l-.22-.15a2.8,2.8,0,0,0-.3.27l-.13,0c0,.07,0,.14,0,.22s.16,0,.18.13a1.94,1.94,0,0,0-.12.4c-.65.33-.69.1-1.18.07a5.13,5.13,0,0,0-.2-1l-.52.27,0-.09-.09,0c-.18-.16,0-.25,0-.35s-.27-.14-.32-.38a7,7,0,0,0-.06-.74c.44-.24.57-.22.83.11-.2.19-.18.12-.12.39.4-.28.31-.59.76-.85l.13,0-.05-.31.34-.4-.18-.35.36.19-.22.42,0,.44-.19.11a1.24,1.24,0,0,0,.42.19l.05.31a4.21,4.21,0,0,0-.82.33c-.13-.06,0,0-.13,0,0-.2,0-.07,0-.22h0l-.1.09a3,3,0,0,0,.06.45c0,.13,0,.35.1.46s.21.28.08.43.1.24.1.24l.28,0,.17-.24.09.28.19.08-.12-.44-.38-.15.35-.4s0,.71.54,0c.15-.2.3-.25.42-.22a6.81,6.81,0,0,1,1.7-3.85,8.7,8.7,0,0,1,1-.42l0-.07-.09,0c-.18-.16,0-.25,0-.35s-.27-.14-.32-.39a7,7,0,0,0-.06-.74c.44-.25.57-.22.83.11-.2.19-.18.13-.12.39.4-.28.31-.59.76-.85l.13,0-.05-.31.34-.4-.18-.34.36.19-.22.42,0,.44-.19.1a1.26,1.26,0,0,0,.41.19l.05.3a4.24,4.24,0,0,0-.82.33c-.13-.06,0,0-.13,0,0-.2-.05-.07,0-.22h0l-.1.09a3,3,0,0,0,.06.45,2.16,2.16,0,0,1,0,.29c1.45-.73,2.82-2-.39-4.27-4.77-3.38-9.14-.29-10.59,1.16a11.75,11.75,0,0,0-5-6.27v.1c-.16-.1-.2-.13-.23-.24a15.84,15.84,0,0,0-2.25-1.1c0,.18-.12.23-.34.26,0-.18,0-.15-.18-.21,0,.33.23.39.22.74l-.07.06.19.08.11.34.26,0-.24.14-.16-.28-.26-.14a1.15,1.15,0,0,0,0-.15.86.86,0,0,0-.26.17L88,18.88a2.89,2.89,0,0,0,.1-.59c.08-.05,0,0,.07-.06s.06,0,.13.07h0l0-.09a2.07,2.07,0,0,0-.28-.12c-.09,0-.21-.12-.3-.11s-.23,0-.28-.11-.18,0-.18,0L87.2,18l.08.18-.19,0-.11.08.3.09.22-.17.1.35s-.41-.24-.2.31-.56.42-.73.33-.18,0-.18,0l.14-.62-.13,0s0,.39-.06.18-.29.43-.29.43-.21-.16-.3-.11a1.05,1.05,0,0,1-.26.07h-.23L85.3,19v-.07h-.07v-.07h.07v-.07h.07V19l.33,0,0-.26h.07v-.07h.13v.2l.19.08c.07-.22.16-.24.23-.45l-.59,0c-.05-.08,0,0-.06-.07l0-.4h.07c0-.38.05-.47.36-.51v-.07l.39.09,0,.33h-.07V18h.07l-.16.39h.13l.08-.19c.21,0,.19.07.32.15a6.5,6.5,0,0,0-.24.65,1.25,1.25,0,0,0,.74-.15,2,2,0,0,0,0-.27l.07-.06-.13-.07s0,.11-.13.06a1.34,1.34,0,0,0-.19-.21c0-.49.19-.43.38-.71a3.46,3.46,0,0,0,.65.24l0-.33-1-.3,0,0a.72.72,0,0,1-.08.26.49.49,0,0,1-.12-.21h-.2v.07h-.13v-.07c.12-.06.11-.09.27-.12h0L85.82,17c-.05.26-.11.2-.22.38h-.13a.61.61,0,0,1,.14-.12l0-.26h.07l-.94-.2h0l-.05,0h0l0,.08-.09,0,0-.07-.49-.09,0,.07-.09,0,0,.09-.18-.07,0-.1-.46-.08a1,1,0,0,0-.23.24l.82.32c0,.13,0,0,.06.13l-.13.58-.09,0c-.18.52-.29.64-.74.55l0,.09L82.46,18l.18-.45.09,0,.11-.27-.09,0,.4-.47L83,16.77l-.2.24c-.28-.15-.23-.18-.38-.36a2,2,0,0,1,.21-.27l-.53-.07h0a2,2,0,0,0,.16.38c-.28.67-.46.52-.85.82-.31-.21-.41-.44-.8-.63l-.21.54-.09,0,0,.09c-.24,0-.14-.22-.2-.29s-.3.07-.49-.09a6.83,6.83,0,0,0-.53-.52c.18-.47.29-.54.71-.46,0,.27-.06.22.16.38a1,1,0,0,0,0-.42l-1-.08c-.58,0-1.17-.05-1.75,0v0a4.26,4.26,0,0,0-.82.33c-.13-.06,0,0-.13,0,0-.2,0-.07,0-.22h0l-.1.09a3,3,0,0,0,.06.45c0,.13,0,.35.1.46s.21.28.08.43.1.24.1.24l.28,0,.17-.24.09.28.19.08-.12-.44-.38-.15.35-.4a.62.62,0,0,0,.06.23l.14-.35.23.26.12-.14c.52-.7,1,.38,1,.66s.08.25.1.25h0l-.88.3.16.13s.52-.25.27-.06.77,0,.77,0,0,.38.1.46a1.58,1.58,0,0,1,.29.26l.16.3-.12.19-.09,0,0,.09-.09,0,0-.09-.09,0,0-.09.26-.14-.23-.43-.34.18,0-.09-.09,0-.09-.17.26-.14-.05-.3c-.32.09-.43,0-.74.07l.41.77c-.06.13,0,0,0,.13l-.47.36,0-.09c-.48.28-.64.3-.92-.06l-.09,0L76.68,19l.43-.23,0,.09.26-.14,0-.09.61-.1-.09-.17-.3.05a.87.87,0,0,1-.06-.52,10.1,10.1,0,0,0,1-.2,1.83,1.83,0,0,0-.76-.81,2.85,2.85,0,0,0-.3.27l-.05,0-.06,0h0c0,.05,0,.11,0,.16s.16,0,.18.13a2,2,0,0,0-.12.4c-.65.33-.69.1-1.18.07a5.12,5.12,0,0,0-.2-1l-.51.27,0-.09-.09,0c-.18-.16,0-.25,0-.35s-.27-.14-.32-.39a2.35,2.35,0,0,1,0-.38,44.5,44.5,0,0,0-9.33,2v.09l-.12,0c-.17.2,0,.1-.21.18l0-.12c-1.53.48-2.87,1-4,1.36l.28.25q0,.34,0,.68l.47.2-.52.1-.11-.6-.38-.42.05-.12-.87.31v.35a2.24,2.24,0,0,1,.47.47,3.17,3.17,0,0,0-.95.71l-.71-.24c.06-.32.12-.63.16-1-2.87.82-11.28,2.53-17,6l.08,0a2.14,2.14,0,0,0,.07.27,1.68,1.68,0,0,0,.38-.46l.4,0a5.64,5.64,0,0,0,.14,1.14c-.12.14,0,0-.1.15-.26,0-.1,0-.27-.07h0l.08.16a3.54,3.54,0,0,0,.58.07c.17,0,.45.11.61,0s.42-.17.57,0,.34,0,.34,0l.05-.37L45,26.93l.38,0,.16-.21H45l-.32.43-.38-.58s.89.21.19-.68.8-1.07,1.17-1,.34,0,.34,0h0L46,26l.21-.16s-.14-.74,0-.36.3-1,.3-1,.46.17.61,0a1.93,1.93,0,0,1,.43-.28l.43-.1.19.21,0,.12.12,0,0,.12-.13,0,0,.12-.12,0-.08-.37-.62.14.11.49-.12,0,0,.12-.25.06-.09-.37-.4,0c0,.44-.17.54-.17.95l1.11-.26c.14.11,0,0,.15.09l.29.71-.12,0c.19.69.16.9-.39,1.13l0,.12-.77.05-.14-.62.13,0-.08-.37-.12,0c0-.26.05-.53.07-.8L46.5,26c0,.13,0,.27,0,.4a1.13,1.13,0,0,1-.67-.1A12.62,12.62,0,0,0,45.87,25a2.39,2.39,0,0,0-1.27.69,3.62,3.62,0,0,0,.24.46l-.1.15.28.07s0-.22.22-.18a2.61,2.61,0,0,0,.46.28c.2.92-.11.89-.3,1.5a7,7,0,0,0-1.32-.08l.17.74-.12,0,0,.13c-.26.18-.31-.13-.42-.16s-.27.29-.59.27a9.22,9.22,0,0,0-.95-.17c-.16-.64-.09-.79.42-1,.17.32.09.28.46.28-.22-.6-.63-.59-.81-1.24l.1-.15-.4,0,0,0c-.43.28-.84.56-1.23.86C36,31,34.86,33.47,34,35.39a8.74,8.74,0,0,0-.56,2h0s.1-.16.16-.09.11.25.22.34a.63.63,0,0,1,.17.47c0,.12-.12.24,0,.31s.13.17.21.26a1,1,0,0,1,.25.45c0,.19.1.23.18.16s.06.29.06.29l0,.37-.09.05A5.79,5.79,0,0,0,34,38.56a3,3,0,0,1-.6.17c0,.09,0,.18,0,.28l-.25.2a17.13,17.13,0,0,0,0,3.87c.29,1.63.06,4,1.16,4.6a3.05,3.05,0,0,0,.35-1.16c.12-.81,1.4,2.44,1.28,1.4a4.77,4.77,0,0,1,0-1.1l-.22.34c-.19-.08-.09,0-.18-.12s0,0-.07-.2c.12-.07,0,0,.11-.08l.37,0c0-.07,0-.15,0-.23l-.19,0c.08-.19,0-.09.12-.18s0-.06.11-.06a21.48,21.48,0,0,1,.62-2.26c.6-1.92-1.51-7.1-.23-9.08,2.33-3.61,1.63-2.85,3-3.67a21.46,21.46,0,0,1-.22,2.85h.08a8.44,8.44,0,0,0,.13,2.33,4.52,4.52,0,0,1,.9.13l.13-.39.52-.13.13.26h.13v.13c-.27.25-.24-.14-.39.39.54,0,.67-.07.78-.52H42v.26h-.26v.52c.41-.1.47-.17.52-.65h.39a6.83,6.83,0,0,1-.26.9c-.42,0-.38.12-.64.26,0,.46.17.52,0,1h-.13l-.13.39h.13v.26h.13l.13.39a1.31,1.31,0,0,1-.52.13,3.94,3.94,0,0,0-.13.9h-.13c-.12-.2,0-.7-.13-.9H40.8c-.15-.14,0-.05-.26-.13l-.13.39c-.35-.1-.29,0-.39-.39h-.39c-.11-.15,0,0-.13-.13a3.67,3.67,0,0,1,.39-.77c-.13-.1-.13-.16-.26-.26s0,0-.13-.13-.22.15-.27,0,0-.4-.09-.58a.94.94,0,0,1,0-.74c.11-.14.31-.25.12-.45s-.08-.31-.13-.48l0-.17a30.93,30.93,0,0,0,1.19,11.64c.47,1.49-.4,1.47-1.8,3.29.19.26,0,.86-.06,1s-.06.26-.06.26l-.64-.19-.08.14c.15,0,.35.08.13.09s.61.47.61.47-.24.29-.18.43a1.56,1.56,0,0,1,.09.38l0,.34-.2.08H38v.1h-.1V54h-.1v-.1l.29,0,.06-.48-.39,0v-.1h-.1l0-.19.29,0,.13-.28c-.3-.11-.34-.25-.6-.35l-.06.11-.09.74c-.12.07,0,0-.11.09h-.24l-.1.21c-2.21,4.65.82,8.38,0,9.43a2.47,2.47,0,0,0-.26.42h0l0,.19H36.7l-.06-.07A3.5,3.5,0,0,0,37,67c.81.93,3.26,1.28,4,0a14.26,14.26,0,0,1-.88-1.7H40l0-.13h0l0-.06-.1,0a1.15,1.15,0,0,0,0-.14.86.86,0,0,0-.2.24l-.21,0a2.93,2.93,0,0,0-.07-.6c.06-.07,0,0,.05-.08s.05,0,.14,0h0l0-.09a1.91,1.91,0,0,0-.3,0c-.09,0-.23-.06-.32,0s-.22.09-.3,0-.18,0-.18,0l0,.19.13.15h-.2l-.08.11h.31l.17-.22.2.3s-.46-.11-.1.35-.42.56-.61.52-.18,0-.18,0l0-.63-.11.08s.07.39,0,.19-.16.5-.16.5-.24-.09-.32,0a1.07,1.07,0,0,1-.22.14l-.23.05-.1-.11v-.06l-.06,0v-.07h.06v-.07h.06l0,.19.32-.07-.06-.26h.07l0-.07.13,0,0,.19.21,0c0-.23.09-.28.09-.5l-.58.13c-.07-.06,0,0-.08,0L36.86,65h.06c-.09-.36-.08-.47.21-.59v-.06l.4,0,.07.32h-.06l0,.19h.07l0,.42.13,0c0-.07,0-.14,0-.21.21,0,.2,0,.35.06a6.69,6.69,0,0,0-.05.69,1.26,1.26,0,0,0,.67-.35,2.09,2.09,0,0,0-.12-.24l.05-.08-.14,0s0,.11-.11.09a1.29,1.29,0,0,0-.24-.15c-.1-.48.06-.47.16-.78a3.45,3.45,0,0,0,.69,0l-.09-.39H39v-.07c.14-.09.16.07.22.09s.14-.15.31-.14c0-.11-.05-.22-.07-.32h-.06l0-.19h.06s0,0,0,0a3.48,3.48,0,0,1,0-1.29c.47-2,.58-8.5,3.72-9.43,0,0,.65,7.88,1.63,9,.6.66.75,1.79,1.2,2.74.1,0,.08.16.13.2s.24-.1.42,0,.31.26.52.35c-.06.32-.12.44-.3.48a3.21,3.21,0,0,0,2.39.54c2-.17.17-.61-.17-3.14-.41-3-1.92-3.67-2.1-4.89-.21-1.5-.23-5.93.23-6.28s1.51-2.68,3.72-5.24S58.14,47.32,61.75,48a12.33,12.33,0,0,0,2.53.16l-.08-.08L64,47.8l.12-.18.09,0,0-.09.09,0,0,.09.09,0,0,.09-.26.14.23.43.35-.18,0,.09.09,0,.09.17.32,0-.2-.37c.06-.12,0,0,0-.13l.47-.36,0,.08c.48-.28.64-.3.92.06l.09,0,.19.56-.14.08.38,0L67,47.84l.09,0c.11.08.16.08.24.14l1.14-.16V47.6a2.27,2.27,0,0,1,.21.14l.23,0v-.21l-.33-.11v-.33h.33c.09.12,0,0,.11.11v.44h.11v.06l1.05-.19-.07-.41H70v-.33h.11V47c.26.07.24.12.44.22v.23l.24-.05c.05-.25.14-.33.2-.61.35,0,.32-.1.54-.22,0-.39-.15-.44,0-.87h.11l.11-.33h-.11V45.1h-.11l-.11-.33a1.1,1.1,0,0,1,.44-.11A3.3,3.3,0,0,0,72,43.9h.11c.1.17,0,.59.11.76h.11c.12.12,0,0,.22.11l.11-.33c.29.08.25,0,.32.33h.33c.09.12,0,0,.11.11a3.07,3.07,0,0,1-.33.65c.11.09.11.14.22.22s0,0,.11.11.19-.13.23,0,0,.34.08.49a.64.64,0,0,1,0,.28c.4-.12.76-.24,1.06-.35l.07-.38.09,0c.18-.55.29-.68.77-.59l0-.1.54.31-.1.26a.72.72,0,0,1,.78.52,2.57,2.57,0,0,0,.43-.26c.33.22.44.45.85.64l.21-.57.1,0,0-.1c.25,0,.15.22.21.3s.31-.08.52.08a7.32,7.32,0,0,0,.57.54c-.18.5-.29.57-.73.49,0-.29.06-.23-.18-.39-.11.5.17.68,0,1.2l-.13.06.25.2c0,.18,0,.37,0,.55l.38.14-.41.1L79,48.85l-.32-.32a1.74,1.74,0,0,0,.08-.21,1.39,1.39,0,0,0-.46.14l-.25-.2a4.5,4.5,0,0,0,.42-.83c.14,0,0,0,.13-.06.17.13.09,0,.16.17h0c0-.09,0-.15,0-.15a3,3,0,0,0-.36-.31c-.12-.07-.25-.27-.39-.29s-.36-.07-.37-.28-.25-.12-.25-.12l-.2.22,0,.31-.14-.08c0,.07,0,.14,0,.22l.07,0,.41-.15v.56s-.51-.54-.43.37c0,.31-.08.45-.24.49-.08.34-.17.69-.28,1-.7,2.33-2.72,4-2.91,7.1a7.61,7.61,0,0,0,2.33,5.24c1,.93,1.86,4.65,2.44,5s2.76-.06,3.35-.18-.2-1.57-1.13-3.43a14.44,14.44,0,0,0-1-1.59,1.05,1.05,0,0,1,0,.68h-.13l-.13.39h.13v.26h.13l.13.39a1.33,1.33,0,0,1-.52.13,3.92,3.92,0,0,0-.13.9H79c-.12-.2,0-.7-.13-.9h-.13c-.15-.14,0-.05-.26-.13l-.13.39c-.35-.1-.29,0-.39-.39h-.39c-.11-.15,0,0-.13-.13a3.67,3.67,0,0,1,.39-.77c-.13-.1-.13-.16-.26-.26s0,0-.13-.13-.22.15-.27,0,0-.4-.09-.59a.94.94,0,0,1,0-.74c.11-.14.31-.25.12-.45s-.08-.31-.13-.48A1.46,1.46,0,0,1,77.1,59c.08-.28,0-.37-.16-.32s.09-.43.09-.43l.18-.52.14,0A8.42,8.42,0,0,0,77.49,60a4.53,4.53,0,0,1,.9.13l.13-.39h.06a4.78,4.78,0,0,1-.77-3.26c.7-3.49,6.4-3.84,9.31-6.17,1-.78,2.16-1.76,3.44-2.59l.08-.11h.11a11.89,11.89,0,0,1,2.59-1.28l-.17-.13,0-.22.06-.08-.08-.06.06-.08.08.06.06-.08.08.06-.17.23.29.21.2-.05.14-.19.08.06L94,46l.14.11.41-.06-.46-.34c0-.14,0,0,0-.14l.27-.53.08.06c.31-.45.45-.54.86-.34l.06-.08.41.43-.29.39-.08-.06-.17.23.08.06-.41.28a4.23,4.23,0,0,1,1.09.08c.2-.13.37-.09.67-.21.19.22.25.41.42.62l.23.15.31-.42.08.06.06-.08c.23.06.08.24.12.33s.31,0,.45.21a6.77,6.77,0,0,0,.37.64,1,1,0,0,1-.33.34c1.14,1.72,1.13,4.18,2.24,5,2,1.53,3.67-.06,5.29-1.68V51l0-.11-.12-.05,0-.12.12.05,0-.12.12,0L106,51h0l.31-.31c.17-.17.38-.35.6-.54h0l.18-.75.11.05c.26-.67.4-.82,1-.69l0-.12.31.19c.48-.38,1-.78,1.44-1.21l-.12-.24Zm-2.41-20.16-.09-.17.17-.09.09.17ZM106.1,29l0-.09c-.14,0,0,0-.13,0l.17-.09C106.13,29,106.14,28.84,106.1,29Zm-.24-2.31.17-.09.14.26-.17.09.05.31-.26.14,0-.09c-.14,0,0,0-.13,0A.91.91,0,0,0,105.86,26.68Zm-.09,1.49.14.26-.26.14,0-.09c-.2,0-.07.05-.22,0A1.12,1.12,0,0,1,105.77,28.17ZM104.49,26c0-.15,0,0,.13-.18l0,.08c.2,0,.07-.05.22,0l-.38.32C104.45,26,104.44,26.12,104.49,26Zm-.07.48.34-.18c0,.14,0,.29,0,.44-.2,0-.07,0-.22,0s0,0-.18-.13C104.43,26.46,104.39,26.59,104.41,26.46Zm-1.27,6.76,0-.09-.09,0c0-.15,0,0,.12-.18l.09.17ZM103,31.74l-.09-.17.17-.09.09.17ZM77.1,16.7l0-.09-.06,0,0,.17c-.16-.12-.08,0-.15-.16s0,0,0-.22l.09,0c.13-.16,0-.08.16-.14l0,.22.08-.07.09.17Zm1.63.18-.09,0c-.12.07,0,0-.13.05a.92.92,0,0,0-.18-.6l.07-.18.27.11-.07.18.24.2Zm.66,1-.09,0c-.13.16,0,.09-.16.15a1.12,1.12,0,0,1,.09-.49l.27.11ZM44,26.57c-.17-.11-.05,0-.18-.21l.25-.06,0,.12-.13,0Zm-4.18,3.84c-.17-.11-.05,0-.18-.22l.12,0c0-.26,0-.1.07-.27l.27.59C39.86,30.46,40,30.51,39.85,30.41Zm.95.17c-.11.17,0,.05-.22.18-.14-.11,0,0-.15-.1l-.11-.49.55.13C40.85,30.57,40.9,30.41,40.8,30.58Zm1.13-1.3c-.08.16,0,0-.09.15a1.19,1.19,0,0,0-.64-.51l-.06-.24.37-.09.05.24.4,0,.09.37ZM39,64.91c.09.06,0,0,.09.11L39,65V65H39Zm-2.36-.56-.13,0a.6.6,0,0,1,.1-.16L36.57,64h.06c0-.09,0,0,.05-.08s0,0,.08,0C36.79,64.2,36.72,64.15,36.66,64.35ZM38,64.19A.49.49,0,0,1,37.8,64l-.19,0v.06l-.13,0V64.1c.1-.09.08-.11.23-.19s0,0,.12-.09a.26.26,0,0,0,.16.1A.72.72,0,0,1,38,64.19Zm1-.76.06,0c0-.08,0,0,0-.08l0,.13C39,63.45,39,63.49,39,63.43Zm4.44-34,.08.37-.12,0c0,.27,0,.1-.06.28a1.49,1.49,0,0,1-.26-.59Zm.12,7.94h-.13v-.26c-.31-.08-.28-.14-.52-.26V36.1l.39.13.13.77h.13ZM44,29.58l-.06-.25c.26,0,.1,0,.27.06l-.12,0C44,29.6,44.07,29.45,44,29.58Zm.34,10.27L44,39.72a1.67,1.67,0,0,1,.13-.65c.26-.08.11,0,.26-.13h.13C44.46,39.25,44.37,39.55,44.29,39.85Zm.39-3v-.52h-.13v-.13h.13v-.39a1.56,1.56,0,0,1,.64.13v.39c-.23-.12-.2-.19-.52-.26v.39l.39.13V37h-.39C44.7,36.86,44.83,37,44.68,36.88Zm.51,3.62c-.18-.16-.34-.15-.13-.39h.13v.13h.13Zm.13-3.23v-.52h.13a1.29,1.29,0,0,1,.13.52Zm3.56,27c.07.11,0,0,0,.18l-.08,0c-.08.15,0,.07-.11.15,0-.14,0-.28,0-.42C48.89,64.25,48.81,64.17,48.88,64.28Zm-.52-.35c.11-.07,0,0,.18-.05s0,0,.07.1l-.06.33-.3-.22C48.33,63.92,48.25,64,48.36,63.93Zm-1.1.47.08,0c.09-.08,0,0,.1-.07a.79.79,0,0,0,.25.47l0,.16-.24,0,0-.16-.23-.13Zm-1.08-.54c-.15-.08-.07,0-.15-.11l.08,0c.09-.08,0,0,.1-.07Zm.57-.32a1,1,0,0,1,0,.42l-.24,0,0-.24h.08C46.71,63.53,46.63,63.61,46.74,63.54Zm-.19-35.08c-.11.17,0,.05-.22.18a.49.49,0,0,0-.31-.19,1.38,1.38,0,0,1,0-.52.93.93,0,0,1,.33.31l.37-.09,0-.12L47,28l0,.12C46.79,28.27,46.83,28.32,46.55,28.46Zm2-.86.25-.06a1.19,1.19,0,0,1-.19.3l.11.49-.12,0c-.07.16,0,0-.09.15-.14-.11,0,0-.15-.09C48.31,27.89,48.44,28,48.56,27.6Zm-.12,1.72-.09-.37.13,0,.36.44ZM59,37.59h.08c.08-.15,0-.07.11-.15a1,1,0,0,1,0,.42l-.24,0Zm-.44.09c.09-.08,0,0,.09-.07l0,.16c-.15-.08-.07,0-.15-.11Zm-2.12,0c.16-.05.15-.09.35-.1s0,0,.18,0a.33.33,0,0,0,.13.19.89.89,0,0,1-.14.31.64.64,0,0,1-.12-.28l-.24,0,0,.08-.16,0Zm-.55-1.12,0,.24h-.08l-.1-.36Zm-.49.83.06-.33.08,0c.09-.08,0,0,.1-.07.05.1,0,0,.07.1-.11.34-.17.24-.34.44l-.16,0A.79.79,0,0,1,55.39,37.42ZM54.33,21.71c0,.1,0,0-.08.12l0-.06c-.13,0,0,0-.15,0l.26-.22C54.36,21.69,54.36,21.61,54.33,21.71Zm3.36,17.84,0-.08.08,0,0-.08c.07.11,0,0,.05.18Zm1.2.82-.16,0,0-.16.16,0Zm0-.59-.1.07.23.13.09.44.33.06-.32.13L59,40.23l-.3-.22a1.43,1.43,0,0,0,0-.18,1.07,1.07,0,0,0-.35.18l-.23-.13a3.73,3.73,0,0,0,.22-.72c.11-.05,0,0,.1-.07.15.08.07,0,.15.11h0c0-.07,0-.12,0-.12a2.37,2.37,0,0,0-.33-.2c-.11,0-.24-.18-.35-.18s-.29,0-.33-.17-.22-.06-.22-.06l-.13.2.07.24-.23-.09-.15.09.36.16.31-.17.08.45s-.48-.36-.29.36-.76.43-1,.3-.21-.06-.21-.06l.27-.75-.17,0s-.11.48-.11.21-.43.49-.43.49-.23-.22-.35-.18a1.35,1.35,0,0,1-.33.05l-.29-.05-.06-.18V39.5l-.08,0,0-.08h.08l0-.08.08,0,0,.24.41.08.06-.33.08,0v-.08l.16,0,0,.24.23.13c.12-.26.24-.28.35-.52L55.34,39c-.05-.1,0,0-.07-.1s0-.34,0-.51l.08,0c.07-.46.14-.58.53-.58v-.08l.48.17-.08.41h-.08l0,.24.08,0-.26.46.16,0,.13-.23c.26.08.22.12.38.24a8.51,8.51,0,0,0-.4.77,1.58,1.58,0,0,0,.94-.07,2.46,2.46,0,0,0,0-.34l.1-.07-.15-.11a.12.12,0,0,1-.18,0,1.74,1.74,0,0,0-.2-.29c.13-.6.3-.51.58-.82a4.35,4.35,0,0,0,.77.4l.09-.49.08,0,0-.08c.2,0,.15.16.21.21s.24-.1.42,0,.31.26.52.35c-.07.42-.15.5-.52.49,0-.23,0-.19-.2-.29C58.74,39.24,59,39.34,58.92,39.78Zm1.18-.88-.25,0,0-.16-.23-.13,0-.24.08,0c.09-.08,0,0,.1-.07a.78.78,0,0,0,.25.47Zm.89-.68-.3-.22c.08-.15,0-.07.11-.15s0,0,.18-.05,0,0,.07.1Zm.31.15c-.08.15,0,.07-.11.15,0-.14,0-.28,0-.42.15.08.07,0,.15.11s0,0,0,.18Zm.07-18.09-.23-.1.1-.23.23.1Zm7.18,1h.13v-.13c.15.15.05,0,.13.26h-.27ZM67.1,46.7c-.38.15-.34,0-.65,0l-.09-.17a.87.87,0,0,1,.26.08l.34-.18,0,.09c.14,0,0,0,.13,0C67.08,46.7,67.12,46.56,67.1,46.7Zm.39-.1,0-.09.25-.36.05.3Zm1,.67H68.4a1.09,1.09,0,0,1-.11-.44h.22Zm.22-2.83h-.11v-.11h-.11l.11-.22C68.78,44.25,68.91,44.24,68.73,44.44ZM70,17.93h.13c.08-.27,0-.12.13-.27a1.56,1.56,0,0,1,.13.66H70Zm-.67.26c.12-.15,0,0,.13-.13v.26c-.26-.08-.11,0-.26-.13Zm-.26,1.33.39-.26v.4h-.13v.4C69.09,19.89,69.12,19.92,69.08,19.52Zm.41,25.8c-.22.06-.09,0-.22.11h-.11l.22-.76.22.11A1.42,1.42,0,0,1,69.49,45.32Zm.25-23.4-.4-.13a5.82,5.82,0,0,0,.13-1.2c.15-.11,0,0,.14-.13.26.08.11,0,.26.13H70v.66a1.25,1.25,0,0,1,.26.27A1.78,1.78,0,0,0,69.74,21.91Zm.93.4H70.4V22h.27Zm1.46-2.66h-.4v-.26l-.4-.13v-.4h.13c.12-.15,0,0,.13-.13a1.24,1.24,0,0,0,.53.67Zm1.19-1.33-.53-.27c.08-.27,0-.12.13-.27s0-.06.27-.13c.11.15,0,0,.13.13Zm3.78,1.9.09.17a.87.87,0,0,1-.26-.08l-.34.18,0-.08c-.14,0,0,0-.13,0,.06-.13,0,0,0-.13C76.84,20.1,76.8,20.22,77.11,20.23Zm-3.25-1.76c-.08.26,0,.11-.13.26l-.13-.66c.27.08.12,0,.27.13s.06,0,.13.27Zm.58-1.57,0-.09c-.2,0-.07.05-.22,0a1.11,1.11,0,0,1,.38-.31l.14.26Zm.45.42,0-.09c-.14,0,0,0-.13,0l.17-.09C74.92,17.31,74.94,17.17,74.89,17.32Zm.27,27.56L75,44.82a1,1,0,0,1,.26-.12l.14-.38.1,0c.12-.08,0,0,.13-.06,0,.14,0,0,.06.13C75.46,44.8,75.41,44.68,75.16,44.89Zm.74-.82-.1,0-.05-.45.25.2Zm0-23.28-.05-.3.26-.14,0,.09Zm.21-1.88c-.15,0,0,0-.18-.13a.39.39,0,0,0,.08-.27,1.1,1.1,0,0,1,.39-.1.7.7,0,0,1-.17.31l.14.26.09,0,.09.17-.09,0C76.26,19,76.23,19.09,76.07,18.91ZM77,45.79a.75.75,0,0,1-.09-.36l-.29-.11,0,.1-.19-.07,0-.1c.21,0,.2-.08.45-.05s0,0,.23,0a.4.4,0,0,0,.12.26A1.12,1.12,0,0,1,77,45.79Zm2.07,0c-.17-.13-.09,0-.16-.17l.1,0c.12-.08,0,0,.13-.06Zm-1.29,2-.19-.07,0-.1.1,0,0-.09C77.83,47.74,77.79,47.61,77.78,47.82ZM78.88,49l-.19-.07.07-.19.19.07ZM79.75,46l-.29-.11.11-.29.1,0c.13-.17,0-.09.17-.16A1.19,1.19,0,0,1,79.75,46Zm.16-28.17c-.12.07,0,0-.12.06l.07-.18c.16.13.08,0,.15.16Zm.74,29.59-.29-.11.07-.19-.25-.2.11-.29.1,0c.12-.08,0,0,.13-.06a1,1,0,0,0,.21.62Zm1.21-.64-.31-.33c.13-.17,0-.09.17-.16s0,0,.23,0c0,.14,0,0,.06.13Zm.44.27-.09,0c-.13.17,0,.08-.17.15l.08-.51c.17.13.09,0,.16.17S82.32,46.87,82.3,47.09Zm.05-28.78c-.2,0-.19.07-.43,0s0,0-.22,0a.39.39,0,0,0-.11-.25,1.1,1.1,0,0,1,.24-.33.7.7,0,0,1,.07.34l.27.11,0-.09.18.07Zm.39,1.41.11-.27.09,0,0,.43Zm.76-.85-.14.36-.09,0c-.12.07,0,0-.13.06,0-.13,0,0-.05-.13.2-.36.24-.24.49-.44l.18.07A.86.86,0,0,1,83.5,18.87Zm4.14-.21v-.07h.07v-.07c.07.08,0,0,.06.13Zm1,.53h-.13V19h.13Zm3.81,2.08h.27v.26h-.27Zm-1,4.52h.13c.12-.15,0,0,.13-.13v.26C91.52,25.83,91.67,25.93,91.52,25.78Zm.26,1.06v.4h-.13v.4c-.25-.17-.22-.14-.26-.53Zm-.87-5.53c.15-.11,0,0,.14-.13.26.08.11,0,.26.13h.13V22a1.25,1.25,0,0,1,.26.27,1.78,1.78,0,0,0-.53.4l-.4-.13A5.82,5.82,0,0,0,90.92,21.31Zm.5,9.7-.4-.13a5.83,5.83,0,0,0,.13-1.2c.15-.11,0,0,.14-.13.26.08.11,0,.26.13h.13v.66a1.25,1.25,0,0,1,.26.27A1.77,1.77,0,0,0,91.42,31Zm.9-5.5h.13c.08-.27,0-.12.13-.27a1.56,1.56,0,0,1,.13.66h-.4ZM93,29.9h-.27v-.26H93Zm1.47-2.66H94V27l-.4-.13v-.4h.13c.12-.15,0,0,.13-.13a1.24,1.24,0,0,0,.53.67Zm1.73-1.46c.15.15.06,0,.13.27h-.13c-.08.26,0,.11-.13.26l-.13-.66C96.17,25.73,96,25.64,96.17,25.79ZM94.89,44.22l-.15-.12a.9.9,0,0,1,.27,0l.23-.31.08.06c.13,0,0,0,.14,0s0,0,0,.14C95.19,44.23,95.17,44.1,94.89,44.22Zm.75-18.31-.53-.27c.08-.27,0-.12.13-.27s0-.06.27-.13c.11.15,0,0,.13.13Zm.15,17.75-.08-.06.08-.43.18.25Zm.56,1.87a.7.7,0,0,1,0-.35L96.12,45l-.06.08L95.91,45,96,44.9c.19,0,.2,0,.43.07s0,0,.22,0a.39.39,0,0,0,0,.27A1.12,1.12,0,0,1,96.34,45.54Zm1.89.55c-.12-.16-.08,0-.1-.19l.08.06c.14,0,0,0,.14,0Zm.31.23.17-.23.08.06c.16-.12,0-.08.19-.1a1.11,1.11,0,0,1-.21.45ZM99.23,48,99,47.87l.12-.15-.18-.25.17-.24.08.06c.13,0,0,0,.14,0a.91.91,0,0,0,0,.62Zm.17-16.46c-.15,0,0,0-.18-.13.06-.12,0,0,0-.13l.34-.18c0,.14,0,.29,0,.43C99.41,31.61,99.54,31.62,99.39,31.58Zm-.06-.52c0-.2-.05-.07,0-.22s0,0,.13-.18l0,.08c.2,0,.07,0,.22,0Zm1.27,2,.14.26-.26.14,0-.09c-.2,0-.07.05-.22,0A1.11,1.11,0,0,1,100.61,33Zm-.3,14.36c.17-.12,0-.07.2-.1s0,0,.21,0c0,.14,0,0,0,.14l-.23.31Zm.53.76-.08-.06c-.16.12,0,.07-.19.1l.21-.45c.12.16.08,0,.1.19S100.92,48,100.84,48.15Zm.1-14.3,0-.09c-.14,0,0,0-.13,0l.17-.09C101,33.83,101,33.7,100.94,33.85Zm-.1-2,.05.31-.26.14,0-.09c-.14,0,0,0-.13,0a.92.92,0,0,0,.25-.57l.17-.09.14.26Zm1.07,5.52-.05-.3.26-.14,0,.09Zm.21-1.88c-.15,0,0,0-.18-.13A.39.39,0,0,0,102,35a1.09,1.09,0,0,1,.39-.1.7.7,0,0,1-.17.31l.14.26.09,0,.09.17-.09,0C102.31,35.57,102.28,35.61,102.12,35.43Zm.87,1.41-.34.18,0-.09c-.14,0,0,0-.13,0,.05-.13,0,0,0-.13.38-.15.34,0,.66,0l.09.17A.86.86,0,0,1,103,36.85Zm4.49,11.34-.23-.1a1.17,1.17,0,0,1,.33-.14l.2-.47.12,0c.16-.09,0,0,.16-.06,0,.17,0,0,.07.17C107.86,48.1,107.8,47.95,107.48,48.19Zm1-1-.12-.05,0-.57.3.27Z" transform="translate(-20.3 -15.97)" fill="#af6c39"/><path d="M74.76,47.53a1.21,1.21,0,0,1-.27,0l-.79.27a1.08,1.08,0,0,1,0,.56c-.06.23,0,.31.13.27s-.08.36-.08.36l-.15.44h-.12a13.69,13.69,0,0,0,0-1.57,32.38,32.38,0,0,0-3.6,1.41c-.87.52-.7,3.84-1.22,5.24s-.64,4.83.06,5.7A18.63,18.63,0,0,1,70,62.92a3.09,3.09,0,0,0,.88.26v-.63H71v-.11c.24-.09.22.16.31.21s.27-.19.52-.1a7.12,7.12,0,0,0,.73.31c0,.54-.08.65-.52.73-.08-.28,0-.24-.31-.31.07.52.4.59.42,1.15l-.1.11.31.1.21.52H73l-.36.24L72.36,65l-.42-.2a1.78,1.78,0,0,0,0-.23,1.37,1.37,0,0,0-.39.3l-.31-.11a4.47,4.47,0,0,0,.1-.94c.12-.09,0,0,.11-.11.21.06.09,0,.21.11h0c0-.08,0-.15,0-.15a3.1,3.1,0,0,0-.45-.17c-.14,0-.34-.17-.48-.14s-.37.06-.45-.14a.13.13,0,0,0-.12-.09c.18.4.36.81.54,1.21h0v-.1c.12.12,0,0,.1.21h-.1a6.06,6.06,0,0,0,1.45,2.32c.87.35,3.4.17,3.93-.35S70,59.72,71.18,58.14s.64-3.78,1.16-5,.52-2.44,1.57-3.14a3.58,3.58,0,0,0,1.55-2.51c-.15.16-.3.34-.3.34S74.92,47.5,74.76,47.53Zm-4.49,5.11c0,.15,0,0-.13.18l0-.08c-.2,0-.07.05-.22,0l.38-.32C70.3,52.62,70.31,52.49,70.27,52.64Zm.07-.48-.34.18c0-.14,0-.29,0-.44.2,0,.07,0,.22,0s0,0,.18.13C70.33,52.15,70.36,52,70.34,52.16Zm1.93,13h-.21V65h.21Zm.52-2.71h.11c.09-.12,0,0,.11-.1a1,1,0,0,0,.42.52v.21h-.31v-.21l-.32-.11Zm-1-.73h.11c.06-.21,0-.09.1-.21a1.22,1.22,0,0,1,.1.52h-.31Zm-.52.21c.09-.12,0,0,.1-.1V62c-.21-.07-.09,0-.21-.11Z" transform="translate(-20.3 -15.97)" fill="#af6c39"/><path d="M109.86,29.4h0l-.88.3.16.13s.52-.25.27-.06.77,0,.77,0,0,.38.1.46a1.55,1.55,0,0,1,.29.26l.16.3-.12.18-.09,0,0,.09-.08,0,0-.09-.09,0,0-.09.26-.14-.23-.43-.35.18,0-.09-.09,0-.09-.17.26-.14L110,30c-.32.09-.43,0-.74.06l.41.77c-.06.12,0,0,0,.13l-.47.36,0-.09c-.48.28-.64.3-.92-.06l-.09,0-.19-.56.43-.23,0,.09.26-.14,0-.09.61-.1-.09-.17-.31.05a.88.88,0,0,1-.06-.52,10,10,0,0,0,1-.2,1.89,1.89,0,0,0-.35-.5,4.14,4.14,0,0,1-.76.56.47.47,0,0,0,0,.1,1.24,1.24,0,0,1-.56.17l-.17.07c-3.32,1.13-1.57,4.8-1.57,4.8,1.22,1,4.1,1.57,5-2.27s2.09-3.64,2-5.15A9.83,9.83,0,0,0,112,23.37l-.16.19.11.09-.09.11-.11-.09-.27.32-.13-.13a8.55,8.55,0,0,1-1.78,4.78,1.67,1.67,0,0,1,.18.5C109.79,29.4,109.85,29.4,109.86,29.4Zm-2.69.78a1.1,1.1,0,0,1,.39-.1.7.7,0,0,1-.17.31l.14.26.09,0,.09.17-.09,0c-.16-.11-.19-.07-.35-.25s0,0-.18-.13A.39.39,0,0,0,107.18,30.18Zm-.11,2.27-.05-.3.26-.14,0,.09Zm1.08-.47-.34.18,0-.09c-.14,0,0,0-.13,0,.06-.13,0,0,0-.13.39-.15.34,0,.66,0l.09.17A.87.87,0,0,1,108.14,32Z" transform="translate(-20.3 -15.97)" fill="#af6c39"/></svg>