<svg id="Layer_1" data-name="Layer 1" xmlns="http://www.w3.org/2000/svg" viewBox="0 0 68.54 61.25"><title>logomark-ae</title><polygon points="31.25 0.51 30.96 0 0.29 53.12 0 53.63 4.09 53.63 4.4 53.63 6.43 53.63 6.74 53.63 7.95 53.63 8.97 51.87 7.75 51.87 7.44 51.87 5.41 51.87 5.1 51.87 3.04 51.87 30.96 3.51 33.93 8.65 34.94 6.9 31.25 0.51" fill="#fed6ab"/><polygon points="36.75 10.03 35.74 11.79 58.88 51.87 56.82 51.87 56.51 51.87 54.48 51.87 54.17 51.87 12.57 51.87 11.56 53.63 55.18 53.63 55.49 53.63 57.52 53.63 57.83 53.63 61.92 53.63 36.75 10.03" fill="#fed6ab"/><polygon points="9.66 55.56 10.62 53.9 10.78 53.63 11.79 51.87 11.95 51.6 32.72 15.61 31.71 13.85 9.92 51.6 9.76 51.87 8.75 53.63 8.59 53.9 6.91 56.81 6.62 57.32 56.82 57.32 55.8 55.56 9.66 55.56" fill="#fcb76e"/><polygon points="68.54 57.32 37.87 4.2 37.58 3.69 35.49 7.31 35.34 7.58 34.32 9.33 34.17 9.6 33.54 10.68 34.56 12.44 35.18 11.36 35.34 11.09 36.35 9.33 36.51 9.06 37.58 7.21 65.5 55.56 59.46 55.56 60.48 57.32 68.54 57.32" fill="#fcb76e"/><polygon points="59.81 57.59 59.65 57.32 58.64 55.56 58.48 55.29 57.92 54.32 55.9 54.32 56.46 55.29 56.61 55.56 57.63 57.32 57.78 57.59 58.88 59.49 3.04 59.49 6.01 54.34 3.99 54.34 0.29 60.74 0 61.25 61.92 61.25 59.81 57.59" fill="#f89521"/><polygon points="30.96 11.13 31.96 12.87 32.12 13.14 33.13 14.9 33.29 15.17 54.07 51.16 56.09 51.16 34.3 13.41 34.15 13.14 33.13 11.39 32.98 11.12 31.25 8.13 30.96 7.62 5.83 51.16 7.85 51.16 30.96 11.13" fill="#f89521"/></svg>