<svg id="Layer_1" data-name="Layer 1" xmlns="http://www.w3.org/2000/svg" viewBox="0 0 249.03 125"><title>pe-branding</title><path d="M44.33,31.19c1.17,0,2-.41,2-1.78,0-1.19-.9-1.61-2-1.61H42.7v3.38Zm-3.82-5.06h4.15c2.09,0,4,.92,4,3.28,0,2.6-1.74,3.52-4,3.52h-2v3.82h-2.2Z" fill="#cfe08f"/><path d="M60.1,31.1c1,0,1.82-.38,1.82-1.7s-.9-1.59-1.82-1.59H58.34V31.1Zm-4-5h4c2.23,0,4.12.86,4.12,3.22a2.78,2.78,0,0,1-2.66,2.75,1.85,1.85,0,0,1,1.34,1L65,36.76H62.47L61,34a1.7,1.7,0,0,0-1.78-1.14h-.9v3.91h-2.2Z" fill="#cfe08f"/><path d="M80.65,31.46c0-2.24-1.13-3.64-2.89-3.64S75,29.22,75,31.46s1.28,3.63,2.84,3.63,2.84-1.26,2.84-3.63m-8,0c0-3.66,2.32-5.55,5.19-5.55S83,27.79,83,31.46,80.62,37,77.8,37s-5.19-1.9-5.19-5.54" fill="#cfe08f"/><rect x="37.46" y="25.91" width="174.11" height="71.63" fill="none"/><polygon points="92.2 26.14 92.2 36.76 94.39 36.76 94.39 32.32 97.91 32.32 97.91 30.65 94.39 30.65 94.39 27.81 99.28 27.81 99.28 26.14 92.2 26.14" fill="#cfe08f"/><polygon points="108.74 26.14 108.74 36.76 115.98 36.76 115.98 35.09 110.94 35.09 110.94 32.01 114.46 32.01 114.46 30.35 110.94 30.35 110.94 27.81 115.81 27.81 115.81 26.14 108.74 26.14" fill="#cfe08f"/><path d="M126,33.83a3.57,3.57,0,0,0,2.9,1.34c1.08,0,1.82-.48,1.82-1.26,0-.95-1.05-1.23-2.74-1.67-2-.53-3.05-1.44-3.05-3.05,0-1.82,1.47-3.26,4-3.26a5.19,5.19,0,0,1,4,1.61l-1.46,1.37a3.48,3.48,0,0,0-2.62-1.16c-1.14,0-1.62.48-1.62,1.14s.66,1.11,2.08,1.49c2.75.72,3.69,1.62,3.69,3.26,0,2.18-1.9,3.37-4.14,3.37a5.25,5.25,0,0,1-4.32-1.69Z" fill="#cfe08f"/><path d="M142.92,33.83a3.57,3.57,0,0,0,2.9,1.34c1.08,0,1.82-.48,1.82-1.26,0-.95-1.05-1.23-2.74-1.67-2-.53-3.05-1.44-3.05-3.05,0-1.82,1.47-3.26,4-3.26a5.19,5.19,0,0,1,4,1.61l-1.46,1.37a3.48,3.48,0,0,0-2.62-1.16c-1.14,0-1.62.48-1.62,1.14s.66,1.11,2.08,1.49c2.75.72,3.69,1.62,3.69,3.26,0,2.18-1.9,3.37-4.14,3.37a5.25,5.25,0,0,1-4.32-1.69Z" fill="#cfe08f"/><path d="M166.31,31.46c0-2.24-1.13-3.64-2.89-3.64s-2.8,1.4-2.8,3.64,1.28,3.63,2.84,3.63,2.84-1.26,2.84-3.63m-8,0c0-3.66,2.32-5.55,5.19-5.55s5.21,1.88,5.21,5.55S166.28,37,163.47,37s-5.19-1.9-5.19-5.54" fill="#cfe08f"/><path d="M181.74,31.1c1,0,1.82-.38,1.82-1.7s-.9-1.59-1.82-1.59H180V31.1Zm-4-5h4c2.23,0,4.12.86,4.12,3.22a2.78,2.78,0,0,1-2.66,2.75,1.85,1.85,0,0,1,1.34,1l2.08,3.63H184.1L182.66,34a1.7,1.7,0,0,0-1.78-1.14H180v3.91h-2.2Z" fill="#cfe08f"/><path d="M192.8,30.08c.89-.42,1.05-.84,1.05-1.52v-.23h-1v-2.2h2.26v2.24a2.48,2.48,0,0,1-1.82,2.68Z" fill="#cfe08f"/><path d="M201.76,33.83a3.57,3.57,0,0,0,2.9,1.34c1.08,0,1.82-.48,1.82-1.26,0-.95-1.05-1.23-2.74-1.67-2-.53-3.05-1.44-3.05-3.05,0-1.82,1.47-3.26,4-3.26a5.19,5.19,0,0,1,4,1.61l-1.46,1.37a3.48,3.48,0,0,0-2.62-1.16c-1.14,0-1.62.48-1.62,1.14s.66,1.11,2.08,1.49c2.75.72,3.69,1.62,3.69,3.26,0,2.18-1.9,3.37-4.14,3.37a5.25,5.25,0,0,1-4.32-1.69Z" fill="#cfe08f"/><path d="M167.4,96.13H155.1a38,38,0,0,1-10.41-1.38,23.38,23.38,0,0,1-8.42-4.26,20.08,20.08,0,0,1-5.62-7.34,25.42,25.42,0,0,1-2.06-10.71,25.67,25.67,0,0,1,2.06-10.75,20,20,0,0,1,5.62-7.38,22.94,22.94,0,0,1,8.42-4.22,38.9,38.9,0,0,1,10.41-1.35H169V47.31H154.72a39.27,39.27,0,0,0-10.87,1.45A24.22,24.22,0,0,0,135,53.31a21.13,21.13,0,0,0-5.88,7.84A27.49,27.49,0,0,0,127,72.43a27.24,27.24,0,0,0,2.12,11.25,21.22,21.22,0,0,0,5.88,7.8,24.66,24.66,0,0,0,8.82,4.58,38.35,38.35,0,0,0,10.87,1.49H169V70.73H167.4Z" fill="#45b59e"/><path d="M81.39,96.13h12.3a38,38,0,0,0,10.41-1.38,23.38,23.38,0,0,0,8.42-4.26,20.08,20.08,0,0,0,5.62-7.34,25.42,25.42,0,0,0,2.06-10.71,25.67,25.67,0,0,0-2.06-10.75,20,20,0,0,0-5.62-7.38,22.94,22.94,0,0,0-8.42-4.22,38.9,38.9,0,0,0-10.41-1.35H79.83V47.31H94.06a39.27,39.27,0,0,1,10.87,1.45,24.22,24.22,0,0,1,8.82,4.54,21.13,21.13,0,0,1,5.88,7.84,27.49,27.49,0,0,1,2.12,11.28,27.24,27.24,0,0,1-2.12,11.25,21.22,21.22,0,0,1-5.88,7.8,24.66,24.66,0,0,1-8.82,4.58,38.35,38.35,0,0,1-10.87,1.49H79.83V70.73h1.56Z" fill="#45b59e"/><rect x="37.46" y="25.91" width="174.11" height="71.63" fill="none"/><polygon points="38.6 47.31 38.6 48.73 70.63 48.73 70.63 70.8 40.23 70.8 40.23 72.22 70.63 72.22 70.63 96.13 37.46 96.13 37.46 97.55 72.19 97.55 72.19 47.31 38.6 47.31" fill="#45b59e"/><polygon points="176.84 47.31 176.84 97.55 211.57 97.55 211.57 96.13 178.4 96.13 178.4 72.22 208.8 72.22 208.8 70.8 178.4 70.8 178.4 48.73 210.43 48.73 210.43 47.31 176.84 47.31" fill="#45b59e"/></svg>