<svg xmlns="http://www.w3.org/2000/svg" xmlns:xlink="http://www.w3.org/1999/xlink" viewBox="0 0 402.18 184.6"><defs><clipPath id="clip-path"><rect x="8.66" y="6.8" width="385.95" height="170.16" fill="none"/></clipPath></defs><title>redwood-logo</title><g id="Layer_2" data-name="Layer 2"><polygon points="92.06 50.35 91.37 51.23 91.08 51.62 90.4 52.39 89.24 53.75 88.55 54.24 87.87 54.82 87.19 55.31 86.42 55.8 85.74 56.28 84.96 56.77 84.28 57.26 83.4 57.55 82.63 57.84 81.75 58.13 80.1 58.61 79.22 58.71 78.44 58.91 77.57 59 76.7 59 75.72 58.91 74.85 58.81 73.97 58.61 73.2 58.32 72.32 57.93 71.64 57.35 70.96 56.87 69.79 55.5 69.31 54.73 68.92 53.85 68.72 53.07 68.53 52.2 68.43 51.23 68.43 50.35 68.53 49.48 68.53 48.6 68.72 46.85 69.11 45.1 69.21 44.32 69.99 40.83 70.57 38.49 70.96 36.74 71.64 34.7 71.93 33.53 72.22 32.56 73 30.23 73.49 28.58 73.88 27.7 74.27 26.54 74.56 25.37 74.85 24.49 75.14 23.71 75.53 22.84 76.6 19.63 77.08 18.85 77.67 18.27 78.44 17.88 79.42 17.69 80.29 17.69 81.27 17.78 82.14 17.88 83.01 18.17 83.89 18.56 84.38 19.24 84.28 20.02 84.08 20.9 83.79 21.67 83.5 22.55 83.21 23.33 82.92 24.2 82.72 24.98 81.65 28.18 81.36 29.16 80.49 31.49 80.29 32.37 80 33.15 79.81 34.02 79.52 34.9 79.32 35.67 79.13 36.55 78.54 38.2 78.35 39.08 77.76 41.41 77.57 42.38 77.38 43.26 77.28 44.03 76.89 45.78 76.6 48.41 76.6 49.28 76.7 50.16 76.89 51.03 77.28 51.81 77.76 52.49 78.44 52.88 79.32 53.17 80.58 53.07 82.14 52.78 83.7 52.1 85.06 51.32 86.03 50.55 86.81 49.96 87.39 49.38 87.97 48.7 88.75 47.73 89.53 46.85 90.11 46.08 90.79 45.01 92.35 42.09 92.93 41.02 93.32 40.05 93.81 38.98 94.78 36.06 94.97 35.19 95.26 34.31 95.65 33.44 95.94 32.56 96.14 31.78 96.43 30.91 96.62 30.04 97.01 29.16 97.31 28.38 97.59 27.5 97.79 26.63 98.67 24.01 98.96 23.23 99.35 22.16 99.54 21.67 99.93 20.6 100.22 19.83 100.61 19.05 101.19 18.47 102.07 18.17 102.94 17.98 103.92 17.88 104.79 17.78 105.76 17.88 106.64 18.08 107.42 18.56 107.9 19.24 107.9 20.02 107.61 20.9 107.32 21.67 106.64 23.71 106.34 24.88 105.96 25.76 105.67 26.54 105.28 27.41 104.89 28.58 104.59 29.74 104.21 30.62 103.92 31.88 103.43 33.34 102.94 34.6 102.65 35.48 102.26 36.74 101.97 38.3 101.68 39.56 101.48 40.44 101.19 41.31 101 42.19 100.42 44.52 100.32 45.49 100.03 48.12 99.93 49.09 99.93 49.96 100.03 50.84 100.32 51.71 100.9 52.39 101.68 52.88 102.46 53.17 103.43 53.17 104.31 52.98 106.06 52.39 106.93 52 107.71 51.62 108.48 51.03 109.26 50.55 109.94 49.96 110.33 49.19 110.23 48.21 109.84 47.15 109.65 46.17 109.94 45.01 110.53 44.03 111.3 43.45 112.38 43.16 113.54 43.26 114.42 43.35 115 43.26 115.48 42.67 116.46 41.12 116.94 40.05 117.53 38.98 117.92 38.1 118.3 37.33 118.69 36.45 118.98 35.19 119.67 33.15 119.96 31.98 120.34 30.71 120.54 29.84 120.83 28.96 121.03 28.09 121.22 26.92 121.51 25.66 121.71 24.69 121.9 23.42 122 22.26 122 21.28 122.19 19.53 122.78 18.66 123.94 18.08 125.5 17.88 127.05 17.98 128.41 18.47 129.38 19.44 129.78 20.51 129.78 22.35 129.58 24.1 129.48 25.07 129.29 26.82 129.09 27.7 128.9 28.67 128.7 29.55 128.41 30.32 128.22 31.2 127.64 32.95 127.35 33.73 127.15 34.6 126.57 36.35 126.18 37.13 125.89 38.01 125.01 39.76 124.82 40.34 124.33 41.41 123.94 42.19 123.55 42.87 122.58 44.42 122.09 45.1 121.51 45.88 121.03 46.56 120.44 47.24 120.15 47.83 120.64 48.31 121.61 48.51 122.48 48.51 123.36 48.41 125.01 47.92 125.89 47.73 127.64 46.76 128.41 46.17 129.29 45.4 130.07 44.72 130.84 43.84 131.52 42.87 132.11 42.19 132.69 41.41 133.18 40.63 133.76 39.66 134.34 38.59 134.73 37.72 135.12 36.94 135.7 36.26 136.48 35.77 137.75 35.87 138.43 36.84 138.43 37.91 138.13 38.69 136.97 41.02 136.58 41.89 135.9 42.87 135.32 43.94 134.73 44.72 134.25 45.4 133.08 46.76 132.59 47.34 131.43 48.7 130.75 49.19 129.97 49.77 129 50.45 127.93 51.03 125.5 52.1 124.62 52.3 123.75 52.39 122.58 52.49 119.47 52.49 118.69 52.3 117.82 52 117.04 51.91 116.26 52 115.58 52.59 114.32 53.85 113.64 54.34 112.86 54.92 112.08 55.31 111.3 55.8 110.63 56.18 109.84 56.57 108.97 57.06 108.1 57.35 107.32 57.74 106.44 58.03 105.47 58.42 104.31 58.71 103.14 58.91 102.17 59.1 101.19 59.1 99.93 59 98.47 58.71 97.21 58.32 96.33 57.93 95.46 57.16 94.78 56.28 94.29 55.41 93.9 54.14 93.51 52.69 93.22 51.13 93.22 49.87 93.12 49.19 93.03 49.19 92.54 49.67 92.06 50.35" fill="#a64500"/><path d="M154.67,23.13l-1.36.58-1.17.59-.78.48L150,26l-.87.87-.78.88-.68.78L147,29.55l-.68,1-.49.87-.58,1.07-.39,1.17-.39.87-.29.78-.1.68.49.49,1.26.29,1.95.1,1,.1h2.72l1-.19.88-.19,1-.39.58-.19,1-.49.68-.49.68-.58.68-.68.68-.58.58-.78.49-.68.39-.78.48-.87.58-1.75.2-1,.1-.87-.1-1-.39-.87-.58-.68-.78-.58-.88-.39-.87-.19-.88-.1-1,.2ZM166.53,34.8l-.49.68-1.17,1.36L163.51,38l-.68.49L162,39l-.58.2-1,.58-.58.29-.87.39-1,.29-.87.29-.88.1-1,.19-1.07.1L153,41.6l-.87.1h-.88l-1.75-.2-1.75-.1-.88-.1-2.63-.58h-.68l-.49.39-.19.68v.88l-.1,1V45.3l.1,1,.19.78.58,1.75,1,1.56.58.68.58.58,1.55,1,1,.29.87.29.68.1.87.19.88.1h1l.88-.1L156,53l.87-.19.88-.29.78-.29,1.65-.68,1.56-.78,1.36-1.07.68-.49.68-.58,1.36-1.26L167,46l.48-.68.58-.78,1-1.36.49-.78.39-.78.49-.78.39-.78.49-.68.39-.78.39-.87.39-.78.48-.78.68-.49h.88l.87.58.49.88-.1.87-.39.88-.49,1.07L174.31,41l-.49,1.07-.58,1.07-.58,1-1,1.55-.29.58-.58.88-1,1.36-.58.68-.58.58-.58.68-.68.78-.29.39-.68.78-.58.68-1.36,1.17-1,.78-.87.78-1.56,1-2.43,1.07-.78.29-.87.29-1.26.19-1.17.29-2,.2-1.26.09-1.07.1h-.88l-3.5-.39-.78-.19-.88-.29L143.3,58l-.78-.39L141,56.77l-.78-.39-.68-.58-.68-.68-.39-.49-.68-.78-.58-.68-.49-.78-.39-.68-.39-.87-.29-.78-.29-.87-.2-.88-.19-.78-.19-.87L134.45,44V42.19l.1-.87v-.87l.58-2.63.29-.78.19-.88.29-.87.19-.88.29-.87.39-1.07.49-1.17.49-.87.58-1.07.68-1,.39-.88.49-.68.58-.68,1.46-1.56,1.46-1.46.78-.68.88-.68,1-.68.88-.68,1-.58,1-.49.88-.39,1.26-.58,2-.68,1.75-.39,1.26-.2h2.14l1.26.2,1.55.29,1.26.29.88.29.88.39.77.39.58.39,1.36,1.17.58.68.58,1,.49,1.17.29.87.2.87.1.88v1.17l-.1,1.26-.1,1-.29,1.17-.39,1.17-.39,1-.29.49-.49.88Z" fill="#a64500"/><polygon points="239.54 39.76 239.35 40.24 238.86 41.21 238.38 41.89 237.99 42.67 237.6 43.55 237.21 44.32 236.24 45.88 235.75 46.56 235.26 47.34 234.88 48.12 234.39 48.89 233.81 49.57 233.22 50.35 232.64 51.03 231.57 52.39 230.99 53.07 230.41 53.66 227.68 55.99 226.91 56.48 226.03 56.96 224.96 57.45 223.79 57.93 222.92 58.23 222.04 58.42 221.07 58.42 219.91 58.32 218.74 58.03 217.86 57.74 217.18 57.25 216.5 56.67 215.82 55.7 215.14 54.63 214.85 53.75 214.56 52.59 214.46 51.32 214.46 50.35 214.56 49.09 214.66 47.92 214.36 47.73 213.88 48.41 212.91 49.96 211.93 51.32 211.35 52 210.86 52.69 210.28 53.37 209.79 54.05 209.11 54.63 208.53 55.21 207.85 55.8 207.17 56.28 206.39 56.77 205.32 57.45 203.86 58.13 202.31 58.61 201.05 58.91 199.3 59.1 198.32 59 197.16 58.81 195.99 58.52 195.11 58.23 194.34 57.93 193.66 57.45 192.3 56.28 191.81 55.6 191.32 54.82 190.74 53.75 190.16 52.3 189.87 51.03 189.77 50.06 189.57 48.8 189.48 47.24 189.48 45.98 189.57 45 189.67 43.74 189.87 42.57 190.16 41.6 190.45 40.44 190.74 39.17 191.03 38.3 191.42 37.52 191.71 36.65 194.05 31.98 194.53 31.2 195.02 30.52 195.51 29.74 196.48 28.38 197.06 27.7 198.32 26.24 198.71 25.85 199.39 25.08 200.75 23.91 201.63 23.04 202.7 22.26 204.06 21.19 204.84 20.7 205.52 20.21 206.39 19.83 207.56 19.34 208.63 18.76 209.6 18.27 210.77 17.88 211.93 17.59 212.91 17.3 215.34 17.11 216.21 17.01 217.38 17.01 219.32 17.11 221.56 17.3 223.69 17.69 224.57 17.88 225.64 18.17 229.53 19.93 230.21 20.51 230.89 21 231.57 21.58 232.16 22.26 232.35 23.33 231.96 24.69 230.89 25.85 229.82 26.54 229.04 26.63 228.26 26.34 227.49 25.76 226.61 25.27 225.84 24.79 225.16 24.49 224.38 24.11 223.5 23.71 222.72 23.52 221.07 23.13 220.1 22.84 219.13 22.65 217.18 22.65 216.5 22.74 215.53 22.84 214.27 23.13 211.84 24.01 210.86 24.49 209.89 25.08 209.21 25.56 208.43 26.05 207.75 26.54 207.07 27.12 206.29 27.8 205.91 28.19 205.23 28.96 204.64 29.65 204.16 30.33 202.99 31.69 202.5 32.37 202.02 33.15 200.85 35.48 200.37 36.26 199.78 38.01 199.39 38.88 199 39.66 198.42 42.28 198.13 43.26 197.84 45.88 197.84 48.6 197.94 49.57 198.23 50.45 198.62 51.23 199.1 52 199.68 52.59 200.56 52.98 201.73 53.17 202.99 53.07 203.86 52.78 205.42 52 206.78 50.84 207.36 50.25 208.05 49.67 208.63 48.99 209.11 48.31 209.7 47.63 210.18 46.95 211.25 45.49 211.74 44.81 213.2 42.48 213.78 41.41 214.46 40.14 214.85 39.56 216.02 37.03 216.41 36.16 216.6 35.48 216.99 34.6 217.28 33.83 217.57 32.95 217.96 31.88 218.54 29.94 218.93 28.87 219.22 27.9 219.81 27.02 220.78 26.54 221.66 26.34 222.53 26.44 223.41 26.63 224.96 27.41 225.74 27.9 226.13 28.48 226.22 29.35 225.93 30.13 225.74 31.01 225.45 31.88 225.06 33.63 224.77 34.51 224.57 35.28 223.99 37.03 223.79 38.01 223.69 38.59 223.41 39.76 223.21 40.63 222.82 42.28 222.53 43.45 222.34 44.42 222.14 45.49 221.85 46.95 221.56 48.6 221.46 50.06 221.56 51.32 222.04 52.1 223.02 52.59 224.47 52.69 225.64 52.3 226.51 51.81 227.88 50.84 228.56 50.16 229.72 48.89 230.89 47.53 231.86 46.17 232.35 45.39 232.93 44.62 233.13 44.03 234.68 41.7 235.07 40.92 235.56 40.14 237.5 36.26 238.38 35.77 239.54 35.97 240.32 36.94 240.42 37.91 240.03 38.78 239.54 39.76" fill="#a64500"/><polygon points="245.67 6.8 244.8 6.99 244.02 7.38 243.34 7.97 242.76 8.65 242.27 9.33 241.88 10.2 241.69 11.08 241.69 11.95 241.78 12.83 242.66 15.45 243.44 17.01 243.63 17.79 243.63 18.66 243.44 19.63 243.15 20.51 242.95 21.38 242.76 22.16 242.56 23.04 242.17 23.91 241.98 24.79 241.69 25.66 241.49 26.54 240.72 28.29 240.42 29.06 240.13 29.94 239.74 30.81 239.45 31.69 239.06 32.46 238.67 33.44 238.38 34.02 237.6 35.77 237.31 36.65 237.02 37.42 236.63 38.3 236.34 39.17 236.24 39.95 236.83 40.63 237.6 41.12 238.48 41.12 239.06 40.63 239.55 39.85 240.13 38.78 240.62 37.71 241.1 36.74 241.59 35.67 242.07 34.51 242.47 33.63 242.95 32.56 243.44 31.39 243.73 30.52 244.02 29.74 244.31 28.87 245.18 26.54 245.48 25.66 245.67 24.88 245.87 24.01 246.16 23.13 246.35 22.26 246.74 21.38 247.52 21.19 248.3 21.77 248.88 22.45 250.44 24.2 251.02 24.98 251.99 26.54 252.18 27.7 251.89 29.16 251.41 30.23 250.34 31.78 249.56 33.15 248.98 33.92 248.2 34.99 247.62 36.06 247.13 36.94 246.45 37.91 245.77 38.98 245.28 39.85 244.7 40.92 244.21 41.99 243.83 42.87 243.53 43.64 243.24 44.52 242.85 48.02 242.85 48.9 242.95 49.77 243.15 50.64 243.34 51.62 243.53 52.49 243.92 53.27 244.31 54.15 244.8 54.82 245.38 55.6 245.96 56.18 246.64 56.77 248.1 57.74 249.07 58.23 249.85 58.52 251.8 58.91 253.06 59 255.3 59 256.27 58.81 257.05 58.61 257.92 58.32 258.7 57.93 259.57 57.55 261.13 56.77 262 56.18 262.78 55.6 263.95 54.44 264.63 53.85 265.8 52.49 266.48 51.52 267.25 50.45 268.42 48.9 269.39 47.34 269.88 46.46 270.27 45.98 270.75 45.1 271.73 43.55 272.5 41.99 272.99 41.21 273.38 40.44 274.15 38.78 274.45 37.91 274.45 36.84 273.57 35.87 272.31 35.57 271.43 36.06 271.05 36.84 270.75 37.62 270.37 38.39 269.78 39.46 269.49 40.05 269 40.92 268.62 41.7 268.13 42.48 267.64 43.35 267.16 44.03 265.7 46.36 263.95 48.41 263.36 49.19 262.78 49.77 262.1 50.35 261.32 50.94 259.87 51.91 259.19 52.39 258.31 52.78 257.44 53.07 256.56 53.27 254.71 53.27 253.74 53.07 252.97 52.59 252.28 52.01 251.8 51.13 251.31 50.35 250.92 48.41 250.92 47.44 251.02 46.56 251.21 45.69 251.41 44.71 251.6 43.84 251.89 43.06 252.18 42.19 253.84 38.88 254.32 38.1 254.91 37.33 255.39 36.55 255.98 35.77 256.46 35.09 256.95 34.31 257.53 33.63 258.51 32.08 259.09 31.39 259.48 30.62 259.77 29.74 259.87 28.87 259.57 27.61 259.28 26.44 258.99 25.56 258.02 24.01 257.44 23.33 256.76 22.74 256.08 21.96 255.68 21.48 255 20.7 253.74 19.44 253.06 18.86 251.99 17.59 251.31 16.81 250.63 16.23 249.95 15.55 249.46 14.87 249.27 14.09 249.27 13.31 249.46 12.34 249.46 9.71 249.17 8.84 248.78 8.06 248.2 7.48 247.42 6.99 246.55 6.8 245.67 6.8" fill="#a64500"/><path d="M290.69,23.13l-1.36.58-1.17.59-.78.48L286,26l-.88.87-.78.88-.68.78L283,29.55l-.68,1-.49.87-.58,1.07-.39,1.17-.39.87-.29.78-.1.68.49.49,1.26.29,1.95.1,1,.1h2.72l1-.19.88-.19,1-.39.58-.19,1-.49.68-.49.68-.58.68-.68.68-.58.58-.78.49-.68.39-.78.48-.87.58-1.75.2-1,.1-.87-.1-1-.39-.87-.58-.68-.78-.58-.88-.39-.87-.19-.88-.1-1,.2ZM302.55,34.8l-.49.68-1.17,1.36L299.53,38l-.68.49L298,39l-.58.2-1,.58-.58.29-.87.39-1,.29-.87.29-.88.1-1,.19-1.07.1L289,41.6l-.87.1h-.88l-1.75-.2-1.75-.1-.88-.1-2.63-.58h-.68l-.49.39-.19.68v.88l-.1,1V45.3l.1,1,.19.78.58,1.75,1,1.56.58.68.58.58,1.55,1,1,.29.87.29.68.1.87.19.88.1h1l.88-.1L292,53l.87-.19.88-.29.78-.29,1.65-.68,1.56-.78,1.36-1.07.68-.49.68-.58,1.36-1.26L303,46l.48-.68.58-.78,1-1.36.49-.78.39-.78.49-.78.39-.78.49-.68.39-.78.39-.87.39-.78.48-.78.68-.49h.88l.87.58.49.88-.1.87-.39.88-.49,1.07L310.33,41l-.49,1.07-.58,1.07-.58,1-1,1.55-.29.58-.58.88-1,1.36-.58.68-.58.58-.58.68-.68.78-.29.39-.68.78-.58.68-1.36,1.17-1,.78-.87.78-1.56,1-2.43,1.07-.78.29-.87.29-1.26.19-1.17.29-2,.2-1.26.09-1.07.1h-.88l-3.5-.39-.78-.19-.88-.29-.87-.39-.78-.39L277,56.77l-.78-.39-.68-.58-.68-.68-.39-.49-.68-.78-.58-.68-.49-.78-.39-.68-.39-.87-.29-.78-.29-.87-.2-.88-.19-.78-.19-.87L270.47,44V42.19l.1-.87v-.87l.58-2.63.29-.78.19-.88.29-.87.19-.88.29-.87.39-1.07.49-1.17.49-.87.58-1.07.68-1,.39-.88.49-.68.58-.68L278,24.59l1.46-1.46.78-.68.88-.68,1-.68.87-.68,1-.58,1-.49.88-.39,1.26-.58,2-.68,1.75-.39,1.26-.2h2.14l1.26.2,1.55.29,1.26.29.88.29.88.39.77.39.58.39,1.36,1.17.58.68.58,1,.49,1.17.29.87.2.87.1.88v1.17l-.1,1.26-.1,1-.29,1.17-.39,1.17-.39,1-.29.49-.49.88Z" fill="#a64500"/><g clip-path="url(#clip-path)"><path d="M21.14,95.3H19.49v32.63h1.66c3.31,0,7.52-7.82,7.52-16.39,0-7.82-2.4-16.24-7.52-16.24m11.28,80.16c-1.5-10.08-5.87-26.92-12.93-37.45v37.45H8.66V85.22H21.89c9.17,0,18.2,9.47,18.2,26.32,0,16.54-11,23.61-11,23.61,6.92,9.93,13.08,27.22,14.44,40.31Z" fill="#a64500"/></g><polygon points="55.29 85.22 55.29 175.46 82.2 175.46 82.2 165.38 66.11 165.38 66.11 134.25 79.2 134.25 79.2 124.17 66.11 124.17 66.11 95.3 81.45 95.3 81.45 85.22 55.29 85.22" fill="#a64500"/><g clip-path="url(#clip-path)"><path d="M107.78,96.8h-1.35v67.07h1.35c7.67,0,12-11,12-33.54s-4.36-33.54-12-33.54m-5,78.65H95.59V85.22h7.22c18.35,0,28.72,11.28,28.72,45.12s-10.38,45.12-28.72,45.12" fill="#a64500"/><path d="M187.19,175.46h-7.82c-4.06-18.8-8.12-52.94-8.12-52.94s-4.06,34.14-8,52.94h-7.82c-3.91-15.34-12.18-69.18-12.79-90.23H154c.45,19.85,5,59.86,5,59.86s6.32-34.29,8.12-59.86h8.57c1.8,25.57,8,59.86,8,59.86s4.66-40,5.11-59.86h11.13c-.6,21.05-8.87,74.89-12.63,90.23" fill="#a64500"/><path d="M230.21,94.7c-5.26,0-7.52,13.08-7.52,35.64s2.25,35.49,7.52,35.49,7.52-12.93,7.52-35.49-2.25-35.64-7.52-35.64m0,82c-11.28,0-19.25-12.48-19.25-46.32S218.93,84,230.21,84s19.25,12.48,19.25,46.32-8,46.32-19.25,46.32" fill="#a64500"/><path d="M282.4,94.7c-5.26,0-7.52,13.08-7.52,35.64s2.25,35.49,7.52,35.49,7.52-12.93,7.52-35.49S287.66,94.7,282.4,94.7m0,82c-11.28,0-19.25-12.48-19.25-46.32S271.12,84,282.4,84s19.25,12.48,19.25,46.32-8,46.32-19.25,46.32" fill="#a64500"/><path d="M328.88,96.8h-1.35v67.07h1.35c7.67,0,12-11,12-33.54s-4.36-33.54-12-33.54m-5,78.65H316.7V85.22h7.22c18.35,0,28.72,11.28,28.72,45.12s-10.38,45.12-28.72,45.12" fill="#a64500"/><path d="M378.06,177c-8.42,0-15.34-10.08-15.34-10.08l6-8.72s3.91,8.27,9.32,8.27c3.61,0,6-3,6-6.77,0-12.33-18.8-37.9-18.8-58,0-10.53,6.62-17.9,15-17.9,8,0,12.78,8.27,12.78,8.27l-5.41,8.42s-3.31-6.32-6.77-6.32c-3.91,0-5.11,3.31-5.11,7.52,0,16.09,18.8,40.15,18.8,58,0,10.68-7.67,17.3-16.54,17.3" fill="#a64500"/></g></g></svg>