<svg xmlns="http://www.w3.org/2000/svg" viewBox="0 0 133.5 169.12"><title>spa-branding</title><g style="isolation:isolate"><g id="Layer_1" data-name="Layer 1"><g style="mix-blend-mode:multiply"><path d="M64.45,147.51l0-.11-.11,0-.21-.17-.33.15.08.49Z" fill="#823133"/><path d="M63.44,148.22l-.22.1,0,.11C63.46,148.26,63.37,148.4,63.44,148.22Z" fill="#823133"/><path d="M55.9,113.19l0,.1.1,0,.16.18.31-.09c0-.15,0-.29,0-.45Z" fill="none"/><path d="M62.95,147.38l-.29.13a.25.25,0,0,1-.1.06.4.4,0,0,0,.06.22l.42-.19Z" fill="#823133"/><path d="M63.21,148.66s0,.07,0,.1a.56.56,0,0,0-.16.15l.7-.31A1.41,1.41,0,0,0,63.21,148.66Z" fill="#823133"/><path d="M97.8,78.76c.17-.07,0-.25,0-.25l-.25-.1-.07,0c0,.27.09.54.15.82a.3.3,0,0,0,0-.12C97.65,79,97.63,78.84,97.8,78.76Z" fill="none"/><path d="M100.92,138.67c-.14-.06,0,0-.15,0l.11.19.19-.11C100.92,138.65,101.07,138.69,100.92,138.67Z" fill="#823133"/><path d="M101,139c.16.16,0,.09.2.14l-.11-.19Z" fill="#823133"/><path d="M100.43,138.69l.42.76a2.77,2.77,0,0,0-.23-.86Z" fill="#823133"/><polygon points="100.94 138.04 101.09 138.32 101.19 138.27 101.03 137.99 100.94 138.04" fill="#823133"/><path d="M89.92,91.47h-.27v.09l-.54-.18v.18l.27.09c0,.29-.08.26-.18.45a9.09,9.09,0,0,0-.91-.28,1.71,1.71,0,0,0,.27,1,2.52,2.52,0,0,0,.36-.09l.09.09.09-.18s-.15,0-.09-.18a1.86,1.86,0,0,0,.27-.27,1.31,1.31,0,0,1,.48.08l.1-.61c.16,0,.37.18.48,0s-.06-.1-.12-.12h-.3Z" fill="none"/><path d="M90.45,91s0,0,0,0a.07.07,0,0,0-.08,0v0Z" fill="none"/><path d="M88.85,94.43a.65.65,0,0,0,.29-.09l.11-.06H89A1.2,1.2,0,0,1,88.85,94.43Z" fill="none"/><path d="M56.35,108.75l.21,0-.06-.32.14,0c0-.1,0-.2,0-.31-.19.08-.2.13-.37.27Z" fill="none"/><path d="M55.16,108.31l.16.85a2.75,2.75,0,0,0,.05-.89Z" fill="none"/><path d="M55.58,108.78c.1.2,0,.09.15.19l0-.21Z" fill="none"/><path d="M56.51,68.12h.15a2.73,2.73,0,0,1,0-.45h-.16Z" fill="none"/><path d="M56.6,68.67c.3.07.35.2.62.27a3.48,3.48,0,0,1-.42-.54h-.1Z" fill="none"/><path d="M56.66,70.08s0-.1,0-.15c.3,0,.3-.27.34-.49a1.74,1.74,0,0,0-.49-.14A1.5,1.5,0,0,0,56.66,70.08Z" fill="none"/><path d="M56.69,112.3h0Z" fill="none"/><path d="M55.63,108.44c-.12-.1,0,0-.13-.09l0,.21.21,0C55.64,108.42,55.77,108.51,55.63,108.44Z" fill="none"/><path d="M56.36,109.4l-.45,0,.23.62.11,0,0-.11.19-.15Z" fill="none"/><path d="M56.64,114.2v-.09h0Z" fill="none"/><polygon points="55.95 107.83 55.85 107.85 55.91 108.17 56.01 108.15 55.95 107.83" fill="none"/><path d="M94.94,63.87c0-.08-.13-.07-.21-.11s-.06.09,0,.11S94.88,63.87,94.94,63.87Z" fill="#905a58"/><path d="M57,66.63s.1,0,.08-.13S56.75,66.59,57,66.63Z" fill="#905a58"/><path d="M63.66,67.3a.54.54,0,0,0,.38-.17C63.94,66.94,63.62,67.16,63.66,67.3Z" fill="#905a58"/><path d="M60.93,68.93l-.06,0c0,.07-.07,0,0,.08S60.94,69,60.93,68.93Z" fill="#905a58"/><path d="M68.91,71.33v.06c.22.14.48.45.82.33C69.63,71.43,69.24,71.33,68.91,71.33Z" fill="#905a58"/><path d="M70,72.06c.1,0,.13-.12.08-.25C69.8,71.61,69.79,72.09,70,72.06Z" fill="#905a58"/><path d="M64,72.13c0,.15-.18.28-.15.44C64,72.73,64.19,72.2,64,72.13Z" fill="#905a58"/><path d="M66.3,72.29a.13.13,0,0,0,0,.15C66.4,72.46,66.38,72.28,66.3,72.29Z" fill="#905a58"/><path d="M58.25,74.64a.36.36,0,0,0,.08-.29c-.09,0-.15-.13-.27-.15s-.1.15-.23.15-.11-.34,0-.38.21-.12.36-.15c0-.21-.15-.24-.1-.48a.27.27,0,0,0-.36-.1c-.18-.53-.59,0-.65.29-.16.05-.33.08-.34.23s.52.24.63.44-.2.21-.17.34.31,0,.42,0A.52.52,0,0,0,58.25,74.64Z" fill="#905a58"/><path d="M64.54,74.22c-.16,0-.06.33.08.31S64.67,74.22,64.54,74.22Z" fill="#905a58"/><path d="M67.49,75.3h-.06c0,.06,0,.16.06.17A.17.17,0,0,0,67.49,75.3Z" fill="#905a58"/><path d="M66,75.58a4.25,4.25,0,0,0,.5.25s0-.12,0-.17C66.35,75.64,66.13,75.34,66,75.58Z" fill="#905a58"/><path d="M67.47,75.62c-.06.17.09.32.29.29C67.91,75.71,67.64,75.64,67.47,75.62Z" fill="#905a58"/><path d="M67.3,76.33c.05,0,0-.14,0-.23C67.15,75.8,67,76.37,67.3,76.33Z" fill="#905a58"/><path d="M60.07,76.43c.1,0,.13-.12.13-.27C59.94,75.91,59.78,76.47,60.07,76.43Z" fill="#905a58"/><path d="M67.68,76.45s0,.05.08.06a.14.14,0,0,0,0-.1C67.73,76.41,67.68,76.41,67.68,76.45Z" fill="#905a58"/><path d="M60,76.64c-.67-.14-.66,1,0,.81,0-.2-.2-.17-.19-.38s.28,0,.36-.1S60.06,76.72,60,76.64Z" fill="#905a58"/><path d="M68.85,76.79c-.22,0-.51-.07-.61.1.09.14.26.2.21.48a.5.5,0,0,0,.48.23C68.87,77.36,68.73,77,68.85,76.79Z" fill="#905a58"/><path d="M68,77c.05,0,.14,0,.13-.12S68,76.94,68,77Z" fill="#905a58"/><path d="M59.28,78a.09.09,0,1,0-.17.06s0,0,0,0S59.28,78.1,59.28,78Z" fill="#905a58"/><path d="M61.37,78.4a.71.71,0,0,0,.73.65.77.77,0,0,0-.23-.69C61.67,78.38,61.48,78.28,61.37,78.4Z" fill="#905a58"/><path d="M62.29,82.1a.16.16,0,0,0,0-.21A.11.11,0,1,0,62.29,82.1Z" fill="#905a58"/><path d="M71.08,83.79c0,.09.06.1.09.15s0-.09,0-.15Z" fill="#905a58"/><path d="M71.5,83.85s-.16.08-.17.17.09.55.44.42c0-.07.09-.13.08-.21S71.53,83.79,71.5,83.85Z" fill="#905a58"/><path d="M74.93,86.26a.11.11,0,0,0,0,.17h0a.11.11,0,0,0,0-.17Z" fill="#905a58"/><path d="M72.46,90.17c.08,0,.14,0,.17-.06S72.46,90.09,72.46,90.17Z" fill="#905a58"/><path d="M72,91a.27.27,0,0,0,.29.19C72.37,91,72.18,91,72,91Z" fill="#905a58"/><path d="M74.14,91.5s0,0,0,0,.06.15.06.25C74.33,91.81,74.33,91.46,74.14,91.5Z" fill="#905a58"/><path d="M63.16,92.9a.08.08,0,0,0-.12,0C63,93,63.17,93,63.16,92.9Z" fill="#905a58"/><path d="M76.94,93.59c.05,0,.1,0,.1,0S76.92,93.52,76.94,93.59Z" fill="#905a58"/><path d="M75.29,94.7a.11.11,0,0,0,.12-.11s0,0,0-.06A.09.09,0,0,0,75.29,94.7Z" fill="#905a58"/><path d="M74.3,95.5h.1v-.08a.13.13,0,0,0-.1,0Z" fill="#905a58"/><path d="M71.79,98.17s0,0,.08,0,0-.11-.06-.15A.18.18,0,0,0,71.79,98.17Z" fill="#905a58"/><path d="M62.89,103.23a1.9,1.9,0,0,0,0-.42C62.59,102.77,62.65,103.22,62.89,103.23Z" fill="#905a58"/><path d="M63,103.73c0-.2-.08-.27-.06-.46,0,0-.06,0-.06,0S62.85,103.69,63,103.73Z" fill="#905a58"/><path d="M60.84,103.48c0-.12-.19-.15-.17,0S60.8,103.52,60.84,103.48Z" fill="#905a58"/><path d="M72.67,103.71c0,.07,0,.11,0,.15s.07,0,.06-.06S72.74,103.7,72.67,103.71Z" fill="#905a58"/><path d="M67.93,105.8c.08,0,.12,0,.19-.06s.12-.21.1-.4A.34.34,0,0,0,67.93,105.8Z" fill="#905a58"/><path d="M70.19,106.87a.22.22,0,0,0,.17.12c0-.09,0-.17,0-.21S70.19,106.8,70.19,106.87Z" fill="#905a58"/><path d="M62.1,113.56s.05-.05.06-.1-.1-.07-.14,0S62,113.55,62.1,113.56Z" fill="#905a58"/><path d="M61.62,114.62c0,.15.09.23.19.19S61.73,114.63,61.62,114.62Z" fill="#905a58"/><path d="M58.19,120.62c.1-.13,0-.46.19-.52h.25a.3.3,0,0,0,.15-.23c-.17,0-.17-.27-.29-.36s-.27.25-.4.38C57.58,119.92,57.73,120.72,58.19,120.62Z" fill="#905a58"/><path d="M60.17,120.2c-.07-.1-.2,0-.15.13S60.15,120.27,60.17,120.2Z" fill="#905a58"/><path d="M60.72,120.73s0-.07,0-.12a.33.33,0,0,0-.15,0C60.55,120.66,60.61,120.74,60.72,120.73Z" fill="#905a58"/><path d="M58,122.94c.13,0,.28-.39.29-.46-.31,0-1-.38-1,.13.11,0,.14,0,.23,0S57.67,123,58,122.94Z" fill="#905a58"/><path d="M62.66,122.67s0,0-.08,0,0,.19,0,.19A.27.27,0,0,0,62.66,122.67Z" fill="#905a58"/><path d="M57.41,122.94h.08c0-.07,0-.17-.06-.17A.13.13,0,0,0,57.41,122.94Z" fill="#905a58"/><path d="M59.19,124.49a.16.16,0,0,0,.06-.23C59,124.14,59,124.49,59.19,124.49Z" fill="#905a58"/><path d="M63.16,125c0-.11-.26-.12-.25,0S63.13,125.1,63.16,125Z" fill="#905a58"/><path d="M62.12,127a.22.22,0,0,0,.21.06.23.23,0,0,0,0-.29C62.16,126.77,62.11,126.86,62.12,127Z" fill="#905a58"/><path d="M57.48,127.79c0,.08.13.17.23.11a.1.1,0,0,1,0-.06C57.71,127.75,57.52,127.66,57.48,127.79Z" fill="#905a58"/><path d="M62.54,128s.05.06.13,0S62.52,127.84,62.54,128Z" fill="#905a58"/><path d="M62.89,128.33c0-.09,0-.13-.15-.12S62.79,128.34,62.89,128.33Z" fill="#905a58"/><path d="M59.9,134.31c.15,0,.09-.28-.06-.23S59.79,134.3,59.9,134.31Z" fill="#823133"/><path d="M58.77,135.88a.1.1,0,0,0,.06-.12C58.69,135.63,58.59,135.85,58.77,135.88Z" fill="#823133"/><path d="M62.45,137.28a.21.21,0,0,0,.06-.19s0,0-.06,0-.07.07-.06.15S62.4,137.29,62.45,137.28Z" fill="#823133"/><path d="M58.21,137.59c.09,0,.15,0,.17-.1S58.21,137.5,58.21,137.59Z" fill="#823133"/><path d="M61.43,142.09c0,.14.33.24.4.42s0,.29.08.36.56.2.63,0-.36-.33-.52-.48c.08-.13.1-.32.29-.33.08-.23,0-.42,0-.63.24-.17.07-.55,0-.73s-.23-.16-.33-.06c0,.26.11.46,0,.69.08.05.19.32,0,.38C61.8,141.18,61.33,141.7,61.43,142.09Z" fill="#823133"/><path d="M57.73,147.72a2.09,2.09,0,0,0,.06.36c.2.09.51.17.56,0S57.91,147.25,57.73,147.72Z" fill="#823133"/><path d="M57.56,148.11a.23.23,0,0,0-.31,0C57.2,148.35,57.63,148.42,57.56,148.11Z" fill="#823133"/><path d="M57.43,149.62c.13,0,.22,0,.23-.12C57.7,149.25,57.33,149.36,57.43,149.62Z" fill="#823133"/><path d="M62,150.87a.1.1,0,0,0-.13,0v.06A.1.1,0,0,0,62,150.87Z" fill="#823133"/><path d="M62.08,151.27a.11.11,0,0,0-.08-.19A.12.12,0,0,0,62.08,151.27Z" fill="#823133"/><path d="M57.18,151.5c.05,0,.13,0,.17,0C57.36,151.26,57.14,151.35,57.18,151.5Z" fill="#823133"/><path d="M62.37,151.59s0,0,0,0v0s0,0,0,0h0s0,0,0,0v0s0,0,0,0Z" fill="#823133"/><path d="M94.66,66.4c-.06,0-.15-.1-.17,0,.1-.06.06.07,0,.13s.07,0,.13,0S94.59,66.49,94.66,66.4Z" fill="#905a58"/><path d="M94.35,67s.05.07.11.08,0-.05,0-.1S94.36,67,94.35,67Z" fill="#905a58"/><path d="M95.23,67.24c-.17,0-.2-.09-.33,0s0-.09,0-.15-.21,0-.19.15.25,0,.29.08C94.79,67.76,95.38,67.58,95.23,67.24Z" fill="#905a58"/><path d="M95.79,68.68c.06-.22-.33-.21-.23,0C95.63,68.69,95.72,68.74,95.79,68.68Z" fill="#905a58"/><path d="M93.81,71.42a.19.19,0,0,0,.23.13s0-.06,0-.06S93.82,71.26,93.81,71.42Z" fill="#905a58"/><path d="M93.37,73.32a.17.17,0,0,0,.06.31C93.66,73.64,93.63,73.21,93.37,73.32Z" fill="#905a58"/><path d="M92.82,77.1c.07,0,.16.07.23,0C93.08,76.81,92.77,76.85,92.82,77.1Z" fill="#905a58"/><path d="M92.82,77.27a.13.13,0,0,0-.1,0C92.7,77.38,92.86,77.37,92.82,77.27Z" fill="#905a58"/><path d="M92,80.91c.1,0,.2,0,.19-.15S92,80.78,92,80.91Z" fill="#905a58"/><path d="M91.86,81.91s0-.11,0-.17C91.71,81.58,91.61,82,91.86,81.91Z" fill="#905a58"/><path d="M96.36,83.75s.06.1.15.1a.1.1,0,0,1,.06-.06c0-.06,0-.12-.11-.12s-.07,0-.1.06,0-.18,0-.27-.3.07-.44.1a.13.13,0,0,1,0,.08.63.63,0,0,0,.4.23C96.32,83.86,96.29,83.76,96.36,83.75Z" fill="#905a58"/><path d="M92.43,86.44a.15.15,0,0,0,.06-.27C92.23,86.14,92.27,86.45,92.43,86.44Z" fill="#905a58"/><path d="M90.61,108.62s0,0,0,.06C91,108.62,90.64,108.24,90.61,108.62Z" fill="#905a58"/><path d="M99.45,115.31s0-.06,0-.12a.14.14,0,0,0-.1,0S99.35,115.34,99.45,115.31Z" fill="#905a58"/><path d="M85.26,120.68s.07-.1,0-.15-.1-.06-.19,0,0,.05,0,.1S85.21,120.69,85.26,120.68Z" fill="#905a58"/><path d="M104.24,121.21v-.12h-.06A.1.1,0,0,0,104.24,121.21Z" fill="#905a58"/><path d="M85.09,121.14c-.09,0-.18.09-.15.15S85.08,121.24,85.09,121.14Z" fill="#905a58"/><path d="M99.64,121.17c0,.11.13.13.17.06S99.69,121.12,99.64,121.17Z" fill="#905a58"/><path d="M99.81,122.13a.09.09,0,0,0,.14-.1C99.88,122,99.81,122,99.81,122.13Z" fill="#905a58"/><path d="M84.8,123.07c.08,0,.13,0,.15-.06S84.76,122.92,84.8,123.07Z" fill="#905a58"/><path d="M104.93,127c0,.07,0,.23.06.23s0,0,0,0a.3.3,0,0,0,0-.21Z" fill="#905a58"/><path d="M102.4,133.23a.1.1,0,0,0,.08.17C102.51,133.32,102.51,133.21,102.4,133.23Z" fill="#823133"/><path d="M106.66,143.33a.18.18,0,0,0,0-.25A.13.13,0,0,0,106.66,143.33Z" fill="#823133"/><path d="M106.66,143.37c-.09,0-.1,0-.15.06-.08-.22-.28,0-.4,0s0,.19,0,.25c.16,0,.18,0,.27.08a.71.71,0,0,0,.27-.29C106.59,143.48,106.66,143.46,106.66,143.37Z" fill="#823133"/><path d="M105.87,143.41c0,.08.09.18.19.19S106,143.22,105.87,143.41Z" fill="#823133"/><path d="M81,146.88s.1-.08.08-.19a.25.25,0,0,0-.29,0A.3.3,0,0,0,81,146.88Z" fill="#823133"/><path d="M80.62,146.86s-.11,0-.15,0,0,0,0,.11S80.63,146.95,80.62,146.86Z" fill="#823133"/><path d="M80.7,147.65c-.33,0,.21.59.31.23C80.88,147.81,80.83,147.65,80.7,147.65Z" fill="#823133"/><path d="M80.41,148.49s0,.13,0,.13,0,0,0,0S80.44,148.51,80.41,148.49Z" fill="#823133"/><path d="M108.61,151.65c0,.05,0,0,0,.11s-.1,0-.1,0a.08.08,0,0,0,.1,0s0,.08,0,.11a.15.15,0,0,0-.14.08c.1.08.13-.07.23-.06S108.72,151.67,108.61,151.65Z" fill="#823133"/><path d="M108.48,151.94s-.08,0-.08,0,.09-.06.08-.15-.34-.07-.31.08c.07,0,.18.07.17.15S108.47,152,108.48,151.94Z" fill="#823133"/><path d="M109.28,151.92v-.08c0,.06-.11,0-.15.06S109.22,151.92,109.28,151.92Z" fill="#823133"/><path d="M108.52,152.11c0-.07-.09,0-.13-.06S108.46,152.06,108.52,152.11Z" fill="#823133"/><path d="M108.92,152.13H109A0,0,0,1,0,108.92,152.13Z" fill="#823133"/><path d="M65.38,67.95c0-.07.06-.06.08-.1a.94.94,0,0,0-.33-.19A.36.36,0,0,0,65.38,67.95Z" fill="#905a58"/><path d="M65.46,68.76s-.07,0-.1.06-.1-.09-.15,0,.2.21.29.29S65.62,68.8,65.46,68.76Z" fill="#905a58"/><path d="M92.57,77.92s-.08,0-.14,0S92.57,77.95,92.57,77.92Z" fill="#905a58"/><path d="M98.15,82.43s0,0,0-.08H98C98,82.44,98.13,82.39,98.15,82.43Z" fill="#905a58"/><path d="M98.28,87.43a.67.67,0,0,0,.25,0c0-.08,0-.15,0-.23A.3.3,0,0,0,98.28,87.43Z" fill="#905a58"/><path d="M90.73,88.54c0-.14-.21-.06-.25,0S90.68,88.61,90.73,88.54Z" fill="#905a58"/><path d="M56.68,91.82c.06,0,.11-.1.17-.15s.16-.05.15-.17-.2.11-.27,0,.07-.15.1-.23-.1-.19-.19-.25a.86.86,0,0,0,.06.48C56.71,91.58,56.56,91.73,56.68,91.82Z" fill="#905a58"/><path d="M71.65,91.11a.09.09,0,0,1-.06,0s0,.14,0,.15S71.65,91.17,71.65,91.11Z" fill="#905a58"/><path d="M56.64,92.4c.12.1.34.18.36,0s-.23-.17-.36-.19Z" fill="#905a58"/><path d="M103.71,118.36c-.05,0,.11,0,.08.13s-.11.06-.1.17.2-.2.34-.25,0-.11,0-.1-.1.08-.17.1S103.71,118.28,103.71,118.36Z" fill="#905a58"/><path d="M89.31,127.08c.07,0,.07.08.15.08a.14.14,0,0,0,0-.17C89.41,127.05,89.34,127,89.31,127.08Z" fill="#905a58"/><path d="M100.46,133.27c.05.07,0,.26.13.23S100.59,133.16,100.46,133.27Z" fill="#823133"/><path d="M102,143.7l-.08,0c0,.1,0,.31.13.29A.39.39,0,0,1,102,143.7Z" fill="#823133"/><path d="M56.87,147.49c-.06,0-.17,0-.23,0v.25s0,0,0,0S56.84,147.59,56.87,147.49Z" fill="#823133"/><path d="M57.06,112.52c-.19.12-.09,0-.18.16l.21-.06Z" fill="#905a58"/><path d="M56.69,112.4l0,0s0,.07,0,.11S56.65,112.52,56.69,112.4Z" fill="#905a58"/><path d="M56.82,71.92H57a1.2,1.2,0,0,0-.26-.34l.09-.27a4,4,0,0,0,.82.09c.07.11,0,0,.09.09-.05.18,0,.08-.09.18h0l.13,0a2.74,2.74,0,0,0,.15-.39c0-.12.15-.29.12-.42s0-.32.12-.39,0-.25,0-.25L58,70.1l-.25.12,0-.27-.12-.15-.1.42.25.29-.46.17s.29-.59-.44-.25a.63.63,0,0,1-.24.07c0,.51,0,1,0,1.52h0v.18h0v.08h0Zm.31-1.16h.09v.09h.09c-.1.1,0,0-.18.09Z" fill="#905a58"/><path d="M57.08,71.91a.64.64,0,0,0,.29-.09l.11-.06h-.25A1.15,1.15,0,0,1,57.08,71.91Z" fill="#905a58"/><path d="M75.31,84.3c.12-.09,0,0,.11-.11H75.2v.22C75.32,84.31,75.22,84.42,75.31,84.3Z" fill="#905a58"/><path d="M75.53,83.86h-.87a2.79,2.79,0,0,0,.87.22Z" fill="#905a58"/><path d="M75,84.19c-.22.06-.09,0-.22.11H75Z" fill="#905a58"/><path d="M76.29,84a3.71,3.71,0,0,1-.11.76l.32.11.11.43-.22.11v.11h-.11c-.21-.23.12-.2-.32-.33,0,.46.05.56.43.65V86h-.22v-.21h-.43c.08.34.14.4.54.43v.33a5.74,5.74,0,0,1-.76-.22c0-.35-.1-.32-.22-.54-.39,0-.44.14-.86,0V85.7l-.32-.11v.11H73.9v.11l-.32.11a1,1,0,0,1-.11-.43,3.3,3.3,0,0,0-.76-.11v-.11c.17-.1.59,0,.76-.1V85c.12-.12,0,0,.11-.22l-.32-.11c.08-.29,0-.25.33-.32v-.32c.12-.09,0,0,.11-.11a3.12,3.12,0,0,1,.65.33c.08-.11.13-.11.22-.22s0,0,.11-.11-.12-.19,0-.23.33,0,.49-.08a.79.79,0,0,1,.62,0c.12.09.21.26.37.1s.26-.06.4-.1a1.22,1.22,0,0,1,.63-.05h.06a25,25,0,0,0-1-3.2c-.18,0-.24-.06-.38-.08s0,.2,0,.21-.22-.11-.21-.29-.24,0-.25-.15.36-.36.17-.59c-.27.06-.33,0-.5-.08s-.45-.17-.44-.46c0-.12.1-.23.08-.38s-.09-.16-.08-.25.19-.17.17-.29-.25,0-.38,0-.34-.35-.35-.5a.43.43,0,0,1,.08-.31,2.78,2.78,0,0,1,.63,0,18.85,18.85,0,0,0-1.94-2.91,1.58,1.58,0,0,1-.86-.31c-.14.12-.29,0-.44,0,0,.22.28.09.23.31s-.57-.06-.67-.21c-.56,0-.37-.5-.19-.73,0-.08-.12-.11-.06-.17a.88.88,0,0,0,.94-.23c-.07,0-.1-.13-.17-.19a.33.33,0,0,1-.21,0c-.21-.22-1.05-.22-.9-.73,0-.1.14-.12.27-.17a3.5,3.5,0,0,0-.71-.69c-.28,0-1.11-.28-.65-.65a27.13,27.13,0,0,0-3-2.34c-.06.08-.27.21-.33,0s.13-.21,0-.25a.29.29,0,0,1-.52.08c0-.08.22-.12.17-.23a.66.66,0,0,0-.38.13c-.1,0-.12-.11-.21-.06s.07.22.21.21.16.21.19.31a.33.33,0,0,1,.08.65c-.3,0-.31-.33-.63-.27-.08,0,0,.17-.15.15s-.05-.17-.17-.17a.85.85,0,0,1-.21,0c-.12-.08-.25-.18-.25-.31s.35-.31.42-.52a4.39,4.39,0,0,1-.9-.5,1.68,1.68,0,0,1,.5-.44c-.07,0-.06-.13-.06-.23-.21,0-.25-.22-.38-.21,0,0,0,.05,0,.1s-.12,0-.19,0-.14.2-.15.33.07.17.06.27a.61.61,0,0,1-.42-.27c0-.16.21-.17.29-.27s-.18-.29-.21-.5a4.8,4.8,0,0,0-1-.38,1,1,0,0,0-.65-.42s0,.07,0,.1c-.17.08-.13.37-.38.38s.12-.32,0-.46-.28.06-.27-.12.19,0,.13-.12a1.59,1.59,0,0,0-.57-.27c0,.06.08.12,0,.17s-.44,0-.61-.14-.1-.2,0-.29c-.15,0-.26-.12-.42-.15s0,.22-.15.25c-.27.07-.34-.36-.56-.36s-.17.13-.25.13-.22-.26-.21-.46c-.13,0-.16.06-.29,0a.48.48,0,0,0-.4-.25c-.06.3.21.27.19.54-.12.12-.25,0-.27-.12,0,0-.09,0-.12,0a1.71,1.71,0,0,0-.5-.54.13.13,0,0,1-.11,0,4.09,4.09,0,0,0-.06,1.19V66.5s.11,0,.1,0-.08.09,0,.21c.23-.09.4.29.54,0,.07-.1-.15-.13-.06-.25s.19,0,.23.12-.13.19-.08.38a.37.37,0,0,1-.38.17.41.41,0,0,0-.26.33v0h.09v.09h-.11a2.73,2.73,0,0,0,0,.45h.21v.09H57v.18h-.17a3.48,3.48,0,0,0,.42.54h0v-.82c.1-.08,0,0,.09-.09l.55-.09V68c.51,0,.65,0,.73.46h.09l-.09.55h-.45v-.09h-.27V69l-.54-.19V69l.27.09c0,.29-.08.26-.18.45a2.3,2.3,0,0,1-.41-.14c0,.22,0,.46-.34.49,0,0,0,.1,0,.15l.11.23a2.75,2.75,0,0,0,.36-.09l.09.09.09-.18a.13.13,0,0,1-.09-.18,1.86,1.86,0,0,0,.27-.27c.68,0,.61.22,1,.46a4.92,4.92,0,0,0-.28.91h.54v.09h.09c.08.21-.14.19-.18.27s.16.24.09.46a6.5,6.5,0,0,0-.27.63c-.47,0-.57-.07-.63-.46.25-.07.21,0,.27-.27-.45.06-.52.35-1,.36L57,72l-.09.27-.3.12c0,.54,0,1.08,0,1.63.31-.06.27.39,0,.27v.42c.22,0,.37.18.54.19s.22-.09.38-.15a1.15,1.15,0,0,1,0,.46c-.38.08-.34.67-.86.54V77s.08-.08.19,0a.56.56,0,0,1,.27.31c-.08.33.06,1-.46,1V90c.26.18.33.5.56.75s.36.23.38.4c0,.34-.46.59-.46.88s.24.31.17.59-.23.16-.31.27c.13.36-.07.58-.08.84a.94.94,0,0,1-.08.5c0,.25.27.21.38.36s0,.55.13.73c0,.11-.22.06-.29.13,0,.26-.2.34-.4.42,0,3,0,6.19,0,9.22a.32.32,0,0,1,.19,0,1.85,1.85,0,0,0,.11.56s-.06.1-.15.08.11-.44-.1-.5c0,.78,0,1.59,0,2.4.21-.08.27-.18.28-.47l.21,0,0,.21-.21,0,.08.42c.32-.15.36-.21.32-.61l.32-.06a5.85,5.85,0,0,1-.07.78c-.33.11-.29.16-.49.31.09.38.22.4.16.85l-.11,0c0,.11,0,.22,0,.34l.11,0,0,.21.11,0,.17.3a1.08,1.08,0,0,1-.41.19,3.35,3.35,0,0,0,0,.76l-.1,0c-.13-.15-.08-.58-.25-.72l-.11,0-.07-.05c0,.69,0,1.38,0,2.06a.06.06,0,0,0,0,.06,1.51,1.51,0,0,0,.4-.19.78.78,0,0,1,.61-.13c.14.05.27.19.39,0s.23-.13.36-.21a1.23,1.23,0,0,1,.59-.22c.24,0,.3-.08.22-.2s.37,0,.37,0l.46,0,0,.11a7.09,7.09,0,0,0-1.84.64,3.64,3.64,0,0,1,.1.76l.34,0,.22.39-.18.16,0,.11-.1,0c-.26-.16.06-.22-.4-.22.13.44.21.53.59.51l.06.21-.21.06-.06-.21-.41.12c.18.31.24.34.64.27l.09.31a5.88,5.88,0,0,1-.79,0c-.14-.32-.18-.28-.36-.46-.37.12-.38.26-.83.24l0-.11h-.32v.09h0c0,.77,0,1.54,0,2.28l0-.16a1.41,1.41,0,0,1,.55,0c.12.19,0,.09.16.18l0,.11h-.77c0,.17,0,.35,0,.51s.21,0,.29,0-.1.15-.1.27.2.18.29.27c.21.41,0,.69-.42.42,0-.11.11-.11.13-.21s-.14.07-.21,0v.38c.26.08.61.07.65.38-.25.07-.4-.12-.65-.12,0,1.49,0,2.87,0,4.37a.31.31,0,0,1,.33.42.58.58,0,0,1-.33.06c0,1,0,1.91,0,2.84a1.2,1.2,0,0,1,.25.38c.34,0,.74.08.61.5.06.1.2.13.17.33s-.33.08-.46,0c0,.13.19.16.21.31a1,1,0,0,1-.5,0,.22.22,0,0,0-.06.19c.39.1.27.66-.21.56v1c0,.07.13,0,.12.13s-.13.07-.12.17c0,2,0,4.07,0,6.12.18,0,.35-.1.46,0s-.29.41-.15.69a.57.57,0,0,1-.33.08V137c.16.1.37.16.46.33-.16.22-.3-.22-.44-.08s.08.27.08.42.3,0,.34.15-.21.22-.23.38-.12,0-.21,0v1.53a8.63,8.63,0,0,0,0,1.55c0,.11.2.21.15.36s-.13,0-.12.11v1.53c.35,0,.46.13.46.33s-.08.17-.08.29,0,.14,0,.21-.09.17-.08.25.19.17.1.31-.32-.06-.46,0v.73a1,1,0,0,1,.27-.08c.17.1.06.35.11.56a1.64,1.64,0,0,1-.38.08v.17c.17-.18.6.09.38.36-.08.06-.09-.06-.17,0a.31.31,0,0,0,.21.46c0-.07.06-.06.12-.06s.06.06.06.13-.11.07-.21.06-.13.2,0,.23.18-.17.36-.17a.28.28,0,0,1,.27.25.14.14,0,0,1,.25.13c-.12.08-.17,0-.25-.06-.07.11.1.18,0,.25-.27-.06-.46.06-.73,0,0,0,0,.08-.1.08s.05.12.1.21-.18,0-.25,0v2.22c.17,0,.26-.21.42-.23s.12,0,.21,0,.16-.05.21,0c.41.07.23.6-.12.58-.13,0-.21-.19-.33-.1.05.25.32.48.08.73.05.06.12.1.13.21-.17,0-.15.16-.25.21a.37.37,0,0,1-.29.59c0,.21.34.2.54.21,1.88.09,4-.06,6,0,0-.15-.13,0-.19-.13l0-.17c.07,0,.07.11.15.06a7.89,7.89,0,0,0,0-.92c-.11,0-.09.1-.08.25-.22,0-.29.22-.44.33-.15-.09,0-.25,0-.33s-.23.09-.25-.06.32-.23.29-.42-.13.09-.23,0c.1-.16.37-.17.67-.17,0-.45,0-1,0-1.51a.3.3,0,0,1-.17-.05.65.65,0,0,1-.32,0c-.16,0-.33-.17-.43.06s-.23.18-.36.29a1.35,1.35,0,0,1-.62.34c-.26,0-.31.14-.22.25s-.4.09-.4.09l-.51,0-.07-.12a7.91,7.91,0,0,0,1.93-1,4.15,4.15,0,0,1-.23-.82l-.38,0-.3-.39.17-.2,0-.11.11-.05c.31.14,0,.26.48.19-.21-.46-.31-.55-.73-.47l-.1-.22.22-.1.1.22.44-.19c-.24-.31-.32-.34-.74-.2l-.15-.33a6.49,6.49,0,0,1,.87-.12c.2.33.24.28.46.45.39-.19.38-.34.88-.38l.05.11h0q0-1.74,0-3.47l-.15,0,0-.11.11,0,0-.11h.13c0-.77,0-1.53,0-2.31a1.15,1.15,0,0,1-.65,0c-.09-.18-.35-.13-.36-.36s.45-.31.56-.06c0,.09-.09.19,0,.29.21,0,.25-.22.48-.23,0-.59,0-1.29,0-2a1.13,1.13,0,0,0-.25,0,.89.89,0,0,0-.06.36c-.1.06-.34.2-.44.06s.11-.17,0-.27-.3-.08-.46-.17c-.31-.17-.37-.63.17-.42a5.21,5.21,0,0,1,.5.29c.13-.2.53-.24.48-.54-.1,0-.36.13-.38,0s.23-.18.23-.38a.7.7,0,0,0-.5-.1c-.21-.17-.19-.58.25-.48,0-.18.2-.23.4-.25,0-1.79,0-3.54,0-5.31,0,0-.12,0-.13-.12s.14,0,.13-.1-.22,0-.31,0a1,1,0,0,1-.08-.15c.11-.14.24-.27.33-.42-.17.06-.23.06-.33-.06s.13-.18,0-.23,0,.2-.12.21c.06.1.18.24.06.36a.49.49,0,0,1-.29-.46,4.94,4.94,0,0,1,.73-.71c0-.3,0-.66-.11-.82.13,0,.11-.24.11-.42,0,.05-.14.21-.21.06s.16-.1.21-.19,0-.26,0-.33,0,.19-.08.21a.37.37,0,0,1-.15-.11c0,.09-.08.17-.15.13s.08-.15.13-.21-.2-.18-.21-.29.2-.23.46-.21c0-1.25,0-2.43,0-3.68,0,0-.13,0-.11-.11s.09-.38.11-.61c-.24,0-.17-.26,0-.31,0-3.18,0-6.29,0-9.43-.16,0-.11.28-.25.29s-.15-.06-.17-.19.21-.11.29-.19-.07-.12,0-.19.15,0,.17-.12c0-2,0-4.17,0-6.25-.3-.08,0-.27,0-.42a12,12,0,0,0,0-1.5,1.35,1.35,0,0,1-.33.19.59.59,0,0,1,.36-.67c0-.17,0-.33-.08-.4.16-.26.05-.78.08-1.17-.51,0,.09-.29,0-.56-.1,0-.2,0-.25-.1s-.08-.27-.06-.42.22-.28.11-.46a.27.27,0,0,1,.21-.08c0-.87,0-1.7,0-2.55-.27.07-.4-.26-.21-.31s.15.14.21.25c0-.73,0-1.5,0-2.2-.49.13-.31-.31-.17-.48-.28,0-.31-.14-.25-.35-.11-.14-.34-.12-.31-.31s.13-.09.27-.19.23-.29.46-.17c0-.44-.36-.48-.29-1,0-.13-.31-.21-.31-.4a.3.3,0,0,1,.25-.29l.15.08s0,0,0,.1a.38.38,0,0,1,0,.25c.33,0,.23-.58.23-1.07,0-1.35,0-2.81,0-4.08a.84.84,0,0,1-.75-.46c0-.22.16-.37.36-.46a1.51,1.51,0,0,1,.4-.77c0-1.13.09-2.25,0-3.34,0-.07-.06.08-.15,0s-.07-.28-.19-.27c.06-.14.16-.33.36-.27V80.88c-.16,0-.3,0-.33-.1s0-.13,0-.23c-.23-.11-.64-.06-.77-.29s-.14-.48,0-.58c.37.12.67.31,1.07.42,0-.18,0-.35-.08-.42.16,0,.05-.3.08-.44S63,79.18,63,79a.34.34,0,0,1,.25-.13v-.4c-.12,0-.23,0-.25-.1s.17-.06.25,0V75.7a.44.44,0,0,0-.42.31s.11,0,.1.06a.17.17,0,0,1-.31,0c-.09,0-.07-.07-.17,0s0,.11,0,.1,0-.07,0-.08-.17-.05-.15-.19-.24-.09-.29-.21.12,0,.13-.12-.15-.14-.25-.19c.07-.12.19-.06.23-.19s.17,0,.21,0-.09-.07,0-.15.23-.05.38-.06c0-.17,0-.21,0-.31.08.08.15,0,.25,0,.05.16.22.09.36.17s0-.27,0-.34a20.62,20.62,0,0,1,2.55,2.28.58.58,0,0,1,.31.17c0,.08,0,.09,0,.17.47.45.83,1,1.28,1.48.3,0,.79.31.42.59a21.56,21.56,0,0,1,2.61,5.22c.07,0,.07-.15.13-.21.28,0,.58,0,.61.21a.51.51,0,0,1,.35.31c-.12.06-.17.19-.25.29s.09,0,.08.08-.38.3-.44.48a1.57,1.57,0,0,0,0,.44c0,.18.13.36.17.57.13.75.33,1.71.42,2.47,0-.06.19,0,.29,0s.05.14,0,.17-.13-.21-.29-.1c0,.22.15.48.37.4,0,.15.13.28.19.42s.25.05.25.21a.53.53,0,0,1-.48-.29c0,.12-.08.1-.08.19s.22.1.21.27c-.16.06-.25-.09-.38-.12a3.32,3.32,0,0,1,0,.5c.18.09.37.24.35.46,0,.06-.1.05-.15.08,0,.22.37.38.4.54s-.35.59-.59.58c0,.56-.05,1.07-.08,1.67.54,0,.3.66-.06.67a.39.39,0,0,0,0,.33,4.1,4.1,0,0,0-.23,1.15c-.05.34-.1.67-.14,1a.46.46,0,0,1,.39.4c-.12.12.11.35-.08.46.1.1.13.26.23.35.33,0,.18.21,0,.25,0,.44-.43.06-.56-.06.09-.08.21,0,.36,0-.07-.21-.09-.47-.27-.56a.81.81,0,0,0-.25,0,21.81,21.81,0,0,1-.81,3c.23,0,.49.12.52.31s-.17.24-.25.44a.44.44,0,0,1-.29.42c-.11,0-.2-.1-.33,0s0,.17,0,.21-.06-.09-.14-.08c0,.22-.25.35-.17.54-.05,0-.09-.06-.08,0-.68,1.28-1.45,2.46-2.09,3.78a.41.41,0,0,1,.17.08,1.39,1.39,0,0,0-.06.75c.27.17.62.24.69.61,0,0,0,0-.06,0-.26,0-.43-.19-.67-.25a.52.52,0,0,1-.69.21c-.29.62-.36,2,.67,1.74,0-.2.05-.48.29-.48s.27.17.37.15.18-.19.29-.25a.65.65,0,0,1,.67,0,1,1,0,0,1,.5-.33c0-.08-.06-.12,0-.17a.58.58,0,0,0,.48-.17c0-.14-.24-.12-.29-.25a.92.92,0,0,1,0-.29l.23-.06a1.1,1.1,0,0,1,0-.29c.17-.07.36,0,.5-.06-.07,0,0-.27-.06-.36.13,0,.22.13.36.17a.32.32,0,0,0,.23.29,6.86,6.86,0,0,0,.67-.67c-.34-.34.1-.43.06-.86.14-.33.51-.09.5.21a7.35,7.35,0,0,0,.69-.79c0-.06-.12-.1-.11-.23s.22,0,.29,0a25,25,0,0,0,2.4-3.87.88.88,0,0,1-.15-.4c-.12-.09-.28-.06-.31-.21s.43-.57.61-.29c0,0,0-.1.13-.08s.11.1.19.13a26.09,26.09,0,0,0,2-6.19c-.1-.06-.16-.16-.31-.17-.14-.18-.29-.35-.42-.54a.34.34,0,0,0,.27-.1c.08.07.06.24.17.29a.8.8,0,0,0,.33-.35c-.06-.07-.23,0-.23-.15s.13-.14.19-.23c0-.24.35-.46.14-.71,0-.05-.12.11-.14.06s-.1-.2-.08-.36.12,0,.19,0-.13-.17,0-.23.11.13.21.17a28.44,28.44,0,0,0-.52-6.75s-.08-.06-.08-.13a2,2,0,0,0-.12-.75c0-.14-.08-.27-.11-.41A3.17,3.17,0,0,0,76.29,84ZM64,67.13a.54.54,0,0,1-.38.17C63.62,67.16,63.94,66.94,64,67.13ZM57,66.63c-.23,0,0-.31.08-.13S57,66.61,57,66.63Zm.27,81.48a.23.23,0,0,1,.31,0C57.63,148.42,57.2,148.35,57.25,148.11Zm.19,1.51c-.11-.25.26-.37.23-.12C57.65,149.58,57.57,149.61,57.43,149.62Zm-.25,1.88c0-.15.18-.24.17,0C57.31,151.51,57.23,151.55,57.18,151.5Zm5.12,0s0,0,0,0h0s0,0,0,0v0s0,0,0,0h0s0,0,0,0Zm-.23-.25a.12.12,0,0,1-.08-.19A.11.11,0,0,1,62.08,151.27Zm-.19-.4a.1.1,0,0,1,.13,0,.1.1,0,0,1-.13.06Zm1-22.54c-.1,0-.14,0-.15-.12S62.89,128.25,62.89,128.33Zm.27-3.3c0,.06-.18.09-.25,0S63.13,124.92,63.16,125ZM63,103.27c0,.19.09.26.06.46-.19,0,0-.29-.12-.44S62.95,103.27,63,103.27Zm-.06-.46a1.9,1.9,0,0,1,0,.42C62.65,103.22,62.59,102.77,62.91,102.81Zm-.33,19.84s.06,0,.08,0a.27.27,0,0,1-.06.17C62.53,122.83,62.55,122.68,62.58,122.65Zm.08,5.44c-.07,0-.09,0-.12,0C62.52,127.84,62.75,127.92,62.66,128.08Zm.5-35.18c0,.11-.14.06-.12,0A.08.08,0,0,1,63.16,92.9Zm-2.3-24,.06,0c0,.06,0,.07-.1.06S60.89,69,60.86,68.91Zm0,34.57s-.12,0-.17,0S60.86,103.36,60.84,103.48Zm-.1,17.12c0,.05,0,.1,0,.13s-.17-.06-.12-.15A.33.33,0,0,1,60.74,120.6Zm-.37-11,0,.11.1,0-.06.23c-.18-.1-.31-.07-.17-.3ZM60.53,144l-.44.19,0-.11a1.19,1.19,0,0,1,.39-.31Zm-.34-67.82c0,.16,0,.26-.12.27C59.78,76.47,59.94,75.91,60.19,76.16ZM60,77.46c-.66.15-.67-1,0-.81.09.08.21.19.17.33s-.27,0-.36.1S60,77.25,60,77.46ZM59.21,74l.18-.36c.18.06.08,0,.18.09s0,0,.09.18c-.1.08,0,0-.09.09Zm.48-5.9.36-.18-.09.27h-.27Zm0,3.82a1.06,1.06,0,0,1-.46.09v-.27h.27v.09C59.67,71.92,59.57,71.85,59.67,71.95Zm-.27-.55h-.18c.06-.18,0-.08.09-.18v.09C59.41,71.39,59.33,71.3,59.4,71.4Zm-.62-3.73a.79.79,0,0,1,.18.18h.36V68c.1.08,0,0,.09.09-.1.08,0,0-.09.09-.38,0-.29-.13-.54-.27Zm-.19,2a.67.67,0,0,1,.27-.18v-.27h-.09V69h.09c.09.16.13.14.18.36s0,0,.09.18a.36.36,0,0,0-.18.18A1,1,0,0,1,58.59,69.67Zm-1,4.81c-.11,0-.29.14-.42,0s.15-.2.17-.34-.64-.17-.63-.44.17-.18.34-.23c.05-.32.47-.82.65-.29a.27.27,0,0,1,.36.1c0,.24.12.27.1.48-.14,0-.19.15-.36.15s-.12.34,0,.38.14-.12.23-.15.18.1.27.15a.36.36,0,0,1-.08.29A.52.52,0,0,1,57.62,74.49Zm.83,33.2,0-.21c-.27,0-.25-.07-.46-.13l-.12-.64.34,0,.23.62.11,0,.06.32Zm0-34.47h-.18v-.27h.18l.09-.27h.27v.09c.1.08,0,0,.09.09A.85.85,0,0,0,58.49,73.22Zm.45,1.09.45-.09c-.06.18,0,.08-.09.18s0,0-.18.09V74.4C58.94,74.34,59,74.41,58.94,74.31Zm.21,3.82s0,0,0,0a.09.09,0,1,1,.17-.06C59.28,78.1,59.23,78.13,59.15,78.13Zm.43,31.44-.23-.07a1.42,1.42,0,0,1,0-.55c.2-.1.1,0,.19-.15l.11,0C59.63,109,59.61,109.3,59.58,109.57Zm-.09-2.84.34,0,.06.32-.32.06c-.11-.1,0,0-.13-.08l-.08-.43-.11,0,0-.11.11,0-.06-.32a1.36,1.36,0,0,1,.55,0l.06.32c-.21-.07-.19-.12-.46-.13Zm.54.56-.08-.43.11,0a1.12,1.12,0,0,1,.19.4Zm.14,12.92c0,.06,0,.15-.15.13S60.1,120.11,60.17,120.2ZM59.61,116l0,.1L60,116a1.35,1.35,0,0,1,0,.55l-.31.09c0-.21.1-.2.09-.47l-.31.09c0,.11,0,.22,0,.34l-.31.09-.09-.31c.09-.12,0,0,.07-.13l.42-.12,0-.1Zm.29,18.35c-.11,0-.11-.16-.06-.23S60,134.3,59.9,134.31Zm-1.28-19.08a1.26,1.26,0,0,1,.09-.48l.62-.18c0,.11,0,.23,0,.34l-.6.28,0,.1-.31.09,0-.1Zm-.53,4.66c.13-.13.16-.35.4-.38s.12.31.29.36a.3.3,0,0,1-.15.23h-.25c-.17.07-.08.39-.19.52C57.73,120.72,57.58,119.92,58.08,119.89Zm-.82,2.72c0-.5.67-.16,1-.12,0,.07-.17.43-.29.46-.29.08-.27-.25-.46-.38S57.38,122.62,57.27,122.61Zm.23.34h-.08a.13.13,0,0,1,0-.17C57.53,122.77,57.53,122.88,57.5,122.94Zm.21,5c-.1.07-.2,0-.23-.11s.23,0,.25,0A.1.1,0,0,0,57.71,127.9ZM58.36,148c-.06.21-.37.13-.56,0a2.09,2.09,0,0,1-.06-.36C57.91,147.25,58.45,147.67,58.36,148Zm-.15-10.44c0-.09.07-.11.17-.1S58.3,137.59,58.21,137.59Zm.57-1.71c-.18,0-.08-.25.06-.12A.1.1,0,0,1,58.77,135.88Zm-.12-7.19s.09,0,.1,0-.06.09-.1.13-.08,0-.17,0,0-.05,0-.1c-.19,0-.21-.08-.23.06-.05,0-.07,0,0-.1h-.1s-.06-.11,0-.13-.26-.13-.33-.25.22-.07.31-.12-.06-.16,0-.21-.1-.05,0-.11.14,0,.25,0c0,.12.15.11.23.13s0,.08-.06.06a.68.68,0,0,1,.44.31C58.83,128.48,58.66,128.51,58.65,128.69Zm.25-2.63s.09,0,.1,0-.06.09-.1.13-.07,0-.08,0,0,.21,0,.33c-.24,0-.1.37-.25.46s-.09-.05-.21,0v-.1a.12.12,0,0,1-.15,0s0,.07,0,.1-.08-.12-.19-.12c0-.2-.14-.25-.29-.29s0-.42.21-.38c0-.27-.21-.29-.36-.44,0-.13.22-.07.31-.13s-.06-.16,0-.21-.1-.05,0-.11.14,0,.25,0a.22.22,0,0,0,.29.11s-.1-.05,0-.11.15,0,.25,0c0,.12.15.11.23.13s0,.08-.06.06a.68.68,0,0,1,.44.31C59.08,125.85,58.91,125.88,58.9,126.06Zm.29-1.57c-.21,0-.16-.35.06-.23A.16.16,0,0,1,59.19,124.49ZM59,117l-.06-.21.42-.12,0,.1A1.1,1.1,0,0,1,59,117Zm1,27.95-.11,0,0-.11-.33.14a1.49,1.49,0,0,1-.13-.6l.33-.15c0,.25-.08.24,0,.54l.33-.15,0-.38.33-.15.14.33c-.08.15,0,0-.06.16l-.44.19Zm1.07,1.24-.66.29,0-.38.61-.4,0-.11.33-.14,0,.11-.22.1A1.41,1.41,0,0,1,61.12,146.22Zm2-2.32c0,.09,0,.18,0,.27a1.53,1.53,0,0,1-.6.13c-.16-.19,0-.1-.21-.17l0-.11ZM62,141.67c.17-.05.06-.32,0-.37.11-.23,0-.43,0-.69.11-.09.23,0,.33.06s.28.56,0,.73c-.06.21.05.4,0,.63-.2,0-.21.21-.29.33.17.15.62.19.52.48s-.42,0-.63,0,0-.19-.08-.36-.36-.28-.4-.42C61.33,141.7,61.8,141.18,62,141.67Zm-.36-27c.12,0,.19.06.19.19S61.59,114.77,61.62,114.62Zm.84,22.45s0,0,.06,0a.21.21,0,0,1-.06.19s0-.06-.06-.06S62.43,137.12,62.45,137.07Zm-.12-10a.22.22,0,0,1-.21-.06c0-.16,0-.25.21-.23A.23.23,0,0,1,62.33,127.08Zm0-45.19a.16.16,0,0,1,0,.21A.11.11,0,1,1,62.33,81.89Zm-.17,31.56s0,.09-.06.1-.09,0-.08-.12S62.13,113.42,62.16,113.45Zm-.29-35.1a.77.77,0,0,1,.23.69.71.71,0,0,1-.73-.65C61.48,78.28,61.67,78.38,61.87,78.36Zm1.94-5.79c0-.16.11-.29.15-.44C64.19,72.2,64,72.73,63.81,72.57Zm.81,2c-.14,0-.25-.28-.08-.31S64.71,74.45,64.63,74.53Zm1.67-2.24c.08,0,.1.16,0,.15A.13.13,0,0,1,66.3,72.29Zm.23,3.53a4.25,4.25,0,0,1-.5-.25c.11-.23.33.07.5.08C66.54,75.71,66.57,75.79,66.53,75.83Zm.77.5c-.33,0-.15-.52,0-.23C67.34,76.19,67.36,76.29,67.3,76.33Zm.12-1h.06a.17.17,0,0,1,0,.17C67.4,75.47,67.4,75.37,67.43,75.3Zm.34,1.21s-.06,0-.08-.06.05,0,.11,0A.14.14,0,0,1,67.76,76.51Zm0-.61c-.21,0-.35-.12-.29-.29C67.64,75.64,67.91,75.71,67.76,75.91ZM68,77c0-.1,0-.12.13-.12S68.06,77.07,68,77Zm.44.33c.05-.28-.12-.34-.21-.48.1-.18.39-.14.61-.1-.12.22,0,.58.08.81A.5.5,0,0,1,68.45,77.37Zm.46-6v-.06c.33,0,.72.1.82.4C69.39,71.84,69.13,71.54,68.91,71.39Zm1.09.67c-.21,0-.2-.45.08-.25C70.13,71.94,70.09,72.05,70,72.06Zm1.09,11.73h.06c0,.06,0,.07,0,.15S71.08,83.88,71.08,83.79Zm.69.65c-.35.13-.38-.24-.44-.42s.16-.15.17-.17.35.33.36.38S71.81,84.37,71.77,84.44Zm-3.66,21.3c-.07,0-.11.06-.19.06a.34.34,0,0,1,.29-.46C68.24,105.52,68.14,105.59,68.12,105.74Zm2.07,1.13c0-.07,0-.09.12-.08s0,.12,0,.21A.22.22,0,0,1,70.19,106.87Zm1.69-8.68s0,0-.08,0a.18.18,0,0,1,0-.12C71.88,98.09,71.9,98.1,71.88,98.19ZM72,91c.13,0,.32,0,.29.19A.27.27,0,0,1,72,91Zm.42-.84c0-.08.12-.1.17-.06S72.55,90.17,72.46,90.17Zm.25,13.69s-.08-.08,0-.15.06.06.11.08S72.72,103.82,72.72,103.86Zm.52-15.13h-.11v.11l-.22-.11c.13-.15.12-.29.33-.11Zm.33-1a1.4,1.4,0,0,1,.54.11c.06.21,0,.09.11.22v.11L73.46,88Zm.59,4c0-.1-.06-.15-.06-.25s0,0,0,0C74.33,91.46,74.33,91.81,74.16,91.8Zm.25,3.7h-.1v-.06a.13.13,0,0,1,.1,0ZM75,86.42h0a.11.11,0,0,1,0-.17h0A.11.11,0,0,1,75,86.42Zm.31,8.28a.09.09,0,0,1,.08-.17s0,.06,0,.06A.11.11,0,0,1,75.29,94.7Zm.23-7.38v-.11h.22c.07-.26.11-.24.22-.43h.65l-.11.32-.65.11v.11ZM76,88.95a1.08,1.08,0,0,1-.43.11v-.22H76Zm.65-.11h-.32c.1-.19.15-.17.22-.43h-.32l-.11.32h-.32v-.32c.12-.09,0,0,.11-.11h.43V88.2h.11v.11h.32A1.38,1.38,0,0,1,76.7,88.84Zm.24,4.75c0-.07.07-.07.1,0S77,93.6,76.94,93.59Z" fill="#823133"/><rect x="57.71" y="112.74" width="0.32" height="0.11" transform="translate(-28.54 20.03) rotate(-15.81)" fill="#905a58"/><path d="M74.88,84.94v.22h.32v.32c.12.09,0,0,.11.11l.22-.11c0-.35-.1-.32-.22-.54Z" fill="#905a58"/><polygon points="75.53 84.73 75.85 84.73 75.85 84.62 75.53 84.62 75.53 84.73" fill="#905a58"/><path d="M56.82,108.33c.07-.14,0,0,.09-.12l-.15-.19-.12,0c0,.1,0,.21,0,.31Z" fill="#905a58"/><path d="M73.69,84.61h.11l.11.22h.33l.11-.43-.65.11Z" fill="#905a58"/><path d="M57.54,113.4l.09.31c.14.06,0,0,.13.08l.18-.17c-.14-.32-.18-.28-.36-.46l-.41.12.06.21Z" fill="#905a58"/><rect x="62.16" y="148.18" width="0.36" height="0.12" transform="translate(-54.33 37.56) rotate(-23.7)" fill="#823133"/><path d="M57.4,112.54c.09-.12,0,0,.08-.13l-.21.06.06.21C57.42,112.55,57.35,112.68,57.4,112.54Z" fill="#905a58"/><path d="M57.19,69.19H57.1a.35.35,0,0,0-.07.14l.24,0Z" fill="#905a58"/><path d="M57.55,112.27l-.06-.21-.8.23h0A3.1,3.1,0,0,0,57.55,112.27Z" fill="#905a58"/><path d="M63.05,148.52l-.1-.22c-.08.15,0,0-.06.16s0,0-.06.16Z" fill="#823133"/><path d="M62.65,147.51l0,0-.15-.33c-.17,0,0,0-.16-.06l-.17.21c.2.34.24.28.46.45h0a.4.4,0,0,1-.06-.22A.25.25,0,0,0,62.65,147.51Z" fill="#823133"/><path d="M63.21,148.76s0-.07,0-.1l-.44.11.1.22.18-.08A.56.56,0,0,1,63.21,148.76Z" fill="#823133"/><path d="M102,139.93l-.05-.09.14-.2-.16-.29-.43.12.41.51Z" fill="#823133"/><path d="M85.7,139.39a.64.64,0,0,0,.29-.09l.11-.06h-.25A1.22,1.22,0,0,1,85.7,139.39Z" fill="#823133"/><path d="M89.54,94c-.05.18,0,.08-.09.18h0l.13,0a2.86,2.86,0,0,0,.15-.39c0-.12.15-.29.12-.42s0-.32.12-.39,0-.25,0-.25l-.25-.1-.06,0c-.07.43-.14.86-.22,1.3C89.5,94,89.46,94,89.54,94Z" fill="#905a58"/><path d="M96.68,80.22a.64.64,0,0,0,.29-.09l.11-.06h-.25A1.26,1.26,0,0,1,96.68,80.22Z" fill="#905a58"/><path d="M101.33,139.5l.06.32a2,2,0,0,0,0-.3Z" fill="#823133"/><path d="M101.88,138.63l-.16-.28.28-.16c0-.15,0,0,0-.15l-.2-.14c-.28.21-.23.24-.36.45l.21.38Z" fill="#823133"/><path d="M104.53,121.5h0v0Z" fill="#905a58"/><path d="M96.93,77.35l.27.09c0,.29-.08.26-.18.45a9.33,9.33,0,0,0-.91-.28,1.71,1.71,0,0,0,.27,1,2.4,2.4,0,0,0,.36-.09l.09.09.09-.18a.13.13,0,0,1-.09-.18,1.86,1.86,0,0,0,.27-.27,1.76,1.76,0,0,1,.32,0c0-.25-.08-.48-.12-.72l-.38-.13Z" fill="#905a58"/><path d="M104.47,121.75s.06,0,.08.06,0-.2,0-.3C104.5,121.59,104.4,121.74,104.47,121.75Z" fill="#905a58"/><polygon points="102.73 126.32 103.06 126.32 103.06 126.21 102.74 126.21 102.73 126.32" fill="#905a58"/><path d="M102.09,126.54v.22h.32v.32c.12.09,0,0,.11.11l.22-.11c0-.35-.1-.32-.22-.54Z" fill="#905a58"/><path d="M102.2,125.78c-.22.06-.09,0-.22.11h.22Z" fill="#905a58"/><path d="M100.9,126.21H101l.11.22h.33l.11-.43-.65.11Z" fill="#905a58"/><path d="M102.74,125.46h-.87a2.8,2.8,0,0,0,.87.22Z" fill="#905a58"/><path d="M98.4,101.66a.62.62,0,0,0,.21.2l.1.06-.12-.22Z" fill="#905a58"/><path d="M101.07,100.34l0-.21a.88.88,0,0,0,0,.21Z" fill="#905a58"/><path d="M109.46,151.63c-.18.06-.22-.21,0-.29,0-.13-.06-.22-.06-.36-.05,0-.11.11-.19,0s0-.15,0-.21-.26-.11-.27-.27.22-.37.23-.5a15.64,15.64,0,0,0-.36-2.4c-.1.16.15.42,0,.48a3,3,0,0,1-.34-.5c0-.1.13-.08.11-.21s-.27.08-.4.11a.2.2,0,0,1-.1-.17.19.19,0,0,1,.23-.06,1.54,1.54,0,0,1,.46-.25c-.09-.53-.13-1-.23-1.51-.44.07-.6-.62-.27-.82,0-.13.07-.16.1-.25a.91.91,0,0,1,0-.27c-.21,0-.15-.09-.23,0-.07,0,0-.1-.06-.11s-.08.13-.17.15-.18-.1-.29-.17,0,.11-.11.11-.19-.4-.44-.44c0,0,0-.16,0-.21s.11,0,.17,0c.06-.43-.4-.45-.67-.59,0-.1.13,0,.13-.15s-.25-.27,0-.33.07.12.17.13.4-.15.52.08c.07-.14.18-.24.25-.38s-.1-.11-.1-.21.34-.15.48-.25c-.44-2.52-.86-5.25-1.29-7.84-.2-.08-.05-.14,0-.23,0-.35-.21-.88-.21-1.27a2.2,2.2,0,0,0,0-.29c-.18-1.19-.41-2.58-.61-3.85-.15-.95-.31-1.92-.48-2.89a5.69,5.69,0,0,0-1.7.11,3.76,3.76,0,0,1-.11.76l.33.11.11.43-.22.11v.11h-.11c-.21-.23.12-.2-.32-.33,0,.46.05.56.43.65v.21h-.22v-.21h-.43c.08.34.14.4.54.43v.33a5.72,5.72,0,0,1-.76-.22c0-.35-.1-.32-.22-.54-.39,0-.44.14-.86,0v-.11l-.32-.11v.11h-.22v.11l-.33.11a1.09,1.09,0,0,1-.11-.43,3.29,3.29,0,0,0-.76-.11v-.11c.17-.1.59,0,.76-.1v-.11c.12-.12,0,0,.11-.22l-.32-.11c.08-.29,0-.25.32-.32v-.32c.12-.09,0,0,.11-.11a3.07,3.07,0,0,1,.65.33c.09-.11.13-.11.22-.22s0,0,.11-.11-.13-.19,0-.23.33,0,.49-.08a.79.79,0,0,1,.62,0c.12.09.21.26.37.1s.26-.06.4-.1a1.22,1.22,0,0,1,.63-.05c.23.06.31,0,.27-.13s.36.08.36.08l.17.06c-.18-1-.36-2.08-.51-3.06a.57.57,0,0,1-.58-.29s0-.08,0-.12-.08-.13-.06-.21.17-.15.27-.23.2.07.24.16c-.07-.81-.27-1.47-.35-2.33-.14,0-.13.13-.25.15,0-.11-.06-.1-.06-.19a.34.34,0,0,1-.5-.19c.11-.07.12-.25.19-.35s-.16-.19-.25-.15-.2.29-.27.15.07-.21.1-.31a3.69,3.69,0,0,0-.31-.21V118l.29-.06c-.06-.15,0-.21,0-.31s.07.1.17,0,0-.17,0-.25a4.31,4.31,0,0,0,.52-.21c-.06-.29-.11-.59-.14-.9-.37,0-.38-.26-.67-.29a.34.34,0,0,1,.1-.4.2.2,0,0,1,.09-.21,1.1,1.1,0,0,0,.35,0,.22.22,0,0,1,0-.25c-.21-.05-.12-.38-.06-.46-.14-.59-.21-1.26-.33-1.88-.1,0-.13-.12-.21-.17s-.11.09-.14.06,0-.25,0-.38c.12,0,.2-.19.31-.15-.29-1.32-.4-2.7-.69-4,0,.44-.51.06-.69,0,.05-.22,0-.33-.08-.5s.12-.36.27-.44.07.19.15.25.17,0,.17.06-.12.24,0,.4c.08,0,.19,0,.23.11a5.48,5.48,0,0,0-.08-.65.14.14,0,0,1-.11-.21c-.12-.1-.32-.19-.35-.33s.06-.12.06-.23-.06,0,0-.09.21-.2.25-.31a3.89,3.89,0,0,1-.17-1l-.5-3a.33.33,0,0,0-.22-.05,1,1,0,0,1-.1-.36.62.62,0,0,1,.26.13l-.27-1.59-.06,0c0,.09,0,.19.05.28a.83.83,0,0,1-.48.06,9.22,9.22,0,0,0-.2-.93,1.72,1.72,0,0,0-.75.72,2.69,2.69,0,0,0,.26.27l0,.12h.2s0-.15.12-.17a1.87,1.87,0,0,0,.37.11c.31.6.1.64.09,1.09a4.75,4.75,0,0,0-.93.2l.26.48-.08,0,0,.08c-.14.17-.24,0-.32,0s-.13.25-.35.3a6.42,6.42,0,0,0-.69.07c-.23-.41-.22-.53.09-.78.18.18.12.17.37.11-.27-.37-.55-.28-.8-.7l0-.12-.28.05-.38-.31-.32.18.18-.34.39.2.41,0a1.7,1.7,0,0,0,.1.17,1.17,1.17,0,0,0,.17-.39l.28-.05a4,4,0,0,0,.32.76c-.06.12,0,0,0,.13-.18,0-.06,0-.2,0h0l.09.09a2.68,2.68,0,0,0,.42-.06c.12,0,.33,0,.42-.1s.26-.2.4-.08.23-.1.23-.1l0-.26-.23-.15.26-.09.07-.18-.41.12-.14.36-.38-.32s.66,0,0-.5.34-.89.61-.93.23-.1.23-.1l.29.82.11-.15s-.24-.48-.06-.25,0-.71,0-.71h.13c-.29-1.71-.57-3.4-.84-5a1.4,1.4,0,0,0-.15-.63,6.55,6.55,0,0,0-.19-1.53c-.31,0-.53,0-.61-.25a1,1,0,0,0,.08-.44c-.09,0-.3,0-.29-.12s.18-.2.21-.36c-.12-.19-.56-.09-.54-.38s.65.1.79,0a12.26,12.26,0,0,0-.25-2.32c-.54-.11-1-.36-1-1-.13,0-.13-.07-.21,0s0,.12,0,.1,0-.15-.12-.13c0-.23-.26-.2-.33-.37s.22-.06.31-.11c-.06-.15,0-.21,0-.31.08.08.14,0,.25,0,0,.14.18.08.23.15s-.07,0-.06.06a.57.57,0,0,1,.36.17,3.29,3.29,0,0,1,.21-.29c-.19,0-.29-.17-.25-.44-.13-.13-.29-.19-.33-.38-.09-.4.21-.65.29-.92a.71.71,0,0,0-.29-.31.86.86,0,0,1,0-.29.3.3,0,0,1-.23-.23c-.26,0-.58-.14-.5-.4s.47-.06.61-.23c-.2-.2.1-.44,0-.71s-.41-.2-.46-.46.33.07.46-.06-.12-.16-.11-.31.21,0,.27-.08a2,2,0,0,1-.07-.33h-.09v-.27H98l0-.23a.25.25,0,0,1-.17-.06,1.4,1.4,0,0,1,0-.18c-.2,0-.27-.16-.32-.43.25-.07.21,0,.27-.27-.45.06-.51.35-1,.36l-.09-.09-.09.27-.46.18v.36l-.21-.32.37-.24.17-.37h.2a1.19,1.19,0,0,0-.26-.34l.09-.27a4,4,0,0,0,.82.09c.08.11,0,0,.09.09-.05.18,0,.08-.09.18h0l.13,0a2.76,2.76,0,0,0,.15-.39c0-.09.07-.19.1-.3-.05-.28-.1-.55-.15-.82l-.17.08,0-.27-.12-.15-.1.42.25.29-.47.17s.29-.59-.44-.25-.61-.74-.52-1,0-.25,0-.25l.86.15-.07-.17s-.54,0-.25-.07-.61-.37-.61-.37.2-.29.12-.42a1.47,1.47,0,0,1-.12-.34V76l.18-.1h.09V75.8h.09v.09h.09V76h-.27v.45h.36v.09h.09v.18h-.27L96.2,77c.3.07.35.21.64.28v-.82c.1-.08,0,0,.09-.09l.22,0c-.13-.78-.26-1.54-.37-2.29,0,.08-.07,0-.15,0s0-.14-.06-.19a.57.57,0,0,1-.27.11c-.1,0-.16-.31,0-.36-.15,0,0-.13,0-.21-.21-.25-.09-.78.31-.77-.09-.47-.13-1-.25-1.42,0,.09-.11,0-.15,0a.18.18,0,0,1-.25.08.28.28,0,0,1,.4-.29c0-.17-.24-.16-.23-.38s-.27-.11-.31-.25.23,0,.29-.13,0-.08,0-.15c-.21,0-.24-.4-.5-.44a.26.26,0,0,1,.25-.38c0-.07,0-.17,0-.21s.1.05.17,0c-.05-.38-.12-.74-.19-1.11,0,.11-.2.08-.25,0s0-.15,0-.21c-.43,0,0-.27,0-.4s-.44-.11-.46-.44c0,0,0-.09.12-.08a.44.44,0,0,1,.09.25c.13,0,.15-.15.31-.13a.39.39,0,0,0-.17-.33c-.21.11-.37-.1-.46-.21s-.05,0-.08,0c0,.16.12.27.06.4s-.17-.08-.27-.1.11,0,.11-.1-.17.12-.21,0,.15-.12.19,0c0-.09-.08,0-.06-.1s.1-.08.15-.17.27,0,.25-.12-.11,0-.08-.12a.18.18,0,0,1,.17-.11c.08,0,0,.2,0,.25s.14,0,.25,0c-.11-.62-.2-1.25-.31-1.86-.29,0-.38-.16-.56-.25-.42,2.58-.84,5.08-1.32,7.63.37,0,.42.73-.1.63-.07.77-.29,1.48-.4,2.32.15.06,0,.31.13.4,0-.1,0-.21.06-.25a.32.32,0,0,1-.12.56c-.08,0-.14-.18-.17-.08a.48.48,0,0,0,.19.67.19.19,0,0,1-.12.25c-.09,0-.13-.1-.19-.15a1.54,1.54,0,0,0-.08.42.25.25,0,0,1,.13.33c-.1,0-.07-.06-.19,0s-.07.29-.08.46.18-.06.17.06-.07,0-.12,0,.1.09.06.21-.19,0-.17.1.4,0,.5.06c-.07.15,0,.29-.15.4s-.15,0-.21,0c.26.23-.07.55-.31.52-.11.28,0,.38,0,.65a.28.28,0,0,1-.19.12c-.26,1.42-.49,2.89-.75,4.41-.18,1-.31,2-.5,2.8-.08.37-.16.61.14.73.07,0,0-.09.13-.06s.11.3-.11.23c0,.08-.13.21,0,.23s.12-.12.25-.11.11.35.19.54-.06.06-.11.08-.11-.07-.17-.1c-.08.17-.27-.09-.34.1s.15,0,.17.13,0,.09,0,.19c-.43.09-.43.6-.36,1.09a.69.69,0,0,0-.42.67,1.09,1.09,0,0,1,.18.34.67.67,0,0,1,.1.25.07.07,0,0,1,.08,0s0,0,0,0h0l-.09.55h-.15c.06,0,.12,0,.12.12s-.32,0-.48,0l-.1.61c.2.08.26.23.52.38a4.94,4.94,0,0,0-.28.91h.54v.09h.09c.08.21-.14.19-.18.27s.16.24.09.46a6.24,6.24,0,0,0-.27.63c-.47,0-.57-.07-.63-.46.25-.07.21,0,.27-.27a1.2,1.2,0,0,0-.52.21c-.3,1.72-.61,3.47-.9,5.13.19.36.61.44.54,1-.07.09-.2.13-.29.21,0,.27-.22.32-.33.48a.9.9,0,0,1,.06.54c-.12-.09-.19-.07-.38,0,0,.23-.13.5-.06.67a.33.33,0,0,0,.25,0c0,.07.1.11.08.23a.6.6,0,0,0-.42.31c0,.08.09.12.08.23a.13.13,0,0,1-.19,0c-.09.47-.18,1-.25,1.44.16.06.33.1.4.25s0,.12,0,.21c.16,0,.26.14.33.27-.12.07-.25.13-.27.29s.11,0,.1.06-.16.07-.27.08,0-.05,0-.1-.12,0-.21,0,0,.1,0,.11-.07-.11-.17-.11c-.13.87-.29,1.7-.44,2.55.19.14.12.32,0,.48s.34.13.5.21c.11.23-.16.31-.15.48s.28.24.13.42c-.14,0-.14-.1-.25-.1s-.3.17-.54.1c0,0-.06.16,0,.19a1.19,1.19,0,0,1,.61.46c0,.13-.09.09-.17.17s-.08.22-.21.19c0-.22-.21-.39-.34-.27.08.07.16.38.31.38-.13.22-.13.57-.46.58-.53,2.55-.88,5.41-1.42,7.92,0,.06.06,0,0,.11s0,.49.21.52c0-.09.05-.09.13-.08s.06.06.08.11a.2.2,0,0,1-.08.08c-.1,0-.11,0-.15-.08s-.07.21-.1.31-.12-.14-.27-.12a7.24,7.24,0,0,1-.17,1c.11,0,.21-.06.29,0a.31.31,0,0,1-.06.23c-.08-.1-.31-.12-.27.1.06,0,.18-.07.23,0s-.12.22-.29.21c-.11.9-.3,1.86-.44,2.59.2.2,1,.88.19.9-.16.21-.06.55-.19.79,0,.09.13.05.11.17s-.34.26-.38.52a.18.18,0,0,0-.12,0c-.07.3-.1.64-.19.92a.24.24,0,0,1,.21.21,1.4,1.4,0,0,0-.08.23c.22.22,0,.44-.21.52a.32.32,0,0,1-.14.33c-.32,2.17-.77,4.41-1.15,6.63,0,0,.09,0,.17,0s0,.29.11.46.14.16.15.27-.14.26-.19.44.32,0,.36.11a1.94,1.94,0,0,1-.09.33c-.27.13-.26.54-.54.67-.09,0-.13,0-.23,0s-.14.19-.17.37c-.08.55-.29,1.26-.33,1.82.14,0,.34,0,.31.21a.4.4,0,0,1-.36-.09c0,.09,0,.2,0,.29.27.09.3.53.13.73-.1,0-.21-.15-.23-.06s0,.07,0,.1.27.05.23.25a.3.3,0,0,1-.27,0c0,.12-.05.2-.06.31a.1.1,0,0,1,.08.1c-.12,0-.14.11-.15.34.16,0,.21.08.25.19a.27.27,0,0,1-.27-.06.93.93,0,0,0-.06.44c.16.11.36.17.46.33-.06.1-.3,0-.42.08s.16.17.19.31-.3,0-.38.11c-.08.43-.16.88-.23,1.32a4.88,4.88,0,0,0,.57.17c0,.21.11.35,0,.44,0,0-.12,0-.17,0s-.14-.19-.27-.11.09.19.11.29-.28.08-.27-.08c-.15,0-.12.29-.17.44a.52.52,0,0,1,.31.19c0-.09,0-.13.08-.14.19.17-.19.23-.21.4-.11,0-.26.1-.27,0-.15.82-.29,1.66-.42,2.49a7.45,7.45,0,0,0-.25,1.74c.13.08.14-.13.25-.13s0,.34,0,.5c-.12.06-.16.21-.27.29s0-.13-.14-.12c-.07.23-.09.51-.15.75h6.34c.18-1.13.34-2.26.52-3.3,0,0-.05-.07,0-.15a.39.39,0,0,0,.1-.25c-.39-.06-.12-.47-.29-.73,0,0-.11,0-.14,0s-.13-.26-.11-.42.52-.42.77-.4l.06-.38c-.24,0-.3-.17-.44-.21s-.35.08-.4-.15.23-.4.25-.75c-.36-.07,0-.61.21-.56s.06.16.17.25c.48,0-.06-.51.25-.63.11.07.09.27.25.29.14-1,.28-1.95.48-2.91-.1-.16-.46-.34-.5-.48-.12-.45.33-.66.69-.67l.06-.42a.8.8,0,0,0-.41.34h-.18v-.27h.18l.09-.27h.27v.09l.06,0c.65-4.28,1.36-8.51,2.08-12.9-.12-.18-.33,0-.48-.19.08-.09,0-.27.11-.31s.12,0,.21.06,0-.2.13-.21.06.19.13.25a1.61,1.61,0,0,1,.06-.42c-.17,0-.26,0-.38,0v-.1c.13-.07.28-.12.31-.29s-.21,0-.23-.1c.15-.2.21-.51.46-.61.2-1.24.43-2.45.59-3.72-.19,0-.11.14-.23.17s-.3-.12-.33-.29c.12,0,.19-.14.29-.15s.1.08.19,0-.05,0,0,.06a.49.49,0,0,1,.17,0c.78-5.25,1.66-10.34,2.49-15.61-.3-.16-.28-.82.17-.79.18-1.17.37-2.34.54-3.51a.48.48,0,0,1-.11-.15c0,.06-.07.09-.1.06a.72.72,0,0,1-.12-.46.39.39,0,0,1,.44-.17c.23-1.47.47-3,.71-4.37-.06,0-.14-.07-.15-.17s.12-.07.19-.11c.1-.71.19-1.19.33-1.86.37,2.36.69,4.76,1,7.19.05.06.14.08.17.17s-.19.15-.08.25c.28-.15.54.16.52.44,0,.08-.07.15-.08.23s0,.42,0,.61-.19.13-.25.23c.06.42.16,1.07.21,1.5.07,0,.19.07.25.17.17.25,0,.51,0,.77,0,.11.15.19.17.25.06.26-.07.42-.25.42a2.43,2.43,0,0,0,.06.33c.14,0,.18-.17.29-.1s-.19.25-.27.27a3.16,3.16,0,0,1,0,.35.19.19,0,0,1,.23,0c-.09.21-.09.34.08.42,0,.1-.12.09-.13.19a5.86,5.86,0,0,0,.13,1.61c.42,2.82.83,5.57,1.21,8.32,0,.05.08,0,.06.08s-.06,0,0,.12c.22,1.52.54,3.54.77,5.6.18.08.49.24.36.5,0-.09,0-.17-.12-.19s0,0-.08,0a1.46,1.46,0,0,0,0,.65c.15,1.21.36,2.41.5,3.53a.41.41,0,0,1,.1.77c.12.71.24,1.42.29,2.11.11.18.58.26.58.5s-.18.26-.34.33a2.47,2.47,0,0,0,0,.61.66.66,0,0,1,.36.25c.44,0,.5.55.06.61,0,.23-.1.29-.23.36.12,1,.28,2.09.44,3.15l.12-.11.2.14.1-.05.05.09c-.1.29-.23,0-.12.44.39-.23.46-.32.36-.7l.19-.1.11.19-.19.11.21.38c.26-.24.28-.32.11-.68l.28-.16a5.84,5.84,0,0,1,.18.77c-.28.21-.23.24-.37.45.21.33.34.31.42.75l-.1.05.06.34.09-.05.11.19.1-.05.25.23a1.1,1.1,0,0,1-.32.3,3.26,3.26,0,0,0,.27.71l-.09.05c-.17-.1-.26-.52-.46-.61l-.09.05c-.17,0,0,0-.24,0l.06.34c-.3.07-.23.1-.44-.12l-.28.16c-.12-.05,0,0-.11,0,.15.91.31,2,.39,2.76.12-.07.13.08.27,0,.18.1.12.27.14.46s.15.21.17.33-.11.05-.19.13,0,.06,0,.08-.21.11-.23.21.15.47.11.79c.38,0,.68.12.63.56.1.09.18.2.38.15.05.12.13.22.19.33a1.5,1.5,0,0,1-.5.06.21.21,0,0,0,0,.31c-.05.08-.15.08-.23.08a1,1,0,0,1,0,.29.32.32,0,0,1-.17,0c0,.33.1.63.13,1a.37.37,0,0,1,.15.36c-.17.31.1.68.06,1,0,.08.15.05.15.15-.18.17-.06.41,0,.73s.11.88.17,1.19c0,.06.09,0,.1.1s-.09,0-.08.06c0,.27.09.51.11.79h2.19a21.69,21.69,0,0,0,2.2,0c.1,0,.18-.06.27-.06s.13.05.21.06.47,0,.67,0-.05-.06,0-.06.09,0,.13,0c0,.12.23.06.27,0s-.06-.08-.08-.12c.15,0,.16.07.21.14s.27,0,.33,0S109.5,151.83,109.46,151.63Zm-5.22-30.55v.13a.1.1,0,0,1-.06-.12Zm-4.81-19.94,0,.08-.08,0,0,.08c-.14,0,0,0-.17-.11ZM98,101.2l.09.16-.16.09-.09-.16ZM96.74,79.08h.09v.09h.09c-.1.1,0,0-.18.09Zm-.64,1.27h.18v.18H96.1Zm-.31-11.67c-.07.07-.16,0-.23,0C95.46,68.47,95.85,68.46,95.79,68.68Zm-14.7,78c0,.11,0,.14-.08.19a.3.3,0,0,1-.21-.19A.25.25,0,0,1,81.1,146.69Zm-.48.17c0,.09-.05.1-.13.11s0-.05,0-.11S80.57,146.85,80.62,146.86Zm-.19,1.76c-.05,0,0-.1,0-.12s.07,0,.06.08S80.43,148.59,80.43,148.61Zm.52-.23c-.26.05-.84-.33-.52-.67a2.34,2.34,0,0,1-.12-.67c.15-.06.42-.06.5.06s-.13.07-.17.15a.17.17,0,0,0-.23,0c.06.14.27.14.33.27.1-.08.26.07.29,0s0,.18.13.21a.3.3,0,0,0,.12.31C81.16,148.12,81.13,148.35,81,148.39Zm4.33-27.85s0,.1,0,.15-.12-.06-.15,0,0,0,0-.1S85.21,120.63,85.28,120.54Zm-.33.75c0-.06.05-.19.15-.15S85,121.21,84.94,121.29Zm-.15,1.78c0-.15.11-.14.15-.06S84.87,123.08,84.8,123.07Zm2.5,15.82c0,.12.16.23.09.46a6.5,6.5,0,0,0-.28.63c-.47,0-.57-.07-.63-.46.25-.07.21,0,.27-.27-.45.06-.52.35-1,.36l-.09-.09-.09.27-.46.18v.36L84.9,140l.37-.24.17-.37h.2a1.17,1.17,0,0,0-.26-.34l.09-.27a4,4,0,0,0,.82.09c.08.11,0,0,.09.09-.05.18,0,.08-.09.18h0l.13,0a2.65,2.65,0,0,0,.15-.39c0-.12.15-.29.12-.42s0-.32.12-.39,0-.25,0-.25l-.25-.1-.25.12,0-.27-.12-.15-.1.42.25.29-.47.17s.29-.59-.44-.25-.61-.74-.52-1,0-.25,0-.25l.86.15-.07-.17s-.54,0-.25-.07-.61-.37-.61-.37.2-.29.12-.42a1.47,1.47,0,0,1-.12-.34v-.32l.18-.1h.09V135h.09v.09h.09v.09h-.27v.45h.36v.09h.09v.18h-.27l-.09.27c.3.07.35.21.63.28v-.82c.1-.08,0,0,.09-.09l.55-.09v.09c.51,0,.65,0,.73.46h.09c0,.18-.06.36-.09.55h-.45v-.09h-.27v.09l-.54-.18v.18l.27.09c0,.29-.08.26-.19.45a9.24,9.24,0,0,0-.91-.28,1.71,1.71,0,0,0,.27,1,2.47,2.47,0,0,0,.36-.09l.09.09.09-.18a.13.13,0,0,1-.09-.18,1.91,1.91,0,0,0,.27-.27c.67,0,.61.22,1,.46a4.84,4.84,0,0,0-.28.91h.54v.09h.09C87.56,138.83,87.34,138.81,87.29,138.89Zm-2.18.81v-.18h.18v.18Zm.82-1.36c-.1.1,0,0-.18.09v-.18h.09v.09Zm1.64-1.08a1,1,0,0,1-.36-.09.69.69,0,0,1,.27-.18v-.27h-.09v-.18h.09c.09.16.13.14.18.36s0,0,.09.18A.35.35,0,0,0,87.57,137.26Zm.37-1.64c-.38,0-.29-.13-.54-.27v-.18a.8.8,0,0,1,.18.18h.36v.09c.1.08,0,0,.09.09C87.93,135.61,88,135.52,87.94,135.62ZM90.56,90.2a.85.85,0,0,1,.18.18h.36v.09c.1.08,0,0,.09.09-.1.08,0,0-.09.09-.38,0-.29-.13-.54-.28Zm.62,3.73H91c.06-.18,0-.08.09-.18v.09C91.19,93.92,91.1,93.83,91.18,93.93Zm-.81-1.73a.69.69,0,0,1,.27-.18v-.27h-.09v-.18h.09c.09.16.13.14.18.36s0,0,.09.18a.35.35,0,0,0-.18.18A1,1,0,0,1,90.37,92.2Zm-.11,3.54h-.18v-.27h.18l.09-.27h.27v.09c.1.08,0,0,.09.09A.85.85,0,0,0,90.26,95.75Zm.39,12.94s0-.06,0-.06C90.64,108.24,91,108.62,90.65,108.69Zm.42-11.76c-.1.1,0,0-.18.09v-.09c-.18-.06-.08,0-.18-.09l.45-.09C91.11,96.93,91.18,96.83,91.07,96.93Zm.28-.36H91l.18-.36c.18.06.08,0,.18.09s0,0,.09.18C91.34,96.55,91.43,96.47,91.35,96.57Zm-.36-2v-.27h.27v.09c.18.06.08,0,.18.09A1.06,1.06,0,0,1,91,94.57Zm.74-3.81h-.27v-.09l.36-.18Zm.13-8.85c-.26.05-.15-.33,0-.17C91.88,81.8,91.89,81.88,91.86,81.91Zm.11-1c0-.12.07-.15.19-.15S92.07,81,92,80.91Zm.46,5.54c-.15,0-.2-.3.06-.27A.15.15,0,0,1,92.43,86.44Zm.29-9.16a.13.13,0,0,1,.1,0C92.86,77.37,92.7,77.38,92.72,77.29Zm.1-.19c-.05-.25.26-.29.23,0C93,77.17,92.9,77.11,92.82,77.1Zm.61-3.47a.17.17,0,0,1-.06-.31C93.63,73.21,93.66,73.64,93.43,73.63Zm.6-2.09a.19.19,0,0,1-.23-.13c0-.15.27-.07.25.06S94,71.52,94,71.54Zm.42-4.41c-.05,0-.08-.05-.11-.08s.08,0,.13,0S94.44,67.07,94.46,67.13Zm.08-.58c0-.05.06-.19,0-.13,0-.12.11-.06.17,0s0,.1,0,.17S94.6,66.53,94.54,66.55Zm2.15,17.91c.05,0-.07-.06,0-.11s.24,0,.38,0,.15.12.23.12,0,.08-.06.06a1.46,1.46,0,0,0,.27.08c0,.11.13.14.17.23s-.26.13-.27.31.09,0,.1,0c0,.2-.27.09-.4.11s0-.07,0-.11a.35.35,0,0,1-.36.11s0-.05,0-.11c-.19,0-.21-.08-.23.06-.06,0-.07,0,0-.11h-.1s-.06-.1,0-.12-.26-.13-.34-.25.22-.08.31-.12-.06-.16,0-.21-.1-.05,0-.11.14,0,.25,0S96.6,84.47,96.69,84.46ZM95,67.32c0-.12-.21,0-.29-.08s.07-.16.19-.15,0,.12,0,.15.17,0,.33,0C95.38,67.58,94.79,67.76,95,67.32Zm.73,16.16h-.1c-.07-.13-.11-.3-.29-.31a.35.35,0,0,0-.08-.23s.08,0,.17,0,.15.3.35.31v.1c.06,0,0-.11,0-.1S95.71,83.39,95.71,83.48Zm.15.17a.13.13,0,0,0,0-.08c.14,0,.27-.17.44-.1s0,.2,0,.27,0-.09.1-.06.09.06.11.12a.1.1,0,0,0-.06.06c-.08,0-.11-.06-.15-.1s0,.11-.1.13A.63.63,0,0,1,95.86,83.64Zm1,2.53s.09,0,.11,0-.06.09-.11.13-.08,0-.17,0,0-.05,0-.1c-.19,0-.21-.08-.23.06-.06,0-.07,0,0-.11h-.1s-.06-.1,0-.12-.26-.13-.34-.25.22-.08.31-.13-.06-.16,0-.21-.1-.05,0-.1.14,0,.25,0c0,.12.15.11.23.13s0,.08-.06.06a.67.67,0,0,1,.44.31C97.08,86,96.92,86,96.9,86.17Zm.4,18.64c-.14,0,0,0-.17-.12l.08,0c0-.18,0-.06,0-.2l.3.35C97.32,104.84,97.44,104.85,97.3,104.81Zm.69-.07c0,.14,0,0-.11.17-.12-.05,0,0-.12,0l-.17-.32.4,0C98,104.72,98,104.6,98,104.74Zm.52-1.12c0,.13,0,0,0,.12a.85.85,0,0,0-.54-.22l-.09-.16.24-.13.09.16.29-.05.13.24Zm1.57-.35-.08,0c0,.13,0,0,0,.12l-.09-.16C100.07,103.24,99.95,103.23,100.09,103.27Zm-.63,12c-.1,0-.1-.1-.06-.15a.14.14,0,0,1,.1,0C99.5,115.25,99.49,115.29,99.45,115.31Zm-.12-11.72.24-.13.13.24-.08,0c0,.19.05.06,0,.2A1.07,1.07,0,0,1,99.33,103.59Zm.31,17.58c.05,0,.18,0,.17.06S99.62,121.28,99.64,121.17Zm.17,1c0-.09.07-.14.14-.1A.09.09,0,0,1,99.81,122.13Zm.64,8.19h-.11v.11l-.22-.11c.13-.15.13-.29.33-.11Zm1-.54-.76-.22.11-.22a1.4,1.4,0,0,1,.54.11c.06.21,0,.09.11.22Zm3.18,6a1.09,1.09,0,0,1,.31.32l-.19.11-.21-.38Zm-1.88-6.93h.22c.07-.26.12-.24.22-.43h.65l-.11.32-.65.11v.11h-.32Zm.1,1.62h.43v.11a1.08,1.08,0,0,1-.43.11Zm-.43,2.79c.11,0,.12.1.08.17A.1.1,0,0,1,102.4,133.23Zm1,3.83-.11-.19a1.27,1.27,0,0,1-.48,0l-.32-.57.34-.06.41.51.1-.05.16.28Zm.12-7.05-.11.32H103V130c.12-.09,0,0,.11-.11h.43v-.11h.11v.11H104a1.31,1.31,0,0,1-.11.54h-.32c.1-.19.16-.17.22-.43Zm.76,6.19c-.14-.06,0,0-.15,0l-.21-.38-.09.05-.05-.09.09-.05-.16-.28a1.34,1.34,0,0,1,.52-.17l.16.28c-.22,0-.22-.05-.48,0l.16.28.34-.06.16.28Zm.54,2.3a1.43,1.43,0,0,1-.17-.53c.16-.16.09,0,.14-.2l.1-.05.18.77Zm.21-11.29c-.11,0-.09-.16-.06-.23H105a.3.3,0,0,1,0,.21S105,127.19,105,127.21Zm.7,11.15.1-.05.05.09.09-.05v.24C105.75,138.55,105.64,138.62,105.7,138.35Zm.36,5.24c-.1,0-.22-.11-.19-.19S106.19,143.5,106.05,143.6Zm.36.21c-.09-.06-.11-.11-.27-.08,0-.06,0-.15,0-.25s.32-.26.4,0c.05,0,.06-.08.15-.06s-.08.12,0,.15A.71.71,0,0,1,106.41,143.81Zm.25-.48a.13.13,0,0,1,0-.25A.18.18,0,0,1,106.66,143.33Zm1.67,8.68c0-.07-.09-.18-.17-.15,0-.15.2-.13.31-.08s0,.13-.08.15.05,0,.08,0S108.41,152,108.33,152Zm.06,0s.13,0,.13.06S108.38,152.16,108.4,152Zm.13-.08a.15.15,0,0,1,.14-.08s0-.08,0-.11a.08.08,0,0,1-.1,0c0-.05.08-.05.1,0s0-.06,0-.11.14.13.15.25S108.62,152,108.52,152Zm.39.17a0,0,0,1,1,.09,0Zm.36-.21c-.06,0-.12,0-.15,0s.1,0,.15-.06Z" fill="#823133"/><path d="M102.52,125.89c.12-.09,0,0,.11-.11h-.22V126C102.54,125.9,102.43,126,102.52,125.89Z" fill="#905a58"/><path d="M96.75,73.74c-.07,0-.16.08-.1.12s.11,0,.12,0S96.77,73.77,96.75,73.74Z" fill="#905a58"/><path d="M95.75,83.35v-.1c-.21,0-.27-.18-.35-.31s-.12,0-.17,0a.35.35,0,0,1,.08.23c.19,0,.22.18.29.31h.1c0-.08.2-.16.09-.23S95.81,83.36,95.75,83.35Z" fill="#905a58"/><path d="M81,147.49c0,.09-.19-.06-.29,0-.07-.13-.27-.13-.33-.27a.17.17,0,0,1,.23,0c0-.07.14-.07.17-.15s-.36-.12-.5-.06a2.34,2.34,0,0,0,.13.67c-.32.34.26.72.52.67s.21-.27.33-.38a.3.3,0,0,1-.12-.31C81,147.67,81,147.53,81,147.49Zm-.33.17c.13,0,.17.16.31.23C80.91,148.25,80.37,147.66,80.7,147.65Z" fill="#823133"/><path d="M96.31,84.35c-.05.05,0,.07,0,.11s-.06.13,0,.21-.29,0-.31.13.26.12.34.25,0,.09,0,.13h.1c0,.06,0,.08,0,.11,0-.15,0-.08.23-.06,0,.05,0,.06,0,.11a.35.35,0,0,0,.36-.11s0,.06,0,.11.35.09.4-.11c0,0-.1,0-.1,0s.18-.21.27-.31-.14-.12-.17-.23a1.46,1.46,0,0,1-.27-.08c.05,0,.08,0,.06-.06s-.19,0-.23-.12-.28,0-.38,0,.05.09,0,.11-.1-.06-.12-.11S96.4,84.44,96.31,84.35Z" fill="#905a58"/><path d="M96.73,85.55c.05,0,.08,0,.06-.06s-.21,0-.23-.12c-.11,0-.17.08-.25,0s0,.07,0,.1-.06.13,0,.21-.29,0-.31.13.26.13.34.25,0,.09,0,.12h.1c0,.06,0,.08,0,.11,0-.15,0-.08.23-.06,0,.05,0,.06,0,.1s.09,0,.17,0,.1-.06.11-.12-.1,0-.11,0,.18-.21.27-.31A.67.67,0,0,0,96.73,85.55Z" fill="#905a58"/><path d="M58.73,125.43c.05,0,.07,0,.06-.06s-.21,0-.23-.13c-.11,0-.17.08-.25,0s0,.08,0,.11a.22.22,0,0,1-.29-.11c-.11,0-.17.08-.25,0s0,.08,0,.11-.06.13,0,.21-.29,0-.31.13c.15.15.37.16.36.44-.23,0-.28.19-.21.38s.29.1.29.29c.1,0,.09.11.19.13s0-.09,0-.1a.12.12,0,0,0,.15,0v.1c.12,0,.09,0,.21,0s0-.46.25-.46c0-.13-.07-.28,0-.33s0,0,.08,0,.1-.06.1-.13-.1,0-.1,0,.18-.21.27-.31A.68.68,0,0,0,58.73,125.43Z" fill="#905a58"/><path d="M58.48,128.06c.05,0,.08,0,.06-.06s-.21,0-.23-.13c-.11,0-.16.08-.25,0s0,.08,0,.11-.06.13,0,.21-.29,0-.31.13.26.13.33.25,0,.09,0,.13h.1c0,.06,0,.08,0,.1,0-.15,0-.07.23-.06,0,.05,0,.06,0,.1s.08,0,.17,0,.1-.06.1-.13-.1,0-.1,0,.18-.21.27-.31A.68.68,0,0,0,58.48,128.06Z" fill="#905a58"/><path d="M30.76,105.59c.06.11.13.29,0,.41s0,.24,0,.24l.26,0,.2-.18a1,1,0,0,1,0-.19l-.11-.08.1-.07a.21.21,0,0,0,0,0c-.1,0-.12.07-.17,0s0-.12,0-.19c-.18-.16,0-.46-.15-.65-.09,0,0,.18-.06.21a.12.12,0,0,0-.08,0s0,0,0,.07S30.71,105.48,30.76,105.59Zm.21.28s0,.07,0,.13S31,105.88,31,105.86Z" fill="none"/><path d="M31.28,106.36l.12.08,0-.08v-.15s-.11,0-.17-.05Z" fill="none"/><path d="M33.85,110l-.08.07-.09.09.19-.05A.32.32,0,0,0,33.85,110Z" fill="none"/><path d="M25.22,83.73a2.61,2.61,0,0,0,.37-.08l.06.06c0-.08,0-.15,0-.23a.12.12,0,0,1,0-.1h0c0-.13,0-.26.06-.39a4.25,4.25,0,0,0-.78-.26A1.72,1.72,0,0,0,25.22,83.73Z" fill="none"/><path d="M25.79,82.47l0,0,0-.17-.07,0Z" fill="none"/><path d="M37.37,131.36a.63.63,0,0,0,.29-.07l.11-.05-.25,0A1.31,1.31,0,0,1,37.37,131.36Z" fill="none"/><path d="M38.33,128.54l-.53-.22v.18l.27.11c-.06.29-.1.26-.21.44a9.22,9.22,0,0,0-.89-.33,1.72,1.72,0,0,0,.21,1,2.65,2.65,0,0,0,.37-.07l.08.1.1-.18s-.15-.05-.08-.19a1.87,1.87,0,0,0,.29-.25,1.28,1.28,0,0,1,.48.11c0-.27,0-.54,0-.81h0Z" fill="none"/><path d="M33.35,111.22c.06.11.13.29,0,.41s0,.24,0,.24l.26,0,.2-.18,0,.27.16.11V112c-.06-.14-.12-.28-.18-.42l-.15-.1.07-.05c-.13-.28-.27-.54-.41-.8a1.22,1.22,0,0,0,0,.18C33.36,110.91,33.29,111.11,33.35,111.22Z" fill="none"/><path d="M35.15,113.44s0,.06.08.07l0-.09Z" fill="none"/><path d="M40,71.23c-.06.14,0,0,0,.15l.19-.11L40,71.08C40,71.23,40,71.08,40,71.23Z" fill="none"/><path d="M45.65,126.4a.59.59,0,0,1,0-.28C45.49,126.12,45.45,126.38,45.65,126.4Z" fill="none"/><path d="M46,126.69l0-.18h-.26c0,.06,0,.12,0,.17Z" fill="none"/><path d="M39.68,70.67l.37-.22-.11-.19-.28.17-.17-.28c-.15,0,0,0-.15,0l-.13.21C39.43,70.6,39.46,70.54,39.68,70.67Z" fill="none"/><polygon points="39.33 71.14 39.38 71.23 39.66 71.07 39.6 70.97 39.33 71.14" fill="none"/><path d="M45.72,126a9.35,9.35,0,0,0,.95,0,1.71,1.71,0,0,0-.53-.89,2.86,2.86,0,0,0-.33.18l-.11-.06,0,.2s.16,0,.13.15l-.12.2c0,.1,0,.2,0,.31Z" fill="none"/><path d="M40,71.72l.74-.44a2.78,2.78,0,0,0-.86.26Z" fill="none"/><path d="M41.29,70.21l-.05-.09-.09.06L40.94,70l-.28.17.13.43Z" fill="none"/><path d="M40.47,71l-.19.11.06.09C40.5,71,40.43,71.12,40.47,71Z" fill="none"/><path d="M42.28,65.25a.46.46,0,0,0,0-.19.38.38,0,0,0-.59.17c.06,0,.1.12.19.15S42.16,65.3,42.28,65.25Z" fill="#905a58"/><path d="M39,65.75c0-.07,0-.07-.1-.06A.07.07,0,0,0,39,65.75Z" fill="#905a58"/><path d="M36.64,66.21c-.13,0-.22.06-.29.15C36.45,66.54,36.79,66.43,36.64,66.21Z" fill="#905a58"/><path d="M31.85,69.87c0-.07.06,0,0-.1a.29.29,0,0,0-.19,0v.06A.12.12,0,0,1,31.85,69.87Z" fill="#905a58"/><path d="M32.69,70.16c-.07,0-.06-.14-.15-.17C32.26,70.1,32.62,70.51,32.69,70.16Z" fill="#905a58"/><path d="M30.93,71.62s.07-.05.06-.12,0,0,0,0a.55.55,0,0,0-.21,0C30.78,71.54,30.82,71.61,30.93,71.62Z" fill="#905a58"/><path d="M33.44,72.15c-.11-.12-.43-.05-.42.15S33.43,72.32,33.44,72.15Z" fill="#905a58"/><path d="M32.64,73.78a.08.08,0,0,0-.08-.13A.11.11,0,0,0,32.64,73.78Z" fill="#905a58"/><path d="M33,74a.13.13,0,0,0,0,.1.12.12,0,0,0,.08,0C33.07,74,33,74,33,74Z" fill="#905a58"/><path d="M27.4,78.34c-.06,0-.09-.06-.19,0s-.08.11-.06.23.07,0,.08.08A.24.24,0,0,0,27.4,78.34Z" fill="#905a58"/><path d="M27.4,78.77a.18.18,0,0,0-.13,0v.06C27.35,78.86,27.42,78.86,27.4,78.77Z" fill="#905a58"/><path d="M32.14,79.88a.1.1,0,0,0-.12,0c0,.07,0,.1.08.1S32.16,79.95,32.14,79.88Z" fill="#905a58"/><path d="M31.31,82.79c-.08-.05-.18.05-.12.13S31.28,82.84,31.31,82.79Z" fill="#905a58"/><path d="M32.12,83.31c0-.05,0-.06,0-.1H32a.19.19,0,0,0,0,.13c.05,0,0,0,.11,0S32.1,83.32,32.12,83.31Z" fill="#905a58"/><path d="M25.79,86.86c.11.07.22-.08.15-.19S25.78,86.74,25.79,86.86Z" fill="#905a58"/><path d="M29.68,87.51c.08.07.11.2.27.19s-.09-.14-.08-.25a.52.52,0,0,0,.21,0c0-.15-.06-.19-.08-.29s-.3,0-.29.13.08.08.06.17-.14,0-.25,0S29.61,87.54,29.68,87.51Z" fill="#905a58"/><path d="M30.51,88a.16.16,0,0,0-.15-.17C30.36,88,30.4,88,30.51,88Z" fill="#905a58"/><path d="M29.42,88.33c0,.18.35.33.56.23C30.06,88.16,29.4,88,29.42,88.33Z" fill="#905a58"/><path d="M32.83,91.17a.71.71,0,0,0,.08-.25c-.19,0-.21.12-.27.23S32.77,91.16,32.83,91.17Z" fill="#905a58"/><path d="M32.58,91.17c0-.07,0-.17-.17-.15S32.49,91.16,32.58,91.17Z" fill="#905a58"/><path d="M31,91.5c0,.18.11.21.21.27s.33,0,.52-.08a.74.74,0,0,0-.06-.48C31.52,91.34,31.24,91.38,31,91.5Z" fill="#905a58"/><path d="M32.79,91.38c.08,0,.11.07.19.08s.09,0,.08-.12S32.79,91.24,32.79,91.38Z" fill="#905a58"/><path d="M31.08,92.11a1.39,1.39,0,0,1,0-.31c-.14,0-.29.17-.52.15.08.13,0,.2-.06.29a.24.24,0,0,0,.37-.13A.3.3,0,0,0,31.08,92.11Z" fill="#905a58"/><path d="M31,92.44c.16,0,.21-.18.13-.27S30.92,92.33,31,92.44Z" fill="#905a58"/><path d="M31.16,92.74c0,.12,0,.24.1.25S31.29,92.73,31.16,92.74Z" fill="#905a58"/><path d="M31.29,93c0,.13,0,.24.15.23A.17.17,0,0,0,31.29,93Z" fill="#905a58"/><path d="M32.12,93.95s0-.09-.06-.08S32.05,94,32.12,93.95Z" fill="#905a58"/><path d="M26.85,95.33v-.06s-.08,0-.08,0S26.81,95.34,26.85,95.33Z" fill="#905a58"/><path d="M33.79,95.71c-.22-.32-.51.3-.08.25C33.75,95.88,33.81,95.83,33.79,95.71Z" fill="#905a58"/><path d="M33.92,98.72c.09.15.25,0,.38.06C34.17,98.71,34,98.43,33.92,98.72Z" fill="#905a58"/><path d="M33.94,99.53c0-.05-.06-.08-.06-.15a1.33,1.33,0,0,0-.25.06.4.4,0,0,0,.31.33c.05-.05-.05-.19,0-.23s0,.1.15.08S34,99.46,33.94,99.53Z" fill="#905a58"/><path d="M34.11,100c.07,0,.09,0,.12,0a.15.15,0,0,0-.08-.15S34,99.92,34.11,100Z" fill="#905a58"/><path d="M31.83,103.54a.1.1,0,0,0-.1-.06.18.18,0,0,0,0,.13h.08l.05,0Z" fill="#905a58"/><path d="M30,103.67a.21.21,0,0,0,.29.23A.25.25,0,0,0,30,103.67Z" fill="#905a58"/><path d="M36.78,104c.06,0,.06-.1.15-.09s-.15-.15-.19-.27C36.5,103.69,36.65,104,36.78,104Z" fill="#905a58"/><path d="M30.87,104.09a.46.46,0,0,0,0,.19c.07,0,.07-.05.15,0S31,104.07,30.87,104.09Z" fill="#905a58"/><path d="M38.94,104.88c-.08,0-.11,0-.1.12s0,.06.1,0S39,104.93,38.94,104.88Z" fill="#905a58"/><path d="M38.52,105.4a.11.11,0,0,0,.15.12C38.64,105.46,38.57,105.37,38.52,105.4Z" fill="#905a58"/><path d="M31.68,105.84a.27.27,0,0,0-.18-.3C31.5,105.6,31.46,105.9,31.68,105.84Z" fill="#905a58"/><path d="M31.2,105.63l.09.06.21-.15A.21.21,0,0,0,31.2,105.63Z" fill="#905a58"/><path d="M39,105.82a.15.15,0,0,0,.17,0C39.23,105.71,38.94,105.58,39,105.82Z" fill="#905a58"/><path d="M39.69,107.2c.08.07.23.14.31,0s0-.09,0-.19S39.77,107.13,39.69,107.2Z" fill="#905a58"/><path d="M34.25,111l0,.08-.09,0,0-.09h0a.15.15,0,0,0,0,.19C34.32,111.27,34.37,111,34.25,111Z" fill="#905a58"/><path d="M42.74,113.33a.33.33,0,0,0-.4-.33c0-.09-.08-.08-.06-.19C41.73,112.94,42.5,113.6,42.74,113.33Z" fill="#905a58"/><path d="M35.88,114.77c-.07,0,0,.07-.08,0s0-.11,0-.23-.26,0-.23.11a1.87,1.87,0,0,0,.23.13s0,0,0,0,0,0,0,0a.1.1,0,0,0,0,.13c.12,0,.1-.07.19-.06S35.88,114.82,35.88,114.77Z" fill="#905a58"/><path d="M35.9,116.34l.27.06c.08-.23-.18-.2-.25-.25S35.87,116.27,35.9,116.34Z" fill="#905a58"/><path d="M44.24,117.49c-.05,0-.09,0-.08.06S44.25,117.54,44.24,117.49Z" fill="#905a58"/><path d="M43.51,117.78s0,0,0,.08,0,.06.08,0S43.61,117.78,43.51,117.78Z" fill="#905a58"/><path d="M43.45,118.61c.06-.07,0-.11,0-.19a.17.17,0,0,0-.17.06C43.34,118.53,43.35,118.62,43.45,118.61Z" fill="#905a58"/><path d="M39.79,120c0-.16-.26-.2-.31-.06A.17.17,0,0,0,39.79,120Z" fill="#905a58"/><path d="M45.08,123c0-.06,0-.08,0-.12C44.78,122.77,44.88,123.22,45.08,123Z" fill="#905a58"/><path d="M39.19,140.46a.2.2,0,0,0,.21,0C39.45,140.32,39.14,140.26,39.19,140.46Z" fill="#823133"/><path d="M38.68,141.8a.2.2,0,0,0,.36-.17A.23.23,0,0,0,38.68,141.8Z" fill="#823133"/><path d="M36.3,142.24c.06,0,.06,0,.13,0s0-.11,0-.25C36.23,141.93,36.26,142.16,36.3,142.24Z" fill="#823133"/><path d="M41,142.26c-.09,0-.14.06-.1.13A.09.09,0,0,0,41,142.26Z" fill="#823133"/><path d="M37.91,146.8a.49.49,0,0,0,0-.29C37.67,146.48,37.75,146.8,37.91,146.8Z" fill="#823133"/><path d="M34.88,148.53c-.19-.05-.36.07-.36.19s.18.13.31.21.33.29.44,0C35.15,148.89,35,148.57,34.88,148.53Z" fill="#823133"/><path d="M31.1,149.93s0-.1,0-.15H31s0,.11,0,.15Z" fill="#823133"/><path d="M31.08,150.12c-.09,0-.08.07-.17.06-.16-.16-.32.09-.37.23.27,0,.35.2.46.36a.55.55,0,0,0,.27-.06c0-.15.14-.24.06-.46C31.24,150.21,31.19,150.13,31.08,150.12Z" fill="#823133"/><path d="M31.81,150.56s.12,0,.1-.08-.24,0-.36.06c.1.17.18.48.42.44,0-.13-.12-.1-.17-.17S31.82,150.61,31.81,150.56Z" fill="#823133"/><path d="M34,111.67l-.17-.11c.06.13.12.28.18.42Z" fill="#905a58"/><path d="M35.27,112.28a1.72,1.72,0,0,0-.53-.89,2.8,2.8,0,0,0-.33.18l-.11-.06,0,.2s.16,0,.13.15a1.83,1.83,0,0,0-.19.34l-.09,0,.13.31a2.59,2.59,0,0,1,.07-.27A9.4,9.4,0,0,0,35.27,112.28Z" fill="#905a58"/><path d="M33.35,110.14a.21.21,0,0,0-.18.09l0,0Z" fill="#905a58"/><path d="M38.38,131.29v.14l0-.15Z" fill="#905a58"/><path d="M38.57,130c.18-.06,0-.24,0-.24l-.2-.1c0,.26,0,.52,0,.78,0,0,0,0,0-.05S38.4,130,38.57,130Z" fill="#905a58"/><path d="M34.56,112.76h-.21l.07.16.06,0h.12Z" fill="#905a58"/><path d="M38.43,127.55l0,0v0Z" fill="#905a58"/><path d="M33.92,110.11a1.17,1.17,0,0,1,.09-.18l-.16.09a.32.32,0,0,1,0,.1Z" fill="#905a58"/><path d="M25.67,83.74l.09-.18a.17.17,0,0,1-.09-.08c0,.08,0,.15,0,.23Z" fill="#905a58"/><path d="M32.77,107.28a.9.9,0,0,1-.23,0h0c0,.06-.05.15,0,.27a.26.26,0,0,0,0,.09l.22-.06C32.76,107.47,32.76,107.38,32.77,107.28Z" fill="#905a58"/><path d="M45.54,123.74v-.1l-.07,0Z" fill="#905a58"/><path d="M44.87,127.38l-.09,0c0-.18,0-.37-.06-.55l.44-.12,0,.09.26-.07,0-.09h.27c0-.06,0-.12,0-.17h0s0-.07,0-.1c-.21,0-.16-.28,0-.28h0c0-.1,0-.2,0-.31a.65.65,0,0,0-.07.14c-.66.17-.64-.05-1.08-.17a4.82,4.82,0,0,0,0-.95L44,125l0-.09-.09,0c-.13-.18.08-.22.1-.31s-.22-.18-.21-.42a6.42,6.42,0,0,0,.09-.69c.45-.13.56-.09.73.27-.22.13-.19.08-.19.33.42-.18.4-.47.87-.62l.11.06v-.12a.27.27,0,0,1-.09-.12c0-.1.12-.12.17-.19a.29.29,0,0,0-.13-.23s.08,0,.08-.1a23.83,23.83,0,0,0-.52-2.7,5.34,5.34,0,0,0-.15-1c-.45,0-.54-.31-.75-.52,0,.07-.23.06-.21-.06s.23-.09.36-.13,0-.16,0-.25.1-.09.21-.08a.81.81,0,0,1,0,.56c.07,0,.08.07.15.08a.18.18,0,0,1,.13-.08.38.38,0,0,0-.13-.34c0-.06.06,0,0-.1-.14-.49-.26-1-.4-1.51-.12-.09-.16-.25-.27-.35s.13,0,.13-.1c-.2-.7-.44-1.34-.67-2-.19,0-.47-.23-.36-.46-.06,0-.18-.1-.15-.17a.27.27,0,0,1,.27,0c-.11-.33-.24-.63-.35-1-.18-.11-.38-.12-.5-.31.06-.12-.08-.43.19-.42-.5-1.36-1.2-2.55-1.73-3.76-.44,0-.58-.34-.25-.52a2.38,2.38,0,0,1-.25-.48s-.13,0-.17,0a.93.93,0,0,0-.25-.69c-.05.11-.22,0-.21-.1s.13,0,.15-.06c-.2-.3-.36-.63-.54-.94a.17.17,0,0,1-.12,0,1.83,1.83,0,0,1-.15-.17c.07,0,.06,0,.17,0-.56-1.16-1.23-2.23-1.76-3.43a.55.55,0,0,1-.21-.17.12.12,0,0,1-.13.06s-.06-.06-.06-.13.16,0,.19-.1a.64.64,0,0,1-.48-.25,1.33,1.33,0,0,1-.44-.36c0-.06.08-.07.06-.17-.48-.11,0-.32,0-.48s-.15.08-.29,0,0,.15-.13.17c-.34-.31-.34-1-.33-1.63.08-.09.16-.16.1-.29-.21,0-.26-.23-.44-.29s-.26.06-.31-.06a1.09,1.09,0,0,1,.27-.33c0-.34-.3-.46-.56-.56,0-.08,0-.1,0-.15s-.53-.14-.57-.44a1,1,0,0,1,.29-.21c.05,0,0,.14,0,.23a.35.35,0,0,1,.36,0c.16-.09.09-.35.1-.44-.15,0-.27,0-.38,0,.12-.2-.1-.57.13-.75-.15-.5-.4-1-.54-1.53a4.24,4.24,0,0,0-.23-.67,2.57,2.57,0,0,1-.23-.69c-.08-.58-.28-1.12-.4-1.69-.09,0-.09.11-.19.11s-.19-.06-.29-.06-.07,0-.06-.08.09-.11.1-.19-.15-.25-.27-.33-.11.23-.15.36a1.08,1.08,0,0,0,.27.15.39.39,0,0,1-.13.33c-.19,0-.44,0-.56-.15a.18.18,0,0,1-.27-.19c0-.22.43-.25.42-.59a1.54,1.54,0,0,0-.29-.61c0-.07.12-.12.11-.25s-.18,0-.21-.1,0-.25,0-.35.18-.18.25-.29-.11,0-.19,0-.06-.09-.12-.11.13.26-.06.31a3.12,3.12,0,0,1-.54-.36c.09-.21.39-.19.54-.33s.08,0,.15,0c-.09-.17-.18-.33,0-.5-.08,0-.1-.07-.12-.13s.28-.13.42-.06c.29-.19.46.11.65.13a5.42,5.42,0,0,1-.1-1.09c-.16,0-.28-.38-.48-.52s-.52-.21-.21-.37c.07.07.08.2.17.25s.08-.15.08-.27c-.45-.17.09-.59.38-.44,0-.29,0-.37-.1-.52a5.4,5.4,0,0,0,.1-1.32,22.13,22.13,0,0,1,1.53-6.48c-.15-.14-.3-.27-.46-.4.13-.23.48-.25.54-.54a.41.41,0,0,1,.31.08c0-.12.1-.14.1-.25s-.07.07-.15.06a1,1,0,0,1-.19-.13c.07,0,.09-.08.12-.13s-.06-.13-.1-.23S34,75.1,34,75a.27.27,0,0,1,.13-.29c.09,0,.1,0,.17,0a.08.08,0,0,1,.08-.08v-.19c.16-.14.17-.44.33-.58a.06.06,0,0,1,0-.06.75.75,0,0,1,.86-.35,23.41,23.41,0,0,1,2.54-3.59L38,69.78a1.44,1.44,0,0,1,.26-.09c.63-.65,1.27-1.37,1.94-2h.06a15.64,15.64,0,0,1,3.26-2.38c.57-.31,1.52-.57,1.27-1.42-.09,0-.11.05-.21,0s-.14-.14-.17-.25c-.23-.16-.53.12-.67,0,0,.06,0,.12-.08.11s-.16-.2-.21-.33a4.84,4.84,0,0,0-1.3.14c.09,0,0,.13,0,.15a.38.38,0,0,0-.21,0c0,.1-.08.2-.19.23a.73.73,0,0,1-.42-.19,5.09,5.09,0,0,0-.77.25c.21.38-.52.52-.63.19-.58.23-1.17.44-1.71.71.09.19.49.36.48.57s-.25.17-.33.31c-.15-.1-.14-.34-.29-.44s-.35,0-.48-.15a1.13,1.13,0,0,1-.36.17c-.23.16-.62.35-.88.5-.08,0-.27.09-.14.21,0-.06,0-.12.06-.11a.13.13,0,0,1,.13.11.16.16,0,0,1-.21,0,.11.11,0,0,1-.08.13.61.61,0,0,1-.25-.08c-.37.27-.67.48-1.07.73a2.34,2.34,0,0,0-.1.94c-.14,0-.29.15-.42.13s0-.19-.12-.19-.12.34-.29.44c0,.08.11.08.11.19-.19.25-.49,0-.69-.08,0-.06,0-.14,0-.15-.26.24-.54.43-.77.67-.06.06-.09.14-.15.19-.25.24-.86.68-.94,1s0,.37-.13.5a1.29,1.29,0,0,0-.21.12c-.11,0-.25,0-.29,0a7.58,7.58,0,0,0-.77,1c.15.14.27.74,0,.73-.16,0-.14-.2-.31-.1.1.08,0,.3.08.42-.2.21-.51.31-.61.63.05.09.22.07.23.21a.61.61,0,0,1-.31.25c0,.2,0,.28-.06.48a.49.49,0,0,0-.38.31c0,.07.07.07.06.15s-.08.07-.1.13.11.38.27.46a.26.26,0,0,1-.31.15c0,.1.21.07.19.23.1,0,.24.06.25.23a1.12,1.12,0,0,1-.88-.38c-.06.08-.17.11-.21.21s0,.25.1.33h.27a3.27,3.27,0,0,0,.27.27c.14-.07.18.07.33,0,0,.14.18.08.23.15s-.07,0-.06.06a.51.51,0,0,1,.44.31c-.12.07-.25.13-.27.29s.12,0,.11.06-.16.07-.27.08,0-.05,0-.1-.13-.07-.21,0,0,.12,0,.1,0-.15-.12-.12c0-.42-.47,0-.52.23s.22.06.23.21c0,.34-.51.18-.63.25a.58.58,0,0,1-.12-.12s.07-.07.06-.15a.4.4,0,0,1-.42-.11c.1.16,0,.29-.19.34a3.44,3.44,0,0,0-.08.44c0-.06.18,0,.15.06s-.31.22-.29.38c0-.08,0-.18.13-.21.25.07.13.35.19.54-.12.12-.26.21-.38.33a.4.4,0,0,1,0-.21c.06,0,.14,0,.17,0s-.15-.15-.19-.27c-.26.87-.49,1.73-.68,2.62l.32,0v.09c.51,0,.65.05.71.47h.09c0,.18-.07.36-.1.54h-.45V82.4h-.27v.09l-.47-.17,0,.17.23.08c0,.29-.09.26-.19.45l-.12,0c0,.13,0,.25-.06.39a1.68,1.68,0,0,0,.27-.26c.68,0,.6.24,1,.48a4.78,4.78,0,0,0-.29.9h.54v.09h.09c.08.21-.14.19-.19.27s.16.24.08.46a6.57,6.57,0,0,0-.29.63c-.47,0-.57-.08-.62-.47.25-.06.21,0,.28-.26-.45,0-.52.33-1,.34a.07.07,0,0,1,0,.05.72.72,0,0,0,.06.71s-.14,0-.19,0c0,.19-.05.49.06.58l-.08.1a29.4,29.4,0,0,0,.44,5.06,1.07,1.07,0,0,0,.21.57c.09.05,0-.06.15,0s.09.13.21.13-.08-.31,0-.44c.13.08.29.19.27.33s-.38.23-.52.4,0,.14-.08.21c.23.87.42,1.78.69,2.7.06,0,.12-.09.21,0s0,0,0,.11-.15.08-.19,0c.06.23.13.44.21.65a4.3,4.3,0,0,0,.69,0c-.09-.12-.38,0-.56-.06s0-.12,0-.21a.12.12,0,0,1-.15-.08c0-.15.11-.21.21-.27s.13.32.08.4c.12.09.29,0,.42,0s.16.29.08.4c-.12-.12-.23.1-.36-.06a.2.2,0,0,1-.19.08c0,.06,0,.16.08.23,0-.09.21-.08.23,0s-.24.08-.38.1a33,33,0,0,0,1.61,4.16c0,.17.12.5.27.42s-.16,0-.15-.15.22-.07.27,0,0,.06,0,.13c.16.23.47.31.58.59-.22.06-.15.42-.27.58l.21.45.16,0,.07.26-.11,0,.2.42c.33-.08.45,0,.6.3-.22.13-.19.08-.19.33.42-.18.4-.47.87-.62l.11.06v-.29l.34-.25H31.7a.18.18,0,0,1,0-.13.1.1,0,0,1,.1.06l-.09-.31.29.25-.29.33-.07.4-.19.06a1.21,1.21,0,0,0,.34.26c0,.09,0,.19,0,.29a4,4,0,0,0-.81.13c-.1-.08,0,0-.11-.06s0-.07,0-.2h0l-.11.07s0,.21,0,.35a.12.12,0,0,1,.08,0c.06,0,0-.21.06-.21.12.18,0,.49.15.65,0,.07-.06.11,0,.19s.07-.05.17,0a.21.21,0,0,1,0,0l.08-.06-.09-.06a.21.21,0,0,1,.3-.09h0a.27.27,0,0,1,.18.3.87.87,0,0,0,.32-.2c.62-.53.79.54.76.81s0,.24,0,.24l-.87.09.12.15s.53-.12.26,0,.69.19.69.19-.11.34,0,.44a1.44,1.44,0,0,1,.21.3l.09.31-.15.14-.09,0,0,.09-.09,0,0-.09-.09,0,0-.09.26-.07-.12-.44-.35.1,0-.09h0c0,.2-.19.32-.14.53a.47.47,0,0,0,.35.31c.11,0,.16-.09.29,0,0,.31-.4,0-.63.12a2.39,2.39,0,0,0,.21.42c.07-.24.73-.23.84,0s-.18.17-.21.31a3.13,3.13,0,0,0,.37.32.89.89,0,0,1,.22-.11l.11.06c0-.1,0-.19,0-.29l.39-.3-.1-.35.29.25-.29.33-.06.4-.19.06a1.18,1.18,0,0,0,.34.26v.29a4,4,0,0,0-.81.13c-.1-.08,0,0-.11-.07s0-.07,0-.2h0l-.11.07s0,.12,0,.24.27.52.41.8l.33-.24s-.12.65.49.12.79.54.76.81,0,.24,0,.24l-.87.09.12.15s.53-.12.26,0,.69.19.69.19-.11.34,0,.43a1.44,1.44,0,0,1,.21.3l.09.31-.15.14-.09,0,0,.09-.09,0,0-.09-.09,0,0-.09.26-.07-.12-.44-.35.1s-.06,0-.08-.07h0v0l0,0c-.16.09-.07.3,0,.46s-.14.08-.08.15,0,0,.13,0,.08.14,0,.21-.11-.09-.15,0,.2,0,.27.13c0-.07.07-.05.15,0s.06.05,0,.12-.21,0-.35,0c.11.41.31.74.42,1.15.06,0,.05-.07.13-.06a.18.18,0,0,1,0,.25,51.27,51.27,0,0,1,2.3,8.28c.14,0,.19.1.21.23a.19.19,0,0,1-.15.11,19.81,19.81,0,0,1,.31,2.61c.06,0,.1-.07.17-.08.47-.06.39.49.21.67.3,0,.41.14.45.48h.09l-.13.54-.45,0v-.09h-.23c0,.27,0,.54,0,.81.19.1.24.24.49.41a4.94,4.94,0,0,0-.33.89l.54,0v.09h.09c.07.21-.15.18-.2.26s.14.25.06.46a6.44,6.44,0,0,0-.31.62,1,1,0,0,1-.39-.08c0,.67-.09,1.33-.17,2,.13.06.25,0,.38,0s.15.24.19.4-.11.13-.13.23c.52.3-.11,1-.67.73a29.1,29.1,0,0,1-.9,3.28c.11,0,.18,0,.19.11s-.18.07-.25,0-.11.24-.08.31c.2-.07.68-.09.75.1s-.21.16-.23.31.24.35.1.54-.29-.08-.4,0,0,.1,0,.19-.27.16-.33.31c-.27.06-.41.25-.69.29-.09.25-.24.43-.31.69.12,0,.22.1.33.14s0-.07.11-.06a.15.15,0,0,1,.08.13c0,.06-.08.07-.17.06s0-.1,0-.11,0,.12,0,.13-.16-.12-.27,0,0,.35.13.46c-.11,0,0,.08,0,.08s-.31-.13-.19-.29c-.09,0-.09-.06-.15-.08-.16.31-.36.57-.5.9.12,0,.32-.23.46,0s-.41.22-.56.15a21.09,21.09,0,0,1-1.3,1.88c.08,0,.08.05.08.13a.15.15,0,0,1-.23,0A28.42,28.42,0,0,1,31,147.78a.64.64,0,0,1,.59.59c.82,0-.18,1-.17.29-.22-.15-.66.34-.71-.08,0-.09,0-.1,0-.21s-.22,0-.27-.12c-.57.47-1.07.89-1.7,1.32.06,0,.06.1.06.19s-.27.08-.31,0c-.27.23-.62.39-.9.61a.27.27,0,0,1,.23.17.49.49,0,0,1-.8.13c-.27.2-.63.3-.92.54a.72.72,0,0,0-.17,1c.49.5,1.88.31,2.55.15-.14-.07,0-.23-.1-.36a1.66,1.66,0,0,1,.33-.27c0-.08-.05-.12,0-.17.35-.05.31.26.29.46.08,0,0-.12.13-.1a.47.47,0,0,1,.13.15s-.06.06-.1.08-.08-.09-.15-.11,0,.13,0,.19a12.53,12.53,0,0,0,2.19-.77c-.07,0-.09-.06-.08-.15s0,0,0,0,.14.09.23.11a2.53,2.53,0,0,0,.79-.42c0-.2-.27-.08-.31-.29s.21-.07.31-.11c-.06-.14,0-.21,0-.31.16.1.39-.07.63-.06s.44.12.58.25c.28-.22.66-.35.92-.59,0-.32-.48-.34-.46-.63,0-.11.17-.21.27-.21.31,0,.57.39.75.54a25.43,25.43,0,0,0,4.54-3.85,2.08,2.08,0,0,0,.52-.57c.07,0,.07-.07.13-.08.13-.25.41-.35.46-.67a.69.69,0,0,1-.27-.4.47.47,0,0,1,.56.15,8.24,8.24,0,0,0,.54-.79c-.21,0-.11.23-.29.21s-.48-.53-.12-.67c.12.1.12.32.31.35,0-.1.1-.07.1-.14s-.21-.13-.23-.31.25-.23.19-.42-.15-.09-.33-.15c0-.31-.55-.69.15-.62.07-.18.27-.31.36-.4s-.11,0-.1-.06c0-.23-.26-.2-.33-.38s.22-.06.31-.1c-.06-.15,0-.21,0-.31.08.08.15,0,.25,0,0,.14.18.08.23.15s-.07,0-.06.06a.51.51,0,0,1,.44.31c-.12.07-.25.13-.27.29s.12,0,.1.06-.16.08-.23.08,0,.17,0,.23a.16.16,0,0,0-.25-.08c0,.24,0,.3,0,.52a.93.93,0,0,0,.5.4,28.86,28.86,0,0,0,1.28-2.76c-.19-.06-.26.18-.29.36,0-.15-.17-.23-.21-.4s.08-.35.06-.56-.07-.24-.06-.33c0-.69.62-1.27,1.17-.82a25.86,25.86,0,0,0,.88-3c-.2-.08-.25-.32-.42-.44s-.24,0-.27-.1c0-.32.21-.45.27-.71a.88.88,0,0,1,.71-.12c0-.21.06-.41.1-.61-.3-.07-.45-.48-.4-.82s.35-.46.58-.56a25.15,25.15,0,0,0,.25-3.05.25.25,0,0,1,0-.42c0-.07,0-.15,0-.22l0-.07C45.2,127.78,45.05,127.76,44.87,127.38Zm.19-4.48s0,.06,0,.13C44.88,123.22,44.78,122.77,45.06,122.9Zm-.82-5.41c0,.05,0,.07-.08.06S44.19,117.48,44.24,117.49ZM42.3,65.06a.46.46,0,0,1,0,.19c-.12.05-.27.07-.38.13s-.13-.1-.19-.15A.38.38,0,0,1,42.3,65.06Zm-3.1,2.5c-.17-.15,0-.09-.2-.13l-.06-.09.76-.2,0,.24A1.45,1.45,0,0,1,39.2,67.56Zm.34-1.34.24,0c0,.2,0,.31-.22.26l-.06-.09.09-.06ZM39,65.75a.07.07,0,0,1-.1-.06C39,65.68,39,65.68,39,65.75ZM38,69,38,68.91l.28-.17.06.09-.19.11a1.26,1.26,0,0,1,0,.48l-.56.33-.07-.33Zm-.76-1.69.11.19-.37.22L37,67.63A1.09,1.09,0,0,1,37.29,67.31Zm-.5,1.06.28-.17L37,67.87l.28-.16.17.28c-.06.14,0,0,0,.15l-.37.22.06.09L37,68.5l-.06-.09-.28.17a1.35,1.35,0,0,1-.18-.52l.28-.17C36.77,68.11,36.71,68.11,36.79,68.37Zm-.15-2.16c.15.22-.19.33-.29.15C36.41,66.27,36.5,66.17,36.64,66.21Zm-4,7.57a.11.11,0,0,1-.08-.13A.08.08,0,0,1,32.64,73.78Zm.79-1.63c0,.17-.29.23-.42.15S33.33,72,33.44,72.15ZM33,74s.07,0,.06.08a.12.12,0,0,1-.08,0A.13.13,0,0,1,33,74Zm-.46-4c.08,0,.08.13.15.17C32.62,70.51,32.26,70.1,32.54,70Zm-.4,9.89c0,.07,0,.06,0,.1s-.09,0-.08-.1A.1.1,0,0,1,32.14,79.88ZM32,83.21h.08s0,.05,0,.1,0,0,0,0-.05,0-.11,0A.19.19,0,0,1,32,83.21ZM31.7,69.74a.29.29,0,0,1,.19,0c0,.06-.06,0,0,.1a.12.12,0,0,0-.15-.06Zm-.4,13c0,.05,0,.14-.12.13S31.23,82.74,31.31,82.79Zm-5.52,4.08c0-.12,0-.2.15-.19S25.9,86.93,25.79,86.86Zm1.67-5.53h.36v.09c.1.08,0,0,.09.09-.1.08,0,0-.09.09-.38-.06-.29-.13-.54-.29v-.18A.88.88,0,0,1,27.46,81.33Zm.37,3.55h-.18c.06-.18,0-.08.09-.18v.09C27.84,84.87,27.75,84.78,27.83,84.88Zm-.55-6V78.8a.18.18,0,0,1,.13,0C27.42,78.86,27.35,78.86,27.27,78.86Zm-.12-.33c0-.12.09-.11.06-.23s.13,0,.19,0a.24.24,0,0,1-.17.27S27.17,78.56,27.15,78.52Zm-.1,4.62a.68.68,0,0,1,.28-.17v-.27h-.09v-.18h.09c.08.16.13.14.17.36s0,0,.09.19a.35.35,0,0,0-.18.18A1,1,0,0,1,27.05,83.14Zm-.2,12.19s-.05,0-.08,0,0,0,.08,0Zm0-8.65h-.18V86.4h.18l.1-.27h.27v.09c.1.08,0,0,.09.09A.85.85,0,0,0,26.87,86.68Zm.79,1.2c-.11.1,0,0-.18.09v-.09c-.18-.06-.08,0-.18-.09l.46-.08C27.7,87.88,27.77,87.78,27.66,87.88Zm.28-.36h-.36l.19-.36c.18.06.08,0,.18.1s0,0,.09.18C27.93,87.51,28,87.42,27.94,87.52Zm-.31-2v-.27h.27v.09c.18.06.08,0,.18.09A1.07,1.07,0,0,1,27.63,85.51Zm.82-3.79h-.27v-.09l.37-.17ZM31,71.46s0,0,0,0,0,.09-.06.13-.15-.08-.17-.19A.55.55,0,0,1,31,71.46ZM30.51,88c-.11,0-.16-.05-.15-.17A.16.16,0,0,1,30.51,88Zm0,2.65c0-.08-.06-.16,0-.21s-.1-.05,0-.11.14,0,.25,0c0,.12.15.11.23.12s0,.08-.06.06a.67.67,0,0,1,.44.31c-.09.11-.25.13-.27.31s.09,0,.1,0-.06.09-.1.13-.08,0-.17,0,0-.05,0-.11c-.19,0-.21-.08-.23.06-.05,0-.07,0,0-.1h-.11s-.06-.11,0-.12-.26-.13-.33-.25S30.4,90.74,30.49,90.69Zm-.73-3.26c0-.09-.07-.09-.06-.17s.17-.18.29-.13.11.14.08.29a.52.52,0,0,1-.21,0c0,.11.13.16.08.25s-.19-.12-.27-.19-.16.07-.17,0S29.68,87.52,29.76,87.43Zm-.33.9c0-.36.63-.16.56.23C29.78,88.65,29.44,88.51,29.42,88.33ZM30,103.67a.25.25,0,0,1,.29.23A.21.21,0,0,1,30,103.67Zm.48-11.43c.06-.1.14-.17.06-.29.24,0,.38-.14.52-.15a1.39,1.39,0,0,0,0,.31.3.3,0,0,1-.21,0A.24.24,0,0,1,30.49,92.23Zm.35,12a.46.46,0,0,1,0-.19c.11,0,.14,0,.13.15S30.91,104.28,30.85,104.27ZM31,92.44c-.05-.11,0-.3.13-.27S31.13,92.47,31,92.44Zm.19.29c.13,0,.18.18.1.25S31.14,92.85,31.16,92.74Zm.13.29a.17.17,0,0,1,.15.23C31.3,93.27,31.28,93.16,31.29,93Zm.48-1.34c-.2.09-.36,0-.52.08S31,91.68,31,91.5c.2-.12.48-.16.67-.29A.74.74,0,0,1,31.77,91.69Zm-.17,13.75,0-.09-.09,0c.07-.13,0,0,.15-.14l0,.18Zm.19-1.37,0-.18.17,0,0,.18Zm1.27-12.73c0,.08,0,.09-.08.13s-.11-.07-.19-.08S33,91.21,33.06,91.34Zm-.15-.42a.71.71,0,0,1-.08.25c-.07,0-.15,0-.19,0S32.73,90.9,32.92,90.92Zm-.33.25c-.09,0-.18,0-.17-.15S32.62,91.1,32.58,91.17Zm-.46,2.78c-.07,0-.07,0-.06-.08S32.11,93.91,32.12,93.95Zm.82,1.63s.09,0,.1,0-.06.09-.1.13-.08,0-.17,0,0-.05,0-.11c-.19,0-.21-.08-.23.06-.05,0-.07,0,0-.11h-.1s-.06-.1,0-.12-.26-.13-.33-.25.22-.08.31-.12-.06-.16,0-.21-.1-.05,0-.11.14,0,.25,0c0,.12.15.11.23.13s0,.07-.06.06a.67.67,0,0,1,.44.31C33.12,95.37,33,95.4,32.94,95.58Zm.86.13c0,.13,0,.18-.08.25C33.29,96,33.57,95.39,33.79,95.71ZM34,99.55c-.09,0,0,.17,0,.23a.4.4,0,0,1-.31-.33,1.33,1.33,0,0,1,.25-.06c0,.06,0,.09.06.15s.24,0,.19.1S34,99.59,34,99.55Zm.13.44c-.06-.07,0-.15,0-.19a.15.15,0,0,1,.08.15S34.18,100,34.11,100Zm-.19-1.27c.07-.29.25,0,.38.06C34.17,98.75,34,98.87,33.92,98.72Zm.19,12.46a.15.15,0,0,1,0-.19l-.07,0c.07-.13,0,0,.15-.14l0,.1C34.37,111,34.32,111.27,34.11,111.17Zm.27-1.47,0-.18.17,0,0,.18Zm1.34,5.11s0,0,0,0,0,0,0,0a1.87,1.87,0,0,1-.23-.12c0-.15.15-.18.23-.11s0,.11,0,.23,0-.07.08,0,0,0,0,.11-.06.06-.19.06A.1.1,0,0,1,35.72,114.81Zm.46,1.59-.27-.06c0-.07,0-.1,0-.19S36.26,116.17,36.18,116.4ZM36.78,104c-.13,0-.29-.36,0-.36,0,.12.13.18.19.27S36.85,104,36.78,104Zm1.73,1.36c.05,0,.13.06.15.12A.11.11,0,0,1,38.52,105.4Zm.31-.4c0-.08,0-.13.1-.12s0,.1,0,.17S38.9,105,38.83,105Zm.31.84a.15.15,0,0,1-.17,0C38.94,105.58,39.23,105.71,39.14,105.84ZM31,149.79h.08s0,.11,0,.15H31S31,149.83,31,149.79Zm.25.92a.55.55,0,0,1-.27.06c-.11-.16-.19-.35-.46-.36.06-.13.22-.39.37-.23.08,0,.08-.08.17-.06s.17.08.25.13C31.4,150.47,31.22,150.56,31.26,150.71ZM32,151c-.24,0-.32-.27-.42-.44.11,0,.27-.12.36-.06s-.07.05-.1.08,0,.2,0,.25S32,150.85,32,151Zm2.86-2.05c-.14-.08-.31-.08-.31-.21s.17-.24.36-.19.27.36.4.42C35.17,149.22,35,149,34.84,148.93Zm1.59-6.65c-.06,0-.06,0-.12,0s-.07-.31.15-.21C36.44,142.17,36.36,142.16,36.43,142.28Zm1.48,4.52c-.16,0-.24-.31,0-.29A.49.49,0,0,1,37.91,146.8ZM39.79,120a.17.17,0,0,1-.31-.06C39.53,119.8,39.8,119.83,39.79,120Zm-.46,7.25a.81.81,0,0,1,.17.19l.36,0v.09c.1.08,0,0,.08.1-.11.07,0,0-.1.09-.38-.07-.29-.15-.53-.31Zm.39,3.76h-.18c.07-.18,0-.08.1-.18v.09C39.73,131,39.65,130.89,39.72,131Zm-.7-1.77a.68.68,0,0,1,.28-.16l0-.27h-.09v-.18h.09c.08.17.12.15.16.37s0,0,.08.19a.35.35,0,0,0-.19.17A1,1,0,0,1,39,129.22Zm-.32,3.53h-.18l0-.27h.18l.11-.27.27,0v.09c.1.09,0,0,.09.1A.86.86,0,0,0,38.7,132.75Zm0,9a.23.23,0,0,1,.36-.17A.2.2,0,0,1,38.68,141.8Zm.5-1.34c0-.2.26-.14.21,0A.2.2,0,0,1,39.19,140.46Zm.25-6.47c-.11.09,0,0-.19.08V134c-.18-.07-.08,0-.17-.1l.46-.06C39.47,134,39.54,133.89,39.43,134Zm.3-.35-.36,0,.2-.35c.18.07.08,0,.18.11s0,0,.08.19S39.81,133.54,39.73,133.64Zm-.23-2,0-.27.27,0v.09c.18.07.08,0,.18.1A1.06,1.06,0,0,1,39.5,131.62Zm.5-24.38c-.08.1-.24,0-.31,0,.08-.07.17-.2.31-.15S40,107.17,40,107.24Zm1,35a.09.09,0,0,1-.1.13C40.82,142.31,40.87,142.26,41,142.26Zm-.76-14.41v-.09l.37-.16-.11.27Zm1,12s.09,0,.1,0-.06.09-.1.13-.08,0-.17,0,0-.05,0-.1c-.19,0-.21-.08-.23.06-.05,0-.07,0,0-.11h-.1s-.06-.11,0-.12-.26-.13-.33-.25.22-.07.31-.12-.06-.16,0-.21-.1-.05,0-.1.14,0,.25,0c0,.12.15.11.23.13s0,.08-.06.06a.68.68,0,0,1,.44.31C41.4,139.64,41.23,139.67,41.21,139.85Zm2.3-22.07c.09,0,.12.08.06.12s0,0-.08,0S43.52,117.82,43.51,117.78Zm-.06.65c0,.08.06.12,0,.19s-.11-.08-.17-.12A.17.17,0,0,1,43.45,118.43Zm-1.17-5.62c0,.1.07.1.06.19a.33.33,0,0,1,.4.33C42.5,113.6,41.73,112.94,42.28,112.8Zm.42,9.8c-.19,0-.07,0-.2,0s0,0-.14-.15c.08-.1,0,0,.06-.11l.35-.1Zm-.14-.52c0-.19,0-.07,0-.2s0,0,.15-.13l0,.09c.19,0,.07,0,.2,0Zm.57,2.39,0-.09c-.19,0-.07,0-.2,0a1.05,1.05,0,0,1,.41-.21l.07.26Zm.32.48,0-.09c-.12,0,0,0-.11-.06l.17,0C43.48,124.94,43.51,124.82,43.44,124.95Zm.05-1.52,0-.09c-.12,0,0,0-.11-.06a.85.85,0,0,0,.34-.47l.17,0,.07.26-.17,0c0,.1,0,.19,0,.29Zm.12,4.87V128l.26-.07,0,.09Zm.44-1.82a.36.36,0,0,0,.12-.22,1,1,0,0,1,.38,0,.68.68,0,0,1-.21.25l.07.26.09,0,0,.17-.09,0c-.13-.13-.16-.1-.27-.3S44.15,126.64,44.05,126.47Zm.63,1.62-.35.1,0-.09c-.12,0,0,0-.11-.06.08-.1,0,0,.06-.11.38-.06.32,0,.6.12l0,.17A.84.84,0,0,1,44.69,128.09Z" fill="#823133"/><path d="M45.4,123.68a.62.62,0,0,0-.24.16l-.09.08.24-.07A1.21,1.21,0,0,1,45.4,123.68Z" fill="#905a58"/><path d="M38.35,127.42c0-.12.2-.08.17-.25s-.14.07-.21,0c0,.1,0,.2,0,.3h.05Z" fill="#905a58"/><path d="M25.47,85.5l0,0,0,0Z" fill="#905a58"/><path d="M44.86,124.27c0-.19,0-.07,0-.2h0l-.11.07a2.76,2.76,0,0,0,0,.42c0,.12-.06.32,0,.43s.13.29,0,.41,0,.24,0,.24l.26,0,.2-.18,0,.27.16.11,0-.43-.32-.22.4-.29s-.07.36.15.32c0-.14,0-.29,0-.43h0l0-.09-.09,0c.07-.12,0,0,.14-.13l0-.41a3.34,3.34,0,0,0-.61.11C44.87,124.26,45,124.32,44.86,124.27Z" fill="#905a58"/><path d="M31.26,106.09v.07c.05,0,.13,0,.17.05V106l-.2-.14a1,1,0,0,0,0,.19Z" fill="#905a58"/><path d="M25.49,85.34a.63.63,0,0,0,.29-.08l.11-.06h-.25A1.3,1.3,0,0,1,25.49,85.34Z" fill="#905a58"/><path d="M32.69,106.64a1.71,1.71,0,0,0-.53-.89,2.79,2.79,0,0,0-.33.19l-.11-.06,0,.2s.16,0,.13.15a2.23,2.23,0,0,0-.18.31h0c.05,0,.08.06.12.09A7.83,7.83,0,0,0,32.69,106.64Z" fill="#905a58"/><path d="M31.43,104.29a.62.62,0,0,0-.24.16l-.09.09.24-.07A1.13,1.13,0,0,1,31.43,104.29Z" fill="#905a58"/><path d="M26.19,84.94c-.06.18,0,.08-.1.18h0l.13,0a2.8,2.8,0,0,0,.16-.39c0-.12.15-.29.13-.41s0-.32.13-.39,0-.25,0-.25l-.24-.1-.25.12.05-.27-.12-.15-.11.42.24.3-.47.16s.2-.39-.14-.34c0,.13,0,.27,0,.41h.07v.09h.09c-.1.1,0,0-.17.08s0,.27,0,.41a3.27,3.27,0,0,0,.56.06C26.17,84.95,26.09,84.86,26.19,84.94Z" fill="#905a58"/><path d="M31.44,106.47v-.11l0,.08Z" fill="#905a58"/><path d="M35.35,112.92c-.31,0-.39-.1-.69-.09l.06.21a1.64,1.64,0,0,0,.42.22l.19-.05C35.34,113.11,35.35,113,35.35,112.92Z" fill="#905a58"/><path d="M31.22,70.25s-.06,0,0,.08,0,0,.06,0S31.27,70.25,31.22,70.25Z" fill="#905a58"/><path d="M34.29,74.95a1.84,1.84,0,0,1-.08.23c.05,0,.07,0,.11,0,0-.15.26-.13.29-.29S34.45,75,34.29,74.95Z" fill="#905a58"/><path d="M32.33,86.07h.13C32.52,85.81,32.24,85.89,32.33,86.07Z" fill="#905a58"/><path d="M31.6,88.12c0,.11-.08.14,0,.23s0-.16.13-.19a.32.32,0,0,0,.25,0C31.89,88,31.76,88.14,31.6,88.12Z" fill="#905a58"/><path d="M32.41,89.58a.22.22,0,0,0,0-.21h-.21C32.19,89.51,32.28,89.58,32.41,89.58Z" fill="#905a58"/><path d="M32.73,89.89c.08,0,.22,0,.27,0C33.05,89.47,32.44,89.6,32.73,89.89Z" fill="#905a58"/><path d="M35.07,96.85h.1c0-.06,0-.09,0-.15h-.06Z" fill="#905a58"/><path d="M36,99.91c.2-.18,0-.35-.17-.44C35.72,99.6,35.83,99.92,36,99.91Z" fill="#905a58"/><path d="M36.6,100.8c.09,0,.13-.15.27-.13,0-.06-.06-.17-.11-.23s-.05,0-.1,0,0,0,0-.08.07,0,.06-.1,0-.12-.1-.11-.18.38,0,.46C36.6,100.7,36.56,100.77,36.6,100.8Z" fill="#905a58"/><path d="M37,101.1c0-.05,0-.16-.06-.19a.33.33,0,0,1,0,.15C37,101,37,101.11,37,101.1Z" fill="#905a58"/><path d="M29,101.87c.06.13.08.41.25.35A1.18,1.18,0,0,0,29,101.87Z" fill="#905a58"/><path d="M31,105.86s0,.13,0,.13S31,105.88,31,105.86Z" fill="#905a58"/><path d="M31.68,107l-.12-.1c-.08.07,0,.27.13.31s0,0,.06,0a.22.22,0,0,0,0-.14h0S31.68,107.07,31.68,107Z" fill="#905a58"/><path d="M42.62,112.22c0-.06,0-.1,0-.15S42.58,112.18,42.62,112.22Z" fill="#905a58"/><path d="M44.64,134.15a.23.23,0,0,0,.23-.15C44.8,133.72,44.47,133.9,44.64,134.15Z" fill="#823133"/><path d="M36.82,139.22c0,.26-.21.53-.23.75.16,0,.23-.08.36-.1C37,139.63,37,139.3,36.82,139.22Z" fill="#823133"/><path d="M41.8,141.15c-.11,0-.16-.09-.23,0S41.79,141.27,41.8,141.15Z" fill="#823133"/><path d="M32.83,150.35c-.05,0-.06-.09-.12-.1,0,.26.27.24.31.06S32.91,150.35,32.83,150.35Z" fill="#823133"/><path d="M30.51,91.19h.11c0,.06,0,.08,0,.1,0-.15,0-.07.23-.06,0,.05,0,.06,0,.11s.08,0,.17,0,.1-.05.1-.12-.1,0-.1,0,.18-.21.27-.31a.67.67,0,0,0-.44-.31c.05,0,.07,0,.06-.06s-.21,0-.23-.12c-.11,0-.17.08-.25,0s0,.08,0,.11-.06.13,0,.21-.29,0-.31.12.26.13.33.25S30.52,91.15,30.51,91.19Z" fill="#905a58"/><path d="M32.77,95c.05,0,.08,0,.06-.06s-.21,0-.23-.13c-.11,0-.17.08-.25,0s0,.08,0,.11-.06.13,0,.21-.29,0-.31.13.26.13.33.25,0,.09,0,.13h.1c0,.06,0,.08,0,.11,0-.15,0-.08.23-.06,0,.05,0,.07,0,.11s.08,0,.17,0,.1-.06.1-.13-.1,0-.1,0,.18-.21.27-.31A.67.67,0,0,0,32.77,95Z" fill="#905a58"/><path d="M41,139.22c.05,0,.08,0,.06-.06s-.21,0-.23-.12c-.11,0-.16.08-.25,0s0,.07,0,.1-.06.13,0,.21-.29,0-.31.13.26.13.33.25,0,.09,0,.13h.1c0,.06,0,.08,0,.11,0-.15,0-.08.23-.06,0,.05,0,.06,0,.1s.09,0,.17,0,.1-.06.1-.12-.1,0-.1,0,.18-.21.27-.31A.68.68,0,0,0,41,139.22Z" fill="#823133"/></g><g opacity="0.88" style="mix-blend-mode:multiply"><path d="M31.79,48.93c0,.66-1.09,1.8-2.21,3.06a11.17,11.17,0,0,0-1.63,2.3c-.29.53-.27.88-.08,1s.68.07,1.12-.17a13.15,13.15,0,0,0,2.29-1.49c1.09-.87,1.87-1.51,2.46-2.09.19-.17.51-.46.66-.36s-.25.56-.41.71c-.63.61-1.84,1.68-3.08,2.65a8.34,8.34,0,0,1-4.64,2.07c-1.67.07-2.23-.66-2.23-1.46,0-1.12,1.24-2.52,2.35-3.52a38.14,38.14,0,0,0,3.31-2.91c.21-.56-.76-.46-2-.41a2.53,2.53,0,0,1-1.17-.1c-2.6,2.19-7.85,7-11.07,10.2S8.66,66.42,7.58,71c-1,4.39.15,7.9,4.49,8.21s8.58-3.88,9.71-8.26c1-3.82-.85-5.07-2.7-5.13a5.8,5.8,0,0,0-3.72,1.39A4.76,4.76,0,0,0,14,69c-.29.8-.2,1.07-.36,1.12s-.27-.51-.22-1.12a4.2,4.2,0,0,1,1.19-2.26,5.83,5.83,0,0,1,4.52-1.84c2.24,0,4.27,1.9,3.2,6C21.17,75.5,16.87,80,12,79.8c-5-.2-7.45-4.2-6.31-8.84,1.21-4.79,5.73-9.54,9.14-13s8.43-7.7,11.29-10c-.53-.34-.53-1.05,0-1.7a2.9,2.9,0,0,1,2.07-.9,1.46,1.46,0,0,1,1.26.51c-.34.26-.63.51-1,.82-.63.77-.48,1.07.15,1.12,1.39.09,3.11.1,3.14,1Z" fill="#a77c2c"/><path d="M38.35,48.69a13.82,13.82,0,0,0-2.55,1.72l-2.21,1.87c-.2.19-.48.37-.54.31s0-.39.29-.63a32.13,32.13,0,0,1,3.79-3.08,6.6,6.6,0,0,1,3.67-1.29c1.41,0,1.68.15,1.07.82-.83,1-1.73,2.07-2.75,3.3a19.56,19.56,0,0,0-1.89,2.72c-.24.41-.32.78-.17.94s.7.09,1.21-.15a30.57,30.57,0,0,0,3.87-2.62c2.26-1.68,3.67-3.13,5.41-4.54a2.4,2.4,0,0,1,1.89-.56c1.38,0,1.79.1,1.17.82-.88,1.09-1.72,2.07-2.67,3.4a24.66,24.66,0,0,0-1.72,2.47c-.32.56-.34.93-.12,1.12a1.53,1.53,0,0,0,1.21-.15,13.48,13.48,0,0,0,2.19-1.51A30.9,30.9,0,0,0,52,51.5c.26-.19.53-.43.66-.27s-.29.51-.44.66a30.94,30.94,0,0,1-3.09,2.65c-1.05.82-2.77,2.14-4.66,2.14-1.67,0-2.09-.83-2-1.63a4.74,4.74,0,0,1,1-2.12c.32-.44.76-.93,1.41-1.67l-.1-.14c-1,.88-2.33,1.92-3.35,2.69-1.79,1.31-4,2.87-5.93,2.87-1.38,0-1.94-.61-1.89-1.53a5.23,5.23,0,0,1,.87-2,25.31,25.31,0,0,1,3.93-4.4Z" fill="#a77c2c"/><path d="M59,55.22a15.5,15.5,0,0,0,2.18-1.16,24.3,24.3,0,0,0,3.33-2.57c.24-.2.51-.43.66-.27s-.25.48-.41.63a26.56,26.56,0,0,1-2.86,2.33,16.54,16.54,0,0,1-3.42,1.7,13.61,13.61,0,0,1-4.56.85c-2.7,0-3.81-1.56-3.67-3a2.83,2.83,0,0,1,2.6-2.64c.88,0,1.28.58,1.24,1.1s-.36.83-1,1.28a2.16,2.16,0,0,0-1,1.53c0,.82.63,1.21,1.41,1.21,1.05,0,2.16-.75,3.31-2.65s1.9-4.64,2.43-5.34v-.05a28.47,28.47,0,0,1-2.38,1.9,16.65,16.65,0,0,1-2.18,1.43c-.25.15-.48.24-.58.1s.09-.29.32-.46c.61-.37,1.39-.93,2.21-1.53,1-.76,2.07-1.6,3-2.45a5.11,5.11,0,0,1,.82-1,2.42,2.42,0,0,1,1.48-.6c1.17,0,.92.63-.05,1.27-.46.31-.94.51-1.22.77A1.31,1.31,0,0,0,60.55,49a6.2,6.2,0,0,1-.05,4.18,4.7,4.7,0,0,1-1.53,2Z" fill="#a77c2c"/><path d="M66.67,50.11c-.77.71-1.89,1.73-2.4,2.19-.2.2-.51.36-.61.26s.15-.46.36-.61c1.38-1.22,3.11-2.8,4.08-3.71-.66,0-1,.05-1.84.09-.36,0-.61,0-.56-.25s.63-.26,1.38-.31c.58,0,1,0,1.43-.05,1.61-1.94,3.66-4.18,4.79-5.3,1.29-1.29,2.45-2.12,3.65-2.12.7,0,1,.15,1.17.34a36.71,36.71,0,0,0-3.08,3.31c-1.17,1.36-2.09,2.45-3.11,3.77,1.17-.05,2-.05,2.87,0,.32,0,.82.07.71.31s-.54.22-.92.22c-1.12,0-1.9,0-3.08.05a38.1,38.1,0,0,0-3.71,5.61c-.31.56-.41,1.16,0,1.41a1.59,1.59,0,0,0,1.26-.17,15.43,15.43,0,0,0,2.29-1.49c.88-.71,1.85-1.58,2.45-2.09.22-.2.51-.46.66-.31s-.26.51-.41.66A29.88,29.88,0,0,1,71,54.54a8.81,8.81,0,0,1-5.07,2.16c-1.41,0-1.92-.73-1.9-1.5,0-1.24,1-2.91,2.65-5Z" fill="#a77c2c"/><path d="M76,50.07c-.71.68-1.51,1.41-2,1.87-.31.25-.46.31-.56.15s.1-.31.36-.56c1-.87,2.12-1.92,3.35-2.94.63-.88,2.58-3.42,3.84-4.91A82.57,82.57,0,0,1,94.53,31.2c5.48-4,11.88-7.55,19-7.72,8-.2,13.26,4.08,13,9.43,0,1.07-.61,2-.82,1.89s.39-.61.39-1.89c.07-4.59-4-8.11-13.34-7.75a28.23,28.23,0,0,0-16.46,5.64c-4,2.86-9.76,9.67-12.68,13.51-2.09,2.8-5.83,8.14-6.46,9.86-.14.37-.27.92.05,1.12a1.6,1.6,0,0,0,1.21-.17,16,16,0,0,0,2.29-1.51,27.7,27.7,0,0,0,2.45-2.09c.22-.15.51-.46.66-.31s-.25.51-.41.66a38.33,38.33,0,0,1-3.06,2.65c-1.16.85-3.08,2.14-5,2.14-1.36,0-1.94-.59-1.92-1.51.05-1.26,1.31-3.23,2.67-5Z" fill="#a77c2c"/><path d="M92.19,47.45c1.39,0,2,.73,2,1.43-.1,1.36-1.77,2.38-3.33,3.15A28.6,28.6,0,0,1,86,53.62a2.68,2.68,0,0,0-.31,1c0,.78.46,1.16,1.21,1.17A9.29,9.29,0,0,0,91.71,54a24.82,24.82,0,0,0,3.23-2.53c.24-.2.55-.46.66-.31s-.26.49-.41.65A21.26,21.26,0,0,1,92,54.51a12.77,12.77,0,0,1-6.27,2.23c-2.53,0-3.5-.88-3.48-2.16a5,5,0,0,1,1.19-2.7h-.05a1.94,1.94,0,0,0-.37.37c-.25.2-.56.41-.66.31s.15-.41.36-.61a19.73,19.73,0,0,1,1.68-1.38c.54-.34,1.53-1.05,2.51-1.56a11.78,11.78,0,0,1,5.25-1.55Zm-5.92,5.66a10.94,10.94,0,0,0,3.52-1.58A5.16,5.16,0,0,0,92,48.75c.07-.46-.12-.7-.58-.7s-1.33.46-2.59,1.72a18.73,18.73,0,0,0-2.55,3.3Z" fill="#a77c2c"/><path d="M100.59,53c.53-.56,2.09-1.94,3.11-2.86,1.19-1,3.23-2.6,4.81-2.7,1.11-.05,2.06.34,1.89,1.41-.2,1.26-2.45,3.31-3.42,2.31-.48-.44.29-1.36.7-2,.15-.31.14-.53-.07-.63s-.8.1-1.19.31a21.47,21.47,0,0,0-3.21,2.4c-1.41,1.28-3.13,2.86-5.12,4.79a2.42,2.42,0,0,1-1.8.46c-.85,0-1.21-.1-.83-.81a26.86,26.86,0,0,1,2.18-3.45c.81-1.1,1.12-1.51,2-2.62.31-.32.46-.71.25-.88s-.58,0-.78.12a19.44,19.44,0,0,0-1.92,1.33c-.73.66-1.61,1.38-2.38,2.09-.26.2-.51.41-.67.31s.1-.37.31-.61c.76-.7,1.94-1.78,3-2.6.87-.68,2.65-1.89,4.1-1.89,1,0,1.55.49,1.55,1.28A4.79,4.79,0,0,1,102,50.87c-.73,1-1.09,1.48-1.5,2Z" fill="#a77c2c"/></g></g></g></svg>