<svg xmlns="http://www.w3.org/2000/svg" viewBox="0 0 133.5 169.12"><title>spa-branding</title><g style="isolation:isolate"><g id="Layer_1" data-name="Layer 1"><g style="mix-blend-mode:multiply"><path d="M64.68,147.16l0-.11-.11,0-.21-.17-.33.15.08.49Z" fill="#823133"/><path d="M63.68,147.86l-.22.1,0,.11C63.7,147.91,63.61,148,63.68,147.86Z" fill="#823133"/><path d="M56.14,112.84l0,.1.1,0,.16.18.31-.09c0-.15,0-.29,0-.45Z" fill="none"/><path d="M63.18,147l-.29.13a.25.25,0,0,1-.1.06.4.4,0,0,0,.06.22l.42-.19Z" fill="#823133"/><path d="M63.44,148.31s0,.07,0,.1a.56.56,0,0,0-.16.15l.7-.31A1.41,1.41,0,0,0,63.44,148.31Z" fill="#823133"/><path d="M98,78.41c.17-.07,0-.25,0-.25l-.25-.1-.07,0c0,.27.09.54.15.82a.3.3,0,0,0,0-.12C97.89,78.68,97.87,78.49,98,78.41Z" fill="none"/><path d="M101.16,138.32c-.14-.06,0,0-.15,0l.11.19.19-.11C101.16,138.3,101.31,138.34,101.16,138.32Z" fill="#823133"/><path d="M101.22,138.65c.16.16,0,.09.2.14l-.11-.19Z" fill="#823133"/><path d="M100.67,138.34l.42.76a2.77,2.77,0,0,0-.23-.86Z" fill="#823133"/><polygon points="101.17 137.69 101.33 137.97 101.43 137.92 101.27 137.64 101.17 137.69" fill="#823133"/><path d="M90.15,91.12h-.27v.09L89.34,91v.18l.27.09c0,.29-.08.26-.18.45a9.09,9.09,0,0,0-.91-.28,1.72,1.72,0,0,0,.27,1,2.52,2.52,0,0,0,.36-.09l.09.09.09-.18s-.15,0-.09-.18a1.86,1.86,0,0,0,.27-.27,1.31,1.31,0,0,1,.48.08l.1-.61c.16,0,.37.18.48,0s-.06-.1-.12-.12h-.3Z" fill="none"/><path d="M90.68,90.67s0,0,0,0a.07.07,0,0,0-.08,0v0Z" fill="none"/><path d="M89.09,94.08a.65.65,0,0,0,.29-.09l.11-.06h-.25A1.19,1.19,0,0,1,89.09,94.08Z" fill="none"/><path d="M56.59,108.39l.21,0-.06-.32.14,0c0-.1,0-.2,0-.31-.19.08-.2.13-.37.27Z" fill="none"/><path d="M55.4,108l.16.85a2.75,2.75,0,0,0,.05-.89Z" fill="none"/><path d="M55.82,108.43c.1.2,0,.09.15.19l0-.21Z" fill="none"/><path d="M56.75,67.77h.15a2.75,2.75,0,0,1,0-.45h-.16Z" fill="none"/><path d="M56.84,68.31c.3.07.35.2.62.27A3.48,3.48,0,0,1,57,68h-.1Z" fill="none"/><path d="M56.9,69.72s0-.1,0-.15c.3,0,.3-.27.34-.49a1.74,1.74,0,0,0-.49-.14A1.5,1.5,0,0,0,56.9,69.72Z" fill="none"/><path d="M56.93,112h0Z" fill="none"/><path d="M55.87,108.09c-.12-.1,0,0-.13-.09l0,.21.21,0C55.88,108.07,56,108.15,55.87,108.09Z" fill="none"/><path d="M56.6,109l-.45,0,.23.62.11,0,0-.11.19-.15Z" fill="none"/><path d="M56.88,113.85v-.09h0Z" fill="none"/><polygon points="56.19 107.48 56.09 107.5 56.15 107.81 56.25 107.8 56.19 107.48" fill="none"/><path d="M95.17,63.52c0-.08-.13-.07-.21-.11s-.06.09,0,.11S95.11,63.52,95.17,63.52Z" fill="#905a58"/><path d="M57.21,66.28s.1,0,.08-.13S57,66.24,57.21,66.28Z" fill="#905a58"/><path d="M63.9,66.95a.54.54,0,0,0,.38-.17C64.18,66.58,63.86,66.81,63.9,66.95Z" fill="#905a58"/><path d="M61.16,68.58l-.06,0c0,.07-.07,0,0,.08S61.17,68.64,61.16,68.58Z" fill="#905a58"/><path d="M69.15,71V71c.22.14.48.45.82.33C69.87,71.08,69.47,71,69.15,71Z" fill="#905a58"/><path d="M70.24,71.71c.1,0,.13-.12.08-.25C70,71.26,70,71.74,70.24,71.71Z" fill="#905a58"/><path d="M64.2,71.77c0,.15-.18.28-.15.44C64.29,72.38,64.43,71.85,64.2,71.77Z" fill="#905a58"/><path d="M66.54,71.94a.13.13,0,0,0,0,.15C66.63,72.1,66.61,71.93,66.54,71.94Z" fill="#905a58"/><path d="M58.49,74.28a.36.36,0,0,0,.08-.29c-.09,0-.15-.13-.27-.15s-.1.15-.23.15-.11-.34,0-.38.21-.12.36-.15c0-.21-.15-.24-.1-.48a.28.28,0,0,0-.36-.1c-.18-.53-.59,0-.65.29-.16.05-.33.08-.33.23s.52.24.63.44-.2.21-.17.33.31,0,.42,0A.52.52,0,0,0,58.49,74.28Z" fill="#905a58"/><path d="M64.78,73.86c-.16,0-.06.33.08.31S64.91,73.87,64.78,73.86Z" fill="#905a58"/><path d="M67.73,75h-.06c0,.06,0,.16.06.17A.17.17,0,0,0,67.73,75Z" fill="#905a58"/><path d="M66.26,75.22a4.24,4.24,0,0,0,.5.25s0-.12,0-.17C66.59,75.29,66.37,75,66.26,75.22Z" fill="#905a58"/><path d="M67.71,75.26c-.06.17.09.32.29.29C68.14,75.36,67.87,75.29,67.71,75.26Z" fill="#905a58"/><path d="M67.54,76c.05,0,0-.14,0-.23C67.39,75.45,67.21,76,67.54,76Z" fill="#905a58"/><path d="M60.31,76.08c.1,0,.13-.12.13-.27C60.18,75.56,60,76.12,60.31,76.08Z" fill="#905a58"/><path d="M67.92,76.1s0,.05.08.06a.14.14,0,0,0,0-.1C68,76.06,67.92,76.06,67.92,76.1Z" fill="#905a58"/><path d="M60.2,76.29c-.67-.14-.66,1,0,.81,0-.2-.2-.17-.19-.38s.28,0,.36-.1S60.3,76.37,60.2,76.29Z" fill="#905a58"/><path d="M69.09,76.44c-.22,0-.51-.07-.61.1.09.14.26.2.21.48a.5.5,0,0,0,.48.23C69.11,77,69,76.66,69.09,76.44Z" fill="#905a58"/><path d="M68.25,76.69c.05,0,.14,0,.13-.12S68.23,76.59,68.25,76.69Z" fill="#905a58"/><path d="M59.51,77.67a.09.09,0,1,0-.17.06s0,0,0,0S59.52,77.75,59.51,77.67Z" fill="#905a58"/><path d="M61.6,78a.71.71,0,0,0,.73.65.77.77,0,0,0-.23-.69C61.91,78,61.71,77.93,61.6,78Z" fill="#905a58"/><path d="M62.52,81.74a.16.16,0,0,0,0-.21A.11.11,0,1,0,62.52,81.74Z" fill="#905a58"/><path d="M71.32,83.44c0,.08.06.1.09.15s0-.09,0-.15Z" fill="#905a58"/><path d="M71.74,83.5s-.16.08-.17.17.09.55.44.42c0-.07.09-.13.08-.21S71.77,83.44,71.74,83.5Z" fill="#905a58"/><path d="M75.17,85.9a.11.11,0,0,0,0,.17h0a.11.11,0,0,0,0-.17Z" fill="#905a58"/><path d="M72.7,89.81c.08,0,.14,0,.17-.06S72.7,89.73,72.7,89.81Z" fill="#905a58"/><path d="M72.28,90.65a.27.27,0,0,0,.29.19C72.61,90.66,72.42,90.6,72.28,90.65Z" fill="#905a58"/><path d="M74.37,91.15s0,0,0,0,.06.15.06.25C74.57,91.46,74.57,91.11,74.37,91.15Z" fill="#905a58"/><path d="M63.4,92.55a.08.08,0,0,0-.12,0C63.26,92.61,63.41,92.66,63.4,92.55Z" fill="#905a58"/><path d="M77.18,93.24c.05,0,.1,0,.1,0S77.16,93.17,77.18,93.24Z" fill="#905a58"/><path d="M75.53,94.35a.11.11,0,0,0,.13-.11s0,0,0-.06A.09.09,0,0,0,75.53,94.35Z" fill="#905a58"/><path d="M74.54,95.14h.1v-.08a.13.13,0,0,0-.1,0Z" fill="#905a58"/><path d="M72,97.82s0,0,.08,0,0-.11-.06-.15A.18.18,0,0,0,72,97.82Z" fill="#905a58"/><path d="M63.13,102.88a1.9,1.9,0,0,0,0-.42C62.83,102.42,62.89,102.87,63.13,102.88Z" fill="#905a58"/><path d="M63.28,103.38c0-.2-.08-.27-.06-.46,0,0-.06,0-.06,0S63.09,103.33,63.28,103.38Z" fill="#905a58"/><path d="M61.08,103.13c0-.12-.19-.15-.17,0S61,103.17,61.08,103.13Z" fill="#905a58"/><path d="M72.91,103.36c0,.07,0,.11,0,.15s.07,0,.06-.06S73,103.35,72.91,103.36Z" fill="#905a58"/><path d="M68.17,105.45c.08,0,.12,0,.19-.06s.12-.21.1-.4A.34.34,0,0,0,68.17,105.45Z" fill="#905a58"/><path d="M70.42,106.52a.22.22,0,0,0,.17.12c0-.09,0-.17,0-.21S70.43,106.45,70.42,106.52Z" fill="#905a58"/><path d="M62.34,113.2s.05-.05.06-.1-.1-.07-.14,0S62.27,113.2,62.34,113.2Z" fill="#905a58"/><path d="M61.85,114.27c0,.15.09.23.19.19S62,114.28,61.85,114.27Z" fill="#905a58"/><path d="M58.43,120.27c.1-.13,0-.46.19-.52h.25a.3.3,0,0,0,.15-.23c-.17,0-.16-.27-.29-.36s-.27.25-.4.38C57.82,119.57,58,120.37,58.43,120.27Z" fill="#905a58"/><path d="M60.41,119.85c-.07-.1-.2,0-.15.13S60.38,119.91,60.41,119.85Z" fill="#905a58"/><path d="M61,120.37s0-.07,0-.12a.33.33,0,0,0-.15,0C60.79,120.31,60.85,120.38,61,120.37Z" fill="#905a58"/><path d="M58.2,122.59c.13,0,.28-.39.29-.46-.31,0-1-.38-1,.13.11,0,.14,0,.23,0S57.91,122.67,58.2,122.59Z" fill="#905a58"/><path d="M62.9,122.32s0,0-.08,0,0,.19,0,.19A.27.27,0,0,0,62.9,122.32Z" fill="#905a58"/><path d="M57.65,122.59h.08c0-.07,0-.17-.06-.17A.13.13,0,0,0,57.65,122.59Z" fill="#905a58"/><path d="M59.43,124.14a.16.16,0,0,0,.06-.23C59.27,123.79,59.22,124.13,59.43,124.14Z" fill="#905a58"/><path d="M63.4,124.68c0-.11-.26-.12-.25,0S63.37,124.74,63.4,124.68Z" fill="#905a58"/><path d="M62.36,126.67a.22.22,0,0,0,.21.06.23.23,0,0,0,0-.29C62.4,126.42,62.35,126.51,62.36,126.67Z" fill="#905a58"/><path d="M57.71,127.44c0,.08.13.17.23.11a.1.1,0,0,1,0-.06C57.95,127.4,57.75,127.31,57.71,127.44Z" fill="#905a58"/><path d="M62.77,127.69s.05.06.13,0S62.75,127.49,62.77,127.69Z" fill="#905a58"/><path d="M63.13,128c0-.09,0-.13-.15-.12S63,128,63.13,128Z" fill="#905a58"/><path d="M60.14,134c.15,0,.09-.28-.06-.23S60,133.95,60.14,134Z" fill="#823133"/><path d="M59,135.53a.1.1,0,0,0,.06-.12C58.93,135.28,58.83,135.5,59,135.53Z" fill="#823133"/><path d="M62.69,136.93a.21.21,0,0,0,.06-.19s0,0-.06,0-.07.07-.06.15S62.64,136.93,62.69,136.93Z" fill="#823133"/><path d="M58.45,137.24c.09,0,.15,0,.17-.1S58.45,137.15,58.45,137.24Z" fill="#823133"/><path d="M61.67,141.74c0,.14.33.24.4.42s0,.29.08.36.56.2.63,0-.36-.33-.52-.48c.08-.13.1-.32.29-.33.08-.23,0-.42,0-.63.24-.17.07-.55,0-.73s-.23-.16-.33-.06c0,.26.11.46,0,.69.08.05.19.32,0,.38C62,140.83,61.57,141.35,61.67,141.74Z" fill="#823133"/><path d="M58,147.36a2.08,2.08,0,0,0,.06.36c.2.09.51.17.56,0S58.15,146.89,58,147.36Z" fill="#823133"/><path d="M57.8,147.76a.23.23,0,0,0-.31,0C57.44,148,57.87,148.07,57.8,147.76Z" fill="#823133"/><path d="M57.67,149.27c.13,0,.22,0,.23-.12C57.94,148.9,57.57,149,57.67,149.27Z" fill="#823133"/><path d="M62.25,150.52a.1.1,0,0,0-.13,0v.06A.1.1,0,0,0,62.25,150.52Z" fill="#823133"/><path d="M62.31,150.92a.11.11,0,0,0-.08-.19A.12.12,0,0,0,62.31,150.92Z" fill="#823133"/><path d="M57.42,151.15c.05,0,.13,0,.17,0C57.6,150.9,57.37,151,57.42,151.15Z" fill="#823133"/><path d="M62.61,151.23s0,0,0,0v0s0,0,0,0h0s0,0,0,0v0s0,0,0,0Z" fill="#823133"/><path d="M94.9,66c-.06,0-.15-.1-.17,0,.1-.06.06.07,0,.13s.07,0,.13,0S94.82,66.14,94.9,66Z" fill="#905a58"/><path d="M94.59,66.69s.05.07.11.08,0-.05,0-.1S94.6,66.63,94.59,66.69Z" fill="#905a58"/><path d="M95.47,66.88c-.17,0-.2-.09-.33,0s0-.09,0-.15-.21,0-.19.15.25,0,.29.08C95,67.41,95.61,67.23,95.47,66.88Z" fill="#905a58"/><path d="M96,68.32c.06-.22-.33-.21-.23,0C95.87,68.34,96,68.39,96,68.32Z" fill="#905a58"/><path d="M94,71.06a.19.19,0,0,0,.23.13s0-.06,0-.06S94.06,70.91,94,71.06Z" fill="#905a58"/><path d="M93.61,73a.17.17,0,0,0,.06.31C93.9,73.29,93.87,72.86,93.61,73Z" fill="#905a58"/><path d="M93.06,76.75c.07,0,.16.07.23,0C93.32,76.46,93,76.5,93.06,76.75Z" fill="#905a58"/><path d="M93.06,76.92a.13.13,0,0,0-.1,0C92.94,77,93.1,77,93.06,76.92Z" fill="#905a58"/><path d="M92.2,80.55c.1,0,.2,0,.19-.15S92.19,80.43,92.2,80.55Z" fill="#905a58"/><path d="M92.1,81.56s0-.11,0-.17C92,81.23,91.84,81.61,92.1,81.56Z" fill="#905a58"/><path d="M96.6,83.4s.06.1.15.1a.1.1,0,0,1,.06-.06c0-.06,0-.12-.11-.12s-.07,0-.1.06,0-.18,0-.27-.3.07-.44.1a.13.13,0,0,1,0,.08.63.63,0,0,0,.4.23C96.55,83.51,96.53,83.41,96.6,83.4Z" fill="#905a58"/><path d="M92.67,86.09a.15.15,0,0,0,.06-.27C92.46,85.79,92.51,86.1,92.67,86.09Z" fill="#905a58"/><path d="M90.85,108.27s0,0,0,.06C91.27,108.26,90.88,107.89,90.85,108.27Z" fill="#905a58"/><path d="M99.69,115s0-.06,0-.12a.14.14,0,0,0-.1,0S99.59,115,99.69,115Z" fill="#905a58"/><path d="M85.5,120.33s.07-.1,0-.15-.1-.06-.19,0,0,.05,0,.1S85.45,120.34,85.5,120.33Z" fill="#905a58"/><path d="M104.48,120.85v-.12h-.06A.1.1,0,0,0,104.48,120.85Z" fill="#905a58"/><path d="M85.33,120.79c-.09,0-.18.09-.15.15S85.32,120.88,85.33,120.79Z" fill="#905a58"/><path d="M99.88,120.81c0,.11.12.13.17.06S99.93,120.77,99.88,120.81Z" fill="#905a58"/><path d="M100,121.77a.09.09,0,0,0,.14-.1C100.11,121.63,100.05,121.69,100,121.77Z" fill="#905a58"/><path d="M85,122.72c.08,0,.13,0,.15-.06S85,122.56,85,122.72Z" fill="#905a58"/><path d="M105.17,126.62c0,.07,0,.23.06.23s0,0,0,0a.3.3,0,0,0,0-.21Z" fill="#905a58"/><path d="M102.64,132.87a.1.1,0,0,0,.08.17C102.75,133,102.74,132.86,102.64,132.87Z" fill="#823133"/><path d="M106.9,143a.18.18,0,0,0,0-.25A.13.13,0,0,0,106.9,143Z" fill="#823133"/><path d="M106.9,143c-.09,0-.1,0-.15.06-.08-.22-.28,0-.4,0s0,.19,0,.25c.16,0,.18,0,.27.08a.71.71,0,0,0,.27-.29C106.82,143.13,106.9,143.11,106.9,143Z" fill="#823133"/><path d="M106.11,143.06c0,.08.09.18.19.19S106.2,142.87,106.11,143.06Z" fill="#823133"/><path d="M81.25,146.53s.1-.08.08-.19a.25.25,0,0,0-.29,0A.3.3,0,0,0,81.25,146.53Z" fill="#823133"/><path d="M80.86,146.51s-.11,0-.15,0,0,0,0,.11S80.86,146.59,80.86,146.51Z" fill="#823133"/><path d="M80.94,147.3c-.33,0,.21.59.31.23C81.11,147.46,81.07,147.3,80.94,147.3Z" fill="#823133"/><path d="M80.65,148.14s0,.13,0,.13,0,0,0,0S80.68,148.16,80.65,148.14Z" fill="#823133"/><path d="M108.84,151.3c0,.05,0,0,0,.11s-.1,0-.1,0a.08.08,0,0,0,.1,0s0,.08,0,.11a.15.15,0,0,0-.14.08c.1.08.13-.07.23-.06S109,151.32,108.84,151.3Z" fill="#823133"/><path d="M108.72,151.59s-.08,0-.08,0,.09-.06.08-.15-.34-.07-.31.08c.07,0,.18.07.17.15S108.71,151.69,108.72,151.59Z" fill="#823133"/><path d="M109.51,151.57v-.08c0,.06-.11,0-.15.06S109.46,151.57,109.51,151.57Z" fill="#823133"/><path d="M108.76,151.76c0-.07-.09,0-.13-.06S108.7,151.7,108.76,151.76Z" fill="#823133"/><path d="M109.16,151.78h.09A0,0,0,1,0,109.16,151.78Z" fill="#823133"/><path d="M65.62,67.59c0-.07.06-.06.08-.1a.94.94,0,0,0-.34-.19A.36.36,0,0,0,65.62,67.59Z" fill="#905a58"/><path d="M65.7,68.41s-.07,0-.1.06-.1-.09-.15,0,.2.21.29.29S65.86,68.45,65.7,68.41Z" fill="#905a58"/><path d="M92.81,77.56s-.08,0-.14,0S92.81,77.59,92.81,77.56Z" fill="#905a58"/><path d="M98.39,82.08s0,0,0-.08h-.08C98.26,82.09,98.37,82,98.39,82.08Z" fill="#905a58"/><path d="M98.52,87.08a.67.67,0,0,0,.25,0c0-.08,0-.15,0-.23A.3.3,0,0,0,98.52,87.08Z" fill="#905a58"/><path d="M91,88.18c0-.14-.2-.06-.25,0S90.92,88.25,91,88.18Z" fill="#905a58"/><path d="M56.92,91.47c.06,0,.11-.1.17-.15s.16-.05.15-.17-.2.11-.27,0,.07-.15.1-.23-.1-.19-.19-.25a.86.86,0,0,0,.06.48C56.95,91.23,56.8,91.38,56.92,91.47Z" fill="#905a58"/><path d="M71.89,90.75a.09.09,0,0,1-.06,0s0,.14,0,.15S71.89,90.81,71.89,90.75Z" fill="#905a58"/><path d="M56.88,92.05c.12.1.34.18.36,0s-.23-.17-.36-.19Z" fill="#905a58"/><path d="M104,118c-.05,0,.11,0,.08.13s-.11.06-.1.17.2-.2.34-.25,0-.11,0-.1-.1.08-.17.1S103.95,117.93,104,118Z" fill="#905a58"/><path d="M89.55,126.73c.07,0,.07.08.15.08a.14.14,0,0,0,0-.17C89.65,126.7,89.58,126.69,89.55,126.73Z" fill="#905a58"/><path d="M100.69,132.91c.05.07,0,.26.13.23S100.83,132.81,100.69,132.91Z" fill="#823133"/><path d="M102.26,143.35l-.08,0c0,.1,0,.31.13.29A.39.39,0,0,1,102.26,143.35Z" fill="#823133"/><path d="M57.11,147.14c-.06,0-.17,0-.23,0v.25s0,0,0,0S57.07,147.24,57.11,147.14Z" fill="#823133"/><path d="M57.3,112.17c-.19.12-.09,0-.18.16l.21-.06Z" fill="#905a58"/><path d="M56.93,112.05l0,0s0,.07,0,.11S56.89,112.16,56.93,112.05Z" fill="#905a58"/><path d="M57.06,71.56h.2a1.2,1.2,0,0,0-.26-.34l.09-.27a4,4,0,0,0,.82.09c.07.11,0,0,.09.09-.05.18,0,.08-.09.18h0l.13,0a2.74,2.74,0,0,0,.15-.39c0-.12.15-.29.12-.42s0-.32.12-.39,0-.25,0-.25l-.25-.1-.25.12,0-.27-.12-.15-.1.42.25.29-.46.17s.29-.59-.44-.25a.63.63,0,0,1-.24.07c0,.51,0,1,0,1.52h0v.18h0v.08h0Zm.31-1.16h.09v.09h.09c-.1.1,0,0-.18.09Z" fill="#905a58"/><path d="M57.31,71.55a.64.64,0,0,0,.29-.09l.11-.06h-.25A1.15,1.15,0,0,1,57.31,71.55Z" fill="#905a58"/><path d="M75.55,83.95c.13-.09,0,0,.11-.11h-.22v.22C75.56,84,75.46,84.07,75.55,83.95Z" fill="#905a58"/><path d="M75.77,83.51H74.9a2.79,2.79,0,0,0,.87.22Z" fill="#905a58"/><path d="M75.23,83.84c-.22.06-.09,0-.22.11h.22Z" fill="#905a58"/><path d="M76.52,83.62a3.7,3.7,0,0,1-.11.76l.32.11.11.43-.22.11v.11h-.11c-.21-.23.12-.2-.32-.33,0,.46.05.56.43.65v.21h-.22v-.21H76c.08.34.14.4.54.43v.33a5.72,5.72,0,0,1-.76-.22c0-.35-.1-.32-.22-.54-.39,0-.44.14-.86,0v-.11l-.32-.11v.11h-.22v.11l-.32.11a1,1,0,0,1-.11-.43,3.3,3.3,0,0,0-.76-.11v-.11c.17-.1.58,0,.76-.1v-.11c.12-.12,0,0,.11-.22l-.32-.11c.08-.29,0-.25.33-.32v-.32c.12-.09,0,0,.11-.11a3.12,3.12,0,0,1,.65.33c.08-.11.13-.11.22-.22s0,0,.11-.11-.12-.19,0-.23.33,0,.49-.08a.79.79,0,0,1,.62,0c.12.09.21.26.37.1s.26-.06.4-.1a1.22,1.22,0,0,1,.63-.05h.06a25.05,25.05,0,0,0-1-3.2c-.18,0-.24-.06-.38-.08s0,.2,0,.21-.22-.11-.21-.29-.24,0-.25-.15.36-.36.17-.59c-.27.06-.33,0-.5-.08s-.45-.17-.44-.46c0-.12.1-.23.08-.38s-.09-.16-.08-.25.19-.17.17-.29-.25,0-.38,0-.34-.35-.35-.5a.43.43,0,0,1,.08-.31,2.78,2.78,0,0,1,.63,0A18.85,18.85,0,0,0,73,74.09a1.58,1.58,0,0,1-.86-.31c-.14.12-.29,0-.44,0,0,.22.28.09.23.31s-.57-.06-.67-.21c-.56,0-.37-.5-.19-.73,0-.08-.12-.11-.06-.17a.88.88,0,0,0,.94-.23c-.07,0-.1-.13-.17-.19a.32.32,0,0,1-.21,0c-.21-.22-1.05-.22-.9-.73,0-.1.14-.12.27-.17a3.5,3.5,0,0,0-.71-.69c-.28,0-1.11-.28-.65-.65a27.12,27.12,0,0,0-3-2.34c-.06.08-.27.21-.34,0s.13-.21,0-.25a.29.29,0,0,1-.52.08c0-.09.22-.12.17-.23a.66.66,0,0,0-.38.13c-.1,0-.12-.11-.21-.06s.07.22.21.21.16.21.19.31a.33.33,0,0,1,.08.65c-.3,0-.31-.33-.63-.27-.08,0,0,.17-.15.15s-.05-.17-.17-.17a.85.85,0,0,1-.21,0c-.12-.08-.25-.18-.25-.31s.35-.31.42-.52a4.39,4.39,0,0,1-.9-.5,1.68,1.68,0,0,1,.5-.44c-.07,0-.06-.13-.06-.23-.21,0-.25-.22-.38-.21,0,0,0,.05,0,.1s-.12,0-.19,0-.14.2-.15.33.07.17.06.27a.61.61,0,0,1-.42-.27c0-.16.21-.17.29-.27s-.18-.29-.21-.5a4.8,4.8,0,0,0-1-.38,1,1,0,0,0-.65-.42s0,.07,0,.1c-.17.08-.13.37-.38.38s.12-.32,0-.46-.28.06-.27-.12.19,0,.13-.12a1.59,1.59,0,0,0-.57-.27c0,.06.08.12,0,.17s-.44,0-.61-.14-.1-.2,0-.29c-.15,0-.26-.12-.42-.15s0,.22-.15.25c-.27.07-.34-.36-.56-.36s-.17.13-.25.13-.22-.26-.21-.46c-.13,0-.16.06-.29,0a.48.48,0,0,0-.4-.25c-.06.3.21.27.19.54-.12.12-.25,0-.27-.12,0,0-.09,0-.12,0a1.71,1.71,0,0,0-.5-.54.13.13,0,0,1-.11,0,4.1,4.1,0,0,0-.06,1.19v1.28s.11,0,.1,0-.08.09,0,.21c.23-.09.4.29.54,0,.07-.1-.15-.13-.06-.25s.19,0,.23.13-.13.19-.08.38a.37.37,0,0,1-.38.17.41.41,0,0,0-.26.33v0H57v.09h-.11a2.75,2.75,0,0,0,0,.45h.21v.09h.09V68H57a3.48,3.48,0,0,0,.42.54h0v-.82c.1-.08,0,0,.09-.09l.55-.09v.09c.51,0,.65,0,.73.46h.09l-.09.55h-.45v-.09h-.27v.09l-.54-.19v.18l.27.09c0,.29-.08.26-.18.45a2.31,2.31,0,0,1-.41-.14c0,.22,0,.46-.34.49,0,0,0,.1,0,.15L57,70a2.75,2.75,0,0,0,.36-.09l.09.09.09-.18a.13.13,0,0,1-.09-.18,1.86,1.86,0,0,0,.27-.27c.68,0,.61.22,1,.46a4.91,4.91,0,0,0-.28.91H59v.09h.09c.08.21-.14.19-.18.27s.16.24.09.46a6.52,6.52,0,0,0-.27.63c-.47,0-.57-.07-.63-.46.25-.07.21,0,.27-.27-.45.06-.52.35-1,.36l-.09-.09-.09.27-.3.12c0,.54,0,1.08,0,1.63.31-.06.27.39,0,.27v.42c.22,0,.37.18.54.19s.22-.09.38-.15a1.15,1.15,0,0,1,0,.46c-.38.08-.34.67-.86.54V76.6s.08-.08.19,0a.56.56,0,0,1,.27.31c-.08.33.06,1-.46,1V89.6c.26.18.33.5.56.75s.36.23.38.4c0,.34-.46.59-.46.88s.24.31.17.59-.23.16-.31.27c.13.36-.07.58-.08.84a.94.94,0,0,1-.08.5c0,.25.27.21.38.36s0,.55.13.73c0,.11-.22.06-.29.13,0,.26-.2.34-.4.42,0,3,0,6.19,0,9.22a.32.32,0,0,1,.19,0,1.85,1.85,0,0,0,.11.56s-.06.1-.15.08.11-.44-.1-.5c0,.78,0,1.59,0,2.4.21-.08.27-.18.28-.47l.21,0,0,.21-.21,0,.08.42c.32-.15.36-.21.32-.61l.32-.06a5.89,5.89,0,0,1-.07.78c-.33.11-.29.16-.49.31.09.38.22.4.16.85l-.11,0c0,.11,0,.22,0,.34l.11,0,0,.21.11,0,.17.3a1.08,1.08,0,0,1-.41.19,3.35,3.35,0,0,0,0,.76l-.1,0c-.13-.15-.08-.58-.25-.72l-.11,0-.07-.05c0,.69,0,1.38,0,2.06a.06.06,0,0,0,0,.06,1.51,1.51,0,0,0,.4-.19.78.78,0,0,1,.61-.13c.14.05.27.19.39,0s.23-.13.36-.21a1.23,1.23,0,0,1,.59-.22c.24,0,.3-.08.22-.2s.37,0,.37,0l.46,0,0,.11a7.09,7.09,0,0,0-1.84.64,3.64,3.64,0,0,1,.1.76l.34,0,.22.39-.18.16,0,.11-.1,0c-.26-.16.06-.22-.4-.22.13.44.21.53.59.51l.06.21-.21.06-.06-.21-.41.12c.18.31.24.34.64.27l.09.31a5.88,5.88,0,0,1-.79,0c-.14-.32-.18-.28-.36-.46-.37.12-.38.26-.83.24l0-.11h-.32v.09h0c0,.77,0,1.54,0,2.28l0-.16a1.4,1.4,0,0,1,.55,0c.12.19,0,.09.16.18l0,.11h-.77c0,.17,0,.35,0,.51s.21,0,.29,0-.1.15-.1.27.2.18.29.27c.21.41,0,.69-.42.42,0-.11.11-.11.13-.21s-.14.07-.21,0v.38c.26.08.61.07.65.38-.25.07-.4-.12-.65-.12,0,1.49,0,2.87,0,4.37a.31.31,0,0,1,.33.42.58.58,0,0,1-.33.06c0,1,0,1.91,0,2.84a1.2,1.2,0,0,1,.25.38c.34,0,.74.08.61.5.06.1.2.13.17.33s-.33.08-.46,0c0,.13.19.16.21.31a1,1,0,0,1-.5,0,.22.22,0,0,0-.06.19c.39.1.27.66-.21.56v1c0,.07.13,0,.13.13s-.13.07-.12.17c0,2,0,4.07,0,6.12.18,0,.35-.1.46,0s-.29.41-.15.69a.57.57,0,0,1-.33.08v.31c.16.1.37.16.46.33-.16.22-.3-.22-.44-.08s.08.27.08.42.3,0,.33.15-.21.22-.23.38-.12,0-.21,0v1.53a8.63,8.63,0,0,0,0,1.55c0,.11.2.21.15.36s-.13,0-.12.11v1.53c.35,0,.46.13.46.33s-.08.17-.08.29,0,.14,0,.21-.09.17-.08.25.19.17.1.31-.32-.06-.46,0V145a1,1,0,0,1,.27-.08c.17.1.06.35.11.56a1.64,1.64,0,0,1-.38.08v.17c.17-.18.6.09.38.36-.08.06-.09-.06-.17,0a.31.31,0,0,0,.21.46c0-.07.06-.06.13-.06s.06.06.06.13-.11.07-.21.06-.13.2,0,.23.18-.17.36-.17a.28.28,0,0,1,.27.25.14.14,0,0,1,.25.13c-.12.08-.17,0-.25-.06-.07.11.1.18,0,.25-.27-.06-.46.06-.73,0,0,0,0,.08-.1.08s.05.12.1.21-.18,0-.25,0v2.22c.17,0,.26-.21.42-.23s.13,0,.21,0,.16-.05.21,0c.41.07.23.6-.12.58-.13,0-.21-.19-.33-.1.05.25.32.48.08.73.05.06.12.1.13.21-.17,0-.15.16-.25.21a.37.37,0,0,1-.29.59c0,.21.34.2.54.21,1.88.09,4-.06,6,0,0-.15-.13,0-.19-.13l0-.17c.07,0,.07.11.15.06a7.87,7.87,0,0,0,0-.92c-.11,0-.09.1-.08.25-.22,0-.29.22-.44.33-.15-.09,0-.25,0-.33s-.23.09-.25-.06.32-.23.29-.42-.13.09-.23,0c.1-.16.37-.17.67-.17,0-.45,0-1,0-1.51a.3.3,0,0,1-.17-.05.65.65,0,0,1-.32,0c-.16,0-.33-.17-.43.06s-.23.18-.36.29a1.35,1.35,0,0,1-.62.34c-.26,0-.31.14-.22.25s-.4.09-.4.09l-.51,0-.07-.12a7.91,7.91,0,0,0,1.93-1,4.14,4.14,0,0,1-.23-.82l-.38,0-.3-.39.17-.2,0-.11.11-.05c.31.14,0,.26.48.19-.21-.46-.31-.55-.73-.47l-.1-.22.22-.1.1.22.44-.19c-.24-.31-.32-.34-.74-.2l-.15-.33a6.47,6.47,0,0,1,.87-.12c.2.33.24.28.46.45.39-.19.38-.34.88-.38l.05.11h0q0-1.74,0-3.47l-.15,0,0-.11.11,0,0-.11h.13c0-.77,0-1.53,0-2.31a1.15,1.15,0,0,1-.65,0c-.09-.18-.35-.13-.36-.36s.45-.31.56-.06c0,.09-.09.19,0,.29.21,0,.25-.22.48-.23,0-.59,0-1.29,0-2a1.13,1.13,0,0,0-.25,0,.89.89,0,0,0-.06.36c-.1.06-.34.2-.44.06s.11-.17,0-.27-.3-.08-.46-.17c-.31-.17-.37-.63.17-.42a5.21,5.21,0,0,1,.5.29c.13-.2.53-.24.48-.54-.1,0-.36.13-.38,0s.23-.18.23-.38a.7.7,0,0,0-.5-.1c-.21-.17-.19-.58.25-.48,0-.18.2-.23.4-.25,0-1.79,0-3.54,0-5.31,0,0-.12,0-.13-.12s.14,0,.13-.1-.22,0-.31,0a1,1,0,0,1-.08-.15c.11-.14.24-.27.34-.42-.17.06-.23.06-.34-.06s.13-.18,0-.23,0,.2-.12.21c.06.1.18.24.06.36a.49.49,0,0,1-.29-.46,4.94,4.94,0,0,1,.73-.71c0-.3,0-.66-.11-.82.13,0,.11-.24.11-.42,0,.05-.14.21-.21.06s.16-.1.21-.19,0-.26,0-.33,0,.19-.08.21a.37.37,0,0,1-.15-.11c0,.09-.08.17-.15.13s.08-.15.13-.21-.2-.18-.21-.29.2-.23.46-.21c0-1.25,0-2.43,0-3.68,0,0-.13,0-.11-.11s.09-.38.11-.61c-.24,0-.17-.26,0-.31,0-3.18,0-6.29,0-9.43-.16,0-.11.28-.25.29s-.15-.06-.17-.19.21-.11.29-.19-.07-.12,0-.19.15,0,.17-.12c0-2,0-4.17,0-6.25-.3-.08,0-.27,0-.42a12,12,0,0,0,0-1.5,1.35,1.35,0,0,1-.33.19.59.59,0,0,1,.36-.67c0-.17,0-.33-.08-.4.16-.26.05-.78.08-1.17-.51,0,.09-.29,0-.56-.1,0-.2,0-.25-.1s-.08-.27-.06-.42.22-.28.11-.46a.27.27,0,0,1,.21-.08c0-.87,0-1.7,0-2.55-.27.07-.4-.26-.21-.31s.15.14.21.25c0-.73,0-1.5,0-2.2-.49.13-.31-.31-.17-.48-.28,0-.31-.14-.25-.35-.11-.14-.34-.12-.31-.31s.13-.09.27-.19.23-.29.46-.17c0-.44-.36-.48-.29-1,0-.13-.31-.21-.31-.4a.3.3,0,0,1,.25-.29l.15.08s0,0,0,.1a.38.38,0,0,1,0,.25c.33,0,.23-.58.23-1.07,0-1.35,0-2.81,0-4.08a.84.84,0,0,1-.75-.46c0-.22.16-.37.36-.46a1.51,1.51,0,0,1,.4-.77c0-1.13.09-2.25,0-3.34,0-.07-.06.08-.15,0s-.07-.28-.19-.27c.06-.14.16-.33.36-.27V80.53c-.16,0-.3,0-.33-.1s0-.13,0-.23c-.23-.11-.64-.06-.77-.29s-.14-.48,0-.58c.38.12.67.31,1.07.42,0-.18,0-.35-.08-.42.16,0,.05-.3.08-.44s-.24-.06-.25-.19a.34.34,0,0,1,.25-.13v-.4c-.12,0-.23,0-.25-.1s.17-.06.25,0v-2.7a.44.44,0,0,0-.42.31s.11,0,.1.06a.17.17,0,0,1-.31,0c-.09,0-.07-.07-.17,0s0,.11,0,.1,0-.07,0-.08-.17-.05-.15-.19-.24-.09-.29-.21.12,0,.13-.12S62.12,75,62,75c.07-.12.19-.06.23-.19s.17,0,.21,0-.09-.07,0-.15.23-.05.38-.06c0-.17,0-.21,0-.31.09.08.15,0,.25,0,.05.16.22.09.36.17s0-.27,0-.34A20.63,20.63,0,0,1,66,76.33a.57.57,0,0,1,.31.17c0,.08,0,.09,0,.17.47.45.83,1,1.28,1.48.3,0,.79.31.42.59A21.56,21.56,0,0,1,70.61,84c.07,0,.07-.15.13-.21.28,0,.58,0,.61.21a.51.51,0,0,1,.35.31c-.12.06-.17.19-.25.29s.09,0,.08.08-.38.3-.44.48a1.57,1.57,0,0,0,0,.44c0,.18.13.36.17.57.13.75.33,1.71.42,2.47,0-.06.19,0,.29,0s.05.14,0,.17-.13-.21-.29-.1c0,.22.15.48.38.4,0,.15.13.28.19.42s.25.05.25.21a.53.53,0,0,1-.48-.29c0,.12-.08.1-.08.19s.22.1.21.27c-.16.06-.25-.09-.38-.12a3.31,3.31,0,0,1,0,.5c.18.09.37.24.35.46,0,.06-.1.05-.15.08,0,.22.37.38.4.54s-.35.59-.59.58c0,.56-.05,1.07-.08,1.67.54,0,.3.66-.06.67a.39.39,0,0,0,0,.33,4.1,4.1,0,0,0-.23,1.15c-.05.34-.1.67-.14,1a.46.46,0,0,1,.39.4c-.12.12.11.35-.08.46.1.1.13.26.23.35.33,0,.18.21,0,.25,0,.44-.43.06-.56-.06.09-.08.21,0,.36,0-.07-.21-.09-.47-.27-.56a.81.81,0,0,0-.25,0,21.81,21.81,0,0,1-.81,3c.23,0,.49.12.52.31s-.17.24-.25.44a.44.44,0,0,1-.29.42c-.11,0-.2-.1-.33,0s0,.17,0,.21-.06-.09-.14-.08c0,.22-.25.35-.17.54-.05,0-.09-.06-.08,0-.68,1.28-1.46,2.46-2.09,3.78a.41.41,0,0,1,.17.08,1.39,1.39,0,0,0-.06.75c.27.17.63.24.69.61,0,0,0,0-.06,0-.26,0-.43-.19-.67-.25a.52.52,0,0,1-.69.21c-.29.62-.36,2,.67,1.74,0-.2.05-.48.29-.48s.27.17.38.15.18-.19.29-.25a.65.65,0,0,1,.67,0,1,1,0,0,1,.5-.33c0-.08-.06-.12,0-.17a.58.58,0,0,0,.48-.17c0-.14-.24-.12-.29-.25a.92.92,0,0,1,0-.29l.23-.06a1.1,1.1,0,0,1,0-.29c.17-.07.36,0,.5-.06-.07,0,0-.27-.06-.36.13,0,.22.13.36.17a.32.32,0,0,0,.23.29,6.86,6.86,0,0,0,.67-.67c-.34-.34.1-.43.06-.86.14-.33.51-.09.5.21A7.35,7.35,0,0,0,73,105c0-.06-.12-.1-.11-.23s.22,0,.3,0a24.94,24.94,0,0,0,2.4-3.87.88.88,0,0,1-.15-.4c-.12-.09-.28-.06-.31-.21s.43-.57.61-.29c0,0,0-.1.13-.08s.11.1.19.13a26.09,26.09,0,0,0,2-6.19c-.1-.06-.16-.16-.31-.17-.14-.18-.29-.35-.42-.54a.34.34,0,0,0,.27-.1c.08.07.06.24.17.29A.8.8,0,0,0,78.1,93c-.06-.07-.23,0-.23-.15s.13-.14.19-.23c0-.24.35-.46.14-.71,0-.05-.12.11-.14.06s-.1-.2-.08-.36.12,0,.19,0-.13-.17,0-.23.11.13.21.17a28.44,28.44,0,0,0-.52-6.75s-.08-.06-.08-.13a2,2,0,0,0-.12-.75c0-.14-.08-.27-.11-.41A3.17,3.17,0,0,0,76.52,83.62ZM64.28,66.78a.54.54,0,0,1-.38.17C63.86,66.81,64.18,66.58,64.28,66.78Zm-7.06-.5c-.23,0,0-.31.08-.13S57.26,66.26,57.21,66.28Zm.27,81.48a.23.23,0,0,1,.31,0C57.87,148.07,57.44,148,57.49,147.76Zm.19,1.51c-.11-.25.26-.37.23-.12C57.89,149.23,57.81,149.26,57.67,149.27Zm-.25,1.88c0-.15.18-.24.17,0C57.55,151.15,57.47,151.2,57.42,151.15Zm5.12,0s0,0,0,0h0s0,0,0,0v0s0,0,0,0h0s0,0,0,0Zm-.23-.25a.12.12,0,0,1-.08-.19A.11.11,0,0,1,62.31,150.92Zm-.19-.4a.1.1,0,0,1,.13,0,.1.1,0,0,1-.13.06Zm1-22.54c-.1,0-.14,0-.15-.12S63.13,127.89,63.13,128Zm.27-3.3c0,.06-.18.09-.25,0S63.37,124.57,63.4,124.68Zm-.19-21.76c0,.19.09.26.06.46-.19,0,0-.29-.12-.44S63.19,102.92,63.21,102.92Zm-.06-.46a1.9,1.9,0,0,1,0,.42C62.89,102.87,62.83,102.42,63.15,102.46Zm-.34,19.84s.06,0,.08,0a.27.27,0,0,1-.06.17C62.77,122.48,62.79,122.33,62.82,122.3Zm.08,5.44c-.07,0-.09,0-.12,0C62.75,127.49,63,127.57,62.9,127.73Zm.5-35.18c0,.11-.14.06-.12,0A.08.08,0,0,1,63.4,92.55Zm-2.3-24,.06,0c0,.06,0,.07-.1.06S61.13,68.62,61.1,68.56Zm0,34.57s-.12,0-.17,0S61.09,103,61.08,103.13ZM61,120.25c0,.05,0,.1,0,.13s-.17-.06-.12-.15A.33.33,0,0,1,61,120.25Zm-.37-11,0,.11.1,0-.06.23c-.18-.1-.31-.07-.17-.3Zm.16,34.34-.44.19,0-.11a1.19,1.19,0,0,1,.39-.31Zm-.34-67.82c0,.16,0,.26-.12.27C60,76.12,60.18,75.56,60.43,75.81Zm-.23,1.3c-.66.15-.67-1,0-.81.09.08.21.19.17.33s-.27,0-.36.1S60.22,76.9,60.2,77.1Zm-.75-3.42.18-.36c.18.06.08,0,.18.09s0,0,.09.18c-.1.08,0,0-.09.09Zm.48-5.9.36-.18-.09.27h-.27Zm0,3.82a1.06,1.06,0,0,1-.46.09v-.27h.27v.09C59.91,71.56,59.81,71.49,59.91,71.6Zm-.27-.55h-.18c.06-.18,0-.08.09-.18V71C59.65,71,59.57,70.95,59.64,71.05ZM59,67.32a.79.79,0,0,1,.18.18h.36v.09c.1.08,0,0,.09.09-.1.08,0,0-.09.09-.38,0-.3-.13-.54-.27Zm-.19,2a.67.67,0,0,1,.27-.18v-.27H59v-.18h.09c.09.16.13.14.18.36s0,0,.09.18a.36.36,0,0,0-.18.18A1,1,0,0,1,58.83,69.32Zm-1,4.81c-.11,0-.29.14-.42,0s.15-.2.17-.33S57,73.67,57,73.4s.17-.18.33-.23c.05-.32.47-.82.65-.29a.28.28,0,0,1,.36.1c0,.24.12.27.1.48-.14,0-.19.15-.36.15s-.12.34,0,.38.14-.12.23-.15.18.1.27.15a.36.36,0,0,1-.08.29A.52.52,0,0,1,57.86,74.14Zm.84,33.2,0-.21c-.27,0-.25-.07-.46-.13l-.12-.64.34,0,.23.62.11,0,.06.32Zm0-34.47h-.18v-.27h.18l.09-.27h.27v.09c.1.08,0,0,.09.09A.85.85,0,0,0,58.72,72.86ZM59.17,74l.45-.09c-.06.18,0,.08-.09.18s0,0-.18.09V74C59.17,74,59.28,74.06,59.17,74Zm.21,3.82s0,0,0,0a.09.09,0,1,1,.17-.06C59.52,77.75,59.47,77.78,59.39,77.77Zm.43,31.44-.23-.07a1.43,1.43,0,0,1,0-.55c.2-.1.1,0,.19-.15l.11,0C59.87,108.69,59.84,109,59.82,109.21Zm-.09-2.84.34,0,.06.32-.32.06c-.11-.1,0,0-.13-.08l-.08-.43-.11,0,0-.11.11,0-.06-.32a1.36,1.36,0,0,1,.55,0l.06.32c-.21-.07-.19-.12-.46-.13Zm.54.56-.08-.43.11,0a1.12,1.12,0,0,1,.19.4Zm.14,12.92c0,.06,0,.15-.15.13S60.34,119.75,60.41,119.85Zm-.56-4.24,0,.1.31-.09a1.35,1.35,0,0,1,0,.55l-.31.09c0-.21.1-.2.09-.47l-.31.09c0,.11,0,.22,0,.34l-.31.09-.09-.31c.09-.12,0,0,.07-.13l.42-.12,0-.1ZM60.14,134c-.11,0-.11-.16-.06-.23S60.28,134,60.14,134Zm-1.28-19.08a1.26,1.26,0,0,1,.09-.48l.62-.18c0,.11,0,.23,0,.34l-.6.28,0,.1-.31.09,0-.1Zm-.53,4.66c.13-.13.16-.35.4-.38s.12.31.29.36a.3.3,0,0,1-.15.23h-.25c-.17.07-.08.39-.19.52C58,120.37,57.82,119.57,58.32,119.54Zm-.82,2.72c0-.5.67-.16,1-.12,0,.07-.17.43-.29.46-.29.08-.27-.25-.46-.38S57.61,122.27,57.51,122.25Zm.23.34h-.08a.13.13,0,0,1,0-.17C57.77,122.42,57.77,122.52,57.74,122.59Zm.21,5c-.1.07-.2,0-.23-.11s.23,0,.25,0A.1.1,0,0,0,57.95,127.54Zm.65,20.13c-.06.21-.37.13-.56,0a2.08,2.08,0,0,1-.06-.36C58.15,146.89,58.69,147.32,58.59,147.68Zm-.15-10.44c0-.09.07-.11.17-.1S58.54,137.24,58.45,137.24Zm.57-1.71c-.18,0-.08-.25.06-.12A.1.1,0,0,1,59,135.53Zm-.12-7.19s.09,0,.1,0-.06.09-.1.13-.08,0-.17,0,0-.05,0-.1c-.19,0-.21-.08-.23.06-.05,0-.07,0,0-.1h-.1s-.06-.11,0-.13-.26-.13-.33-.25.22-.07.31-.12-.06-.16,0-.21-.1-.05,0-.11.14,0,.25,0c0,.12.15.11.23.13s0,.08-.06.06a.68.68,0,0,1,.44.31C59.07,128.13,58.9,128.16,58.89,128.34Zm.25-2.63s.09,0,.1,0-.06.09-.1.13-.07,0-.08,0,0,.21,0,.33c-.24,0-.1.37-.25.46s-.09-.05-.21,0v-.1a.12.12,0,0,1-.15,0s0,.07,0,.1-.09-.12-.19-.12c0-.2-.14-.25-.29-.29s0-.42.21-.38c0-.27-.21-.29-.36-.44,0-.13.22-.07.31-.13s-.06-.16,0-.21-.1-.05,0-.11.14,0,.25,0a.22.22,0,0,0,.29.11s-.1-.05,0-.11.15,0,.25,0c0,.12.15.11.23.13s0,.08-.06.06a.68.68,0,0,1,.44.31C59.32,125.5,59.15,125.52,59.14,125.7Zm.29-1.57c-.21,0-.16-.35.06-.23A.16.16,0,0,1,59.43,124.14Zm-.18-7.46-.06-.21.42-.12,0,.1A1.1,1.1,0,0,1,59.25,116.68Zm1,27.95-.11,0,0-.11-.33.14a1.49,1.49,0,0,1-.13-.6L60,144c0,.25-.08.24,0,.54l.33-.15,0-.38.33-.15.14.33c-.08.15,0,0-.06.16l-.44.19Zm1.07,1.24-.66.29,0-.38.61-.4,0-.11.33-.14,0,.11-.22.1A1.41,1.41,0,0,1,61.36,145.86Zm2-2.32c0,.09,0,.18,0,.27a1.53,1.53,0,0,1-.6.13c-.16-.19,0-.1-.21-.17l0-.11Zm-1.15-2.22c.17-.05.06-.32,0-.37.11-.23,0-.43,0-.69.11-.09.23,0,.33.06s.28.56,0,.73c-.06.21.05.4,0,.63-.2,0-.21.21-.29.33.17.15.62.19.52.48s-.42,0-.63,0,0-.19-.08-.36-.36-.28-.4-.42C61.57,141.35,62,140.83,62.21,141.32Zm-.36-27c.12,0,.19.06.19.19S61.83,114.42,61.85,114.27Zm.84,22.45s0,0,.06,0a.21.21,0,0,1-.06.19s0-.06-.06-.06S62.67,136.77,62.69,136.72Zm-.12-10a.22.22,0,0,1-.21-.06c0-.16,0-.25.21-.23A.23.23,0,0,1,62.56,126.73Zm0-45.19a.16.16,0,0,1,0,.21A.11.11,0,1,1,62.56,81.54ZM62.4,113.1s0,.09-.06.1-.09,0-.08-.12S62.37,113.07,62.4,113.1ZM62.11,78a.77.77,0,0,1,.23.69A.71.71,0,0,1,61.6,78C61.71,77.93,61.91,78,62.11,78ZM64,72.21c0-.16.11-.29.15-.44C64.43,71.85,64.29,72.38,64,72.21Zm.81,2c-.14,0-.25-.28-.08-.31S64.95,74.09,64.86,74.18Zm1.67-2.24c.08,0,.1.16,0,.15A.13.13,0,0,1,66.54,71.94Zm.23,3.53a4.24,4.24,0,0,1-.5-.25c.11-.23.33.07.5.08C66.78,75.35,66.81,75.43,66.77,75.47Zm.77.5c-.33,0-.15-.52,0-.23C67.58,75.84,67.59,75.94,67.54,76Zm.13-1h.06a.17.17,0,0,1,0,.17C67.64,75.11,67.63,75,67.66,75ZM68,76.16s-.06,0-.08-.06.05,0,.11,0A.14.14,0,0,1,68,76.16Zm0-.61c-.21,0-.35-.12-.29-.29C67.87,75.29,68.14,75.36,68,75.56Zm.25,1.13c0-.1,0-.12.13-.12S68.3,76.72,68.25,76.69Zm.44.33c.05-.28-.12-.34-.21-.48.1-.18.39-.14.61-.1-.12.22,0,.58.08.81A.5.5,0,0,1,68.69,77Zm.46-6V71c.33,0,.72.1.82.4C69.63,71.49,69.37,71.18,69.15,71Zm1.09.67c-.21,0-.2-.45.08-.25C70.37,71.59,70.33,71.7,70.24,71.71Zm1.09,11.73h.06c0,.06,0,.07,0,.15S71.32,83.52,71.32,83.44Zm.69.65c-.35.13-.38-.24-.44-.42s.16-.15.17-.17.35.33.36.38S72,84,72,84.09Zm-3.66,21.3c-.07,0-.11.06-.19.06a.34.34,0,0,1,.29-.46C68.47,105.17,68.38,105.24,68.36,105.39Zm2.07,1.13c0-.07,0-.09.13-.08s0,.12,0,.21A.22.22,0,0,1,70.42,106.52Zm1.69-8.68s0,0-.08,0a.18.18,0,0,1,0-.12C72.12,97.73,72.14,97.75,72.12,97.84Zm.17-7.19c.13,0,.32,0,.29.19A.27.27,0,0,1,72.28,90.65Zm.42-.84c0-.08.12-.1.17-.06S72.78,89.82,72.7,89.81ZM73,103.5s-.08-.08,0-.15.06.06.11.08S73,103.47,73,103.5Zm.52-15.13h-.11v.11l-.22-.11c.13-.15.13-.29.33-.11Zm.33-1a1.4,1.4,0,0,1,.54.11c.06.21,0,.09.11.22v.11l-.76-.22Zm.59,4c0-.1-.06-.15-.06-.25s0,0,0,0C74.57,91.11,74.57,91.46,74.4,91.44Zm.25,3.7h-.1v-.06a.13.13,0,0,1,.1,0Zm.56-9.07h0a.11.11,0,0,1,0-.17h0A.11.11,0,0,1,75.21,86.07Zm.31,8.28a.09.09,0,0,1,.08-.17s0,.06,0,.06A.11.11,0,0,1,75.53,94.35ZM75.75,87v-.11H76c.07-.26.11-.24.22-.43h.65l-.11.32-.65.11V87Zm.53,1.62a1.08,1.08,0,0,1-.43.11v-.22h.43Zm.65-.11h-.32c.1-.19.15-.17.22-.43h-.32l-.11.32h-.32v-.32c.12-.09,0,0,.11-.11h.43v-.11h.11V88H77A1.38,1.38,0,0,1,76.94,88.49Zm.24,4.75c0-.07.07-.07.1,0S77.23,93.24,77.18,93.24Z" fill="#823133"/><rect x="57.95" y="112.39" width="0.32" height="0.11" transform="translate(-28.43 20.08) rotate(-15.81)" fill="#905a58"/><path d="M75.11,84.59v.22h.32v.32c.12.09,0,0,.11.11l.22-.11c0-.35-.1-.32-.22-.54Z" fill="#905a58"/><polygon points="75.76 84.38 76.09 84.38 76.09 84.27 75.76 84.27 75.76 84.38" fill="#905a58"/><path d="M57.06,108c.07-.14,0,0,.09-.12l-.15-.19-.12,0c0,.1,0,.21,0,.31Z" fill="#905a58"/><path d="M73.93,84.26H74l.11.22h.33l.11-.43-.65.11Z" fill="#905a58"/><path d="M57.77,113l.09.31c.14.06,0,0,.13.08l.18-.17c-.14-.32-.18-.28-.36-.46l-.41.12.06.21Z" fill="#905a58"/><rect x="62.39" y="147.83" width="0.36" height="0.12" transform="translate(-54.08 37.54) rotate(-23.66)" fill="#823133"/><path d="M57.64,112.19c.09-.12,0,0,.08-.13l-.21.06.06.21C57.66,112.2,57.59,112.33,57.64,112.19Z" fill="#905a58"/><path d="M57.43,68.84h-.09a.35.35,0,0,0-.07.14l.24,0Z" fill="#905a58"/><path d="M57.79,111.92l-.06-.21-.8.23h0A3.1,3.1,0,0,0,57.79,111.92Z" fill="#905a58"/><path d="M63.29,148.17l-.1-.22c-.08.15,0,0-.06.16s0,0-.06.16Z" fill="#823133"/><path d="M62.89,147.16l0,0-.15-.33c-.17,0,0,0-.16-.06l-.17.21c.2.34.24.28.46.45h0a.4.4,0,0,1-.06-.22A.25.25,0,0,0,62.89,147.16Z" fill="#823133"/><path d="M63.44,148.41s0-.07,0-.1l-.44.11.1.22.18-.08A.56.56,0,0,1,63.44,148.41Z" fill="#823133"/><path d="M102.23,139.58l-.05-.09.14-.2-.16-.29-.43.12.41.51Z" fill="#823133"/><path d="M85.93,139a.64.64,0,0,0,.29-.09l.11-.06h-.25A1.22,1.22,0,0,1,85.93,139Z" fill="#823133"/><path d="M89.78,93.66c-.05.18,0,.08-.09.18h0l.13,0a2.86,2.86,0,0,0,.15-.39c0-.12.15-.29.12-.42s0-.32.12-.39,0-.25,0-.25l-.25-.1-.06,0c-.07.43-.14.86-.22,1.3C89.74,93.64,89.7,93.6,89.78,93.66Z" fill="#905a58"/><path d="M96.92,79.87a.64.64,0,0,0,.29-.09l.11-.06h-.25A1.26,1.26,0,0,1,96.92,79.87Z" fill="#905a58"/><path d="M101.56,139.15l.06.32a2,2,0,0,0,0-.3Z" fill="#823133"/><path d="M102.12,138.28,102,138l.28-.16c0-.15,0,0,0-.15l-.2-.14c-.28.21-.23.24-.36.45l.21.38Z" fill="#823133"/><path d="M104.77,121.15h0v0Z" fill="#905a58"/><path d="M97.17,77l.27.09c0,.29-.08.26-.18.45a9.35,9.35,0,0,0-.91-.28,1.71,1.71,0,0,0,.27,1,2.4,2.4,0,0,0,.36-.09l.09.09.09-.18a.13.13,0,0,1-.09-.18,1.86,1.86,0,0,0,.27-.27,1.75,1.75,0,0,1,.32,0c0-.25-.08-.48-.12-.72l-.38-.13Z" fill="#905a58"/><path d="M104.7,121.4s.06,0,.08.06,0-.2,0-.3C104.74,121.24,104.64,121.38,104.7,121.4Z" fill="#905a58"/><polygon points="102.97 125.97 103.3 125.97 103.3 125.86 102.97 125.86 102.97 125.97" fill="#905a58"/><path d="M102.32,126.18v.22h.32v.32c.12.09,0,0,.11.11l.22-.11c0-.35-.1-.32-.22-.54Z" fill="#905a58"/><path d="M102.44,125.43c-.22.06-.09,0-.22.11h.22Z" fill="#905a58"/><path d="M101.14,125.85h.11l.11.22h.33l.11-.43-.65.11Z" fill="#905a58"/><path d="M103,125.1h-.87a2.8,2.8,0,0,0,.87.22Z" fill="#905a58"/><path d="M98.64,101.31a.62.62,0,0,0,.21.2l.1.06-.12-.22Z" fill="#905a58"/><path d="M101.31,100l0-.21a.88.88,0,0,0,0,.21Z" fill="#905a58"/><path d="M109.7,151.28c-.18.06-.22-.21,0-.29,0-.13-.06-.22-.06-.36-.05,0-.11.11-.19,0s0-.15,0-.21-.26-.11-.27-.27.22-.37.23-.5a15.64,15.64,0,0,0-.36-2.4c-.1.16.15.42,0,.48a3,3,0,0,1-.34-.5c0-.1.13-.08.11-.21s-.27.08-.4.11a.2.2,0,0,1-.1-.17.19.19,0,0,1,.23-.06,1.54,1.54,0,0,1,.46-.25c-.09-.53-.13-1-.23-1.51-.44.07-.6-.62-.27-.82,0-.13.07-.16.1-.25a.91.91,0,0,1,0-.27c-.21,0-.15-.09-.23,0-.07,0,0-.1-.06-.11s-.08.13-.17.15-.18-.1-.29-.17,0,.11-.11.11-.19-.4-.44-.44c0,0,0-.16,0-.21s.11,0,.17,0c.06-.43-.4-.45-.67-.59,0-.1.13,0,.13-.15s-.25-.27,0-.33.07.12.17.13.4-.15.52.08c.07-.14.18-.24.25-.38s-.1-.11-.1-.21.34-.15.48-.25c-.44-2.52-.86-5.25-1.29-7.84-.2-.08-.05-.14,0-.23,0-.35-.21-.88-.21-1.27a2.18,2.18,0,0,0,0-.29c-.18-1.19-.41-2.58-.61-3.85-.15-.95-.31-1.92-.48-2.89a5.69,5.69,0,0,0-1.7.11,3.76,3.76,0,0,1-.11.76l.33.11.11.43-.22.11v.11h-.11c-.21-.23.12-.2-.32-.33,0,.46.05.56.43.65v.21h-.22v-.21h-.43c.08.34.14.4.54.43v.33a5.72,5.72,0,0,1-.76-.22c0-.35-.1-.32-.22-.54-.39,0-.44.14-.86,0v-.11l-.32-.11v.11h-.22V127l-.33.11a1.09,1.09,0,0,1-.11-.43,3.29,3.29,0,0,0-.76-.11v-.11c.17-.1.59,0,.76-.1v-.11c.12-.12,0,0,.11-.22l-.32-.11c.08-.29,0-.25.32-.32v-.32c.12-.09,0,0,.11-.11a3.06,3.06,0,0,1,.65.33c.08-.11.13-.11.22-.22s0,0,.11-.11-.13-.19,0-.23.33,0,.49-.08a.79.79,0,0,1,.62,0c.12.09.21.26.37.1s.26-.06.4-.1a1.22,1.22,0,0,1,.63-.05c.23.06.31,0,.27-.13s.36.08.36.08l.17.06c-.18-1-.36-2.08-.51-3.06a.57.57,0,0,1-.58-.29s0-.08,0-.12-.08-.13-.06-.21.17-.15.27-.23.2.07.24.16c-.07-.81-.27-1.47-.35-2.33-.14,0-.13.13-.25.15,0-.11-.06-.1-.06-.19a.34.34,0,0,1-.5-.19c.11-.07.12-.25.19-.35s-.16-.19-.25-.15-.2.29-.27.15.07-.21.1-.31a3.68,3.68,0,0,0-.31-.21v-.09l.29-.06c-.06-.15,0-.21,0-.31s.07.1.17,0,0-.17,0-.25a4.3,4.3,0,0,0,.52-.21c-.06-.29-.11-.59-.14-.9-.37,0-.38-.26-.67-.29a.34.34,0,0,1,.1-.4.2.2,0,0,1,.09-.21,1.1,1.1,0,0,0,.35,0,.22.22,0,0,1,0-.25c-.21-.05-.12-.38-.06-.46-.14-.59-.21-1.26-.33-1.88-.1,0-.13-.12-.21-.17s-.11.09-.14.06,0-.25,0-.38c.12,0,.2-.19.31-.15-.29-1.32-.4-2.7-.69-4,0,.44-.51.06-.69,0,.05-.22,0-.33-.08-.5s.12-.36.27-.44.07.19.15.25.17,0,.17.06-.12.24,0,.4c.08,0,.19,0,.23.11a5.48,5.48,0,0,0-.08-.65.14.14,0,0,1-.11-.21c-.12-.1-.32-.19-.35-.33s.06-.12.06-.23-.06,0,0-.09.21-.2.25-.31a3.89,3.89,0,0,1-.17-1l-.5-3a.33.33,0,0,0-.22-.05,1,1,0,0,1-.1-.36.62.62,0,0,1,.26.13l-.27-1.59-.06,0c0,.09,0,.19.05.28a.83.83,0,0,1-.48.06,9.25,9.25,0,0,0-.2-.93,1.72,1.72,0,0,0-.75.72,2.69,2.69,0,0,0,.26.27l0,.12h.2s0-.15.12-.17a1.87,1.87,0,0,0,.37.11c.31.6.1.64.09,1.09a4.75,4.75,0,0,0-.93.2l.26.48-.08,0,0,.08c-.14.17-.24,0-.32,0s-.13.25-.35.3a6.42,6.42,0,0,0-.69.07c-.23-.41-.22-.53.09-.78.18.18.12.17.37.11-.27-.37-.55-.28-.8-.7l0-.12-.28.05-.38-.31-.32.18.18-.34.39.2.41,0a1.71,1.71,0,0,0,.1.17,1.18,1.18,0,0,0,.17-.39l.28-.05a4,4,0,0,0,.32.76c-.06.12,0,0,0,.13-.18,0-.06,0-.2,0h0l.09.09a2.67,2.67,0,0,0,.41-.06c.12,0,.33,0,.42-.1s.26-.2.4-.08.23-.1.23-.1l0-.26-.23-.15.26-.09.07-.18-.41.12-.14.36-.38-.32s.66,0,0-.5.34-.89.61-.93.23-.1.23-.1l.29.82.11-.15s-.24-.48-.06-.25,0-.71,0-.71h.13c-.29-1.71-.57-3.4-.84-5a1.4,1.4,0,0,0-.15-.63,6.54,6.54,0,0,0-.19-1.53c-.31,0-.53,0-.61-.25a1,1,0,0,0,.08-.44c-.09,0-.3,0-.29-.12s.18-.2.21-.36c-.12-.19-.56-.09-.54-.38s.65.1.79,0a12.25,12.25,0,0,0-.25-2.32c-.54-.11-1-.36-1-1-.13,0-.13-.07-.21,0s0,.12,0,.1,0-.15-.12-.13c0-.23-.26-.2-.33-.37s.22-.06.31-.11c-.06-.15,0-.21,0-.31.08.08.14,0,.25,0,0,.14.18.08.23.15s-.07,0-.06.06a.57.57,0,0,1,.36.17,3.31,3.31,0,0,1,.21-.29c-.19,0-.29-.17-.25-.44-.13-.13-.29-.19-.33-.38-.09-.4.21-.65.29-.92a.7.7,0,0,0-.29-.31.86.86,0,0,1,0-.29.3.3,0,0,1-.23-.23c-.26,0-.58-.14-.5-.4s.47-.06.61-.23c-.2-.2.1-.44,0-.71s-.41-.2-.46-.46.33.07.46-.06S98,81.75,98,81.6s.21,0,.27-.08a2,2,0,0,1-.07-.33h-.09v-.27h.06l0-.23a.25.25,0,0,1-.17-.06,1.44,1.44,0,0,1,0-.18c-.2,0-.27-.16-.32-.43.25-.07.21,0,.27-.27-.45.06-.51.35-1,.36L96.88,80l-.09.27-.46.18v.36l-.21-.32.37-.24.17-.37h.2a1.19,1.19,0,0,0-.26-.34l.09-.27a4,4,0,0,0,.82.09c.08.11,0,0,.09.09-.05.18,0,.08-.09.18h0l.13,0a2.76,2.76,0,0,0,.15-.39c0-.09.07-.19.1-.3-.05-.28-.1-.55-.15-.82l-.17.08,0-.27-.12-.15-.1.42.25.3-.47.17s.29-.59-.44-.25-.61-.74-.52-1,0-.25,0-.25l.86.15L97,77.16s-.54,0-.25-.07-.61-.37-.61-.37.2-.29.12-.42a1.47,1.47,0,0,1-.12-.34v-.32l.18-.1h.09v-.09h.09v.09h.09v.09h-.27v.45h.36v.09h.09v.18h-.27l-.09.27c.3.07.35.21.64.28v-.82c.1-.08,0,0,.09-.09l.22,0c-.13-.78-.26-1.54-.37-2.29,0,.08-.07,0-.15,0s0-.14-.06-.19a.57.57,0,0,1-.27.11c-.1,0-.16-.31,0-.36-.15,0,0-.13,0-.21-.21-.25-.09-.78.31-.77-.09-.47-.13-1-.25-1.42,0,.09-.11,0-.15,0a.18.18,0,0,1-.25.08.28.28,0,0,1,.4-.29c0-.17-.24-.16-.23-.38s-.27-.11-.31-.25.23,0,.29-.13,0-.08,0-.15c-.2,0-.24-.4-.5-.44a.26.26,0,0,1,.25-.38c0-.07,0-.17,0-.21s.1.05.17,0c-.05-.38-.12-.74-.19-1.11,0,.11-.2.08-.25,0s0-.15,0-.21c-.43,0,0-.27,0-.4s-.44-.11-.46-.44c0,0,0-.09.13-.08a.44.44,0,0,1,.09.25c.13,0,.15-.15.31-.13a.39.39,0,0,0-.17-.33c-.21.11-.37-.1-.46-.21s-.05,0-.08,0c0,.16.12.27.06.4s-.17-.08-.27-.1.11,0,.11-.1-.17.12-.21,0,.15-.12.19,0c0-.09-.08,0-.06-.1s.1-.08.15-.17.27,0,.25-.12-.11,0-.08-.12a.18.18,0,0,1,.17-.11c.08,0,0,.2,0,.25s.14,0,.25,0c-.11-.62-.2-1.25-.31-1.86-.29,0-.38-.16-.56-.25-.42,2.58-.84,5.08-1.32,7.63.37,0,.42.73-.1.63-.07.77-.29,1.48-.4,2.32.15.06,0,.31.13.4,0-.1,0-.21.06-.25a.32.32,0,0,1-.12.56c-.08,0-.14-.18-.17-.08a.48.48,0,0,0,.19.67.19.19,0,0,1-.12.25c-.09,0-.13-.1-.19-.15a1.54,1.54,0,0,0-.08.42.25.25,0,0,1,.13.33c-.1,0-.07-.06-.19,0s-.07.29-.08.46.18-.06.17.06-.07,0-.12,0,.1.09.06.21-.19,0-.17.1.4,0,.5.06c-.07.15,0,.29-.15.4s-.15,0-.21,0c.26.23-.07.55-.31.52-.11.28,0,.38,0,.65a.28.28,0,0,1-.19.12c-.26,1.42-.49,2.89-.75,4.41-.18,1-.31,2-.5,2.8-.08.37-.16.61.14.73.07,0,0-.09.13-.06s.11.3-.11.23c0,.08-.13.21,0,.23s.12-.12.25-.11.11.35.19.54-.06.06-.11.08-.11-.07-.17-.1c-.08.17-.27-.09-.34.1s.15,0,.17.13,0,.09,0,.19c-.43.09-.43.6-.36,1.09a.69.69,0,0,0-.42.67,1.08,1.08,0,0,1,.18.34.67.67,0,0,1,.1.25.07.07,0,0,1,.08,0s0,0,0,0h0l-.09.55h-.15c.06,0,.12,0,.12.12s-.32,0-.48,0l-.1.61c.2.08.26.23.52.38a4.94,4.94,0,0,0-.28.91h.54v.09h.09c.08.21-.14.19-.18.27s.16.24.09.46a6.26,6.26,0,0,0-.27.63c-.47,0-.57-.07-.63-.46.25-.07.21,0,.27-.27a1.2,1.2,0,0,0-.52.21c-.3,1.72-.61,3.47-.9,5.13.19.36.61.44.54,1-.07.09-.2.13-.29.21,0,.27-.22.32-.33.48a.9.9,0,0,1,.06.54c-.12-.09-.19-.07-.38,0,0,.23-.13.5-.06.67a.33.33,0,0,0,.25,0c0,.07.1.11.08.23a.6.6,0,0,0-.42.31c0,.08.09.12.08.23a.13.13,0,0,1-.19,0c-.09.47-.18,1-.25,1.44.16.06.33.1.4.25s0,.12,0,.21c.16,0,.26.14.33.27-.12.07-.25.13-.27.29s.11,0,.1.06-.16.07-.27.09,0-.05,0-.1-.12,0-.21,0,0,.1,0,.11-.07-.11-.17-.11c-.13.87-.29,1.7-.44,2.55.19.14.12.32,0,.48s.34.13.5.21c.11.23-.16.31-.15.48s.28.24.13.42c-.14,0-.14-.1-.25-.1s-.3.17-.54.1c0,0-.06.16,0,.19a1.19,1.19,0,0,1,.61.46c0,.13-.09.09-.17.17s-.08.22-.21.19c0-.22-.21-.39-.34-.27.08.07.16.38.31.38-.13.22-.13.57-.46.58-.53,2.55-.88,5.41-1.42,7.92,0,.06.06,0,0,.11s0,.49.21.52c0-.09.05-.09.13-.08s.06.06.08.11a.2.2,0,0,1-.08.08c-.1,0-.11,0-.15-.08s-.07.21-.1.31-.12-.14-.27-.12a7.21,7.21,0,0,1-.17,1c.11,0,.21-.06.29,0a.31.31,0,0,1-.06.23c-.08-.1-.31-.12-.27.1.06,0,.18-.07.23,0s-.12.22-.29.21c-.11.9-.3,1.86-.44,2.59.2.2,1,.88.19.9-.16.21-.06.55-.19.79,0,.09.13.05.11.17s-.34.26-.38.52a.18.18,0,0,0-.12,0c-.07.3-.1.64-.19.92a.24.24,0,0,1,.21.21,1.4,1.4,0,0,0-.08.23c.22.22,0,.44-.21.52a.32.32,0,0,1-.14.33c-.32,2.17-.77,4.41-1.15,6.63,0,0,.09,0,.17,0s0,.29.11.46.14.16.15.27-.14.26-.19.44.32,0,.36.11a1.94,1.94,0,0,1-.09.33c-.27.13-.26.54-.54.67-.09,0-.13,0-.23,0s-.14.19-.17.38c-.08.55-.29,1.26-.33,1.82.14,0,.34,0,.31.21a.4.4,0,0,1-.36-.09c0,.09,0,.2,0,.29.27.09.3.53.13.73-.1,0-.21-.15-.23-.06s0,.07,0,.1.27.05.23.25a.3.3,0,0,1-.27,0c0,.12-.05.2-.06.31a.1.1,0,0,1,.08.1c-.12,0-.14.11-.15.34.16,0,.21.08.25.19a.27.27,0,0,1-.27-.06.93.93,0,0,0-.06.44c.16.11.36.17.46.33-.06.1-.3,0-.42.08s.16.17.19.31-.3,0-.38.11c-.08.43-.16.88-.23,1.32a4.89,4.89,0,0,0,.57.17c0,.21.11.35,0,.44,0,0-.12,0-.17,0s-.14-.19-.27-.11.09.19.11.29-.28.08-.27-.08c-.15,0-.12.29-.17.44a.52.52,0,0,1,.31.19c0-.09,0-.13.08-.14.19.17-.19.23-.21.4-.11,0-.26.1-.27,0-.15.82-.29,1.66-.42,2.49a7.44,7.44,0,0,0-.25,1.74c.13.08.14-.13.25-.13s0,.34,0,.5c-.12.06-.16.21-.27.29s0-.13-.14-.12c-.07.23-.09.51-.15.75h6.34c.18-1.13.34-2.26.52-3.3,0,0-.05-.07,0-.15a.39.39,0,0,0,.1-.25c-.39-.06-.12-.47-.29-.73,0,0-.11,0-.14,0s-.13-.26-.11-.42.52-.42.77-.4l.06-.38c-.24,0-.3-.17-.44-.21s-.35.08-.4-.15.23-.4.25-.75c-.36-.07,0-.61.21-.56s.06.16.17.25c.48,0-.06-.51.25-.63.11.07.09.27.25.29.14-1,.28-1.95.48-2.91-.1-.16-.46-.34-.5-.48-.12-.45.33-.66.69-.67l.06-.42a.8.8,0,0,0-.41.34h-.18v-.27h.18l.09-.27h.27v.09l.06,0c.65-4.28,1.36-8.51,2.08-12.9-.12-.18-.33,0-.48-.19.08-.09,0-.27.11-.31s.12,0,.21.06,0-.2.13-.21.06.19.13.25a1.61,1.61,0,0,1,.06-.42c-.17,0-.26,0-.38,0v-.1c.13-.07.28-.12.31-.29s-.21,0-.23-.1c.15-.2.21-.51.46-.61.2-1.24.43-2.45.59-3.72-.19,0-.11.14-.23.17s-.3-.12-.33-.29c.13,0,.19-.14.29-.15s.1.08.19,0-.05,0,0,.06a.49.49,0,0,1,.17,0c.78-5.25,1.66-10.34,2.49-15.61-.3-.16-.28-.82.17-.79.18-1.17.37-2.34.54-3.51a.48.48,0,0,1-.11-.15c0,.06-.07.09-.1.06a.72.72,0,0,1-.12-.46.39.39,0,0,1,.44-.17c.23-1.47.47-3,.71-4.37-.06,0-.14-.07-.15-.17s.12-.07.19-.11c.1-.71.19-1.19.33-1.86.37,2.36.69,4.76,1,7.19.05.06.14.08.17.17s-.19.15-.08.25c.28-.15.54.16.52.44,0,.08-.07.15-.08.23s0,.42,0,.61-.19.13-.25.23c.06.42.16,1.07.21,1.5.07,0,.19.07.25.17.17.25,0,.51,0,.77,0,.11.15.19.17.25.06.26-.07.42-.25.42a2.41,2.41,0,0,0,.06.33c.14,0,.18-.17.29-.1s-.19.25-.27.27a3.18,3.18,0,0,1,0,.35.19.19,0,0,1,.23,0c-.09.21-.09.34.08.42,0,.1-.12.09-.13.19a5.86,5.86,0,0,0,.13,1.61c.42,2.82.83,5.57,1.21,8.32,0,.05.08,0,.06.08s-.06,0,0,.12c.22,1.52.54,3.54.77,5.6.18.08.49.24.36.5,0-.09,0-.17-.12-.19s0,0-.08,0a1.46,1.46,0,0,0,0,.65c.15,1.21.36,2.41.5,3.53a.41.41,0,0,1,.1.77c.12.71.24,1.42.29,2.11.11.18.58.26.58.5s-.18.26-.34.33a2.47,2.47,0,0,0,0,.61.66.66,0,0,1,.36.25c.44,0,.5.55.06.61,0,.23-.1.29-.23.36.12,1,.28,2.09.44,3.15l.12-.11.2.14.1-.05.05.09c-.1.29-.23,0-.12.44.39-.23.46-.32.36-.7l.19-.1.11.19-.19.11.21.38c.26-.24.28-.32.11-.68l.28-.16a5.83,5.83,0,0,1,.18.77c-.28.21-.23.24-.37.45.21.33.34.31.42.75l-.1.05.06.34.09-.05.11.19.1-.05.25.23a1.1,1.1,0,0,1-.32.3,3.26,3.26,0,0,0,.27.71l-.09.05c-.17-.1-.26-.52-.46-.61l-.09.05c-.17,0,0,0-.24,0l.06.34c-.3.07-.23.1-.44-.12l-.28.16c-.12-.05,0,0-.11,0,.15.91.31,2,.39,2.76.12-.07.13.08.27,0,.18.1.12.27.14.46s.15.21.17.33-.11.05-.19.13,0,.06,0,.08-.21.11-.23.21.15.47.11.79c.38,0,.68.12.63.56.1.09.18.2.38.15.05.12.13.22.19.33a1.5,1.5,0,0,1-.5.06.21.21,0,0,0,0,.31c-.05.08-.15.08-.23.08a1,1,0,0,1,0,.29.32.32,0,0,1-.17,0c0,.33.1.63.13,1a.37.37,0,0,1,.15.36c-.17.31.1.68.06,1,0,.08.15.05.15.15-.18.17-.06.41,0,.73s.11.88.17,1.19c0,.06.09,0,.1.1s-.09,0-.08.06c0,.27.09.51.11.79h2.19a21.69,21.69,0,0,0,2.2,0c.1,0,.18-.06.27-.06s.13.05.21.06.47,0,.67,0-.05-.06,0-.06.09,0,.13,0c0,.12.23.06.27,0s-.06-.08-.08-.12c.15,0,.16.07.21.14s.27,0,.33,0S109.73,151.47,109.7,151.28Zm-5.22-30.55v.13a.1.1,0,0,1-.06-.12Zm-4.81-19.94,0,.08-.08,0,0,.08c-.14,0,0,0-.17-.11Zm-1.42.06.09.16-.16.09-.09-.16ZM97,78.72h.09v.09h.09c-.1.1,0,0-.18.09ZM96.34,80h.18v.18h-.18ZM96,68.32c-.07.07-.16,0-.23,0C95.7,68.11,96.09,68.1,96,68.32Zm-14.7,78c0,.11,0,.14-.08.19a.3.3,0,0,1-.21-.19A.25.25,0,0,1,81.34,146.34Zm-.48.17c0,.09-.05.1-.13.11s0-.05,0-.11S80.81,146.5,80.86,146.51Zm-.19,1.76c-.05,0,0-.1,0-.12s.07,0,.06.08S80.67,148.24,80.67,148.26Zm.52-.23c-.26.05-.84-.33-.52-.67a2.34,2.34,0,0,1-.12-.67c.15-.06.42-.06.5.06s-.13.07-.17.15a.17.17,0,0,0-.23,0c.06.14.27.14.33.27.1-.08.26.07.29,0s0,.18.13.21a.3.3,0,0,0,.13.31C81.4,147.76,81.37,148,81.19,148Zm4.33-27.85s0,.1,0,.15-.12-.06-.15,0,0,0,0-.1S85.45,120.27,85.52,120.19Zm-.33.75c0-.06.05-.19.15-.15S85.2,120.86,85.18,120.94ZM85,122.72c0-.15.11-.14.15-.06S85.11,122.73,85,122.72Zm2.5,15.82c0,.12.16.23.09.46a6.45,6.45,0,0,0-.28.63c-.47,0-.57-.07-.63-.46.25-.07.21,0,.27-.27-.45.06-.52.35-1,.36l-.09-.09-.09.27-.46.18V140l-.21-.32.37-.24.17-.37h.2a1.17,1.17,0,0,0-.26-.34l.09-.27a4,4,0,0,0,.82.09c.08.11,0,0,.09.09-.05.18,0,.08-.09.18h0l.13,0a2.64,2.64,0,0,0,.15-.39c0-.12.15-.29.12-.42s0-.32.12-.39,0-.25,0-.25l-.25-.1-.25.12,0-.27-.12-.15-.1.42.25.29-.47.17s.29-.59-.44-.25-.61-.74-.52-1,0-.25,0-.25l.86.15-.07-.17s-.54,0-.25-.07-.61-.37-.61-.37.2-.29.12-.42a1.47,1.47,0,0,1-.12-.34v-.32l.18-.1h.09v-.09h.09v.09h.09v.09h-.27v.45h.36v.09h.09v.18h-.27l-.09.27c.3.07.35.21.63.28v-.82c.1-.08,0,0,.09-.09l.55-.09v.09c.51,0,.65,0,.73.46h.09c0,.18-.06.36-.09.55H87v-.09h-.27v.09l-.54-.18v.18l.27.09c0,.29-.08.26-.19.45a9.24,9.24,0,0,0-.91-.28,1.71,1.71,0,0,0,.27,1,2.47,2.47,0,0,0,.36-.09l.09.09.09-.18a.13.13,0,0,1-.09-.18,1.91,1.91,0,0,0,.27-.27c.67,0,.61.22,1,.46a4.84,4.84,0,0,0-.28.91h.54v.09h.09C87.8,138.48,87.57,138.46,87.53,138.54Zm-2.18.81v-.18h.18v.18Zm.82-1.36c-.1.1,0,0-.18.09v-.18h.09V138Zm1.64-1.08a1,1,0,0,1-.36-.09.69.69,0,0,1,.27-.18v-.27h-.09v-.18h.09c.09.16.13.14.18.36s0,0,.09.18A.35.35,0,0,0,87.81,136.91Zm.37-1.64c-.38,0-.29-.13-.54-.27v-.18a.8.8,0,0,1,.18.18h.36v.09c.1.08,0,0,.09.09C88.17,135.26,88.26,135.17,88.18,135.27ZM90.8,89.85A.85.85,0,0,1,91,90h.36v.09c.1.08,0,0,.09.09-.1.08,0,0-.09.09-.38,0-.29-.13-.54-.28Zm.62,3.73h-.18c.06-.18,0-.08.09-.18v.09C91.43,93.57,91.34,93.48,91.42,93.58Zm-.81-1.73a.69.69,0,0,1,.27-.18V91.4h-.09v-.18h.09c.09.16.13.14.18.36s0,0,.09.18a.35.35,0,0,0-.18.18A1,1,0,0,1,90.61,91.85Zm-.11,3.54h-.18v-.27h.18l.09-.27h.27v.09c.1.08,0,0,.09.09A.85.85,0,0,0,90.5,95.39Zm.39,12.94s0-.06,0-.06C90.88,107.89,91.27,108.26,90.89,108.33Zm.42-11.76c-.1.1,0,0-.18.09v-.09c-.18-.06-.08,0-.18-.09l.45-.09C91.35,96.58,91.42,96.47,91.31,96.58Zm.28-.36h-.36l.18-.36c.18.06.08,0,.18.09s0,0,.09.18C91.58,96.2,91.66,96.11,91.59,96.21Zm-.36-2v-.27h.27V94c.18.06.08,0,.18.09A1.06,1.06,0,0,1,91.23,94.21ZM92,90.4H91.7v-.09l.36-.18Zm.13-8.85c-.26.05-.15-.33,0-.17C92.12,81.45,92.13,81.53,92.1,81.56Zm.11-1c0-.12.07-.15.19-.15S92.31,80.6,92.2,80.55Zm.46,5.54c-.15,0-.2-.3.06-.27A.15.15,0,0,1,92.67,86.09ZM93,76.94a.13.13,0,0,1,.1,0C93.1,77,92.94,77,93,76.94Zm.1-.19c-.05-.25.26-.29.23,0C93.22,76.82,93.14,76.75,93.06,76.75Zm.61-3.47a.17.17,0,0,1-.06-.31C93.87,72.86,93.9,73.29,93.67,73.28Zm.6-2.09a.19.19,0,0,1-.23-.13c0-.15.27-.07.25.06S94.28,71.16,94.27,71.19Zm.42-4.41c-.05,0-.08-.05-.11-.08s.08,0,.13,0S94.68,66.72,94.69,66.78Zm.08-.58c0-.05.06-.19,0-.13,0-.12.11-.06.17,0s0,.1,0,.17S94.84,66.18,94.78,66.19Zm2.15,17.91c.05,0-.07-.06,0-.11s.24,0,.38,0,.15.12.23.13,0,.08-.06.06a1.46,1.46,0,0,0,.27.08c0,.11.13.14.17.23s-.26.13-.27.31.09,0,.1,0c0,.2-.27.09-.4.11s0-.07,0-.11A.35.35,0,0,1,97,85s0-.05,0-.11c-.19,0-.21-.08-.23.06-.06,0-.07,0,0-.11h-.1s-.06-.1,0-.12-.26-.13-.34-.25.22-.08.31-.12-.06-.16,0-.21-.1-.05,0-.11.14,0,.25,0S96.84,84.12,96.93,84.11ZM95.22,67c0-.12-.21,0-.29-.08s.07-.16.19-.15,0,.12,0,.15.17,0,.33,0C95.61,67.23,95,67.41,95.22,67Zm.73,16.16h-.1c-.07-.13-.11-.3-.29-.31a.35.35,0,0,0-.08-.23s.08,0,.17,0,.15.3.35.31V83c.06,0,0-.11,0-.1S95.95,83,95.95,83.12Zm.15.17a.13.13,0,0,0,0-.08c.14,0,.27-.17.44-.1s0,.2,0,.27,0-.09.1-.06.09.06.11.12a.1.1,0,0,0-.06.06c-.08,0-.11-.06-.15-.1s0,.11-.1.13A.63.63,0,0,1,96.09,83.29Zm1,2.53s.09,0,.11,0-.06.09-.11.13-.08,0-.17,0,0-.05,0-.1c-.19,0-.21-.08-.23.06-.06,0-.07,0,0-.11h-.1s-.06-.1,0-.12-.26-.13-.34-.25.22-.08.31-.13-.06-.16,0-.21-.1-.05,0-.1.14,0,.25,0c0,.12.15.11.23.13s0,.08-.06.06a.67.67,0,0,1,.44.31C97.32,85.61,97.15,85.64,97.14,85.82Zm.4,18.64c-.14,0,0,0-.17-.12l.08,0c0-.18,0-.06,0-.2l.3.35C97.56,104.49,97.68,104.5,97.54,104.46Zm.69-.07c0,.14,0,0-.11.17-.12-.05,0,0-.12,0l-.17-.32.4,0C98.26,104.37,98.27,104.25,98.23,104.39Zm.52-1.12c0,.13,0,0,0,.12a.85.85,0,0,0-.54-.22l-.09-.16.24-.13.09.16.29-.05.13.24Zm1.57-.35-.08,0c0,.13,0,0,0,.12l-.09-.16C100.31,102.89,100.18,102.88,100.32,102.92Zm-.63,12c-.1,0-.1-.1-.06-.15a.14.14,0,0,1,.1,0C99.73,114.89,99.72,114.94,99.69,115Zm-.12-11.72.24-.13.13.24-.08,0c0,.19.05.06,0,.2A1.07,1.07,0,0,1,99.57,103.24Zm.31,17.58c.05,0,.18,0,.17.06S99.86,120.92,99.88,120.81Zm.17,1c0-.09.07-.14.14-.1A.09.09,0,0,1,100,121.77Zm.64,8.19h-.11v.11l-.22-.11c.13-.15.13-.29.33-.11Zm1-.54-.76-.22L101,129a1.4,1.4,0,0,1,.54.11c.06.21,0,.09.11.22Zm3.18,6a1.09,1.09,0,0,1,.31.32l-.19.11-.21-.38ZM103,128.46h.22c.07-.26.12-.24.22-.43H104l-.11.32-.65.11v.11H103Zm.1,1.62h.43v.11a1.08,1.08,0,0,1-.43.11Zm-.43,2.8c.11,0,.12.1.08.17A.1.1,0,0,1,102.64,132.87Zm1,3.83-.11-.19a1.27,1.27,0,0,1-.48,0l-.32-.57.33-.06.41.51.1-.05.16.28Zm.12-7.05-.11.32h-.32v-.32c.12-.09,0,0,.11-.11h.43v-.11h.11v.11h.32a1.31,1.31,0,0,1-.11.54h-.32c.1-.19.16-.17.22-.43Zm.76,6.19c-.14-.06,0,0-.15,0l-.21-.38-.09.05-.05-.09.09-.05-.16-.28a1.34,1.34,0,0,1,.52-.17l.16.28c-.22,0-.22-.05-.48,0l.16.28.34-.06.16.28Zm.54,2.3a1.43,1.43,0,0,1-.17-.53c.16-.16.09,0,.14-.2l.1-.05.18.77Zm.21-11.29c-.11,0-.09-.16-.06-.23h.06a.3.3,0,0,1,0,.21S105.23,126.84,105.23,126.85Zm.71,11.15.1-.05.05.09.09-.05v.24C106,138.2,105.88,138.27,105.93,138Zm.36,5.24c-.1,0-.22-.11-.19-.19S106.43,143.14,106.29,143.25Zm.36.21c-.09-.06-.11-.11-.27-.08,0-.06,0-.15,0-.25s.32-.26.4,0c.05,0,.06-.08.15-.06s-.08.12,0,.15A.71.71,0,0,1,106.65,143.45Zm.25-.48a.13.13,0,0,1,0-.25A.18.18,0,0,1,106.9,143Zm1.67,8.68c0-.07-.09-.18-.17-.15,0-.15.2-.13.31-.08s0,.13-.08.15.05,0,.08,0S108.65,151.62,108.57,151.65Zm.06,0s.13,0,.13.06S108.62,151.8,108.63,151.69Zm.13-.08a.15.15,0,0,1,.14-.08s0-.08,0-.11a.08.08,0,0,1-.1,0c0-.05.08-.05.1,0s0-.06,0-.11.14.13.15.25S108.86,151.69,108.76,151.61Zm.39.17a0,0,0,1,1,.09,0Zm.36-.21c-.06,0-.12,0-.15,0s.1,0,.15-.06Z" fill="#823133"/><path d="M102.76,125.54c.12-.09,0,0,.11-.11h-.22v.22C102.77,125.55,102.67,125.66,102.76,125.54Z" fill="#905a58"/><path d="M97,73.38c-.07,0-.16.08-.1.12s.11,0,.13,0S97,73.41,97,73.38Z" fill="#905a58"/><path d="M96,83v-.1c-.21,0-.27-.18-.35-.31s-.12,0-.17,0a.35.35,0,0,1,.08.23c.19,0,.22.18.29.31h.1c0-.08.21-.16.09-.23S96,83,96,83Z" fill="#905a58"/><path d="M81.27,147.14c0,.09-.19-.06-.29,0-.07-.13-.27-.13-.33-.27a.17.17,0,0,1,.23,0c0-.07.14-.07.17-.15s-.36-.12-.5-.06a2.34,2.34,0,0,0,.13.67c-.32.34.26.72.52.67s.21-.27.33-.38a.3.3,0,0,1-.12-.31C81.27,147.32,81.28,147.18,81.27,147.14Zm-.33.17c.13,0,.17.16.31.23C81.15,147.89,80.61,147.31,80.94,147.3Z" fill="#823133"/><path d="M96.55,84c-.05.05,0,.07,0,.11s-.06.13,0,.21-.29,0-.31.13.26.13.34.25,0,.09,0,.13h.1c0,.06,0,.08,0,.11,0-.15,0-.08.23-.06,0,.05,0,.06,0,.11a.35.35,0,0,0,.36-.11s0,.06,0,.11.35.09.4-.11c0,0-.1,0-.1,0s.18-.21.27-.31-.14-.12-.17-.23a1.46,1.46,0,0,1-.27-.08c.05,0,.08,0,.06-.06s-.19,0-.23-.12-.28,0-.38,0,.05.09,0,.11-.1-.06-.12-.11S96.64,84.09,96.55,84Z" fill="#905a58"/><path d="M97,85.19c.05,0,.08,0,.06-.06s-.21,0-.23-.12c-.11,0-.17.08-.25,0s0,.07,0,.1-.06.13,0,.21-.29,0-.31.13.26.13.34.25,0,.09,0,.12h.1c0,.06,0,.08,0,.11,0-.15,0-.08.23-.06,0,.05,0,.06,0,.1s.09,0,.17,0,.1-.06.11-.12-.1,0-.11,0,.18-.21.27-.31A.67.67,0,0,0,97,85.19Z" fill="#905a58"/><path d="M59,125.08c.05,0,.07,0,.06-.06s-.21,0-.23-.13c-.11,0-.17.08-.25,0s0,.08,0,.11a.22.22,0,0,1-.29-.11c-.11,0-.17.08-.25,0s0,.08,0,.11-.06.13,0,.21-.29,0-.31.13c.15.15.37.16.36.44-.23,0-.28.19-.21.38s.29.1.29.29c.1,0,.09.11.19.13s0-.09,0-.1a.12.12,0,0,0,.15,0v.1c.12,0,.09,0,.21,0s0-.46.25-.46c0-.13-.07-.28,0-.33s0,0,.08,0,.1-.06.1-.13-.1,0-.1,0,.18-.21.27-.31A.68.68,0,0,0,59,125.08Z" fill="#905a58"/><path d="M58.72,127.71c.05,0,.08,0,.06-.06s-.21,0-.23-.13c-.11,0-.17.08-.25,0s0,.08,0,.11-.06.13,0,.21-.3,0-.31.13.26.13.33.25,0,.09,0,.13h.1c0,.06,0,.08,0,.1,0-.15,0-.07.23-.06,0,.05,0,.06,0,.1s.09,0,.17,0,.1-.06.1-.13-.1,0-.1,0,.18-.21.27-.31A.68.68,0,0,0,58.72,127.71Z" fill="#905a58"/><path d="M31,105.24c.06.11.13.29,0,.41s0,.24,0,.24l.26,0,.2-.18a1,1,0,0,1,0-.19l-.11-.08.1-.07a.21.21,0,0,0,0,0c-.1,0-.12.07-.17,0s0-.12,0-.19c-.18-.16,0-.46-.15-.65-.09,0,0,.18-.06.21a.12.12,0,0,0-.08,0s0,0,0,.07S30.94,105.13,31,105.24Zm.21.28s0,.07,0,.13S31.19,105.53,31.21,105.51Z" fill="none"/><path d="M31.52,106l.12.08,0-.08v-.15s-.11,0-.17-.05Z" fill="none"/><path d="M34.09,109.67l-.08.07-.09.08.19-.05A.32.32,0,0,0,34.09,109.67Z" fill="none"/><path d="M25.46,83.38a2.61,2.61,0,0,0,.37-.08l.06.06c0-.08,0-.15,0-.23a.12.12,0,0,1,0-.1h0c0-.13,0-.26.06-.39a4.24,4.24,0,0,0-.78-.26A1.72,1.72,0,0,0,25.46,83.38Z" fill="none"/><path d="M26,82.12l0,0,0-.17-.07,0Z" fill="none"/><path d="M37.61,131a.63.63,0,0,0,.29-.07l.11-.05-.25,0A1.31,1.31,0,0,1,37.61,131Z" fill="none"/><path d="M38.57,128.19,38,128v.18l.27.11c-.06.29-.1.26-.21.44a9.23,9.23,0,0,0-.89-.33,1.72,1.72,0,0,0,.21,1,2.64,2.64,0,0,0,.37-.07l.09.1.1-.18s-.15-.05-.08-.19a1.87,1.87,0,0,0,.29-.25,1.28,1.28,0,0,1,.48.11c0-.27,0-.54,0-.81h0Z" fill="none"/><path d="M33.58,110.87c.06.11.13.29,0,.41s0,.24,0,.24l.26,0,.2-.18,0,.27.16.11v-.12c-.06-.14-.12-.28-.18-.42l-.15-.1.07-.05c-.13-.28-.27-.54-.41-.8a1.23,1.23,0,0,0,0,.18C33.6,110.56,33.53,110.76,33.58,110.87Z" fill="none"/><path d="M35.39,113.09s0,.06.08.07l0-.09Z" fill="none"/><path d="M40.25,70.88c-.06.14,0,0,0,.15l.19-.11-.11-.19C40.23,70.87,40.27,70.73,40.25,70.88Z" fill="none"/><path d="M45.89,126a.59.59,0,0,1,0-.28C45.73,125.77,45.68,126,45.89,126Z" fill="none"/><path d="M46.24,126.34l0-.18h-.26c0,.06,0,.12,0,.17Z" fill="none"/><path d="M39.92,70.32l.37-.22-.11-.19-.28.17-.17-.28c-.15,0,0,0-.15,0l-.13.21C39.67,70.25,39.7,70.19,39.92,70.32Z" fill="none"/><rect x="39.57" y="70.7" width="0.33" height="0.11" transform="translate(-30.71 30.48) rotate(-30.93)" fill="none"/><path d="M46,125.66a9.35,9.35,0,0,0,.95,0,1.71,1.71,0,0,0-.53-.89A2.85,2.85,0,0,0,46,125l-.11-.06,0,.2s.16,0,.13.15l-.12.2c0,.1,0,.2,0,.31Z" fill="none"/><path d="M40.29,71.36l.74-.44a2.77,2.77,0,0,0-.86.26Z" fill="none"/><path d="M41.53,69.86l-.05-.09-.09.06-.21-.13-.28.17.13.43Z" fill="none"/><path d="M40.71,70.6l-.19.11.06.09C40.74,70.64,40.67,70.77,40.71,70.6Z" fill="none"/><path d="M42.52,64.9a.46.46,0,0,0,0-.19.38.38,0,0,0-.59.17c.06,0,.1.12.19.15S42.4,64.95,42.52,64.9Z" fill="#905a58"/><path d="M39.26,65.4c0-.07,0-.07-.1-.06A.07.07,0,0,0,39.26,65.4Z" fill="#905a58"/><path d="M36.87,65.86c-.13,0-.22.06-.29.15C36.69,66.19,37,66.08,36.87,65.86Z" fill="#905a58"/><path d="M32.09,69.52c0-.07.06,0,0-.1a.29.29,0,0,0-.19,0v.06A.12.12,0,0,1,32.09,69.52Z" fill="#905a58"/><path d="M32.92,69.81c-.07,0-.06-.14-.15-.17C32.5,69.75,32.86,70.16,32.92,69.81Z" fill="#905a58"/><path d="M31.17,71.27s.07-.05.06-.12,0,0,0,0a.55.55,0,0,0-.21,0C31,71.19,31.06,71.26,31.17,71.27Z" fill="#905a58"/><path d="M33.68,71.8c-.11-.12-.43-.05-.42.15S33.66,72,33.68,71.8Z" fill="#905a58"/><path d="M32.88,73.43a.08.08,0,0,0-.08-.13A.11.11,0,0,0,32.88,73.43Z" fill="#905a58"/><path d="M33.24,73.63a.13.13,0,0,0,0,.1.12.12,0,0,0,.08,0C33.3,73.67,33.27,73.65,33.24,73.63Z" fill="#905a58"/><path d="M27.64,78c-.06,0-.09-.06-.19,0s-.08.11-.06.23.07,0,.08.08A.24.24,0,0,0,27.64,78Z" fill="#905a58"/><path d="M27.64,78.42a.18.18,0,0,0-.13,0v.06C27.59,78.51,27.66,78.51,27.64,78.42Z" fill="#905a58"/><path d="M32.38,79.53a.1.1,0,0,0-.12,0c0,.07,0,.1.08.1S32.4,79.6,32.38,79.53Z" fill="#905a58"/><path d="M31.54,82.43c-.08-.05-.18.05-.12.13S31.51,82.49,31.54,82.43Z" fill="#905a58"/><path d="M32.36,83c0-.05,0-.06,0-.1h-.08a.18.18,0,0,0,0,.13c.05,0,0,0,.11,0S32.34,83,32.36,83Z" fill="#905a58"/><path d="M26,86.51c.11.07.22-.08.15-.19S26,86.39,26,86.51Z" fill="#905a58"/><path d="M29.91,87.16c.08.07.11.2.27.19s-.09-.14-.08-.25a.52.52,0,0,0,.21,0c0-.15-.06-.19-.08-.29s-.3,0-.29.13.08.08.06.17-.14,0-.25,0S29.85,87.19,29.91,87.16Z" fill="#905a58"/><path d="M30.75,87.68a.16.16,0,0,0-.15-.17C30.59,87.63,30.64,87.69,30.75,87.68Z" fill="#905a58"/><path d="M29.66,88c0,.18.35.33.56.23C30.3,87.81,29.64,87.62,29.66,88Z" fill="#905a58"/><path d="M33.07,90.82a.7.7,0,0,0,.08-.25c-.19,0-.21.12-.27.23S33,90.81,33.07,90.82Z" fill="#905a58"/><path d="M32.82,90.82c0-.07,0-.17-.17-.15S32.73,90.81,32.82,90.82Z" fill="#905a58"/><path d="M31.27,91.15c0,.18.11.21.21.27s.33,0,.52-.08a.74.74,0,0,0-.06-.48C31.75,91,31.47,91,31.27,91.15Z" fill="#905a58"/><path d="M33,91c.08,0,.11.07.19.08s.09,0,.08-.12S33,90.89,33,91Z" fill="#905a58"/><path d="M31.31,91.76a1.39,1.39,0,0,1,0-.31c-.14,0-.29.17-.52.15.08.13,0,.2-.06.29a.24.24,0,0,0,.38-.13A.3.3,0,0,0,31.31,91.76Z" fill="#905a58"/><path d="M31.21,92.09c.16,0,.21-.18.13-.27S31.16,92,31.21,92.09Z" fill="#905a58"/><path d="M31.4,92.39c0,.12,0,.24.1.25S31.52,92.38,31.4,92.39Z" fill="#905a58"/><path d="M31.52,92.68c0,.13,0,.24.15.23A.17.17,0,0,0,31.52,92.68Z" fill="#905a58"/><path d="M32.36,93.6s0-.09-.06-.08S32.29,93.62,32.36,93.6Z" fill="#905a58"/><path d="M27.09,95v-.06s-.08,0-.08,0S27,95,27.09,95Z" fill="#905a58"/><path d="M34,95.35c-.22-.32-.51.3-.08.25C34,95.53,34,95.48,34,95.35Z" fill="#905a58"/><path d="M34.16,98.36c.09.15.25,0,.38.06C34.41,98.36,34.22,98.08,34.16,98.36Z" fill="#905a58"/><path d="M34.18,99.18c0-.05-.06-.08-.06-.15a1.34,1.34,0,0,0-.25.06.4.4,0,0,0,.31.33c.05-.05-.05-.19,0-.23s0,.1.15.08S34.28,99.11,34.18,99.18Z" fill="#905a58"/><path d="M34.35,99.64c.07,0,.09,0,.13,0a.15.15,0,0,0-.08-.15S34.29,99.57,34.35,99.64Z" fill="#905a58"/><path d="M32.07,103.18a.1.1,0,0,0-.1-.06.18.18,0,0,0,0,.13H32l.05,0Z" fill="#905a58"/><path d="M30.25,103.32a.21.21,0,0,0,.29.23A.25.25,0,0,0,30.25,103.32Z" fill="#905a58"/><path d="M37,103.69c.06,0,.06-.1.15-.09s-.15-.15-.19-.27C36.74,103.34,36.89,103.69,37,103.69Z" fill="#905a58"/><path d="M31.11,103.73a.46.46,0,0,0,0,.19c.07,0,.07-.05.15,0S31.21,103.72,31.11,103.73Z" fill="#905a58"/><path d="M39.17,104.53c-.08,0-.11,0-.1.12s0,.06.1,0S39.22,104.58,39.17,104.53Z" fill="#905a58"/><path d="M38.76,105.05a.11.11,0,0,0,.15.12C38.88,105.11,38.81,105,38.76,105.05Z" fill="#905a58"/><path d="M31.92,105.49a.27.27,0,0,0-.18-.3C31.74,105.25,31.7,105.55,31.92,105.49Z" fill="#905a58"/><path d="M31.44,105.28l.09.06.21-.15A.21.21,0,0,0,31.44,105.28Z" fill="#905a58"/><path d="M39.22,105.47a.15.15,0,0,0,.17,0C39.47,105.35,39.18,105.22,39.22,105.47Z" fill="#905a58"/><path d="M39.93,106.85c.08.07.23.14.31,0s0-.09,0-.19S40,106.78,39.93,106.85Z" fill="#905a58"/><path d="M34.49,110.61l0,.08-.09,0,0-.09h0a.15.15,0,0,0,0,.19C34.56,110.92,34.61,110.67,34.49,110.61Z" fill="#905a58"/><path d="M43,113a.33.33,0,0,0-.4-.33c0-.09-.08-.08-.06-.19C42,112.59,42.74,113.25,43,113Z" fill="#905a58"/><path d="M36.12,114.42c-.07,0,0,.07-.08,0s0-.11,0-.23-.26,0-.23.11a1.86,1.86,0,0,0,.23.13s0,0,0,0,0,0,0,0a.1.1,0,0,0,0,.13c.12,0,.1-.07.19-.06S36.11,114.47,36.12,114.42Z" fill="#905a58"/><path d="M36.14,116l.27.06c.08-.23-.18-.2-.25-.25S36.11,115.91,36.14,116Z" fill="#905a58"/><path d="M44.48,117.13c-.05,0-.09,0-.08.06S44.49,117.19,44.48,117.13Z" fill="#905a58"/><path d="M43.75,117.43s0,0,0,.08,0,.06.08,0S43.84,117.43,43.75,117.43Z" fill="#905a58"/><path d="M43.69,118.26c.06-.07,0-.11,0-.19a.17.17,0,0,0-.17.06C43.58,118.18,43.58,118.27,43.69,118.26Z" fill="#905a58"/><path d="M40,119.64c0-.16-.26-.2-.31-.06A.16.16,0,0,0,40,119.64Z" fill="#905a58"/><path d="M45.32,122.67c0-.06,0-.08,0-.12C45,122.41,45.12,122.86,45.32,122.67Z" fill="#905a58"/><path d="M39.42,140.1a.2.2,0,0,0,.21,0C39.68,140,39.38,139.91,39.42,140.1Z" fill="#823133"/><path d="M38.92,141.44a.2.2,0,0,0,.36-.17A.23.23,0,0,0,38.92,141.44Z" fill="#823133"/><path d="M36.54,141.89c.06,0,.06,0,.13,0s0-.11,0-.25C36.47,141.58,36.5,141.81,36.54,141.89Z" fill="#823133"/><path d="M41.2,141.9c-.09,0-.14.06-.1.13A.09.09,0,0,0,41.2,141.9Z" fill="#823133"/><path d="M38.15,146.45a.49.49,0,0,0,0-.29C37.91,146.13,38,146.45,38.15,146.45Z" fill="#823133"/><path d="M35.12,148.18c-.19-.05-.36.07-.36.19s.18.13.31.21.33.29.44,0C35.39,148.54,35.28,148.22,35.12,148.18Z" fill="#823133"/><path d="M31.34,149.58s0-.1,0-.15h-.08s0,.11,0,.15Z" fill="#823133"/><path d="M31.31,149.77c-.09,0-.08.07-.17.06-.16-.16-.32.09-.37.23.27,0,.35.2.46.36a.55.55,0,0,0,.27-.06c0-.15.14-.24.06-.46C31.48,149.85,31.43,149.78,31.31,149.77Z" fill="#823133"/><path d="M32,150.21s.12,0,.1-.08-.24,0-.36.06c.1.17.18.48.42.44,0-.13-.12-.1-.17-.17S32.06,150.26,32,150.21Z" fill="#823133"/><path d="M34.25,111.32l-.17-.11c.06.13.12.28.18.42Z" fill="#905a58"/><path d="M35.51,111.93A1.72,1.72,0,0,0,35,111a2.79,2.79,0,0,0-.33.18l-.11-.06,0,.2s.16,0,.13.15a1.82,1.82,0,0,0-.19.34l-.09,0,.13.31a2.56,2.56,0,0,1,.07-.27A9.4,9.4,0,0,0,35.51,111.93Z" fill="#905a58"/><path d="M33.59,109.79a.21.21,0,0,0-.18.09l0,0Z" fill="#905a58"/><path d="M38.62,130.94v.14l0-.15Z" fill="#905a58"/><path d="M38.81,129.62c.18-.06,0-.24,0-.24l-.2-.1c0,.26,0,.52,0,.78,0,0,0,0,0-.05S38.64,129.68,38.81,129.62Z" fill="#905a58"/><path d="M34.79,112.4h-.21l.07.16.06,0h.13Z" fill="#905a58"/><path d="M38.67,127.19l0,0v0Z" fill="#905a58"/><path d="M34.16,109.75a1.17,1.17,0,0,1,.09-.18l-.16.09a.32.32,0,0,1,0,.1Z" fill="#905a58"/><path d="M25.91,83.39l.09-.18a.17.17,0,0,1-.09-.08c0,.08,0,.15,0,.23Z" fill="#905a58"/><path d="M33,106.93a.89.89,0,0,1-.23,0h0c0,.06-.05.15,0,.27a.26.26,0,0,0,0,.09l.22-.06C33,107.12,33,107,33,106.93Z" fill="#905a58"/><path d="M45.78,123.38v-.1l-.07,0Z" fill="#905a58"/><path d="M45.11,127l-.09,0L45,126.5l.44-.12,0,.09.26-.07,0-.09h.27c0-.06,0-.12,0-.17h0s0-.07,0-.1c-.21,0-.16-.28,0-.28h0c0-.1,0-.2,0-.31a.65.65,0,0,0-.07.14c-.66.17-.64-.05-1.08-.17a4.81,4.81,0,0,0,0-.95l-.52.14,0-.09-.09,0c-.13-.18.08-.22.1-.31s-.22-.18-.21-.42a6.41,6.41,0,0,0,.09-.69c.45-.13.56-.09.73.27-.22.13-.19.08-.19.33.42-.18.4-.47.87-.62l.11.06v-.12a.27.27,0,0,1-.09-.12c0-.1.12-.12.17-.19a.29.29,0,0,0-.13-.23s.08,0,.08-.1a23.83,23.83,0,0,0-.52-2.7,5.34,5.34,0,0,0-.15-1c-.45,0-.54-.31-.75-.52,0,.07-.23.06-.21-.06s.23-.09.36-.13,0-.16,0-.25.1-.09.21-.08a.81.81,0,0,1,0,.56c.07,0,.08.07.15.08a.18.18,0,0,1,.13-.08.38.38,0,0,0-.13-.34c0-.06.06,0,0-.1-.14-.49-.26-1-.4-1.51-.12-.09-.16-.25-.27-.35s.13,0,.13-.1c-.2-.7-.44-1.34-.67-2-.19,0-.47-.23-.36-.46-.06,0-.18-.1-.15-.17a.27.27,0,0,1,.27,0c-.11-.33-.24-.63-.35-1-.18-.11-.38-.12-.5-.31.06-.12-.08-.43.19-.42-.5-1.36-1.2-2.55-1.73-3.76-.44,0-.58-.34-.25-.52a2.37,2.37,0,0,1-.25-.48s-.13,0-.17,0a.93.93,0,0,0-.25-.69c-.05.11-.22,0-.21-.1s.13,0,.15-.06c-.2-.3-.36-.63-.54-.94a.17.17,0,0,1-.12,0,1.86,1.86,0,0,1-.15-.17c.07,0,.06,0,.17,0-.56-1.16-1.23-2.23-1.76-3.43a.55.55,0,0,1-.21-.17.12.12,0,0,1-.13.06s-.06-.06-.06-.13.16,0,.19-.1a.64.64,0,0,1-.48-.25,1.33,1.33,0,0,1-.44-.36c0-.06.08-.07.06-.17-.48-.11,0-.32,0-.48s-.15.08-.29,0,0,.15-.13.17c-.34-.31-.34-1-.33-1.63.08-.09.16-.16.1-.29-.21,0-.26-.23-.44-.29s-.26.06-.31-.06a1.09,1.09,0,0,1,.27-.33c0-.34-.3-.46-.56-.56,0-.08,0-.1,0-.15s-.53-.14-.57-.44a1,1,0,0,1,.29-.21c.05,0,0,.14,0,.23a.35.35,0,0,1,.36,0c.16-.09.09-.35.1-.44-.15,0-.27,0-.38,0,.12-.2-.1-.57.13-.75-.15-.5-.4-1-.54-1.53a4.24,4.24,0,0,0-.23-.67,2.57,2.57,0,0,1-.23-.69c-.08-.58-.28-1.12-.4-1.69-.09,0-.09.11-.19.11s-.19-.06-.29-.06-.07,0-.06-.08.09-.11.1-.19-.15-.25-.27-.33-.11.23-.15.36a1.08,1.08,0,0,0,.27.15.39.39,0,0,1-.13.33c-.19,0-.44,0-.56-.15a.18.18,0,0,1-.27-.19c0-.22.43-.25.42-.59a1.54,1.54,0,0,0-.29-.61c0-.07.12-.12.11-.25s-.18,0-.21-.1,0-.25,0-.35.18-.18.25-.29-.11,0-.19,0-.06-.09-.12-.11.13.26-.06.31a3.13,3.13,0,0,1-.54-.36c.09-.21.39-.19.54-.33s.08,0,.15,0c-.09-.17-.18-.33,0-.5-.08,0-.1-.07-.12-.13s.28-.13.42-.06c.29-.19.45.11.65.13a5.43,5.43,0,0,1-.1-1.09c-.16,0-.28-.38-.48-.52s-.52-.21-.21-.37c.07.07.08.2.17.25s.08-.15.08-.27c-.45-.17.09-.59.38-.44,0-.29,0-.37-.1-.52a5.4,5.4,0,0,0,.1-1.32,22.13,22.13,0,0,1,1.53-6.48c-.15-.14-.3-.27-.46-.4.13-.23.48-.25.54-.54a.41.41,0,0,1,.31.08c0-.12.1-.14.1-.25s-.07.07-.15.06a1,1,0,0,1-.19-.13c.07,0,.09-.08.13-.13s-.06-.13-.1-.23-.1-.08-.11-.15a.27.27,0,0,1,.13-.29c.09,0,.1,0,.17,0a.08.08,0,0,1,.08-.08v-.19c.16-.14.17-.44.33-.58a.06.06,0,0,1,0-.06.75.75,0,0,1,.86-.35,23.41,23.41,0,0,1,2.54-3.59l-.08-.13a1.43,1.43,0,0,1,.26-.09c.63-.65,1.27-1.37,1.94-2h.06A15.65,15.65,0,0,1,43.77,65c.57-.31,1.52-.57,1.27-1.42-.09,0-.11.05-.21,0s-.14-.14-.17-.25c-.23-.16-.53.12-.67,0,0,.06,0,.12-.08.11s-.16-.2-.21-.33a4.84,4.84,0,0,0-1.3.14c.09,0,0,.13,0,.15a.38.38,0,0,0-.21,0c0,.1-.08.2-.19.23a.74.74,0,0,1-.42-.19,5.08,5.08,0,0,0-.77.25c.21.38-.52.52-.63.19-.58.23-1.17.44-1.71.71.09.19.49.36.48.57s-.25.17-.33.31c-.15-.1-.14-.34-.29-.44s-.35,0-.48-.15a1.13,1.13,0,0,1-.36.17c-.23.16-.62.35-.88.5-.08,0-.27.09-.14.21,0-.06,0-.12.06-.11a.13.13,0,0,1,.13.11.16.16,0,0,1-.21,0,.11.11,0,0,1-.08.13.61.61,0,0,1-.25-.08c-.37.27-.67.48-1.07.73a2.35,2.35,0,0,0-.1.94c-.14,0-.29.15-.42.12s0-.19-.12-.19-.12.34-.29.44c0,.08.11.08.11.19-.19.25-.49,0-.69-.08,0-.06,0-.14,0-.15-.26.24-.54.43-.77.67-.06.06-.09.14-.15.19-.25.24-.86.68-.94,1s0,.37-.13.5a1.3,1.3,0,0,0-.21.13c-.11,0-.25,0-.29,0a7.59,7.59,0,0,0-.77,1c.15.14.27.74,0,.73-.16,0-.14-.2-.31-.1.1.08,0,.3.08.42-.2.21-.51.31-.61.63.05.09.22.07.23.21a.61.61,0,0,1-.31.25c0,.2,0,.28-.06.48a.49.49,0,0,0-.38.31c0,.07.07.07.06.15s-.08.07-.1.13.11.38.27.46a.26.26,0,0,1-.31.15c0,.1.21.07.19.23.1,0,.24.06.25.23a1.12,1.12,0,0,1-.88-.38c-.06.08-.17.11-.21.21s0,.25.1.33h.27a3.27,3.27,0,0,0,.27.27c.14-.07.18.07.33,0,0,.14.18.08.23.15s-.07,0-.06.06a.51.51,0,0,1,.44.31c-.12.07-.25.13-.27.29s.12,0,.11.06-.16.07-.27.08,0-.05,0-.1-.13-.07-.21,0,0,.12,0,.1,0-.15-.12-.12c0-.42-.47,0-.52.23s.22.06.23.21c0,.34-.51.18-.63.25a.58.58,0,0,1-.12-.12s.07-.07.06-.15a.4.4,0,0,1-.42-.11c.1.16,0,.29-.19.34a3.42,3.42,0,0,0-.08.44c0-.06.18,0,.15.06s-.31.22-.29.38c0-.08,0-.18.13-.21.25.07.13.35.19.54-.12.12-.26.21-.38.33a.4.4,0,0,1,0-.21c.06,0,.14,0,.17,0s-.15-.15-.19-.27c-.26.87-.49,1.73-.68,2.62l.32,0v.09c.51,0,.65.05.71.47h.09c0,.18-.07.36-.1.55h-.45V82h-.27v.09L26.1,82l0,.17.23.08c0,.29-.09.26-.19.45l-.12,0c0,.13,0,.25-.06.39a1.68,1.68,0,0,0,.27-.26c.68,0,.6.24,1,.48a4.77,4.77,0,0,0-.29.9h.54v.09h.09c.08.21-.14.19-.19.27s.16.24.08.46a6.57,6.57,0,0,0-.29.63c-.47,0-.57-.08-.62-.47.25-.06.21,0,.28-.26-.45,0-.52.33-1,.34a.07.07,0,0,1,0,.05.72.72,0,0,0,.06.71s-.14,0-.19,0c0,.19-.05.49.06.58l-.08.1a29.4,29.4,0,0,0,.44,5.06,1.07,1.07,0,0,0,.21.57c.09.05,0-.06.15,0s.09.13.21.13-.08-.31,0-.44c.13.08.29.19.27.33s-.38.23-.52.4,0,.14-.08.21c.23.87.42,1.78.69,2.7.06,0,.12-.09.21,0s0,0,0,.11-.15.08-.19,0c.06.23.13.44.21.65a4.3,4.3,0,0,0,.69,0c-.09-.12-.38,0-.56-.06s0-.12,0-.21a.12.12,0,0,1-.15-.08c0-.15.11-.21.21-.27s.13.32.08.4c.12.09.29,0,.42,0s.16.29.08.4c-.12-.12-.23.1-.36-.06a.2.2,0,0,1-.19.08c0,.06,0,.16.08.23,0-.09.21-.08.23,0s-.24.08-.38.1A33,33,0,0,0,29.08,101c0,.17.12.5.27.42s-.16,0-.15-.15.22-.07.27,0,0,.06,0,.13c.16.23.47.31.59.59-.22.06-.15.42-.27.58l.21.45.16,0,.07.26-.11,0,.2.42c.33-.08.45,0,.6.3-.22.13-.19.08-.19.33.42-.18.4-.47.87-.62l.11.06v-.29l.34-.25h-.08a.18.18,0,0,1,0-.13.1.1,0,0,1,.1.06l-.09-.31.29.25-.29.33-.07.4-.19.06a1.21,1.21,0,0,0,.34.26c0,.09,0,.19,0,.29a4,4,0,0,0-.81.13c-.1-.08,0,0-.11-.06s0-.07,0-.2h0l-.11.07s0,.21,0,.35a.12.12,0,0,1,.08,0c.06,0,0-.21.06-.21.12.18,0,.49.15.65,0,.07-.06.11,0,.19s.07-.05.17,0a.21.21,0,0,1,0,0l.08-.06-.09-.06a.21.21,0,0,1,.3-.09h0a.27.27,0,0,1,.18.3.86.86,0,0,0,.32-.2c.62-.53.79.54.76.81s0,.24,0,.24l-.87.09.12.15s.53-.12.26,0,.69.19.69.19-.11.34,0,.44a1.44,1.44,0,0,1,.21.3l.09.31-.15.14-.09,0,0,.09-.09,0,0-.09-.09,0,0-.09.26-.07-.12-.44-.35.1,0-.09h0c0,.2-.19.32-.14.53a.47.47,0,0,0,.35.31c.11,0,.16-.09.29,0,0,.31-.4,0-.63.12a2.4,2.4,0,0,0,.21.42c.07-.24.73-.23.84,0s-.18.17-.21.31a3.12,3.12,0,0,0,.37.32.89.89,0,0,1,.22-.11l.11.06c0-.1,0-.19,0-.29l.39-.29-.1-.35.29.25-.29.33-.06.4-.19.06a1.18,1.18,0,0,0,.34.26v.29a4,4,0,0,0-.81.13c-.1-.08,0,0-.11-.07s0-.07,0-.2h0l-.11.07s0,.12,0,.24.27.52.41.8l.33-.24s-.12.65.49.12.79.54.76.81,0,.24,0,.24l-.87.09.12.15s.53-.12.26,0,.69.19.69.19-.11.34,0,.43a1.44,1.44,0,0,1,.21.3l.09.31-.15.14-.09,0,0,.09-.09,0,0-.09-.09,0,0-.09.26-.07-.12-.44-.35.1s-.06,0-.08-.07h0v0l0,0c-.16.09-.07.3,0,.46s-.14.08-.08.15,0,0,.13,0,.08.14,0,.21-.11-.09-.15,0,.2,0,.27.13c0-.07.07-.05.15,0s.06.05,0,.13-.21,0-.35,0c.11.41.31.74.42,1.15.06,0,.05-.07.13-.06a.18.18,0,0,1,0,.25,51.27,51.27,0,0,1,2.3,8.28c.14,0,.19.1.21.23a.19.19,0,0,1-.15.11,19.79,19.79,0,0,1,.31,2.61c.06,0,.1-.07.17-.08.47-.06.39.49.21.67.3,0,.41.14.45.48h.09l-.13.54-.45,0v-.09h-.23c0,.27,0,.54,0,.81.19.1.24.24.49.41a4.94,4.94,0,0,0-.33.89l.54,0v.09h.09c.07.21-.15.18-.2.26s.14.25.06.46a6.44,6.44,0,0,0-.31.62,1,1,0,0,1-.39-.08c0,.67-.09,1.33-.17,2,.13.06.25,0,.38,0s.15.24.19.4-.11.13-.13.23c.52.3-.11,1-.67.73a29.1,29.1,0,0,1-.9,3.28c.11,0,.18,0,.19.11s-.18.07-.25,0-.11.24-.08.31c.2-.07.68-.09.75.1s-.21.16-.23.31.24.35.1.54-.29-.08-.4,0,0,.1,0,.19-.27.16-.33.31c-.27.06-.41.25-.69.29-.09.25-.24.43-.31.69.12,0,.22.1.33.14s0-.07.11-.06a.15.15,0,0,1,.08.13c0,.06-.08.07-.17.06s0-.1,0-.11,0,.12,0,.13-.16-.12-.27,0,0,.35.13.46c-.11,0,0,.08,0,.08s-.31-.13-.19-.29c-.09,0-.09-.06-.15-.08-.16.31-.36.57-.5.9.12,0,.32-.23.46,0s-.41.22-.56.15a21.09,21.09,0,0,1-1.3,1.88c.08,0,.08.05.08.12a.15.15,0,0,1-.23,0,28.41,28.41,0,0,1-2.51,2.76.64.64,0,0,1,.59.59c.82,0-.18,1-.17.29-.22-.15-.66.34-.71-.08,0-.09,0-.1,0-.21s-.22,0-.27-.12c-.57.47-1.07.89-1.7,1.32.06,0,.06.1.06.19s-.27.08-.31,0c-.27.23-.62.39-.9.61a.27.27,0,0,1,.23.17.49.49,0,0,1-.8.13c-.27.2-.63.3-.92.54a.73.73,0,0,0-.17,1c.49.5,1.88.31,2.55.15-.14-.07,0-.23-.1-.36a1.66,1.66,0,0,1,.33-.27c0-.08-.05-.12,0-.17.35-.05.31.26.29.46.08,0,0-.12.13-.1a.47.47,0,0,1,.13.15s-.06.06-.1.08-.08-.09-.15-.11,0,.13,0,.19A12.52,12.52,0,0,0,31.5,151c-.07,0-.09-.06-.08-.15s0,0,0,0,.14.09.23.11a2.53,2.53,0,0,0,.79-.42c0-.2-.27-.08-.31-.29s.21-.07.31-.11c-.06-.14,0-.21,0-.31.16.1.39-.07.63-.06s.44.12.58.25c.28-.22.66-.35.92-.59,0-.32-.48-.34-.46-.63,0-.11.17-.21.27-.21.31,0,.57.39.75.54a25.43,25.43,0,0,0,4.54-3.85,2.08,2.08,0,0,0,.52-.57c.07,0,.07-.07.13-.08.13-.25.41-.35.46-.67a.69.69,0,0,1-.27-.4.47.47,0,0,1,.56.15,8.24,8.24,0,0,0,.54-.79c-.21,0-.11.23-.29.21s-.48-.53-.12-.67c.12.1.12.32.31.35,0-.1.1-.07.1-.14s-.21-.13-.23-.31.25-.23.19-.42-.15-.09-.33-.15c0-.31-.55-.69.15-.62.07-.18.27-.31.36-.4s-.11,0-.1-.06c0-.23-.26-.2-.33-.38s.22-.06.31-.1c-.06-.15,0-.21,0-.31.09.08.15,0,.25,0,0,.14.18.08.23.15s-.07,0-.06.06a.51.51,0,0,1,.44.31c-.12.07-.25.13-.27.29s.12,0,.1.06-.16.08-.23.08,0,.17,0,.23a.16.16,0,0,0-.25-.08c0,.24,0,.3,0,.52a.93.93,0,0,0,.5.4,28.88,28.88,0,0,0,1.28-2.76c-.19-.06-.26.18-.29.36,0-.15-.17-.23-.21-.4s.08-.35.06-.56-.07-.24-.06-.33c0-.69.62-1.27,1.17-.82a25.86,25.86,0,0,0,.88-3c-.2-.08-.25-.32-.42-.44s-.24,0-.27-.1c0-.32.2-.45.27-.71a.88.88,0,0,1,.71-.12c0-.21.06-.41.1-.61-.3-.07-.45-.48-.4-.82s.35-.46.59-.56a25.15,25.15,0,0,0,.25-3.05.25.25,0,0,1,0-.42c0-.07,0-.15,0-.22l0-.07C45.44,127.43,45.29,127.41,45.11,127Zm.19-4.48s0,.06,0,.13C45.12,122.86,45,122.41,45.3,122.55Zm-.82-5.41c0,.05,0,.07-.08.06S44.43,117.13,44.48,117.13ZM42.54,64.71a.46.46,0,0,1,0,.19c-.12.05-.27.07-.38.13s-.13-.1-.19-.15A.38.38,0,0,1,42.54,64.71Zm-3.1,2.5c-.17-.15,0-.09-.2-.13L39.18,67l.76-.2c0,.08,0,.16,0,.24A1.45,1.45,0,0,1,39.44,67.21Zm.34-1.34.24,0c0,.2,0,.31-.22.26L39.74,66l.09-.06Zm-.52-.47a.07.07,0,0,1-.1-.06C39.21,65.33,39.27,65.33,39.26,65.4Zm-1,3.25-.05-.09.28-.17.06.09-.19.11a1.26,1.26,0,0,1,0,.48l-.56.33-.07-.33ZM37.53,67l.11.19-.37.22-.06-.09A1.09,1.09,0,0,1,37.53,67ZM37,68l.28-.17-.07-.33.28-.16.17.28c-.06.14,0,0,0,.15l-.37.22.06.09-.09.06-.06-.09-.28.17a1.35,1.35,0,0,1-.18-.52l.28-.17C37,67.76,36.95,67.76,37,68Zm-.15-2.16c.15.22-.19.33-.29.15C36.65,65.92,36.74,65.81,36.87,65.86Zm-4,7.57a.11.11,0,0,1-.08-.13A.08.08,0,0,1,32.88,73.43Zm.79-1.63c0,.17-.29.23-.42.15S33.57,71.68,33.68,71.8Zm-.44,1.84s.07,0,.06.08a.12.12,0,0,1-.08,0A.13.13,0,0,1,33.24,73.63Zm-.46-4c.08,0,.08.13.15.17C32.86,70.16,32.5,69.75,32.78,69.64Zm-.4,9.89c0,.07,0,.06,0,.1s-.09,0-.08-.1A.1.1,0,0,1,32.38,79.53Zm-.15,3.32h.08s0,.05,0,.1,0,0,0,0-.05,0-.11,0A.18.18,0,0,1,32.23,82.85Zm-.29-13.46a.29.29,0,0,1,.19,0c0,.06-.06,0,0,.1a.12.12,0,0,0-.15-.06Zm-.4,13c0,.05,0,.14-.12.13S31.47,82.38,31.54,82.43ZM26,86.51c0-.12,0-.2.15-.19S26.13,86.58,26,86.51ZM27.7,81h.36v.09c.1.08,0,0,.09.09-.1.08,0,0-.09.09-.38-.06-.29-.13-.54-.29v-.18A.88.88,0,0,1,27.7,81Zm.37,3.55h-.18c.06-.18,0-.08.09-.18v.09C28.08,84.52,28,84.43,28.06,84.53Zm-.55-6v-.06a.18.18,0,0,1,.13,0C27.66,78.51,27.59,78.51,27.51,78.5Zm-.12-.33c0-.12.09-.11.06-.23s.13,0,.19,0a.24.24,0,0,1-.17.27S27.4,78.21,27.38,78.17Zm-.1,4.62a.68.68,0,0,1,.28-.17v-.27h-.09v-.18h.09c.08.16.13.14.17.36s0,0,.08.19a.35.35,0,0,0-.18.18A1,1,0,0,1,27.29,82.79ZM27.09,95S27,95,27,95s0,0,.08,0Zm0-8.65h-.18V86h.18l.1-.27h.27v.09c.1.08,0,0,.09.09A.85.85,0,0,0,27.11,86.33Zm.79,1.2c-.11.1,0,0-.18.09v-.09c-.18-.06-.08,0-.18-.09l.46-.08C27.93,87.53,28,87.43,27.9,87.53Zm.28-.36h-.36L28,86.8c.18.06.08,0,.18.1s0,0,.09.18C28.17,87.16,28.26,87.07,28.18,87.17Zm-.31-2v-.27h.27V85c.18.06.08,0,.18.09A1.07,1.07,0,0,1,27.87,85.16Zm.82-3.79h-.27v-.09l.37-.17ZM31.21,71.1s0,0,0,0,0,.09-.06.13-.15-.08-.17-.19A.55.55,0,0,1,31.21,71.1Zm-.46,16.58c-.11,0-.16-.05-.15-.17A.16.16,0,0,1,30.75,87.68Zm0,2.65c0-.08-.06-.16,0-.21s-.1-.05,0-.11.14,0,.25,0c0,.12.15.11.23.12s0,.08-.06.06a.67.67,0,0,1,.44.31c-.09.11-.25.13-.27.31s.09,0,.1,0-.06.09-.1.12-.08,0-.17,0,0-.05,0-.11c-.19,0-.21-.08-.23.06-.05,0-.07,0,0-.1h-.11s-.06-.11,0-.12-.26-.13-.33-.25S30.63,90.39,30.73,90.34ZM30,87.08c0-.09-.07-.09-.06-.17s.17-.18.29-.13.11.14.08.29a.52.52,0,0,1-.21,0c0,.11.13.16.08.25s-.19-.12-.27-.19-.16.07-.17,0S29.91,87.17,30,87.08Zm-.33.9c0-.36.63-.16.56.23C30,88.3,29.68,88.15,29.66,88Zm.58,15.34a.25.25,0,0,1,.29.23A.21.21,0,0,1,30.25,103.32Zm.48-11.43c.06-.1.14-.17.06-.29.24,0,.38-.14.52-.15a1.39,1.39,0,0,0,0,.31.3.3,0,0,1-.21,0A.24.24,0,0,1,30.73,91.88Zm.35,12a.46.46,0,0,1,0-.19c.11,0,.14,0,.13.15S31.15,103.93,31.08,103.92Zm.13-11.83c-.05-.11,0-.3.13-.27S31.36,92.12,31.21,92.09Zm.19.29c.13,0,.18.18.1.25S31.37,92.5,31.4,92.39Zm.13.29a.17.17,0,0,1,.15.23C31.54,92.91,31.52,92.81,31.52,92.68ZM32,91.34c-.2.09-.36,0-.52.08s-.23-.09-.21-.27c.2-.12.48-.16.67-.29A.74.74,0,0,1,32,91.34Zm-.17,13.75,0-.09-.09,0c.07-.13,0,0,.15-.14l0,.18Zm.19-1.37,0-.18.17,0,0,.18ZM33.3,91c0,.08,0,.09-.08.13S33.1,91,33,91,33.27,90.86,33.3,91Zm-.15-.42a.7.7,0,0,1-.08.25c-.07,0-.15,0-.19,0S33,90.54,33.15,90.57Zm-.33.25c-.09,0-.18,0-.17-.15S32.85,90.75,32.82,90.82Zm-.46,2.78c-.07,0-.07,0-.06-.08S32.35,93.56,32.36,93.6Zm.82,1.63s.09,0,.1,0-.06.09-.1.13-.08,0-.17,0,0-.05,0-.11c-.19,0-.21-.08-.23.06-.05,0-.07,0,0-.11h-.1s-.06-.1,0-.12-.26-.13-.33-.25.22-.08.31-.12-.06-.16,0-.21-.1-.05,0-.11.14,0,.25,0c0,.12.15.11.23.13s0,.07-.06.06a.67.67,0,0,1,.44.31C33.36,95,33.19,95,33.18,95.23Zm.86.13c0,.13,0,.18-.08.25C33.53,95.65,33.81,95,34,95.35Zm.19,3.85c-.09,0,0,.17,0,.23a.4.4,0,0,1-.31-.33,1.34,1.34,0,0,1,.25-.06c0,.06,0,.09.06.15s.24,0,.19.1S34.26,99.23,34.22,99.2Zm.13.44c-.06-.07,0-.15,0-.19a.15.15,0,0,1,.08.15S34.42,99.65,34.35,99.64Zm-.19-1.27c.07-.29.25,0,.38.06C34.41,98.4,34.25,98.52,34.16,98.36Zm.19,12.46a.15.15,0,0,1,0-.19l-.07,0c.07-.13,0,0,.15-.14l0,.1C34.61,110.67,34.56,110.92,34.35,110.82Zm.27-1.47,0-.18.17,0,0,.18ZM36,114.46s0,0,0,0,0,0,0,0a1.86,1.86,0,0,1-.23-.12c0-.15.15-.18.23-.11s0,.11,0,.23,0-.07.08,0,0,0,0,.11-.06.06-.19.06A.1.1,0,0,1,36,114.46Zm.46,1.59-.27-.06c0-.07,0-.1,0-.19S36.5,115.82,36.41,116ZM37,103.69c-.13,0-.29-.36,0-.36,0,.12.13.18.19.27S37.08,103.68,37,103.69Zm1.73,1.36c.05,0,.13.06.15.12A.11.11,0,0,1,38.76,105.05Zm.31-.4c0-.08,0-.13.1-.12s0,.1,0,.17S39.13,104.64,39.07,104.65Zm.31.84a.15.15,0,0,1-.17,0C39.18,105.22,39.47,105.35,39.38,105.49Zm-8.13,43.94h.08s0,.11,0,.15h-.08S31.24,149.48,31.25,149.43Zm.25.92a.55.55,0,0,1-.27.06c-.11-.16-.19-.35-.46-.36.06-.13.22-.39.38-.23.08,0,.08-.08.17-.06s.17.08.25.13C31.64,150.11,31.46,150.21,31.5,150.35Zm.71.27c-.24,0-.32-.27-.42-.44.11,0,.27-.12.36-.06s-.07.05-.1.08,0,.2,0,.25S32.23,150.5,32.21,150.63Zm2.86-2.05c-.14-.08-.31-.08-.31-.21s.16-.24.36-.19.27.36.4.42C35.41,148.87,35.25,148.68,35.08,148.58Zm1.59-6.65c-.06,0-.06,0-.12,0s-.07-.31.15-.21C36.68,141.81,36.6,141.81,36.67,141.93Zm1.48,4.52c-.16,0-.24-.31,0-.29A.49.49,0,0,1,38.15,146.45ZM40,119.64a.16.16,0,0,1-.31-.06C39.77,119.45,40,119.48,40,119.64Zm-.46,7.25a.81.81,0,0,1,.17.19l.36,0v.09c.1.08,0,0,.08.1-.11.07,0,0-.1.09-.38-.07-.29-.15-.53-.31Zm.39,3.76h-.18c.07-.18,0-.08.1-.18v.09C40,130.64,39.89,130.54,40,130.65Zm-.7-1.77a.69.69,0,0,1,.28-.16l0-.27h-.09v-.18h.09c.08.17.12.15.16.37s0,0,.08.19a.35.35,0,0,0-.19.17A1,1,0,0,1,39.26,128.87Zm-.32,3.53h-.18l0-.27H39l.11-.27.27,0V132c.1.09,0,0,.08.1A.86.86,0,0,0,38.93,132.4Zm0,9a.23.23,0,0,1,.36-.17A.2.2,0,0,1,38.92,141.44Zm.5-1.34c0-.2.26-.14.21,0A.2.2,0,0,1,39.42,140.1Zm.25-6.47c-.11.09,0,0-.19.08v-.09c-.18-.07-.08,0-.17-.1l.46-.06C39.71,133.64,39.78,133.54,39.67,133.63Zm.3-.35-.36,0,.2-.35c.18.07.08,0,.18.11s0,0,.08.19S40.05,133.19,40,133.29Zm-.23-2,0-.27.27,0v.09c.18.07.08,0,.18.1A1.06,1.06,0,0,1,39.74,131.27Zm.5-24.38c-.08.1-.24,0-.31,0,.08-.07.17-.2.31-.15S40.2,106.82,40.24,106.89Zm1,35a.09.09,0,0,1-.1.13C41.06,142,41.11,141.91,41.2,141.9Zm-.76-14.41v-.09l.37-.16-.11.27Zm1,12s.09,0,.1,0-.06.09-.1.13-.08,0-.17,0,0-.05,0-.1c-.19,0-.21-.08-.23.06-.05,0-.07,0,0-.11h-.1s-.06-.11,0-.12-.26-.13-.34-.25.22-.07.31-.12-.06-.16,0-.21-.1-.05,0-.1.14,0,.25,0c0,.12.15.11.23.13s0,.08-.06.06a.68.68,0,0,1,.44.31C41.63,139.29,41.47,139.32,41.45,139.5Zm2.3-22.07c.09,0,.12.08.06.12s0,0-.08,0S43.76,117.47,43.75,117.43Zm-.06.65c0,.08.06.12,0,.19s-.11-.08-.17-.12A.17.17,0,0,1,43.69,118.07Zm-1.17-5.62c0,.1.07.1.06.19a.33.33,0,0,1,.4.33C42.74,113.25,42,112.59,42.52,112.45Zm.42,9.8c-.19,0-.07,0-.2,0s0,0-.14-.15c.08-.1,0,0,.06-.11l.35-.1Zm-.14-.52c0-.19,0-.07,0-.2s0,0,.15-.13l0,.09c.19,0,.07,0,.2,0Zm.57,2.39,0-.09c-.19,0-.07,0-.2,0a1.05,1.05,0,0,1,.41-.21l.07.26Zm.32.48,0-.09c-.12,0,0,0-.11-.06l.17,0C43.71,124.58,43.75,124.47,43.68,124.59Zm.05-1.52,0-.09c-.12,0,0,0-.11-.06a.85.85,0,0,0,.34-.47l.17,0,.07.26-.17,0c0,.1,0,.19,0,.29Zm.12,4.87v-.29l.26-.07,0,.09Zm.44-1.82a.36.36,0,0,0,.13-.22,1,1,0,0,1,.38,0,.68.68,0,0,1-.21.25l.07.26.09,0,0,.17-.09,0c-.13-.13-.16-.1-.27-.3S44.39,126.28,44.29,126.12Zm.63,1.62-.35.1,0-.09c-.12,0,0,0-.11-.06.08-.1,0,0,.06-.11.38-.06.32,0,.6.12l0,.17A.84.84,0,0,1,44.92,127.74Z" fill="#823133"/><path d="M45.64,123.33a.62.62,0,0,0-.24.16l-.09.08.24-.07A1.23,1.23,0,0,1,45.64,123.33Z" fill="#905a58"/><path d="M38.59,127.06c0-.12.2-.08.17-.25s-.14.07-.21,0c0,.1,0,.2,0,.3h.05Z" fill="#905a58"/><path d="M25.71,85.15l0,0,0,0Z" fill="#905a58"/><path d="M45.09,123.92c0-.19,0-.07,0-.2h0l-.11.07a2.76,2.76,0,0,0,0,.42c0,.12-.06.32,0,.43s.13.29,0,.41,0,.24,0,.24l.26,0,.2-.18,0,.27.16.11,0-.43-.32-.22.4-.29s-.07.36.15.32c0-.14,0-.29,0-.43h0l0-.09-.09,0c.07-.12,0,0,.14-.13l0-.41a3.34,3.34,0,0,0-.61.11C45.11,123.9,45.21,124,45.09,123.92Z" fill="#905a58"/><path d="M31.5,105.73v.07c.05,0,.13,0,.17.05v-.17l-.2-.14a1,1,0,0,0,0,.19Z" fill="#905a58"/><path d="M25.73,85A.64.64,0,0,0,26,84.9l.11-.06h-.25A1.31,1.31,0,0,1,25.73,85Z" fill="#905a58"/><path d="M32.93,106.29a1.71,1.71,0,0,0-.53-.89,2.79,2.79,0,0,0-.33.19l-.11-.06,0,.2s.16,0,.13.15a2.23,2.23,0,0,0-.18.31h0c.05,0,.08.06.12.09A7.83,7.83,0,0,0,32.93,106.29Z" fill="#905a58"/><path d="M31.66,103.94a.62.62,0,0,0-.24.16l-.09.09.24-.07A1.12,1.12,0,0,1,31.66,103.94Z" fill="#905a58"/><path d="M26.43,84.58c-.06.18,0,.08-.1.18h0l.13,0a2.79,2.79,0,0,0,.16-.39c0-.12.15-.29.13-.41s0-.32.13-.39,0-.25,0-.25l-.24-.1-.25.12.05-.27-.12-.15-.11.42.24.3-.47.16s.2-.39-.14-.34c0,.13,0,.27,0,.41h.07v.09H26c-.1.1,0,0-.17.08s0,.27,0,.41a3.27,3.27,0,0,0,.56.06C26.41,84.6,26.33,84.5,26.43,84.58Z" fill="#905a58"/><path d="M31.68,106.11V106l0,.08Z" fill="#905a58"/><path d="M35.59,112.56c-.31,0-.39-.1-.69-.09l.06.21a1.64,1.64,0,0,0,.42.22l.19-.05C35.58,112.75,35.59,112.66,35.59,112.56Z" fill="#905a58"/><path d="M31.46,69.89s-.06,0,0,.08,0,0,.06,0S31.51,69.9,31.46,69.89Z" fill="#905a58"/><path d="M34.53,74.6a1.84,1.84,0,0,1-.08.23c.05,0,.07,0,.11,0,0-.15.26-.13.29-.29S34.69,74.64,34.53,74.6Z" fill="#905a58"/><path d="M32.57,85.72h.13C32.76,85.45,32.48,85.54,32.57,85.72Z" fill="#905a58"/><path d="M31.84,87.77c0,.11-.08.14,0,.23s0-.16.13-.19a.32.32,0,0,0,.25,0C32.13,87.65,32,87.79,31.84,87.77Z" fill="#905a58"/><path d="M32.65,89.23a.22.22,0,0,0,0-.21h-.21C32.43,89.15,32.52,89.23,32.65,89.23Z" fill="#905a58"/><path d="M33,89.54c.08,0,.22,0,.27,0C33.29,89.12,32.68,89.25,33,89.54Z" fill="#905a58"/><path d="M35.31,96.5h.1c0-.06,0-.09,0-.15h-.06Z" fill="#905a58"/><path d="M36.27,99.56c.2-.18,0-.35-.17-.44C36,99.25,36.07,99.56,36.27,99.56Z" fill="#905a58"/><path d="M36.83,100.45c.09,0,.13-.15.27-.13,0-.06-.06-.17-.11-.23s-.05,0-.1,0,0,0,0-.08.07,0,.06-.1,0-.12-.1-.11-.18.38,0,.46C36.84,100.35,36.8,100.42,36.83,100.45Z" fill="#905a58"/><path d="M37.27,100.74c0-.05,0-.16-.06-.19a.33.33,0,0,1,0,.15C37.23,100.69,37.21,100.76,37.27,100.74Z" fill="#905a58"/><path d="M29.29,101.52c.06.13.08.41.25.35A1.18,1.18,0,0,0,29.29,101.52Z" fill="#905a58"/><path d="M31.21,105.51s0,.13,0,.13S31.25,105.53,31.21,105.51Z" fill="#905a58"/><path d="M31.92,106.69l-.12-.1c-.08.07,0,.27.13.31s0,0,.06,0a.22.22,0,0,0,0-.14h0S31.92,106.72,31.92,106.69Z" fill="#905a58"/><path d="M42.85,111.87c0-.06,0-.1,0-.15S42.82,111.83,42.85,111.87Z" fill="#905a58"/><path d="M44.88,133.79a.23.23,0,0,0,.23-.15C45,133.37,44.71,133.54,44.88,133.79Z" fill="#823133"/><path d="M37.06,138.87c0,.26-.21.53-.23.75.16,0,.23-.08.36-.1C37.24,139.28,37.27,138.95,37.06,138.87Z" fill="#823133"/><path d="M42,140.8c-.11,0-.16-.09-.23,0S42,140.92,42,140.8Z" fill="#823133"/><path d="M33.07,150c-.05,0-.06-.09-.12-.1,0,.26.27.24.31.06S33.15,150,33.07,150Z" fill="#823133"/><path d="M30.75,90.84h.11c0,.06,0,.08,0,.1,0-.15,0-.07.23-.06,0,.05,0,.06,0,.11s.08,0,.17,0,.1-.05.1-.12-.1,0-.1,0,.18-.21.27-.31a.67.67,0,0,0-.44-.31c.05,0,.07,0,.06-.06S31,90.14,31,90c-.11,0-.17.08-.25,0s0,.08,0,.11-.06.13,0,.21-.3,0-.31.13.26.13.33.25S30.76,90.8,30.75,90.84Z" fill="#905a58"/><path d="M33,94.6c.05,0,.08,0,.06-.06s-.21,0-.23-.13c-.11,0-.17.08-.25,0s0,.08,0,.11-.06.13,0,.21-.29,0-.31.12.26.13.33.25,0,.09,0,.13h.1c0,.06,0,.08,0,.11,0-.15,0-.08.23-.06,0,.05,0,.07,0,.11s.09,0,.17,0,.1-.06.1-.13-.1,0-.1,0,.18-.21.27-.31A.67.67,0,0,0,33,94.6Z" fill="#905a58"/><path d="M41.28,138.87c.05,0,.08,0,.06-.06s-.21,0-.23-.12c-.11,0-.17.08-.25,0s0,.07,0,.1-.06.13,0,.21-.29,0-.31.13.26.13.34.25,0,.09,0,.13H41c0,.06,0,.08,0,.11,0-.15,0-.08.23-.06,0,.05,0,.06,0,.1s.09,0,.17,0,.1-.06.1-.12-.1,0-.1,0,.18-.21.27-.31A.68.68,0,0,0,41.28,138.87Z" fill="#823133"/></g><path d="M33.47,32.07c.76-.89,1.14-1.21,1.66-1.21s.83.14.45.57c-.62.75-1.1,1.42-1.79,2.34S32,36.29,31,37.71v0c.76-.5,2.31-1.53,3.31-2.27a20.16,20.16,0,0,0,2.17-1.85c.17-.11.38-.32.45-.25s-.17.39-.28.5c-.52.5-1.38,1.24-2.17,1.88a36.27,36.27,0,0,1-3.8,2.52,76.65,76.65,0,0,1-4.73,6.36,28.87,28.87,0,0,1-7.11,6,5.77,5.77,0,0,1-2.38.75c-.86,0-1.79-.28-1.62-1.49.28-2.13,4.28-5.11,7-6.92,3.17-2.09,4.62-2.88,7-4.4.62-.89,1.62-2.38,2.18-3.23v0a7.05,7.05,0,0,1-3.62,1.88c-.76,0-1.52-.25-1.41-1.42.1-.85.79-2.1,2.48-3.37a7.61,7.61,0,0,1,4.24-1.49,1,1,0,0,1,.79,1.21Zm-5.07,7c-2,1.42-3.69,2.27-6.9,4.47-2.9,2-5.45,4.44-5.59,6.28,0,.53.17.85.52,1a3.1,3.1,0,0,0,2.17-.57c1.55-1,3.59-2.8,6.31-6.39,1.38-1.81,2.79-3.73,3.48-4.72Zm4.07-7.88c-.65,0-1.9,1-3.14,2.24s-2,2.34-1.93,2.81a.4.4,0,0,0,.45.35,5.9,5.9,0,0,0,2.9-1.67c1.11-1,2.35-2.52,2.38-3.09s-.24-.64-.62-.64Z" fill="#a77c2c"/><path d="M37.06,33.45c-.24.25-.45.46-.69.67s-.38.28-.45.21.1-.28.24-.43a13.77,13.77,0,0,1,1.14-1c.38-.25,1-.71,1.73-1.1a7.56,7.56,0,0,1,2.9-1c.17,0,.45,0,.52.14s-.24.14-.38.21a8.54,8.54,0,0,0-2.48,2,7.51,7.51,0,0,0-2,3.12c0,.35.1.6.48.6.76,0,2.14-1,3.21-2.17a3,3,0,0,1,.62-1.49,2.83,2.83,0,0,1,1.1-.92,2.82,2.82,0,0,0,.1-.89c-.07-.35-.17-.46,0-.5s.34.07.48.21A1.38,1.38,0,0,1,44,32.39a5.67,5.67,0,0,1-2,2.88,1.34,1.34,0,0,0,.65,0,2.73,2.73,0,0,0,1.17-.6c.45-.32.86-.75,1.21-1,.14-.14.34-.32.41-.21s-.07.25-.28.46A9.49,9.49,0,0,1,44,34.94a3.26,3.26,0,0,1-1.31.64,1.39,1.39,0,0,1-.93-.07,7.34,7.34,0,0,1-3.93,1.74c-1.07,0-1.76-.57-1.69-1.56a4.25,4.25,0,0,1,1-2.2Z" fill="#a77c2c"/><path d="M46.48,32.64c-.48.5-1,1-1.31,1.28s-.31.21-.38.11.07-.21.24-.39c.66-.6,1.41-1.31,2.24-2,.38-.57,1.79-2.38,2.62-3.44A54.54,54.54,0,0,1,58.11,20c4.28-3.3,8.52-5.61,13.66-5.75,5.42-.14,9,2.7,8.76,6.43,0,.75-.41,1.39-.55,1.31s.24-.43.24-1.31c.07-3.2-2.72-5.64-9-5.4A18.57,18.57,0,0,0,60,19.18c-3.14,2.27-6.42,6.14-9.73,10.69a37.8,37.8,0,0,0-3.45,5.4c-.14.21-.34.78-.1,1s.76,0,1.07-.21a7.34,7.34,0,0,0,1.35-1,19.09,19.09,0,0,0,1.66-1.46c.17-.11.35-.32.45-.21s-.17.35-.28.46a25.93,25.93,0,0,1-2.07,1.85,5.65,5.65,0,0,1-3.1,1.42c-.69,0-1.1-.32-1.07-1,0-.85.93-2.27,1.83-3.51Z" fill="#a77c2c"/><path d="M55.8,37.15c-.62,0-.93-.32-1-.75a2,2,0,0,1,.48-1.28h0a7.41,7.41,0,0,1-3.8,2c-.76,0-1.52-.25-1.42-1.42a4,4,0,0,1,1-1.92h0l-.31.32c-.17.14-.38.28-.45.21s.1-.28.24-.43a13.52,13.52,0,0,1,1.14-1,12.9,12.9,0,0,1,1.73-1.1,6.07,6.07,0,0,1,3.45-1,.92.92,0,0,1,.79,1.1h0A67.08,67.08,0,0,1,62,26.35,53.43,53.43,0,0,1,66.08,22a1.75,1.75,0,0,1,1.28-.6c.34,0,.48.07.52.25-.93.92-2.66,2.91-3.93,4.4s-2.31,2.8-4.31,5.43c-1.07,1.42-2.52,3.52-2.83,4.08-.24.39-.28.68-.14.78s.69,0,1-.21a13.34,13.34,0,0,0,1.34-1c.73-.6,1.28-1.06,1.66-1.46.17-.11.38-.32.45-.25s-.17.39-.28.5a22.06,22.06,0,0,1-2.07,1.85,5.35,5.35,0,0,1-3,1.42ZM52,36.61a6,6,0,0,0,2.86-1.67c1.11-1,2.35-2.52,2.38-3.09s-.24-.64-.62-.64c-.69,0-1.93,1-3.17,2.24s-2,2.34-1.93,2.81a.4.4,0,0,0,.45.35Z" fill="#a77c2c"/><path d="M73.32,37.15c-.66,0-1-.39-1-.92a6,6,0,0,1,1.45-2.49c.52-.64,1-1.24,1.45-1.74.14-.18.21-.39,0-.5s-.66.11-.9.21a17.23,17.23,0,0,0-2.69,1.81c-1.52,1.21-2.35,2-3.86,3.23a1.22,1.22,0,0,1-.9.32c-.55,0-.66-.11-.45-.57a19.73,19.73,0,0,1,1.79-2.77c.59-.71,1-1.06,1.48-1.74.14-.18.1-.46,0-.5s-.62.11-.86.21a16.52,16.52,0,0,0-2.69,1.81c-1.52,1.21-2.35,2-3.86,3.23a1.23,1.23,0,0,1-.9.32c-.48,0-.72-.07-.45-.57a15.87,15.87,0,0,1,1.52-2.38c.55-.75.83-1.1,1.42-1.85.21-.25.31-.5.21-.6s-.35-.07-.52,0a7.34,7.34,0,0,0-1.35,1c-.52.46-1.07,1-1.59,1.46-.17.14-.38.28-.45.21s.1-.32.24-.43c.48-.5,1.28-1.24,2-1.85a4.26,4.26,0,0,1,2.42-1.21.79.79,0,0,1,.86.82,3.3,3.3,0,0,1-.72,1.49c-.52.71-1.1,1.49-1.48,2.06l.1,0c.83-.71,1.76-1.56,3-2.49s2.73-1.92,3.73-1.92,1.21.43,1.1,1a6.61,6.61,0,0,1-1.34,2c-.52.68-.72.89-1,1.31l.1,0c.83-.71,1.76-1.56,3-2.49s2.76-1.92,3.76-1.92c.76,0,1.17.35,1.07,1A6,6,0,0,1,75.5,34a13.71,13.71,0,0,0-1.14,1.53c-.28.43-.28.68-.14.78s.55,0,.86-.11a10.5,10.5,0,0,0,1.62-1.1c.52-.43,1.24-1.06,1.65-1.46.17-.11.38-.32.45-.21s-.17.35-.28.46a17.49,17.49,0,0,1-2.1,1.85,5.43,5.43,0,0,1-3.07,1.42Z" fill="#a77c2c"/><path d="M81.15,31.82a15.62,15.62,0,0,0-1.38,1c-.48.43-.93.78-1.52,1.35-.14.11-.28.21-.34.14s0-.25.17-.43,1.83-1.63,2.66-2.2a3.06,3.06,0,0,1,2-.78c.73,0,.83.11.38.57-.62.71-1.14,1.42-1.83,2.27A17.85,17.85,0,0,0,80,35.51c-.21.39-.24.68-.1.78s.52,0,.83-.11a7.71,7.71,0,0,0,1.52-1.1c.73-.6,1.28-1.06,1.65-1.46.18-.11.38-.32.48-.21s-.17.35-.28.46a23.72,23.72,0,0,1-2.07,1.85,5.39,5.39,0,0,1-3,1.46c-.72,0-1.07-.39-1-.92a2.62,2.62,0,0,1,.52-1.35,18.7,18.7,0,0,1,2.59-3.05ZM86,26.14c.45,0,.65.39.24.92a2.64,2.64,0,0,1-1.62,1,1.4,1.4,0,0,1,0-1.21c.24-.53.72-.67,1.38-.67Z" fill="#a77c2c"/><path d="M91,37.15c-.66,0-1.07-.39-1-.92a6,6,0,0,1,1.45-2.49c.52-.64,1-1.24,1.45-1.74.14-.18.21-.39,0-.5s-.66.11-.9.21a17.14,17.14,0,0,0-2.69,1.81c-1.52,1.21-2.35,2-3.86,3.23a1.23,1.23,0,0,1-.9.32c-.48,0-.73-.07-.45-.57a15.93,15.93,0,0,1,1.52-2.38c.55-.75.83-1.1,1.41-1.85.21-.25.31-.5.21-.6s-.35-.07-.52,0a7.27,7.27,0,0,0-1.34,1c-.52.46-1.07,1-1.59,1.46-.17.14-.34.28-.45.21s.11-.32.24-.43a26.71,26.71,0,0,1,2-1.85A4.43,4.43,0,0,1,88,30.86a.79.79,0,0,1,.86.82,3.3,3.3,0,0,1-.72,1.49c-.52.71-1.1,1.49-1.48,2.06l.1,0c.83-.71,1.76-1.56,3-2.49s2.72-1.92,3.76-1.92c.73,0,1.17.35,1.07,1A6,6,0,0,1,93.19,34a13.79,13.79,0,0,0-1.14,1.53c-.28.43-.28.68-.14.78s.55,0,.83-.11a9.11,9.11,0,0,0,1.66-1.1c.55-.43,1.28-1.1,1.69-1.49.17-.14.34-.28.45-.18s-.21.35-.31.46a26.56,26.56,0,0,1-2.11,1.85,5.65,5.65,0,0,1-3.07,1.42Z" fill="#a77c2c"/><path d="M101.68,30.86a.93.93,0,0,1,1,.92c-.07.92-1.18,1.63-2.21,2.17a18.14,18.14,0,0,1-3,1.14,2.48,2.48,0,0,0-.21.78.76.76,0,0,0,.79.82,6,6,0,0,0,3.14-1.28,15.43,15.43,0,0,0,2.21-1.81c.14-.14.35-.32.45-.21s-.17.39-.28.5a19.51,19.51,0,0,1-2.17,1.85,7.53,7.53,0,0,1-4,1.53c-1.27,0-1.93-.57-1.9-1.46a4.07,4.07,0,0,1,.83-2h0l-.28.29c-.17.14-.38.28-.45.21s.1-.28.24-.43a14,14,0,0,1,1.14-1c.34-.21,1-.71,1.66-1.06a7.3,7.3,0,0,1,3.07-1Zm-4,3.87a9.4,9.4,0,0,0,2.38-1.1,3,3,0,0,0,1.42-1.84c.07-.32-.1-.46-.41-.46a3.31,3.31,0,0,0-1.52,1,14.36,14.36,0,0,0-1.86,2.41Z" fill="#a77c2c"/><path d="M109.27,31.82c0,.46-.79,1.21-1.59,2.13a10.59,10.59,0,0,0-1.17,1.67c-.17.32-.14.57,0,.67s.48,0,.76-.14a10.78,10.78,0,0,0,1.55-1.07c.76-.6,1.24-1,1.69-1.46.1-.14.34-.32.41-.25s-.17.39-.28.5a21.83,21.83,0,0,1-2.07,1.85,5.65,5.65,0,0,1-3.07,1.42c-.73,0-1.1-.39-1.07-.92a4.94,4.94,0,0,1,1.66-2.52c.83-.82,2.14-1.77,2.25-2s-.52-.32-1.38-.28a1.62,1.62,0,0,1-.79-.07c-.28.32-.83.85-1.31,1.35s-1.14,1.1-1.52,1.46-.38.25-.45.18.1-.28.24-.39c.45-.43.93-.89,1.52-1.49s1-1,1.24-1.24a.75.75,0,0,1,0-1.14,1.67,1.67,0,0,1,1.31-.6.65.65,0,0,1,.62.36,3.94,3.94,0,0,0-.59.5c-.45.53-.34.75.1.78,1,0,2,.07,2,.71Z" fill="#a77c2c"/><path d="M115.69,24.58a.9.9,0,0,1-.24.5,11.08,11.08,0,0,1-2.73,2.31c-.17.11-.34.21-.38.18s.07-.18.24-.39a6.18,6.18,0,0,0,1.14-1.53c.17-.32,0-.43.1-.75s.76-.6,1.41-.67c.28,0,.45.07.45.32Z" fill="#a77c2c"/><path d="M116.48,36.22a11.38,11.38,0,0,0,1.52-.85,18.37,18.37,0,0,0,2.28-1.74c.14-.14.34-.32.45-.21s-.17.35-.28.46a19.52,19.52,0,0,1-1.86,1.53,12.29,12.29,0,0,1-2.17,1.21,8,8,0,0,1-2.9.64c-1.45,0-2-.64-2.21-1.31-.38.35-.79.75-1,1s-.52.64-.62.53.14-.46.34-.71a10.8,10.8,0,0,1,1.24-1.24,1.43,1.43,0,0,1,0-.39,2,2,0,0,1,1.86-1.81.54.54,0,0,1,.45.32c.24-.18.62-.43.89-.64a25.82,25.82,0,0,0,3.11-2.45,2.19,2.19,0,0,1,.55-.6,1.56,1.56,0,0,1,1-.39c.79,0,.35.39-.17.75a7.32,7.32,0,0,0-.83.53c-.27.28-.24.57-.24,1a6.51,6.51,0,0,1-.31,2.91,3.83,3.83,0,0,1-1.1,1.46Zm.76-4.9a20.73,20.73,0,0,1-2.31,1.81c-.31.21-.93.64-1.28.85,0,.35-.24.67-.73,1a1.36,1.36,0,0,0-.62,1c0,.57.38.89,1,.89s1.55-.57,2.31-1.92c.55-.92,1.24-3.16,1.62-3.62Z" fill="#a77c2c"/><path d="M38.16,52.71a67.08,67.08,0,0,1,4.35-5.61c1.21-1.46,3.61-4.21,5.09-5.63a1.74,1.74,0,0,1,1.28-.6c.35,0,.48.07.52.25-.93.92-3.64,4.14-4.92,5.63s-2.31,2.8-4.31,5.43c-1.07,1.42-2.52,3.52-2.83,4.08-.24.39-.28.68-.14.78s.69,0,1-.21a13.26,13.26,0,0,0,1.35-1c.73-.6,1.28-1.07,1.66-1.46.17-.11.38-.32.45-.25s-.17.39-.28.5a22.27,22.27,0,0,1-2.07,1.85,5.34,5.34,0,0,1-3,1.42c-.66,0-1-.32-1-.75a2,2,0,0,1,.48-1.28h0a7.39,7.39,0,0,1-3.79,2c-.76,0-1.52-.25-1.41-1.42.1-.85.79-2.09,2.48-3.37,1.14-.82,3-1.67,4.24-1.49a.94.94,0,0,1,.79,1.1Zm-1-.75c-.65,0-1.9,1-3.14,2.24s-2,2.34-1.93,2.8a.4.4,0,0,0,.45.36,5.89,5.89,0,0,0,2.9-1.67c1.1-1,2.34-2.52,2.38-3.09S37.58,52,37.2,52Z" fill="#a77c2c"/><path d="M48,53c.79-.89,1.38-1.35,1.93-1.35.72,0,.79.14.45.57s-1.21,1.42-1.93,2.34a10,10,0,0,0-1.21,1.74c-.28.43-.24.71-.1.82s.52,0,.79-.14a9.11,9.11,0,0,0,1.55-1.1c.73-.6,1.28-1.1,1.66-1.46.17-.14.34-.36.45-.25s-.17.39-.28.5a23.33,23.33,0,0,1-2.07,1.85,5.23,5.23,0,0,1-3,1.42c-.66,0-1-.32-1-.75a2,2,0,0,1,.48-1.28h0a7.38,7.38,0,0,1-3.79,2c-.76,0-1.52-.25-1.41-1.42a4,4,0,0,1,1-1.92h0l-.31.32c-.17.14-.38.28-.45.21s.1-.28.24-.43a13,13,0,0,1,1.14-1,17.38,17.38,0,0,1,1.72-1.1,6.29,6.29,0,0,1,3.45-1A1,1,0,0,1,48,53Zm-.93-1c-.65,0-1.9,1-3.14,2.24S42,56.55,42,57a.4.4,0,0,0,.45.36,5.88,5.88,0,0,0,2.9-1.67c1.11-1,2.35-2.52,2.38-3.09s-.24-.64-.62-.64Z" fill="#a77c2c"/><path d="M53.93,52.57a14.93,14.93,0,0,0-1.38,1c-.48.43-.93.78-1.52,1.35-.14.11-.28.21-.35.14s0-.25.17-.39a31.58,31.58,0,0,1,2.66-2.24,3.25,3.25,0,0,1,2-.78c.72,0,.79.11.38.57s-1.11,1.35-1.79,2.2a14.64,14.64,0,0,0-1.28,1.92c-.14.28-.17.5-.07.6s.45.11.79,0a24.53,24.53,0,0,0,2.62-1.85c1.55-1.17,2.62-2.2,3.73-3.09a1.38,1.38,0,0,1,1-.39c.59,0,.93.07.52.57-.62.78-1.14,1.35-1.83,2.27a13.64,13.64,0,0,0-1.28,1.81c-.24.39-.21.68-.1.78a1,1,0,0,0,.79-.11,9.08,9.08,0,0,0,1.55-1.1c.69-.57,1.28-1.07,1.66-1.46.17-.11.38-.32.45-.21s-.17.35-.28.46a20.64,20.64,0,0,1-2.07,1.85,5.24,5.24,0,0,1-3,1.42c-.69,0-1.07-.32-1.07-.85a2.9,2.9,0,0,1,.55-1.45A14.06,14.06,0,0,1,58.17,54L58.11,54c-.72.64-1.69,1.38-2.45,2-1.41,1.1-2.66,2-3.69,2-.72,0-1.17-.36-1.14-1a3.48,3.48,0,0,1,.59-1.35,20.75,20.75,0,0,1,2.52-2.95Z" fill="#a77c2c"/><path d="M62.42,54.63c-.1.11-.17.14-.28.25s-.35.28-.41.21.07-.28.24-.43a13.72,13.72,0,0,1,1.14-1c.35-.21,1-.68,1.59-1a6.45,6.45,0,0,1,3.56-1.07A1,1,0,0,1,69,52.82h0c.76-.89,1.17-1.21,1.72-1.21s.79.14.45.53c-.62.78-1.55,2-2.21,2.88-1.59,2.2-2.76,4-4.38,6.25a31.68,31.68,0,0,1-9.73,8.84,21,21,0,0,1-10.39,3.23c-6.07,0-11.42-3.44-11.73-9a4.93,4.93,0,0,1,.65-3c.1-.14.24-.25.28-.18s0,.14,0,.25a5.42,5.42,0,0,0-.55,2.88c.41,5.33,5.49,8,11.25,8a19.74,19.74,0,0,0,10.32-2.52c2.9-1.7,5.21-4.54,7.59-7.74,1.17-1.6,3-4.15,4.31-6v0c-.9.75-2.35,1.85-3.62,1.92-.79,0-1.55-.25-1.45-1.42a3.46,3.46,0,0,1,.86-1.81Zm1.07,2.73a6,6,0,0,0,2.9-1.67,9.31,9.31,0,0,0,2.38-3.09c0-.46-.24-.64-.62-.64-.69,0-1.93,1-3.21,2.24S63,56.55,63,57a.39.39,0,0,0,.42.36Z" fill="#a77c2c"/><path d="M71.94,56c.93-.78,1.83-1.56,3-2.49s2.66-1.92,3.66-1.92c.76,0,1.17.28,1.1,1a5.7,5.7,0,0,1-1.31,2.17,13.89,13.89,0,0,0-1,1.53c-.24.39-.21.68-.1.78a1,1,0,0,0,.79-.11,9.11,9.11,0,0,0,1.55-1.1c.73-.6,1.29-1,1.67-1.44.14-.14.33-.34.46-.2s-.2.33-.31.43a22.53,22.53,0,0,1-2.07,1.85,5.34,5.34,0,0,1-3,1.42c-.69,0-1.1-.39-1.07-.92a5.46,5.46,0,0,1,1.38-2.49c.48-.64,1-1.24,1.38-1.74a.3.3,0,0,0,0-.46c-.21-.11-.62.07-.86.18a15.65,15.65,0,0,0-2.62,1.81c-1.52,1.24-2.35,2-3.83,3.23a1.23,1.23,0,0,1-.9.32c-.52,0-.73-.07-.48-.57a17.35,17.35,0,0,1,1.41-2.38c.31-.46,2.86-3.91,3.38-4.58v0a4.08,4.08,0,0,1-1.79.18c-2-.11-2.76-1.28-2.76-2.41a2.16,2.16,0,0,1,.76-1.74c.07-.07.21-.14.21-.11s0,.07-.1.21A2,2,0,0,0,69.9,48,2.6,2.6,0,0,0,72.42,50a4.7,4.7,0,0,0,2-.14c.73-.89,1.41-1.81,2.1-2.63a33.26,33.26,0,0,1,7.35-7.13,7.53,7.53,0,0,1,3.76-1.53A1.6,1.6,0,0,1,89.4,40c0,1.6-1.57,3-5.33,5.69a35,35,0,0,1-8,4.26c-1.41,1.74-3.38,4.79-4.21,6Zm4.42-6.57A31.75,31.75,0,0,0,85,44.3c3-2.56,3-3.44,3-4.54a.65.65,0,0,0-.59-.71,4,4,0,0,0-2.76,1.07,23.92,23.92,0,0,0-4,4c-1.45,1.67-2.86,3.41-4.38,5.29Z" fill="#a77c2c"/><path d="M82.77,53.39c-.52.5-1.28,1.21-1.62,1.53-.14.14-.34.25-.41.18s.1-.32.24-.43c.93-.85,2.52-2.31,2.76-2.59S84.95,50.66,85.5,50c-1.76,0-4.07-.11-5.24-.14-.28,0-.59,0-.59-.21s.35-.25,1-.25c1.52,0,3.55-.07,5.35-.11,1.14-1.35,2.35-2.7,3.25-3.55a2.56,2.56,0,0,1,1.62-.82c.28,0,.38.11.41.21-.79.82-2.66,2.91-3.66,4.15,3,0,7.18.07,9.59.14.24,0,.55.07.52.21s-.35.18-.59.18c-3.73.07-7,.11-10.11.18A47.68,47.68,0,0,0,83,56c-.17.39-.28.85,0,1s.55,0,.83-.14a11,11,0,0,0,1.55-1.06c.62-.5,1.28-1.1,1.69-1.46.14-.14.35-.32.42-.21s-.17.35-.28.46a20.6,20.6,0,0,1-2.07,1.85,5.48,5.48,0,0,1-3.17,1.45c-.79,0-1.07-.46-1-1a9.25,9.25,0,0,1,1.86-3.52Z" fill="#a77c2c"/><path d="M92.64,51.61a.93.93,0,0,1,1,.92c-.07.92-1.17,1.63-2.21,2.17a18.25,18.25,0,0,1-3,1.14,2.44,2.44,0,0,0-.21.78.75.75,0,0,0,.8.82,6,6,0,0,0,3.14-1.28,15.45,15.45,0,0,0,2.21-1.81c.14-.14.35-.32.45-.21s-.17.39-.28.5a19.34,19.34,0,0,1-2.17,1.85,7.53,7.53,0,0,1-4,1.53c-1.28,0-1.93-.57-1.9-1.46a4.06,4.06,0,0,1,.83-2h0l-.28.28c-.17.14-.38.28-.45.21s.11-.28.24-.43a14.06,14.06,0,0,1,1.14-1c.35-.21,1-.71,1.66-1.07a7.32,7.32,0,0,1,3.07-1Zm-4,3.87A9.42,9.42,0,0,0,91,54.38a3,3,0,0,0,1.41-1.85c.07-.32-.1-.46-.41-.46a3.33,3.33,0,0,0-1.52,1,14.34,14.34,0,0,0-1.86,2.41Z" fill="#a77c2c"/><path d="M100.23,52.57c0,.46-.79,1.21-1.59,2.13a10.74,10.74,0,0,0-1.17,1.67c-.17.32-.14.57,0,.67s.48,0,.76-.14a10.85,10.85,0,0,0,1.55-1.06c.76-.6,1.24-1,1.69-1.46.1-.14.34-.32.41-.25s-.17.39-.28.5a22.46,22.46,0,0,1-2.07,1.85,5.66,5.66,0,0,1-3.07,1.42c-.72,0-1.1-.39-1.07-.92A4.93,4.93,0,0,1,97,54.45c.83-.82,2.14-1.78,2.24-2s-.52-.32-1.38-.28a1.6,1.6,0,0,1-.79-.07c-.28.32-.83.85-1.31,1.35s-1.14,1.1-1.52,1.46-.38.25-.45.18.1-.28.24-.39c.45-.43.93-.89,1.52-1.49s1-1,1.24-1.24a.74.74,0,0,1,0-1.14,1.66,1.66,0,0,1,1.31-.6.65.65,0,0,1,.62.35,4.05,4.05,0,0,0-.59.5c-.45.53-.34.75.1.78,1,0,2,.07,2,.71Z" fill="#a77c2c"/></g></g></svg>