<?xml version="1.0" encoding="utf-8"?>
<!-- Generator: Adobe Illustrator 21.1.0, SVG Export Plug-In . SVG Version: 6.00 Build 0)  -->
<svg version="1.1" id="Layer_1" xmlns="http://www.w3.org/2000/svg" xmlns:xlink="http://www.w3.org/1999/xlink" x="0px" y="0px"
	 viewBox="0 0 304 145.6" style="enable-background:new 0 0 304 145.6;" xml:space="preserve">
<style type="text/css">
	.st0{fill:#7DA9BE;}
	.st1{fill:none;}
	.st2{fill:#89B09E;}
</style>
<title>vast-branding</title>
<path class="st0" d="M74.1,47.5c12.6,3.8,28.1,3.1,41.8-1.3c12.9-4.1,24.9-19.3,36.9-24.6s28.3,2.2,25.1,8.2s-10.3,2.9-10.3,2.9
	c2.3,3.6,10.8,2.8,13.3-2.4c2.6-5.4-5.8-14.8-24.1-12.3c-16.8,2.2-27.1,21.1-48,27.6C93.1,50.5,74.8,47.3,74.1,47.5"/>
<path class="st0" d="M165.6,45.9c-10.7-3.2-10.9-14.5,0.5-16.5c-3.9-1.8-16.2,2.9-12.5,11.4c4.2,9.7,22.4,9.3,31.1,8.8
	c9-0.6,32.1-3.6,45.5,0.6c-3.5-2.1-8.2-3.1-13.1-3.7C204.8,44.9,177.6,49.6,165.6,45.9"/>
<rect x="36.7" y="17.6" class="st1" width="230.6" height="110.4"/>
<polygon class="st2" points="72,72.8 56.2,118.4 56,118.4 40.1,72.8 36.7,72.8 56,128 75.4,72.8 "/>
<polygon class="st2" points="102.7,126.8 106.1,126.8 123.2,81.1 123.3,81.1 140.4,126.8 143.8,126.8 123.4,71.5 "/>
<path class="st2" d="M199.9,81.6c-2.2-3.9-6.3-6.4-10.9-6.3c-5.6,0-10.1,4.5-10.1,10c0,0.1,0,0.1,0,0.2c0,5.6,5.3,7.9,9.7,10
	l10.2,5.3c4,2.6,6.1,5.8,6.1,10.6c0,8.9-8.1,15.5-16.8,15.5c-7.4,0-13.3-4.6-15.7-11.5l3-1.3c2.3,5.7,6.4,9.7,12.9,9.7
	c7,0,13.2-5.5,13.2-12.6c0-6-6.2-8.6-10.8-10.9l-9.7-5.2c-3.5-1.9-5.6-5.6-5.5-9.6c0-7.9,5.7-13.5,13.7-13.5
	c5.4,0,10.4,2.8,13.1,7.5L199.9,81.6z"/>
<rect x="36.7" y="17.6" class="st1" width="230.6" height="110.4"/>
<polygon class="st2" points="236.2,72.8 236.2,76 250.1,76 250.1,126.2 253.5,126.2 253.5,76 267.3,76 267.3,72.8 "/>
</svg>
